M48
; DRILL file {KiCad (6.0.1)} date Mon Apr  4 10:53:39 2022
; FORMAT={-:-/ absolute / inch / decimal}
; #@! TF.CreationDate,2022-04-04T10:53:39-04:00
; #@! TF.GenerationSoftware,Kicad,Pcbnew,(6.0.1)
; #@! TF.FileFunction,Plated,1,2,PTH
FMAT,2
INCH
; #@! TA.AperFunction,Plated,PTH,ViaDrill
T1C0.0118
; #@! TA.AperFunction,Plated,PTH,ComponentDrill
T2C0.0236
; #@! TA.AperFunction,Plated,PTH,ComponentDrill
T3C0.0315
; #@! TA.AperFunction,Plated,PTH,ComponentDrill
T4C0.0374
; #@! TA.AperFunction,Plated,PTH,ComponentDrill
T5C0.0394
; #@! TA.AperFunction,Plated,PTH,ComponentDrill
T6C0.0512
; #@! TA.AperFunction,Plated,PTH,ComponentDrill
T7C0.0591
; #@! TA.AperFunction,Plated,PTH,ComponentDrill
T8C0.0701
; #@! TA.AperFunction,Plated,PTH,ComponentDrill
T9C0.0709
; #@! TA.AperFunction,Plated,PTH,ViaDrill
T10C0.1181
%
G90
G05
T1
X4.04Y-4.324
X4.05Y-4.6952
X4.07Y-4.304
X4.1173Y-3.4489
X4.1204Y-4.875
X4.122Y-4.789
X4.1251Y-5.127
X4.128Y-5.679
X4.13Y-4.627
X4.133Y-5.575
X4.1343Y-4.9901
X4.135Y-5.612
X4.135Y-2.7729
X4.1353Y-2.5499
X4.136Y-4.366
X4.1374Y-5.1797
X4.145Y-5.299
X4.147Y-4.767
X4.1483Y-3.5749
X4.1543Y-3.4939
X4.156Y-5.015
X4.1593Y-3.6009
X4.1647Y-3.2599
X4.1683Y-3.4299
X4.179Y-5.569
X4.183Y-5.039
X4.185Y-4.552
X4.198Y-4.919
X4.203Y-4.852
X4.208Y-5.067
X4.226Y-4.568
X4.2323Y-4.7125
X4.239Y-5.353
X4.246Y-4.895
X4.247Y-4.966
X4.2533Y-2.7889
X4.2653Y-3.0229
X4.27Y-5.347
X4.2716Y-2.9881
X4.275Y-5.431
X4.2778Y-3.4294
X4.2833Y-2.6259
X4.286Y-4.868
X4.2986Y-3.1089
X4.304Y-5.837
X4.3083Y-3.5559
X4.3148Y-3.1483
X4.323Y-5.658
X4.3307Y-3.2219
X4.3343Y-3.3669
X4.34Y-4.904
X4.3522Y-3.092
X4.355Y-5.774
X4.3562Y-3.0617
X4.3681Y-5.3962
X4.3693Y-2.6839
X4.3721Y-5.3659
X4.3843Y-3.5539
X4.39Y-5.091
X4.3936Y-5.236
X4.4013Y-2.7999
X4.4095Y-5.3095
X4.416Y-4.902
X4.4203Y-2.6209
X4.4257Y-5.3489
X4.4383Y-3.5899
X4.441Y-5.832
X4.4465Y-5.0285
X4.4493Y-3.0269
X4.4527Y-5.4697
X4.4543Y-3.1109
X4.459Y-5.435
X4.471Y-5.669
X4.4773Y-3.4919
X4.4783Y-3.5629
X4.4853Y-3.1049
X4.492Y-3.7454
X4.4983Y-3.8899
X4.5163Y-3.3909
X4.5213Y-3.6059
X4.5263Y-3.5389
X4.5393Y-3.9059
X4.5413Y-3.4189
X4.5453Y-2.8889
X4.556Y-5.028
X4.5596Y-5.198
X4.565Y-4.857
X4.5683Y-3.4429
X4.57Y-4.964
X4.576Y-4.883
X4.5773Y-3.6909
X4.5793Y-3.1589
X4.5869Y-3.2782
X4.5883Y-4.0919
X4.589Y-5.908
X4.5893Y-5.685
X4.5893Y-2.8459
X4.59Y-3.4678
X4.5913Y-2.8829
X4.5943Y-3.8309
X4.5963Y-2.7789
X4.5991Y-3.3309
X4.6023Y-3.6689
X4.6039Y-3.5829
X4.607Y-5.009
X4.6543Y-4.1539
X4.6742Y-3.7627
X4.6843Y-4.1339
X5.1457Y-2.4945
X5.411Y-5.319
X5.978Y-5.339
X6.5598Y-4.3269
X6.5699Y-4.6981
X6.5898Y-4.3069
X6.6371Y-3.4518
X6.6402Y-4.8779
X6.6418Y-4.7919
X6.645Y-5.1299
X6.6478Y-5.6819
X6.6498Y-4.6299
X6.6528Y-5.5779
X6.6541Y-4.993
X6.6548Y-5.6149
X6.6548Y-2.7758
X6.6551Y-2.5528
X6.6558Y-4.3689
X6.6572Y-5.1826
X6.6648Y-5.3019
X6.6668Y-4.7699
X6.6681Y-3.5778
X6.6741Y-3.4968
X6.6758Y-5.0179
X6.6791Y-3.6038
X6.6845Y-3.2628
X6.6881Y-3.4328
X6.6988Y-5.5719
X6.7028Y-5.0419
X6.7048Y-4.5549
X6.7178Y-4.9219
X6.7228Y-4.8549
X6.7278Y-5.0699
X6.7458Y-4.5709
X6.7521Y-4.7154
X6.7588Y-5.3559
X6.7658Y-4.8979
X6.7668Y-4.9689
X6.7731Y-2.7918
X6.7851Y-3.0258
X6.7898Y-5.3499
X6.7914Y-2.9911
X6.7948Y-5.4339
X6.7976Y-3.4323
X6.8031Y-2.6288
X6.8058Y-4.8709
X6.8184Y-3.1118
X6.8238Y-5.8399
X6.8281Y-3.5588
X6.8346Y-3.1512
X6.8428Y-5.6609
X6.8505Y-3.2248
X6.8541Y-3.3698
X6.8598Y-4.9069
X6.872Y-3.0949
X6.8748Y-5.7769
X6.876Y-3.0646
X6.8879Y-5.3991
X6.8891Y-2.6868
X6.8919Y-5.3688
X6.9041Y-3.5568
X6.9098Y-5.0939
X6.9134Y-5.2389
X6.9211Y-2.8028
X6.9293Y-5.3124
X6.9358Y-4.9049
X6.9401Y-2.6238
X6.9455Y-5.3518
X6.9581Y-3.5928
X6.9608Y-5.8349
X6.9663Y-5.0314
X6.9691Y-3.0298
X6.9725Y-5.4726
X6.9741Y-3.1138
X6.9788Y-5.4379
X6.9908Y-5.6719
X6.9971Y-3.4948
X6.9981Y-3.5658
X7.0051Y-3.1078
X7.0118Y-3.7483
X7.0181Y-3.8928
X7.0361Y-3.3938
X7.0411Y-3.6088
X7.0461Y-3.5418
X7.0591Y-3.9088
X7.0611Y-3.4218
X7.0651Y-2.8918
X7.0758Y-5.0309
X7.0794Y-5.2009
X7.0848Y-4.8599
X7.0881Y-3.4458
X7.0898Y-4.9669
X7.0958Y-4.8859
X7.0971Y-3.6938
X7.0991Y-3.1618
X7.1067Y-3.2811
X7.1081Y-4.0948
X7.1088Y-5.9109
X7.1091Y-5.6879
X7.1091Y-2.8488
X7.1098Y-3.4707
X7.1111Y-2.8858
X7.1141Y-3.8338
X7.1161Y-2.7818
X7.119Y-3.3338
X7.1221Y-3.6718
X7.1237Y-3.5858
X7.1268Y-5.0119
X7.1741Y-4.1568
X7.194Y-3.7656
X7.2041Y-4.1368
X7.4622Y-2.7756
X7.4622Y-4.9646
T3
X5.2441Y-2.137
X5.2441Y-2.537
X5.378Y-2.211
X5.378Y-2.311
X5.378Y-2.411
X5.378Y-2.511
X5.678Y-2.211
X5.678Y-2.311
X5.678Y-2.411
X5.678Y-2.511
X5.811Y-2.1409
X5.811Y-2.5409
X7.4157Y-3.4409
X7.4157Y-5.6299
X7.4197Y-2.874
X7.4197Y-5.063
X7.4457Y-3.0079
X7.4457Y-3.3079
X7.4457Y-5.1969
X7.4457Y-5.4969
X7.5457Y-3.0079
X7.5457Y-3.3079
X7.5457Y-5.1969
X7.5457Y-5.4969
X7.6457Y-3.0079
X7.6457Y-3.3079
X7.6457Y-5.1969
X7.6457Y-5.4969
X7.7457Y-3.0079
X7.7457Y-3.3079
X7.7457Y-5.1969
X7.7457Y-5.4969
X7.8157Y-3.4409
X7.8157Y-5.6299
X7.8197Y-2.874
X7.8197Y-5.063
T4
X6.0786Y-3.7956
X6.177Y-3.7956
X6.2754Y-3.7956
T5
X4.062Y-4.443
X4.062Y-4.543
X4.062Y-4.643
X4.062Y-4.743
X4.062Y-4.843
X4.062Y-4.943
X4.062Y-5.043
X4.062Y-5.143
X4.062Y-5.243
X4.062Y-5.343
X4.062Y-5.443
X4.062Y-5.543
X4.062Y-5.643
X4.062Y-5.743
X4.062Y-5.843
X4.0623Y-2.6149
X4.0623Y-2.7149
X4.0623Y-2.8149
X4.0623Y-2.9149
X4.0623Y-3.0149
X4.0623Y-3.1149
X4.0623Y-3.2149
X4.0623Y-3.3149
X4.0623Y-3.4149
X4.0623Y-3.5149
X4.0623Y-3.6149
X4.0623Y-3.7149
X4.0623Y-3.8149
X4.0623Y-3.9149
X4.0623Y-4.0149
X4.257Y-4.373
X4.257Y-4.473
X4.2673Y-3.9849
X4.2673Y-4.0849
X4.357Y-4.373
X4.357Y-4.473
X4.3673Y-3.9849
X4.3673Y-4.0849
X4.457Y-4.373
X4.457Y-4.473
X4.4673Y-3.9849
X4.4673Y-4.0849
X4.662Y-4.443
X4.662Y-4.543
X4.662Y-4.643
X4.662Y-4.743
X4.662Y-4.843
X4.662Y-4.943
X4.662Y-5.043
X4.662Y-5.143
X4.662Y-5.243
X4.662Y-5.343
X4.662Y-5.443
X4.662Y-5.543
X4.662Y-5.643
X4.662Y-5.743
X4.662Y-5.843
X4.6623Y-2.6149
X4.6623Y-2.7149
X4.6623Y-2.8149
X4.6623Y-2.9149
X4.6623Y-3.0149
X4.6623Y-3.1149
X4.6623Y-3.2149
X4.6623Y-3.3149
X4.6623Y-3.4149
X4.6623Y-3.5149
X4.6623Y-3.6149
X4.6623Y-3.7149
X4.6623Y-3.8149
X4.6623Y-3.9149
X4.6623Y-4.0149
X4.9291Y-2.2921
X4.9291Y-2.3921
X4.9291Y-2.4921
X4.9424Y-3.9054
X4.9424Y-4.0054
X5.0424Y-3.9054
X5.0424Y-4.0054
X5.1424Y-3.9054
X5.1424Y-4.0054
X6.0758Y-2.2967
X6.0758Y-2.3967
X6.0758Y-2.4967
X6.121Y-5.1852
X6.121Y-5.2852
X6.5818Y-4.4459
X6.5818Y-4.5459
X6.5818Y-4.6459
X6.5818Y-4.7459
X6.5818Y-4.8459
X6.5818Y-4.9459
X6.5818Y-5.0459
X6.5818Y-5.1459
X6.5818Y-5.2459
X6.5818Y-5.3459
X6.5818Y-5.4459
X6.5818Y-5.5459
X6.5818Y-5.6459
X6.5818Y-5.7459
X6.5818Y-5.8459
X6.5821Y-2.6178
X6.5821Y-2.7178
X6.5821Y-2.8178
X6.5821Y-2.9178
X6.5821Y-3.0178
X6.5821Y-3.1178
X6.5821Y-3.2178
X6.5821Y-3.3178
X6.5821Y-3.4178
X6.5821Y-3.5178
X6.5821Y-3.6178
X6.5821Y-3.7178
X6.5821Y-3.8178
X6.5821Y-3.9178
X6.5821Y-4.0178
X6.7768Y-4.3759
X6.7768Y-4.4759
X6.7871Y-3.9878
X6.7871Y-4.0878
X6.8768Y-4.3759
X6.8768Y-4.4759
X6.8871Y-3.9878
X6.8871Y-4.0878
X6.9768Y-4.3759
X6.9768Y-4.4759
X6.9871Y-3.9878
X6.9871Y-4.0878
X7.1818Y-4.4459
X7.1818Y-4.5459
X7.1818Y-4.6459
X7.1818Y-4.7459
X7.1818Y-4.8459
X7.1818Y-4.9459
X7.1818Y-5.0459
X7.1818Y-5.1459
X7.1818Y-5.2459
X7.1818Y-5.3459
X7.1818Y-5.4459
X7.1818Y-5.5459
X7.1818Y-5.6459
X7.1818Y-5.7459
X7.1818Y-5.8459
X7.1821Y-2.6178
X7.1821Y-2.7178
X7.1821Y-2.8178
X7.1821Y-2.9178
X7.1821Y-3.0178
X7.1821Y-3.1178
X7.1821Y-3.2178
X7.1821Y-3.3178
X7.1821Y-3.4178
X7.1821Y-3.5178
X7.1821Y-3.6178
X7.1821Y-3.7178
X7.1821Y-3.8178
X7.1821Y-3.9178
X7.1821Y-4.0178
X7.46Y-3.7057
X7.46Y-5.8947
X7.4646Y-2.5591
X7.4646Y-4.748
X7.56Y-3.7057
X7.56Y-5.8947
X7.5646Y-2.5591
X7.5646Y-4.748
X7.66Y-3.7057
X7.66Y-5.8947
X7.6646Y-2.5591
X7.6646Y-4.748
T6
X5.3918Y-5.77
X5.5918Y-5.77
X5.8358Y-5.77
X6.0358Y-5.77
T7
X5.024Y-4.9099
X5.024Y-5.532
X5.15Y-4.9099
X5.15Y-5.532
T8
X5.4897Y-4.9
X5.4897Y-5.0339
X5.8803Y-4.9
X5.8803Y-5.0339
T9
X5.087Y-5.0359
X5.087Y-5.221
X5.087Y-5.406
T10
X5.063Y-2.3606
X5.937Y-2.4315
X7.5252Y-3.5669
X7.5252Y-5.7559
X7.5961Y-2.6929
X7.5961Y-4.8819
T2
G00X4.1882Y-2.5284
M15
G01X4.1882Y-2.5599
M16
G05
G00X4.1882Y-2.6866
M15
G01X4.1882Y-2.7299
M16
G05
G00X4.1959Y-5.7712
M15
G01X4.1959Y-5.7279
M16
G05
G00X4.1959Y-5.9295
M15
G01X4.1959Y-5.898
M16
G05
G00X4.5284Y-2.5284
M15
G01X4.5284Y-2.5599
M16
G05
G00X4.5284Y-2.6866
M15
G01X4.5284Y-2.7299
M16
G05
G00X4.5361Y-5.7712
M15
G01X4.5361Y-5.7279
M16
G05
G00X4.5361Y-5.9295
M15
G01X4.5361Y-5.898
M16
G05
G00X6.708Y-2.5313
M15
G01X6.708Y-2.5628
M16
G05
G00X6.708Y-2.6895
M15
G01X6.708Y-2.7328
M16
G05
G00X6.7157Y-5.7741
M15
G01X6.7157Y-5.7308
M16
G05
G00X6.7157Y-5.9324
M15
G01X6.7157Y-5.9009
M16
G05
G00X7.0482Y-2.5313
M15
G01X7.0482Y-2.5628
M16
G05
G00X7.0482Y-2.6895
M15
G01X7.0482Y-2.7328
M16
G05
G00X7.0559Y-5.7741
M15
G01X7.0559Y-5.7308
M16
G05
G00X7.0559Y-5.9324
M15
G01X7.0559Y-5.9009
M16
G05
T0
M30
