%TF.GenerationSoftware,KiCad,Pcbnew,(6.0.1)*%
%TF.CreationDate,2022-04-04T10:53:51-04:00*%
%TF.ProjectId,arduino_usb_c,61726475-696e-46f5-9f75-73625f632e6b,rev?*%
%TF.SameCoordinates,Original*%
%TF.FileFunction,Legend,Bot*%
%TF.FilePolarity,Positive*%
%FSLAX46Y46*%
G04 Gerber Fmt 4.6, Leading zero omitted, Abs format (unit mm)*
G04 Created by KiCad (PCBNEW (6.0.1)) date 2022-04-04 10:53:51*
%MOMM*%
%LPD*%
G01*
G04 APERTURE LIST*
%ADD10C,0.150000*%
%ADD11C,0.120000*%
G04 APERTURE END LIST*
D10*
%TO.C,C5*%
X107001092Y-82735333D02*
X107048711Y-82687714D01*
X107096330Y-82544857D01*
X107096330Y-82449619D01*
X107048711Y-82306761D01*
X106953473Y-82211523D01*
X106858235Y-82163904D01*
X106667759Y-82116285D01*
X106524902Y-82116285D01*
X106334426Y-82163904D01*
X106239188Y-82211523D01*
X106143950Y-82306761D01*
X106096330Y-82449619D01*
X106096330Y-82544857D01*
X106143950Y-82687714D01*
X106191569Y-82735333D01*
X106096330Y-83640095D02*
X106096330Y-83163904D01*
X106572521Y-83116285D01*
X106524902Y-83163904D01*
X106477283Y-83259142D01*
X106477283Y-83497238D01*
X106524902Y-83592476D01*
X106572521Y-83640095D01*
X106667759Y-83687714D01*
X106905854Y-83687714D01*
X107001092Y-83640095D01*
X107048711Y-83592476D01*
X107096330Y-83497238D01*
X107096330Y-83259142D01*
X107048711Y-83163904D01*
X107001092Y-83116285D01*
%TO.C,D2*%
X116835180Y-135634504D02*
X115835180Y-135634504D01*
X115835180Y-135872600D01*
X115882800Y-136015457D01*
X115978038Y-136110695D01*
X116073276Y-136158314D01*
X116263752Y-136205933D01*
X116406609Y-136205933D01*
X116597085Y-136158314D01*
X116692323Y-136110695D01*
X116787561Y-136015457D01*
X116835180Y-135872600D01*
X116835180Y-135634504D01*
X115930419Y-136586885D02*
X115882800Y-136634504D01*
X115835180Y-136729742D01*
X115835180Y-136967838D01*
X115882800Y-137063076D01*
X115930419Y-137110695D01*
X116025657Y-137158314D01*
X116120895Y-137158314D01*
X116263752Y-137110695D01*
X116835180Y-136539266D01*
X116835180Y-137158314D01*
%TO.C,C4*%
X111748866Y-136653542D02*
X111796485Y-136701161D01*
X111939342Y-136748780D01*
X112034580Y-136748780D01*
X112177438Y-136701161D01*
X112272676Y-136605923D01*
X112320295Y-136510685D01*
X112367914Y-136320209D01*
X112367914Y-136177352D01*
X112320295Y-135986876D01*
X112272676Y-135891638D01*
X112177438Y-135796400D01*
X112034580Y-135748780D01*
X111939342Y-135748780D01*
X111796485Y-135796400D01*
X111748866Y-135844019D01*
X110891723Y-136082114D02*
X110891723Y-136748780D01*
X111129819Y-135701161D02*
X111367914Y-136415447D01*
X110748866Y-136415447D01*
%TO.C,C1*%
X172653316Y-138429069D02*
X172700935Y-138476688D01*
X172843792Y-138524307D01*
X172939030Y-138524307D01*
X173081888Y-138476688D01*
X173177126Y-138381450D01*
X173224745Y-138286212D01*
X173272364Y-138095736D01*
X173272364Y-137952879D01*
X173224745Y-137762403D01*
X173177126Y-137667165D01*
X173081888Y-137571927D01*
X172939030Y-137524307D01*
X172843792Y-137524307D01*
X172700935Y-137571927D01*
X172653316Y-137619546D01*
X171700935Y-138524307D02*
X172272364Y-138524307D01*
X171986650Y-138524307D02*
X171986650Y-137524307D01*
X172081888Y-137667165D01*
X172177126Y-137762403D01*
X172272364Y-137810022D01*
%TO.C,R2*%
X179270780Y-76611460D02*
X178794590Y-76278127D01*
X179270780Y-76040031D02*
X178270780Y-76040031D01*
X178270780Y-76420984D01*
X178318400Y-76516222D01*
X178366019Y-76563841D01*
X178461257Y-76611460D01*
X178604114Y-76611460D01*
X178699352Y-76563841D01*
X178746971Y-76516222D01*
X178794590Y-76420984D01*
X178794590Y-76040031D01*
X178366019Y-76992412D02*
X178318400Y-77040031D01*
X178270780Y-77135269D01*
X178270780Y-77373365D01*
X178318400Y-77468603D01*
X178366019Y-77516222D01*
X178461257Y-77563841D01*
X178556495Y-77563841D01*
X178699352Y-77516222D01*
X179270780Y-76944793D01*
X179270780Y-77563841D01*
%TO.C,R4*%
X182125616Y-150308307D02*
X182458950Y-149832117D01*
X182697045Y-150308307D02*
X182697045Y-149308307D01*
X182316092Y-149308307D01*
X182220854Y-149355927D01*
X182173235Y-149403546D01*
X182125616Y-149498784D01*
X182125616Y-149641641D01*
X182173235Y-149736879D01*
X182220854Y-149784498D01*
X182316092Y-149832117D01*
X182697045Y-149832117D01*
X181268473Y-149641641D02*
X181268473Y-150308307D01*
X181506569Y-149260688D02*
X181744664Y-149974974D01*
X181125616Y-149974974D01*
%TO.C,U3*%
X172696904Y-89895707D02*
X172696904Y-90705231D01*
X172649285Y-90800469D01*
X172601666Y-90848088D01*
X172506428Y-90895707D01*
X172315952Y-90895707D01*
X172220714Y-90848088D01*
X172173095Y-90800469D01*
X172125476Y-90705231D01*
X172125476Y-89895707D01*
X171744523Y-89895707D02*
X171125476Y-89895707D01*
X171458809Y-90276660D01*
X171315952Y-90276660D01*
X171220714Y-90324279D01*
X171173095Y-90371898D01*
X171125476Y-90467136D01*
X171125476Y-90705231D01*
X171173095Y-90800469D01*
X171220714Y-90848088D01*
X171315952Y-90895707D01*
X171601666Y-90895707D01*
X171696904Y-90848088D01*
X171744523Y-90800469D01*
%TO.C,R2*%
X171237230Y-138032260D02*
X170761040Y-137698927D01*
X171237230Y-137460831D02*
X170237230Y-137460831D01*
X170237230Y-137841784D01*
X170284850Y-137937022D01*
X170332469Y-137984641D01*
X170427707Y-138032260D01*
X170570564Y-138032260D01*
X170665802Y-137984641D01*
X170713421Y-137937022D01*
X170761040Y-137841784D01*
X170761040Y-137460831D01*
X170332469Y-138413212D02*
X170284850Y-138460831D01*
X170237230Y-138556069D01*
X170237230Y-138794165D01*
X170284850Y-138889403D01*
X170332469Y-138937022D01*
X170427707Y-138984641D01*
X170522945Y-138984641D01*
X170665802Y-138937022D01*
X171237230Y-138365593D01*
X171237230Y-138984641D01*
%TO.C,C8*%
X174888516Y-139673669D02*
X174936135Y-139721288D01*
X175078992Y-139768907D01*
X175174230Y-139768907D01*
X175317088Y-139721288D01*
X175412326Y-139626050D01*
X175459945Y-139530812D01*
X175507564Y-139340336D01*
X175507564Y-139197479D01*
X175459945Y-139007003D01*
X175412326Y-138911765D01*
X175317088Y-138816527D01*
X175174230Y-138768907D01*
X175078992Y-138768907D01*
X174936135Y-138816527D01*
X174888516Y-138864146D01*
X174317088Y-139197479D02*
X174412326Y-139149860D01*
X174459945Y-139102241D01*
X174507564Y-139007003D01*
X174507564Y-138959384D01*
X174459945Y-138864146D01*
X174412326Y-138816527D01*
X174317088Y-138768907D01*
X174126611Y-138768907D01*
X174031373Y-138816527D01*
X173983754Y-138864146D01*
X173936135Y-138959384D01*
X173936135Y-139007003D01*
X173983754Y-139102241D01*
X174031373Y-139149860D01*
X174126611Y-139197479D01*
X174317088Y-139197479D01*
X174412326Y-139245098D01*
X174459945Y-139292717D01*
X174507564Y-139387955D01*
X174507564Y-139578431D01*
X174459945Y-139673669D01*
X174412326Y-139721288D01*
X174317088Y-139768907D01*
X174126611Y-139768907D01*
X174031373Y-139721288D01*
X173983754Y-139673669D01*
X173936135Y-139578431D01*
X173936135Y-139387955D01*
X173983754Y-139292717D01*
X174031373Y-139245098D01*
X174126611Y-139197479D01*
%TO.C,R6*%
X110341530Y-65285533D02*
X109865340Y-64952200D01*
X110341530Y-64714104D02*
X109341530Y-64714104D01*
X109341530Y-65095057D01*
X109389150Y-65190295D01*
X109436769Y-65237914D01*
X109532007Y-65285533D01*
X109674864Y-65285533D01*
X109770102Y-65237914D01*
X109817721Y-65190295D01*
X109865340Y-65095057D01*
X109865340Y-64714104D01*
X109341530Y-66142676D02*
X109341530Y-65952200D01*
X109389150Y-65856961D01*
X109436769Y-65809342D01*
X109579626Y-65714104D01*
X109770102Y-65666485D01*
X110151054Y-65666485D01*
X110246292Y-65714104D01*
X110293911Y-65761723D01*
X110341530Y-65856961D01*
X110341530Y-66047438D01*
X110293911Y-66142676D01*
X110246292Y-66190295D01*
X110151054Y-66237914D01*
X109912959Y-66237914D01*
X109817721Y-66190295D01*
X109770102Y-66142676D01*
X109722483Y-66047438D01*
X109722483Y-65856961D01*
X109770102Y-65761723D01*
X109817721Y-65714104D01*
X109912959Y-65666485D01*
%TO.C,R3*%
X169814830Y-137854460D02*
X169338640Y-137521127D01*
X169814830Y-137283031D02*
X168814830Y-137283031D01*
X168814830Y-137663984D01*
X168862450Y-137759222D01*
X168910069Y-137806841D01*
X169005307Y-137854460D01*
X169148164Y-137854460D01*
X169243402Y-137806841D01*
X169291021Y-137759222D01*
X169338640Y-137663984D01*
X169338640Y-137283031D01*
X168814830Y-138187793D02*
X168814830Y-138806841D01*
X169195783Y-138473507D01*
X169195783Y-138616365D01*
X169243402Y-138711603D01*
X169291021Y-138759222D01*
X169386259Y-138806841D01*
X169624354Y-138806841D01*
X169719592Y-138759222D01*
X169767211Y-138711603D01*
X169814830Y-138616365D01*
X169814830Y-138330650D01*
X169767211Y-138235412D01*
X169719592Y-138187793D01*
%TO.C,Y1*%
X171868841Y-132491936D02*
X172345031Y-132491936D01*
X171345031Y-132158603D02*
X171868841Y-132491936D01*
X171345031Y-132825269D01*
X172345031Y-133682412D02*
X172345031Y-133110984D01*
X172345031Y-133396698D02*
X171345031Y-133396698D01*
X171487889Y-133301460D01*
X171583127Y-133206222D01*
X171630746Y-133110984D01*
%TO.C,R6*%
X112159980Y-149210733D02*
X111683790Y-148877400D01*
X112159980Y-148639304D02*
X111159980Y-148639304D01*
X111159980Y-149020257D01*
X111207600Y-149115495D01*
X111255219Y-149163114D01*
X111350457Y-149210733D01*
X111493314Y-149210733D01*
X111588552Y-149163114D01*
X111636171Y-149115495D01*
X111683790Y-149020257D01*
X111683790Y-148639304D01*
X111159980Y-150067876D02*
X111159980Y-149877400D01*
X111207600Y-149782161D01*
X111255219Y-149734542D01*
X111398076Y-149639304D01*
X111588552Y-149591685D01*
X111969504Y-149591685D01*
X112064742Y-149639304D01*
X112112361Y-149686923D01*
X112159980Y-149782161D01*
X112159980Y-149972638D01*
X112112361Y-150067876D01*
X112064742Y-150115495D01*
X111969504Y-150163114D01*
X111731409Y-150163114D01*
X111636171Y-150115495D01*
X111588552Y-150067876D01*
X111540933Y-149972638D01*
X111540933Y-149782161D01*
X111588552Y-149686923D01*
X111636171Y-149639304D01*
X111731409Y-149591685D01*
%TO.C,C10*%
X177041942Y-95921869D02*
X177089561Y-95874250D01*
X177137180Y-95731393D01*
X177137180Y-95636155D01*
X177089561Y-95493298D01*
X176994323Y-95398060D01*
X176899085Y-95350441D01*
X176708609Y-95302822D01*
X176565752Y-95302822D01*
X176375276Y-95350441D01*
X176280038Y-95398060D01*
X176184800Y-95493298D01*
X176137180Y-95636155D01*
X176137180Y-95731393D01*
X176184800Y-95874250D01*
X176232419Y-95921869D01*
X177137180Y-96874250D02*
X177137180Y-96302822D01*
X177137180Y-96588536D02*
X176137180Y-96588536D01*
X176280038Y-96493298D01*
X176375276Y-96398060D01*
X176422895Y-96302822D01*
X176137180Y-97493298D02*
X176137180Y-97588536D01*
X176184800Y-97683774D01*
X176232419Y-97731393D01*
X176327657Y-97779012D01*
X176518133Y-97826631D01*
X176756228Y-97826631D01*
X176946704Y-97779012D01*
X177041942Y-97731393D01*
X177089561Y-97683774D01*
X177137180Y-97588536D01*
X177137180Y-97493298D01*
X177089561Y-97398060D01*
X177041942Y-97350441D01*
X176946704Y-97302822D01*
X176756228Y-97255203D01*
X176518133Y-97255203D01*
X176327657Y-97302822D01*
X176232419Y-97350441D01*
X176184800Y-97398060D01*
X176137180Y-97493298D01*
%TO.C,C9*%
X109482692Y-74454933D02*
X109530311Y-74407314D01*
X109577930Y-74264457D01*
X109577930Y-74169219D01*
X109530311Y-74026361D01*
X109435073Y-73931123D01*
X109339835Y-73883504D01*
X109149359Y-73835885D01*
X109006502Y-73835885D01*
X108816026Y-73883504D01*
X108720788Y-73931123D01*
X108625550Y-74026361D01*
X108577930Y-74169219D01*
X108577930Y-74264457D01*
X108625550Y-74407314D01*
X108673169Y-74454933D01*
X109577930Y-74931123D02*
X109577930Y-75121600D01*
X109530311Y-75216838D01*
X109482692Y-75264457D01*
X109339835Y-75359695D01*
X109149359Y-75407314D01*
X108768407Y-75407314D01*
X108673169Y-75359695D01*
X108625550Y-75312076D01*
X108577930Y-75216838D01*
X108577930Y-75026361D01*
X108625550Y-74931123D01*
X108673169Y-74883504D01*
X108768407Y-74835885D01*
X109006502Y-74835885D01*
X109101740Y-74883504D01*
X109149359Y-74931123D01*
X109196978Y-75026361D01*
X109196978Y-75216838D01*
X109149359Y-75312076D01*
X109101740Y-75359695D01*
X109006502Y-75407314D01*
%TO.C,R5*%
X113948330Y-65285533D02*
X113472140Y-64952200D01*
X113948330Y-64714104D02*
X112948330Y-64714104D01*
X112948330Y-65095057D01*
X112995950Y-65190295D01*
X113043569Y-65237914D01*
X113138807Y-65285533D01*
X113281664Y-65285533D01*
X113376902Y-65237914D01*
X113424521Y-65190295D01*
X113472140Y-65095057D01*
X113472140Y-64714104D01*
X112948330Y-66190295D02*
X112948330Y-65714104D01*
X113424521Y-65666485D01*
X113376902Y-65714104D01*
X113329283Y-65809342D01*
X113329283Y-66047438D01*
X113376902Y-66142676D01*
X113424521Y-66190295D01*
X113519759Y-66237914D01*
X113757854Y-66237914D01*
X113853092Y-66190295D01*
X113900711Y-66142676D01*
X113948330Y-66047438D01*
X113948330Y-65809342D01*
X113900711Y-65714104D01*
X113853092Y-65666485D01*
%TO.C,C4*%
X110181216Y-78890342D02*
X110228835Y-78937961D01*
X110371692Y-78985580D01*
X110466930Y-78985580D01*
X110609788Y-78937961D01*
X110705026Y-78842723D01*
X110752645Y-78747485D01*
X110800264Y-78557009D01*
X110800264Y-78414152D01*
X110752645Y-78223676D01*
X110705026Y-78128438D01*
X110609788Y-78033200D01*
X110466930Y-77985580D01*
X110371692Y-77985580D01*
X110228835Y-78033200D01*
X110181216Y-78080819D01*
X109324073Y-78318914D02*
X109324073Y-78985580D01*
X109562169Y-77937961D02*
X109800264Y-78652247D01*
X109181216Y-78652247D01*
%TO.C,R2*%
X107233980Y-137958533D02*
X106757790Y-137625200D01*
X107233980Y-137387104D02*
X106233980Y-137387104D01*
X106233980Y-137768057D01*
X106281600Y-137863295D01*
X106329219Y-137910914D01*
X106424457Y-137958533D01*
X106567314Y-137958533D01*
X106662552Y-137910914D01*
X106710171Y-137863295D01*
X106757790Y-137768057D01*
X106757790Y-137387104D01*
X106329219Y-138339485D02*
X106281600Y-138387104D01*
X106233980Y-138482342D01*
X106233980Y-138720438D01*
X106281600Y-138815676D01*
X106329219Y-138863295D01*
X106424457Y-138910914D01*
X106519695Y-138910914D01*
X106662552Y-138863295D01*
X107233980Y-138291866D01*
X107233980Y-138910914D01*
%TO.C,D2*%
X105666330Y-77718904D02*
X104666330Y-77718904D01*
X104666330Y-77957000D01*
X104713950Y-78099857D01*
X104809188Y-78195095D01*
X104904426Y-78242714D01*
X105094902Y-78290333D01*
X105237759Y-78290333D01*
X105428235Y-78242714D01*
X105523473Y-78195095D01*
X105618711Y-78099857D01*
X105666330Y-77957000D01*
X105666330Y-77718904D01*
X104761569Y-78671285D02*
X104713950Y-78718904D01*
X104666330Y-78814142D01*
X104666330Y-79052238D01*
X104713950Y-79147476D01*
X104761569Y-79195095D01*
X104856807Y-79242714D01*
X104952045Y-79242714D01*
X105094902Y-79195095D01*
X105666330Y-78623666D01*
X105666330Y-79242714D01*
%TO.C,R4*%
X167810966Y-65573507D02*
X168144300Y-65097317D01*
X168382395Y-65573507D02*
X168382395Y-64573507D01*
X168001442Y-64573507D01*
X167906204Y-64621127D01*
X167858585Y-64668746D01*
X167810966Y-64763984D01*
X167810966Y-64906841D01*
X167858585Y-65002079D01*
X167906204Y-65049698D01*
X168001442Y-65097317D01*
X168382395Y-65097317D01*
X166953823Y-64906841D02*
X166953823Y-65573507D01*
X167191919Y-64525888D02*
X167430014Y-65240174D01*
X166810966Y-65240174D01*
%TO.C,R3*%
X116689930Y-76715533D02*
X116213740Y-76382200D01*
X116689930Y-76144104D02*
X115689930Y-76144104D01*
X115689930Y-76525057D01*
X115737550Y-76620295D01*
X115785169Y-76667914D01*
X115880407Y-76715533D01*
X116023264Y-76715533D01*
X116118502Y-76667914D01*
X116166121Y-76620295D01*
X116213740Y-76525057D01*
X116213740Y-76144104D01*
X115689930Y-77048866D02*
X115689930Y-77667914D01*
X116070883Y-77334580D01*
X116070883Y-77477438D01*
X116118502Y-77572676D01*
X116166121Y-77620295D01*
X116261359Y-77667914D01*
X116499454Y-77667914D01*
X116594692Y-77620295D01*
X116642311Y-77572676D01*
X116689930Y-77477438D01*
X116689930Y-77191723D01*
X116642311Y-77096485D01*
X116594692Y-77048866D01*
%TO.C,R6*%
X174344780Y-65359260D02*
X173868590Y-65025927D01*
X174344780Y-64787831D02*
X173344780Y-64787831D01*
X173344780Y-65168784D01*
X173392400Y-65264022D01*
X173440019Y-65311641D01*
X173535257Y-65359260D01*
X173678114Y-65359260D01*
X173773352Y-65311641D01*
X173820971Y-65264022D01*
X173868590Y-65168784D01*
X173868590Y-64787831D01*
X173344780Y-66216403D02*
X173344780Y-66025927D01*
X173392400Y-65930688D01*
X173440019Y-65883069D01*
X173582876Y-65787831D01*
X173773352Y-65740212D01*
X174154304Y-65740212D01*
X174249542Y-65787831D01*
X174297161Y-65835450D01*
X174344780Y-65930688D01*
X174344780Y-66121165D01*
X174297161Y-66216403D01*
X174249542Y-66264022D01*
X174154304Y-66311641D01*
X173916209Y-66311641D01*
X173820971Y-66264022D01*
X173773352Y-66216403D01*
X173725733Y-66121165D01*
X173725733Y-65930688D01*
X173773352Y-65835450D01*
X173820971Y-65787831D01*
X173916209Y-65740212D01*
%TO.C,C9*%
X112828342Y-140041333D02*
X112875961Y-139993714D01*
X112923580Y-139850857D01*
X112923580Y-139755619D01*
X112875961Y-139612761D01*
X112780723Y-139517523D01*
X112685485Y-139469904D01*
X112495009Y-139422285D01*
X112352152Y-139422285D01*
X112161676Y-139469904D01*
X112066438Y-139517523D01*
X111971200Y-139612761D01*
X111923580Y-139755619D01*
X111923580Y-139850857D01*
X111971200Y-139993714D01*
X112018819Y-140041333D01*
X112923580Y-140517523D02*
X112923580Y-140708000D01*
X112875961Y-140803238D01*
X112828342Y-140850857D01*
X112685485Y-140946095D01*
X112495009Y-140993714D01*
X112114057Y-140993714D01*
X112018819Y-140946095D01*
X111971200Y-140898476D01*
X111923580Y-140803238D01*
X111923580Y-140612761D01*
X111971200Y-140517523D01*
X112018819Y-140469904D01*
X112114057Y-140422285D01*
X112352152Y-140422285D01*
X112447390Y-140469904D01*
X112495009Y-140517523D01*
X112542628Y-140612761D01*
X112542628Y-140803238D01*
X112495009Y-140898476D01*
X112447390Y-140946095D01*
X112352152Y-140993714D01*
%TO.C,R3*%
X180693180Y-76789260D02*
X180216990Y-76455927D01*
X180693180Y-76217831D02*
X179693180Y-76217831D01*
X179693180Y-76598784D01*
X179740800Y-76694022D01*
X179788419Y-76741641D01*
X179883657Y-76789260D01*
X180026514Y-76789260D01*
X180121752Y-76741641D01*
X180169371Y-76694022D01*
X180216990Y-76598784D01*
X180216990Y-76217831D01*
X179693180Y-77122593D02*
X179693180Y-77741641D01*
X180074133Y-77408307D01*
X180074133Y-77551165D01*
X180121752Y-77646403D01*
X180169371Y-77694022D01*
X180264609Y-77741641D01*
X180502704Y-77741641D01*
X180597942Y-77694022D01*
X180645561Y-77646403D01*
X180693180Y-77551165D01*
X180693180Y-77265450D01*
X180645561Y-77170212D01*
X180597942Y-77122593D01*
%TO.C,C8*%
X110885266Y-139599942D02*
X110932885Y-139647561D01*
X111075742Y-139695180D01*
X111170980Y-139695180D01*
X111313838Y-139647561D01*
X111409076Y-139552323D01*
X111456695Y-139457085D01*
X111504314Y-139266609D01*
X111504314Y-139123752D01*
X111456695Y-138933276D01*
X111409076Y-138838038D01*
X111313838Y-138742800D01*
X111170980Y-138695180D01*
X111075742Y-138695180D01*
X110932885Y-138742800D01*
X110885266Y-138790419D01*
X110313838Y-139123752D02*
X110409076Y-139076133D01*
X110456695Y-139028514D01*
X110504314Y-138933276D01*
X110504314Y-138885657D01*
X110456695Y-138790419D01*
X110409076Y-138742800D01*
X110313838Y-138695180D01*
X110123361Y-138695180D01*
X110028123Y-138742800D01*
X109980504Y-138790419D01*
X109932885Y-138885657D01*
X109932885Y-138933276D01*
X109980504Y-139028514D01*
X110028123Y-139076133D01*
X110123361Y-139123752D01*
X110313838Y-139123752D01*
X110409076Y-139171371D01*
X110456695Y-139218990D01*
X110504314Y-139314228D01*
X110504314Y-139504704D01*
X110456695Y-139599942D01*
X110409076Y-139647561D01*
X110313838Y-139695180D01*
X110123361Y-139695180D01*
X110028123Y-139647561D01*
X109980504Y-139599942D01*
X109932885Y-139504704D01*
X109932885Y-139314228D01*
X109980504Y-139218990D01*
X110028123Y-139171371D01*
X110123361Y-139123752D01*
%TO.C,U2*%
X113062454Y-78061780D02*
X113062454Y-78871304D01*
X113014835Y-78966542D01*
X112967216Y-79014161D01*
X112871978Y-79061780D01*
X112681502Y-79061780D01*
X112586264Y-79014161D01*
X112538645Y-78966542D01*
X112491026Y-78871304D01*
X112491026Y-78061780D01*
X112062454Y-78157019D02*
X112014835Y-78109400D01*
X111919597Y-78061780D01*
X111681502Y-78061780D01*
X111586264Y-78109400D01*
X111538645Y-78157019D01*
X111491026Y-78252257D01*
X111491026Y-78347495D01*
X111538645Y-78490352D01*
X112110073Y-79061780D01*
X111491026Y-79061780D01*
%TO.C,C8*%
X111044816Y-75943942D02*
X111092435Y-75991561D01*
X111235292Y-76039180D01*
X111330530Y-76039180D01*
X111473388Y-75991561D01*
X111568626Y-75896323D01*
X111616245Y-75801085D01*
X111663864Y-75610609D01*
X111663864Y-75467752D01*
X111616245Y-75277276D01*
X111568626Y-75182038D01*
X111473388Y-75086800D01*
X111330530Y-75039180D01*
X111235292Y-75039180D01*
X111092435Y-75086800D01*
X111044816Y-75134419D01*
X110473388Y-75467752D02*
X110568626Y-75420133D01*
X110616245Y-75372514D01*
X110663864Y-75277276D01*
X110663864Y-75229657D01*
X110616245Y-75134419D01*
X110568626Y-75086800D01*
X110473388Y-75039180D01*
X110282911Y-75039180D01*
X110187673Y-75086800D01*
X110140054Y-75134419D01*
X110092435Y-75229657D01*
X110092435Y-75277276D01*
X110140054Y-75372514D01*
X110187673Y-75420133D01*
X110282911Y-75467752D01*
X110473388Y-75467752D01*
X110568626Y-75515371D01*
X110616245Y-75562990D01*
X110663864Y-75658228D01*
X110663864Y-75848704D01*
X110616245Y-75943942D01*
X110568626Y-75991561D01*
X110473388Y-76039180D01*
X110282911Y-76039180D01*
X110187673Y-75991561D01*
X110140054Y-75943942D01*
X110092435Y-75848704D01*
X110092435Y-75658228D01*
X110140054Y-75562990D01*
X110187673Y-75515371D01*
X110282911Y-75467752D01*
%TO.C,C10*%
X173275592Y-117769469D02*
X173323211Y-117721850D01*
X173370830Y-117578993D01*
X173370830Y-117483755D01*
X173323211Y-117340898D01*
X173227973Y-117245660D01*
X173132735Y-117198041D01*
X172942259Y-117150422D01*
X172799402Y-117150422D01*
X172608926Y-117198041D01*
X172513688Y-117245660D01*
X172418450Y-117340898D01*
X172370830Y-117483755D01*
X172370830Y-117578993D01*
X172418450Y-117721850D01*
X172466069Y-117769469D01*
X173370830Y-118721850D02*
X173370830Y-118150422D01*
X173370830Y-118436136D02*
X172370830Y-118436136D01*
X172513688Y-118340898D01*
X172608926Y-118245660D01*
X172656545Y-118150422D01*
X172370830Y-119340898D02*
X172370830Y-119436136D01*
X172418450Y-119531374D01*
X172466069Y-119578993D01*
X172561307Y-119626612D01*
X172751783Y-119674231D01*
X172989878Y-119674231D01*
X173180354Y-119626612D01*
X173275592Y-119578993D01*
X173323211Y-119531374D01*
X173370830Y-119436136D01*
X173370830Y-119340898D01*
X173323211Y-119245660D01*
X173275592Y-119198041D01*
X173180354Y-119150422D01*
X172989878Y-119102803D01*
X172751783Y-119102803D01*
X172561307Y-119150422D01*
X172466069Y-119198041D01*
X172418450Y-119245660D01*
X172370830Y-119340898D01*
%TO.C,R5*%
X177951580Y-65359260D02*
X177475390Y-65025927D01*
X177951580Y-64787831D02*
X176951580Y-64787831D01*
X176951580Y-65168784D01*
X176999200Y-65264022D01*
X177046819Y-65311641D01*
X177142057Y-65359260D01*
X177284914Y-65359260D01*
X177380152Y-65311641D01*
X177427771Y-65264022D01*
X177475390Y-65168784D01*
X177475390Y-64787831D01*
X176951580Y-66264022D02*
X176951580Y-65787831D01*
X177427771Y-65740212D01*
X177380152Y-65787831D01*
X177332533Y-65883069D01*
X177332533Y-66121165D01*
X177380152Y-66216403D01*
X177427771Y-66264022D01*
X177523009Y-66311641D01*
X177761104Y-66311641D01*
X177856342Y-66264022D01*
X177903961Y-66216403D01*
X177951580Y-66121165D01*
X177951580Y-65883069D01*
X177903961Y-65787831D01*
X177856342Y-65740212D01*
%TO.C,Y1*%
X113683539Y-81459009D02*
X114159729Y-81459009D01*
X113159729Y-81125676D02*
X113683539Y-81459009D01*
X113159729Y-81792342D01*
X114159729Y-82649485D02*
X114159729Y-82078057D01*
X114159729Y-82363771D02*
X113159729Y-82363771D01*
X113302587Y-82268533D01*
X113397825Y-82173295D01*
X113445444Y-82078057D01*
%TO.C,C8*%
X175048066Y-76017669D02*
X175095685Y-76065288D01*
X175238542Y-76112907D01*
X175333780Y-76112907D01*
X175476638Y-76065288D01*
X175571876Y-75970050D01*
X175619495Y-75874812D01*
X175667114Y-75684336D01*
X175667114Y-75541479D01*
X175619495Y-75351003D01*
X175571876Y-75255765D01*
X175476638Y-75160527D01*
X175333780Y-75112907D01*
X175238542Y-75112907D01*
X175095685Y-75160527D01*
X175048066Y-75208146D01*
X174476638Y-75541479D02*
X174571876Y-75493860D01*
X174619495Y-75446241D01*
X174667114Y-75351003D01*
X174667114Y-75303384D01*
X174619495Y-75208146D01*
X174571876Y-75160527D01*
X174476638Y-75112907D01*
X174286161Y-75112907D01*
X174190923Y-75160527D01*
X174143304Y-75208146D01*
X174095685Y-75303384D01*
X174095685Y-75351003D01*
X174143304Y-75446241D01*
X174190923Y-75493860D01*
X174286161Y-75541479D01*
X174476638Y-75541479D01*
X174571876Y-75589098D01*
X174619495Y-75636717D01*
X174667114Y-75731955D01*
X174667114Y-75922431D01*
X174619495Y-76017669D01*
X174571876Y-76065288D01*
X174476638Y-76112907D01*
X174286161Y-76112907D01*
X174190923Y-76065288D01*
X174143304Y-76017669D01*
X174095685Y-75922431D01*
X174095685Y-75731955D01*
X174143304Y-75636717D01*
X174190923Y-75589098D01*
X174286161Y-75541479D01*
%TO.C,D2*%
X169669580Y-77792631D02*
X168669580Y-77792631D01*
X168669580Y-78030727D01*
X168717200Y-78173584D01*
X168812438Y-78268822D01*
X168907676Y-78316441D01*
X169098152Y-78364060D01*
X169241009Y-78364060D01*
X169431485Y-78316441D01*
X169526723Y-78268822D01*
X169621961Y-78173584D01*
X169669580Y-78030727D01*
X169669580Y-77792631D01*
X168764819Y-78745012D02*
X168717200Y-78792631D01*
X168669580Y-78887869D01*
X168669580Y-79125965D01*
X168717200Y-79221203D01*
X168764819Y-79268822D01*
X168860057Y-79316441D01*
X168955295Y-79316441D01*
X169098152Y-79268822D01*
X169669580Y-78697393D01*
X169669580Y-79316441D01*
%TO.C,C5*%
X179313192Y-131834660D02*
X179360811Y-131787041D01*
X179408430Y-131644184D01*
X179408430Y-131548946D01*
X179360811Y-131406088D01*
X179265573Y-131310850D01*
X179170335Y-131263231D01*
X178979859Y-131215612D01*
X178837002Y-131215612D01*
X178646526Y-131263231D01*
X178551288Y-131310850D01*
X178456050Y-131406088D01*
X178408430Y-131548946D01*
X178408430Y-131644184D01*
X178456050Y-131787041D01*
X178503669Y-131834660D01*
X178408430Y-132739422D02*
X178408430Y-132263231D01*
X178884621Y-132215612D01*
X178837002Y-132263231D01*
X178789383Y-132358469D01*
X178789383Y-132596565D01*
X178837002Y-132691803D01*
X178884621Y-132739422D01*
X178979859Y-132787041D01*
X179217954Y-132787041D01*
X179313192Y-132739422D01*
X179360811Y-132691803D01*
X179408430Y-132596565D01*
X179408430Y-132358469D01*
X179360811Y-132263231D01*
X179313192Y-132215612D01*
%TO.C,R1*%
X107564180Y-118197333D02*
X107087990Y-117864000D01*
X107564180Y-117625904D02*
X106564180Y-117625904D01*
X106564180Y-118006857D01*
X106611800Y-118102095D01*
X106659419Y-118149714D01*
X106754657Y-118197333D01*
X106897514Y-118197333D01*
X106992752Y-118149714D01*
X107040371Y-118102095D01*
X107087990Y-118006857D01*
X107087990Y-117625904D01*
X107564180Y-119149714D02*
X107564180Y-118578285D01*
X107564180Y-118864000D02*
X106564180Y-118864000D01*
X106707038Y-118768761D01*
X106802276Y-118673523D01*
X106849895Y-118578285D01*
%TO.C,C5*%
X171004342Y-82809060D02*
X171051961Y-82761441D01*
X171099580Y-82618584D01*
X171099580Y-82523346D01*
X171051961Y-82380488D01*
X170956723Y-82285250D01*
X170861485Y-82237631D01*
X170671009Y-82190012D01*
X170528152Y-82190012D01*
X170337676Y-82237631D01*
X170242438Y-82285250D01*
X170147200Y-82380488D01*
X170099580Y-82523346D01*
X170099580Y-82618584D01*
X170147200Y-82761441D01*
X170194819Y-82809060D01*
X170099580Y-83713822D02*
X170099580Y-83237631D01*
X170575771Y-83190012D01*
X170528152Y-83237631D01*
X170480533Y-83332869D01*
X170480533Y-83570965D01*
X170528152Y-83666203D01*
X170575771Y-83713822D01*
X170671009Y-83761441D01*
X170909104Y-83761441D01*
X171004342Y-83713822D01*
X171051961Y-83666203D01*
X171099580Y-83570965D01*
X171099580Y-83332869D01*
X171051961Y-83237631D01*
X171004342Y-83190012D01*
%TO.C,R1*%
X171567430Y-118271060D02*
X171091240Y-117937727D01*
X171567430Y-117699631D02*
X170567430Y-117699631D01*
X170567430Y-118080584D01*
X170615050Y-118175822D01*
X170662669Y-118223441D01*
X170757907Y-118271060D01*
X170900764Y-118271060D01*
X170996002Y-118223441D01*
X171043621Y-118175822D01*
X171091240Y-118080584D01*
X171091240Y-117699631D01*
X171567430Y-119223441D02*
X171567430Y-118652012D01*
X171567430Y-118937727D02*
X170567430Y-118937727D01*
X170710288Y-118842488D01*
X170805526Y-118747250D01*
X170853145Y-118652012D01*
%TO.C,Y1*%
X107865591Y-132418209D02*
X108341781Y-132418209D01*
X107341781Y-132084876D02*
X107865591Y-132418209D01*
X107341781Y-132751542D01*
X108341781Y-133608685D02*
X108341781Y-133037257D01*
X108341781Y-133322971D02*
X107341781Y-133322971D01*
X107484639Y-133227733D01*
X107579877Y-133132495D01*
X107627496Y-133037257D01*
%TO.C,C4*%
X174184466Y-78964069D02*
X174232085Y-79011688D01*
X174374942Y-79059307D01*
X174470180Y-79059307D01*
X174613038Y-79011688D01*
X174708276Y-78916450D01*
X174755895Y-78821212D01*
X174803514Y-78630736D01*
X174803514Y-78487879D01*
X174755895Y-78297403D01*
X174708276Y-78202165D01*
X174613038Y-78106927D01*
X174470180Y-78059307D01*
X174374942Y-78059307D01*
X174232085Y-78106927D01*
X174184466Y-78154546D01*
X173327323Y-78392641D02*
X173327323Y-79059307D01*
X173565419Y-78011688D02*
X173803514Y-78725974D01*
X173184466Y-78725974D01*
%TO.C,R6*%
X176163230Y-149284460D02*
X175687040Y-148951127D01*
X176163230Y-148713031D02*
X175163230Y-148713031D01*
X175163230Y-149093984D01*
X175210850Y-149189222D01*
X175258469Y-149236841D01*
X175353707Y-149284460D01*
X175496564Y-149284460D01*
X175591802Y-149236841D01*
X175639421Y-149189222D01*
X175687040Y-149093984D01*
X175687040Y-148713031D01*
X175163230Y-150141603D02*
X175163230Y-149951127D01*
X175210850Y-149855888D01*
X175258469Y-149808269D01*
X175401326Y-149713031D01*
X175591802Y-149665412D01*
X175972754Y-149665412D01*
X176067992Y-149713031D01*
X176115611Y-149760650D01*
X176163230Y-149855888D01*
X176163230Y-150046365D01*
X176115611Y-150141603D01*
X176067992Y-150189222D01*
X175972754Y-150236841D01*
X175734659Y-150236841D01*
X175639421Y-150189222D01*
X175591802Y-150141603D01*
X175544183Y-150046365D01*
X175544183Y-149855888D01*
X175591802Y-149760650D01*
X175639421Y-149713031D01*
X175734659Y-149665412D01*
%TO.C,C1*%
X113280016Y-77188542D02*
X113327635Y-77236161D01*
X113470492Y-77283780D01*
X113565730Y-77283780D01*
X113708588Y-77236161D01*
X113803826Y-77140923D01*
X113851445Y-77045685D01*
X113899064Y-76855209D01*
X113899064Y-76712352D01*
X113851445Y-76521876D01*
X113803826Y-76426638D01*
X113708588Y-76331400D01*
X113565730Y-76283780D01*
X113470492Y-76283780D01*
X113327635Y-76331400D01*
X113280016Y-76379019D01*
X112327635Y-77283780D02*
X112899064Y-77283780D01*
X112613350Y-77283780D02*
X112613350Y-76283780D01*
X112708588Y-76426638D01*
X112803826Y-76521876D01*
X112899064Y-76569495D01*
%TO.C,U3*%
X178430154Y-123986107D02*
X178430154Y-124795631D01*
X178382535Y-124890869D01*
X178334916Y-124938488D01*
X178239678Y-124986107D01*
X178049202Y-124986107D01*
X177953964Y-124938488D01*
X177906345Y-124890869D01*
X177858726Y-124795631D01*
X177858726Y-123986107D01*
X177477773Y-123986107D02*
X176858726Y-123986107D01*
X177192059Y-124367060D01*
X177049202Y-124367060D01*
X176953964Y-124414679D01*
X176906345Y-124462298D01*
X176858726Y-124557536D01*
X176858726Y-124795631D01*
X176906345Y-124890869D01*
X176953964Y-124938488D01*
X177049202Y-124986107D01*
X177334916Y-124986107D01*
X177430154Y-124938488D01*
X177477773Y-124890869D01*
%TO.C,R4*%
X103807716Y-65499780D02*
X104141050Y-65023590D01*
X104379145Y-65499780D02*
X104379145Y-64499780D01*
X103998192Y-64499780D01*
X103902954Y-64547400D01*
X103855335Y-64595019D01*
X103807716Y-64690257D01*
X103807716Y-64833114D01*
X103855335Y-64928352D01*
X103902954Y-64975971D01*
X103998192Y-65023590D01*
X104379145Y-65023590D01*
X102950573Y-64833114D02*
X102950573Y-65499780D01*
X103188669Y-64452161D02*
X103426764Y-65166447D01*
X102807716Y-65166447D01*
%TO.C,C10*%
X109272342Y-117695742D02*
X109319961Y-117648123D01*
X109367580Y-117505266D01*
X109367580Y-117410028D01*
X109319961Y-117267171D01*
X109224723Y-117171933D01*
X109129485Y-117124314D01*
X108939009Y-117076695D01*
X108796152Y-117076695D01*
X108605676Y-117124314D01*
X108510438Y-117171933D01*
X108415200Y-117267171D01*
X108367580Y-117410028D01*
X108367580Y-117505266D01*
X108415200Y-117648123D01*
X108462819Y-117695742D01*
X109367580Y-118648123D02*
X109367580Y-118076695D01*
X109367580Y-118362409D02*
X108367580Y-118362409D01*
X108510438Y-118267171D01*
X108605676Y-118171933D01*
X108653295Y-118076695D01*
X108367580Y-119267171D02*
X108367580Y-119362409D01*
X108415200Y-119457647D01*
X108462819Y-119505266D01*
X108558057Y-119552885D01*
X108748533Y-119600504D01*
X108986628Y-119600504D01*
X109177104Y-119552885D01*
X109272342Y-119505266D01*
X109319961Y-119457647D01*
X109367580Y-119362409D01*
X109367580Y-119267171D01*
X109319961Y-119171933D01*
X109272342Y-119124314D01*
X109177104Y-119076695D01*
X108986628Y-119029076D01*
X108748533Y-119029076D01*
X108558057Y-119076695D01*
X108462819Y-119124314D01*
X108415200Y-119171933D01*
X108367580Y-119267171D01*
%TO.C,D2*%
X180838430Y-135708231D02*
X179838430Y-135708231D01*
X179838430Y-135946327D01*
X179886050Y-136089184D01*
X179981288Y-136184422D01*
X180076526Y-136232041D01*
X180267002Y-136279660D01*
X180409859Y-136279660D01*
X180600335Y-136232041D01*
X180695573Y-136184422D01*
X180790811Y-136089184D01*
X180838430Y-135946327D01*
X180838430Y-135708231D01*
X179933669Y-136660612D02*
X179886050Y-136708231D01*
X179838430Y-136803469D01*
X179838430Y-137041565D01*
X179886050Y-137136803D01*
X179933669Y-137184422D01*
X180028907Y-137232041D01*
X180124145Y-137232041D01*
X180267002Y-137184422D01*
X180838430Y-136612993D01*
X180838430Y-137232041D01*
%TO.C,U3*%
X114426904Y-123912380D02*
X114426904Y-124721904D01*
X114379285Y-124817142D01*
X114331666Y-124864761D01*
X114236428Y-124912380D01*
X114045952Y-124912380D01*
X113950714Y-124864761D01*
X113903095Y-124817142D01*
X113855476Y-124721904D01*
X113855476Y-123912380D01*
X113474523Y-123912380D02*
X112855476Y-123912380D01*
X113188809Y-124293333D01*
X113045952Y-124293333D01*
X112950714Y-124340952D01*
X112903095Y-124388571D01*
X112855476Y-124483809D01*
X112855476Y-124721904D01*
X112903095Y-124817142D01*
X112950714Y-124864761D01*
X113045952Y-124912380D01*
X113331666Y-124912380D01*
X113426904Y-124864761D01*
X113474523Y-124817142D01*
%TO.C,R5*%
X108553180Y-149210733D02*
X108076990Y-148877400D01*
X108553180Y-148639304D02*
X107553180Y-148639304D01*
X107553180Y-149020257D01*
X107600800Y-149115495D01*
X107648419Y-149163114D01*
X107743657Y-149210733D01*
X107886514Y-149210733D01*
X107981752Y-149163114D01*
X108029371Y-149115495D01*
X108076990Y-149020257D01*
X108076990Y-148639304D01*
X107553180Y-150115495D02*
X107553180Y-149639304D01*
X108029371Y-149591685D01*
X107981752Y-149639304D01*
X107934133Y-149734542D01*
X107934133Y-149972638D01*
X107981752Y-150067876D01*
X108029371Y-150115495D01*
X108124609Y-150163114D01*
X108362704Y-150163114D01*
X108457942Y-150115495D01*
X108505561Y-150067876D01*
X108553180Y-149972638D01*
X108553180Y-149734542D01*
X108505561Y-149639304D01*
X108457942Y-149591685D01*
%TO.C,C9*%
X176831592Y-140115060D02*
X176879211Y-140067441D01*
X176926830Y-139924584D01*
X176926830Y-139829346D01*
X176879211Y-139686488D01*
X176783973Y-139591250D01*
X176688735Y-139543631D01*
X176498259Y-139496012D01*
X176355402Y-139496012D01*
X176164926Y-139543631D01*
X176069688Y-139591250D01*
X175974450Y-139686488D01*
X175926830Y-139829346D01*
X175926830Y-139924584D01*
X175974450Y-140067441D01*
X176022069Y-140115060D01*
X176926830Y-140591250D02*
X176926830Y-140781727D01*
X176879211Y-140876965D01*
X176831592Y-140924584D01*
X176688735Y-141019822D01*
X176498259Y-141067441D01*
X176117307Y-141067441D01*
X176022069Y-141019822D01*
X175974450Y-140972203D01*
X175926830Y-140876965D01*
X175926830Y-140686488D01*
X175974450Y-140591250D01*
X176022069Y-140543631D01*
X176117307Y-140496012D01*
X176355402Y-140496012D01*
X176450640Y-140543631D01*
X176498259Y-140591250D01*
X176545878Y-140686488D01*
X176545878Y-140876965D01*
X176498259Y-140972203D01*
X176450640Y-141019822D01*
X176355402Y-141067441D01*
%TO.C,R5*%
X172556430Y-149284460D02*
X172080240Y-148951127D01*
X172556430Y-148713031D02*
X171556430Y-148713031D01*
X171556430Y-149093984D01*
X171604050Y-149189222D01*
X171651669Y-149236841D01*
X171746907Y-149284460D01*
X171889764Y-149284460D01*
X171985002Y-149236841D01*
X172032621Y-149189222D01*
X172080240Y-149093984D01*
X172080240Y-148713031D01*
X171556430Y-150189222D02*
X171556430Y-149713031D01*
X172032621Y-149665412D01*
X171985002Y-149713031D01*
X171937383Y-149808269D01*
X171937383Y-150046365D01*
X171985002Y-150141603D01*
X172032621Y-150189222D01*
X172127859Y-150236841D01*
X172365954Y-150236841D01*
X172461192Y-150189222D01*
X172508811Y-150141603D01*
X172556430Y-150046365D01*
X172556430Y-149808269D01*
X172508811Y-149713031D01*
X172461192Y-149665412D01*
%TO.C,R3*%
X105811580Y-137780733D02*
X105335390Y-137447400D01*
X105811580Y-137209304D02*
X104811580Y-137209304D01*
X104811580Y-137590257D01*
X104859200Y-137685495D01*
X104906819Y-137733114D01*
X105002057Y-137780733D01*
X105144914Y-137780733D01*
X105240152Y-137733114D01*
X105287771Y-137685495D01*
X105335390Y-137590257D01*
X105335390Y-137209304D01*
X104811580Y-138114066D02*
X104811580Y-138733114D01*
X105192533Y-138399780D01*
X105192533Y-138542638D01*
X105240152Y-138637876D01*
X105287771Y-138685495D01*
X105383009Y-138733114D01*
X105621104Y-138733114D01*
X105716342Y-138685495D01*
X105763961Y-138637876D01*
X105811580Y-138542638D01*
X105811580Y-138256923D01*
X105763961Y-138161685D01*
X105716342Y-138114066D01*
%TO.C,C1*%
X108650066Y-138355342D02*
X108697685Y-138402961D01*
X108840542Y-138450580D01*
X108935780Y-138450580D01*
X109078638Y-138402961D01*
X109173876Y-138307723D01*
X109221495Y-138212485D01*
X109269114Y-138022009D01*
X109269114Y-137879152D01*
X109221495Y-137688676D01*
X109173876Y-137593438D01*
X109078638Y-137498200D01*
X108935780Y-137450580D01*
X108840542Y-137450580D01*
X108697685Y-137498200D01*
X108650066Y-137545819D01*
X107697685Y-138450580D02*
X108269114Y-138450580D01*
X107983400Y-138450580D02*
X107983400Y-137450580D01*
X108078638Y-137593438D01*
X108173876Y-137688676D01*
X108269114Y-137736295D01*
%TO.C,R4*%
X118122366Y-150234580D02*
X118455700Y-149758390D01*
X118693795Y-150234580D02*
X118693795Y-149234580D01*
X118312842Y-149234580D01*
X118217604Y-149282200D01*
X118169985Y-149329819D01*
X118122366Y-149425057D01*
X118122366Y-149567914D01*
X118169985Y-149663152D01*
X118217604Y-149710771D01*
X118312842Y-149758390D01*
X118693795Y-149758390D01*
X117265223Y-149567914D02*
X117265223Y-150234580D01*
X117503319Y-149186961D02*
X117741414Y-149901247D01*
X117122366Y-149901247D01*
%TO.C,C4*%
X175752116Y-136727269D02*
X175799735Y-136774888D01*
X175942592Y-136822507D01*
X176037830Y-136822507D01*
X176180688Y-136774888D01*
X176275926Y-136679650D01*
X176323545Y-136584412D01*
X176371164Y-136393936D01*
X176371164Y-136251079D01*
X176323545Y-136060603D01*
X176275926Y-135965365D01*
X176180688Y-135870127D01*
X176037830Y-135822507D01*
X175942592Y-135822507D01*
X175799735Y-135870127D01*
X175752116Y-135917746D01*
X174894973Y-136155841D02*
X174894973Y-136822507D01*
X175133069Y-135774888D02*
X175371164Y-136489174D01*
X174752116Y-136489174D01*
%TO.C,C7*%
X195927142Y-81233333D02*
X195974761Y-81185714D01*
X196022380Y-81042857D01*
X196022380Y-80947619D01*
X195974761Y-80804761D01*
X195879523Y-80709523D01*
X195784285Y-80661904D01*
X195593809Y-80614285D01*
X195450952Y-80614285D01*
X195260476Y-80661904D01*
X195165238Y-80709523D01*
X195070000Y-80804761D01*
X195022380Y-80947619D01*
X195022380Y-81042857D01*
X195070000Y-81185714D01*
X195117619Y-81233333D01*
X195022380Y-81566666D02*
X195022380Y-82233333D01*
X196022380Y-81804761D01*
%TO.C,R2*%
X115267530Y-76537733D02*
X114791340Y-76204400D01*
X115267530Y-75966304D02*
X114267530Y-75966304D01*
X114267530Y-76347257D01*
X114315150Y-76442495D01*
X114362769Y-76490114D01*
X114458007Y-76537733D01*
X114600864Y-76537733D01*
X114696102Y-76490114D01*
X114743721Y-76442495D01*
X114791340Y-76347257D01*
X114791340Y-75966304D01*
X114362769Y-76918685D02*
X114315150Y-76966304D01*
X114267530Y-77061542D01*
X114267530Y-77299638D01*
X114315150Y-77394876D01*
X114362769Y-77442495D01*
X114458007Y-77490114D01*
X114553245Y-77490114D01*
X114696102Y-77442495D01*
X115267530Y-76871066D01*
X115267530Y-77490114D01*
%TO.C,C9*%
X173485942Y-74528660D02*
X173533561Y-74481041D01*
X173581180Y-74338184D01*
X173581180Y-74242946D01*
X173533561Y-74100088D01*
X173438323Y-74004850D01*
X173343085Y-73957231D01*
X173152609Y-73909612D01*
X173009752Y-73909612D01*
X172819276Y-73957231D01*
X172724038Y-74004850D01*
X172628800Y-74100088D01*
X172581180Y-74242946D01*
X172581180Y-74338184D01*
X172628800Y-74481041D01*
X172676419Y-74528660D01*
X173581180Y-75004850D02*
X173581180Y-75195327D01*
X173533561Y-75290565D01*
X173485942Y-75338184D01*
X173343085Y-75433422D01*
X173152609Y-75481041D01*
X172771657Y-75481041D01*
X172676419Y-75433422D01*
X172628800Y-75385803D01*
X172581180Y-75290565D01*
X172581180Y-75100088D01*
X172628800Y-75004850D01*
X172676419Y-74957231D01*
X172771657Y-74909612D01*
X173009752Y-74909612D01*
X173104990Y-74957231D01*
X173152609Y-75004850D01*
X173200228Y-75100088D01*
X173200228Y-75290565D01*
X173152609Y-75385803D01*
X173104990Y-75433422D01*
X173009752Y-75481041D01*
%TO.C,U2*%
X110058104Y-135672580D02*
X110058104Y-136482104D01*
X110010485Y-136577342D01*
X109962866Y-136624961D01*
X109867628Y-136672580D01*
X109677152Y-136672580D01*
X109581914Y-136624961D01*
X109534295Y-136577342D01*
X109486676Y-136482104D01*
X109486676Y-135672580D01*
X109058104Y-135767819D02*
X109010485Y-135720200D01*
X108915247Y-135672580D01*
X108677152Y-135672580D01*
X108581914Y-135720200D01*
X108534295Y-135767819D01*
X108486676Y-135863057D01*
X108486676Y-135958295D01*
X108534295Y-136101152D01*
X109105723Y-136672580D01*
X108486676Y-136672580D01*
%TO.C,C7*%
X141766666Y-57687142D02*
X141814285Y-57734761D01*
X141957142Y-57782380D01*
X142052380Y-57782380D01*
X142195238Y-57734761D01*
X142290476Y-57639523D01*
X142338095Y-57544285D01*
X142385714Y-57353809D01*
X142385714Y-57210952D01*
X142338095Y-57020476D01*
X142290476Y-56925238D01*
X142195238Y-56830000D01*
X142052380Y-56782380D01*
X141957142Y-56782380D01*
X141814285Y-56830000D01*
X141766666Y-56877619D01*
X141433333Y-56782380D02*
X140766666Y-56782380D01*
X141195238Y-57782380D01*
%TO.C,U2*%
X174061354Y-135746307D02*
X174061354Y-136555831D01*
X174013735Y-136651069D01*
X173966116Y-136698688D01*
X173870878Y-136746307D01*
X173680402Y-136746307D01*
X173585164Y-136698688D01*
X173537545Y-136651069D01*
X173489926Y-136555831D01*
X173489926Y-135746307D01*
X173061354Y-135841546D02*
X173013735Y-135793927D01*
X172918497Y-135746307D01*
X172680402Y-135746307D01*
X172585164Y-135793927D01*
X172537545Y-135841546D01*
X172489926Y-135936784D01*
X172489926Y-136032022D01*
X172537545Y-136174879D01*
X173108973Y-136746307D01*
X172489926Y-136746307D01*
%TO.C,C1*%
X177283266Y-77262269D02*
X177330885Y-77309888D01*
X177473742Y-77357507D01*
X177568980Y-77357507D01*
X177711838Y-77309888D01*
X177807076Y-77214650D01*
X177854695Y-77119412D01*
X177902314Y-76928936D01*
X177902314Y-76786079D01*
X177854695Y-76595603D01*
X177807076Y-76500365D01*
X177711838Y-76405127D01*
X177568980Y-76357507D01*
X177473742Y-76357507D01*
X177330885Y-76405127D01*
X177283266Y-76452746D01*
X176330885Y-77357507D02*
X176902314Y-77357507D01*
X176616600Y-77357507D02*
X176616600Y-76357507D01*
X176711838Y-76500365D01*
X176807076Y-76595603D01*
X176902314Y-76643222D01*
%TO.C,C10*%
X113038692Y-95848142D02*
X113086311Y-95800523D01*
X113133930Y-95657666D01*
X113133930Y-95562428D01*
X113086311Y-95419571D01*
X112991073Y-95324333D01*
X112895835Y-95276714D01*
X112705359Y-95229095D01*
X112562502Y-95229095D01*
X112372026Y-95276714D01*
X112276788Y-95324333D01*
X112181550Y-95419571D01*
X112133930Y-95562428D01*
X112133930Y-95657666D01*
X112181550Y-95800523D01*
X112229169Y-95848142D01*
X113133930Y-96800523D02*
X113133930Y-96229095D01*
X113133930Y-96514809D02*
X112133930Y-96514809D01*
X112276788Y-96419571D01*
X112372026Y-96324333D01*
X112419645Y-96229095D01*
X112133930Y-97419571D02*
X112133930Y-97514809D01*
X112181550Y-97610047D01*
X112229169Y-97657666D01*
X112324407Y-97705285D01*
X112514883Y-97752904D01*
X112752978Y-97752904D01*
X112943454Y-97705285D01*
X113038692Y-97657666D01*
X113086311Y-97610047D01*
X113133930Y-97514809D01*
X113133930Y-97419571D01*
X113086311Y-97324333D01*
X113038692Y-97276714D01*
X112943454Y-97229095D01*
X112752978Y-97181476D01*
X112514883Y-97181476D01*
X112324407Y-97229095D01*
X112229169Y-97276714D01*
X112181550Y-97324333D01*
X112133930Y-97419571D01*
%TO.C,C7*%
X195927142Y-136833333D02*
X195974761Y-136785714D01*
X196022380Y-136642857D01*
X196022380Y-136547619D01*
X195974761Y-136404761D01*
X195879523Y-136309523D01*
X195784285Y-136261904D01*
X195593809Y-136214285D01*
X195450952Y-136214285D01*
X195260476Y-136261904D01*
X195165238Y-136309523D01*
X195070000Y-136404761D01*
X195022380Y-136547619D01*
X195022380Y-136642857D01*
X195070000Y-136785714D01*
X195117619Y-136833333D01*
X195022380Y-137166666D02*
X195022380Y-137833333D01*
X196022380Y-137404761D01*
%TO.C,R1*%
X114937330Y-96298933D02*
X114461140Y-95965600D01*
X114937330Y-95727504D02*
X113937330Y-95727504D01*
X113937330Y-96108457D01*
X113984950Y-96203695D01*
X114032569Y-96251314D01*
X114127807Y-96298933D01*
X114270664Y-96298933D01*
X114365902Y-96251314D01*
X114413521Y-96203695D01*
X114461140Y-96108457D01*
X114461140Y-95727504D01*
X114937330Y-97251314D02*
X114937330Y-96679885D01*
X114937330Y-96965600D02*
X113937330Y-96965600D01*
X114080188Y-96870361D01*
X114175426Y-96775123D01*
X114223045Y-96679885D01*
%TO.C,C5*%
X115309942Y-131760933D02*
X115357561Y-131713314D01*
X115405180Y-131570457D01*
X115405180Y-131475219D01*
X115357561Y-131332361D01*
X115262323Y-131237123D01*
X115167085Y-131189504D01*
X114976609Y-131141885D01*
X114833752Y-131141885D01*
X114643276Y-131189504D01*
X114548038Y-131237123D01*
X114452800Y-131332361D01*
X114405180Y-131475219D01*
X114405180Y-131570457D01*
X114452800Y-131713314D01*
X114500419Y-131760933D01*
X114405180Y-132665695D02*
X114405180Y-132189504D01*
X114881371Y-132141885D01*
X114833752Y-132189504D01*
X114786133Y-132284742D01*
X114786133Y-132522838D01*
X114833752Y-132618076D01*
X114881371Y-132665695D01*
X114976609Y-132713314D01*
X115214704Y-132713314D01*
X115309942Y-132665695D01*
X115357561Y-132618076D01*
X115405180Y-132522838D01*
X115405180Y-132284742D01*
X115357561Y-132189504D01*
X115309942Y-132141885D01*
%TO.C,R1*%
X178940580Y-96372660D02*
X178464390Y-96039327D01*
X178940580Y-95801231D02*
X177940580Y-95801231D01*
X177940580Y-96182184D01*
X177988200Y-96277422D01*
X178035819Y-96325041D01*
X178131057Y-96372660D01*
X178273914Y-96372660D01*
X178369152Y-96325041D01*
X178416771Y-96277422D01*
X178464390Y-96182184D01*
X178464390Y-95801231D01*
X178940580Y-97325041D02*
X178940580Y-96753612D01*
X178940580Y-97039327D02*
X177940580Y-97039327D01*
X178083438Y-96944088D01*
X178178676Y-96848850D01*
X178226295Y-96753612D01*
%TO.C,Y1*%
X177686789Y-81532736D02*
X178162979Y-81532736D01*
X177162979Y-81199403D02*
X177686789Y-81532736D01*
X177162979Y-81866069D01*
X178162979Y-82723212D02*
X178162979Y-82151784D01*
X178162979Y-82437498D02*
X177162979Y-82437498D01*
X177305837Y-82342260D01*
X177401075Y-82247022D01*
X177448694Y-82151784D01*
%TO.C,U3*%
X108693654Y-89821980D02*
X108693654Y-90631504D01*
X108646035Y-90726742D01*
X108598416Y-90774361D01*
X108503178Y-90821980D01*
X108312702Y-90821980D01*
X108217464Y-90774361D01*
X108169845Y-90726742D01*
X108122226Y-90631504D01*
X108122226Y-89821980D01*
X107741273Y-89821980D02*
X107122226Y-89821980D01*
X107455559Y-90202933D01*
X107312702Y-90202933D01*
X107217464Y-90250552D01*
X107169845Y-90298171D01*
X107122226Y-90393409D01*
X107122226Y-90631504D01*
X107169845Y-90726742D01*
X107217464Y-90774361D01*
X107312702Y-90821980D01*
X107598416Y-90821980D01*
X107693654Y-90774361D01*
X107741273Y-90726742D01*
%TO.C,U2*%
X177065704Y-78135507D02*
X177065704Y-78945031D01*
X177018085Y-79040269D01*
X176970466Y-79087888D01*
X176875228Y-79135507D01*
X176684752Y-79135507D01*
X176589514Y-79087888D01*
X176541895Y-79040269D01*
X176494276Y-78945031D01*
X176494276Y-78135507D01*
X176065704Y-78230746D02*
X176018085Y-78183127D01*
X175922847Y-78135507D01*
X175684752Y-78135507D01*
X175589514Y-78183127D01*
X175541895Y-78230746D01*
X175494276Y-78325984D01*
X175494276Y-78421222D01*
X175541895Y-78564079D01*
X176113323Y-79135507D01*
X175494276Y-79135507D01*
D11*
%TO.C,C5*%
X104703950Y-83042580D02*
X104703950Y-82761420D01*
X105723950Y-83042580D02*
X105723950Y-82761420D01*
%TO.C,D2*%
X116712000Y-137322600D02*
X116712000Y-142722600D01*
X113412000Y-137322600D02*
X113412000Y-142722600D01*
X113412000Y-137322600D02*
X116712000Y-137322600D01*
%TO.C,C4*%
X114199580Y-135811800D02*
X113918420Y-135811800D01*
X114199580Y-136831800D02*
X113918420Y-136831800D01*
%TO.C,C1*%
X175662230Y-137587327D02*
X175381070Y-137587327D01*
X175662230Y-138607327D02*
X175381070Y-138607327D01*
%TO.C,R2*%
X178540000Y-78732686D02*
X178540000Y-79039968D01*
X179300000Y-78732686D02*
X179300000Y-79039968D01*
%TO.C,R4*%
X182112591Y-150645927D02*
X181805309Y-150645927D01*
X182112591Y-151405927D02*
X181805309Y-151405927D01*
%TO.C,U3*%
X175663800Y-93536727D02*
X174403800Y-93536727D01*
X175663800Y-99546727D02*
X175663800Y-93536727D01*
X168843800Y-93536727D02*
X170103800Y-93536727D01*
X168843800Y-97296727D02*
X168843800Y-93536727D01*
%TO.C,R2*%
X170303250Y-136244368D02*
X170303250Y-135937086D01*
X171063250Y-136244368D02*
X171063250Y-135937086D01*
%TO.C,C8*%
X175555250Y-144318927D02*
X173685250Y-144318927D01*
X175555250Y-140408927D02*
X175555250Y-144318927D01*
X173685250Y-144318927D02*
X173685250Y-140408927D01*
%TO.C,R6*%
X108339150Y-65605841D02*
X108339150Y-65298559D01*
X109099150Y-65605841D02*
X109099150Y-65298559D01*
%TO.C,R3*%
X169640850Y-136246368D02*
X169640850Y-135939086D01*
X168880850Y-136246368D02*
X168880850Y-135939086D01*
%TO.C,Y1*%
X168692650Y-133768127D02*
X168292650Y-133768127D01*
X171092650Y-134968127D02*
X169092650Y-134968127D01*
X171092650Y-131168127D02*
X169092650Y-131168127D01*
X171092650Y-131968127D02*
X171092650Y-131168127D01*
X168692650Y-131168127D02*
X168692650Y-131968127D01*
X169092650Y-131168127D02*
X168692650Y-131168127D01*
X169092650Y-134968127D02*
X168692650Y-134968127D01*
X168692650Y-133768127D02*
X168692650Y-134768127D01*
X171092650Y-134768127D02*
X171092650Y-133768127D01*
X169092650Y-134768127D02*
X168692650Y-134768127D01*
X169092650Y-134768127D02*
X171092650Y-134768127D01*
%TO.C,R6*%
X112497600Y-149223759D02*
X112497600Y-149531041D01*
X113257600Y-149223759D02*
X113257600Y-149531041D01*
%TO.C,C10*%
X176174800Y-93426947D02*
X176174800Y-93708107D01*
X177194800Y-93426947D02*
X177194800Y-93708107D01*
%TO.C,C9*%
X108590150Y-71953420D02*
X108590150Y-72234580D01*
X109610150Y-71953420D02*
X109610150Y-72234580D01*
%TO.C,R5*%
X111945950Y-65605841D02*
X111945950Y-65298559D01*
X112705950Y-65605841D02*
X112705950Y-65298559D01*
%TO.C,C4*%
X107397170Y-79017800D02*
X107678330Y-79017800D01*
X107397170Y-77997800D02*
X107678330Y-77997800D01*
%TO.C,R2*%
X106300000Y-136170641D02*
X106300000Y-135863359D01*
X107060000Y-136170641D02*
X107060000Y-135863359D01*
%TO.C,D2*%
X108184750Y-77507000D02*
X104884750Y-77507000D01*
X104884750Y-77507000D02*
X104884750Y-72107000D01*
X108184750Y-77507000D02*
X108184750Y-72107000D01*
%TO.C,R4*%
X167490659Y-64331127D02*
X167797941Y-64331127D01*
X167490659Y-63571127D02*
X167797941Y-63571127D01*
%TO.C,R3*%
X115959150Y-78656959D02*
X115959150Y-78964241D01*
X116719150Y-78656959D02*
X116719150Y-78964241D01*
%TO.C,R6*%
X172342400Y-65679568D02*
X172342400Y-65372286D01*
X173102400Y-65679568D02*
X173102400Y-65372286D01*
%TO.C,C9*%
X111986600Y-142876180D02*
X111986600Y-142595020D01*
X113006600Y-142876180D02*
X113006600Y-142595020D01*
%TO.C,R3*%
X179962400Y-78730686D02*
X179962400Y-79037968D01*
X180722400Y-78730686D02*
X180722400Y-79037968D01*
%TO.C,C8*%
X111552000Y-144245200D02*
X109682000Y-144245200D01*
X111552000Y-140335200D02*
X111552000Y-144245200D01*
X109682000Y-144245200D02*
X109682000Y-140335200D01*
%TO.C,U2*%
X109684350Y-89638400D02*
X111634350Y-89638400D01*
X109684350Y-79518400D02*
X107734350Y-79518400D01*
X109684350Y-89638400D02*
X107734350Y-89638400D01*
X109684350Y-79518400D02*
X113134350Y-79518400D01*
%TO.C,C8*%
X110044750Y-70584400D02*
X111914750Y-70584400D01*
X111914750Y-70584400D02*
X111914750Y-74494400D01*
X110044750Y-74494400D02*
X110044750Y-70584400D01*
%TO.C,C10*%
X173428450Y-121550107D02*
X173428450Y-121268947D01*
X172408450Y-121550107D02*
X172408450Y-121268947D01*
%TO.C,R5*%
X176709200Y-65679568D02*
X176709200Y-65372286D01*
X175949200Y-65679568D02*
X175949200Y-65372286D01*
%TO.C,Y1*%
X114507350Y-80135200D02*
X114507350Y-81135200D01*
X116507350Y-83735200D02*
X116907350Y-83735200D01*
X116907350Y-81135200D02*
X116907350Y-80135200D01*
X114507350Y-79935200D02*
X116507350Y-79935200D01*
X114507350Y-82935200D02*
X114507350Y-83735200D01*
X116507350Y-80135200D02*
X114507350Y-80135200D01*
X116907350Y-83735200D02*
X116907350Y-82935200D01*
X116907350Y-81135200D02*
X117307350Y-81135200D01*
X114507350Y-83735200D02*
X116507350Y-83735200D01*
X116507350Y-79935200D02*
X116907350Y-79935200D01*
X116507350Y-80135200D02*
X116907350Y-80135200D01*
%TO.C,C8*%
X174048000Y-70658127D02*
X175918000Y-70658127D01*
X174048000Y-74568127D02*
X174048000Y-70658127D01*
X175918000Y-70658127D02*
X175918000Y-74568127D01*
%TO.C,D2*%
X172188000Y-77580727D02*
X168888000Y-77580727D01*
X168888000Y-77580727D02*
X168888000Y-72180727D01*
X172188000Y-77580727D02*
X172188000Y-72180727D01*
%TO.C,C5*%
X180896050Y-131860747D02*
X180896050Y-132141907D01*
X179876050Y-131860747D02*
X179876050Y-132141907D01*
%TO.C,R1*%
X107390200Y-121260841D02*
X107390200Y-120953559D01*
X106630200Y-121260841D02*
X106630200Y-120953559D01*
%TO.C,C5*%
X168707200Y-83116307D02*
X168707200Y-82835147D01*
X169727200Y-83116307D02*
X169727200Y-82835147D01*
%TO.C,R1*%
X170633450Y-121334568D02*
X170633450Y-121027286D01*
X171393450Y-121334568D02*
X171393450Y-121027286D01*
%TO.C,Y1*%
X104689400Y-131094400D02*
X104689400Y-131894400D01*
X104689400Y-133694400D02*
X104689400Y-134694400D01*
X104689400Y-133694400D02*
X104289400Y-133694400D01*
X105089400Y-134694400D02*
X104689400Y-134694400D01*
X105089400Y-134894400D02*
X104689400Y-134894400D01*
X107089400Y-134694400D02*
X107089400Y-133694400D01*
X105089400Y-131094400D02*
X104689400Y-131094400D01*
X107089400Y-134894400D02*
X105089400Y-134894400D01*
X105089400Y-134694400D02*
X107089400Y-134694400D01*
X107089400Y-131094400D02*
X105089400Y-131094400D01*
X107089400Y-131894400D02*
X107089400Y-131094400D01*
%TO.C,C4*%
X171400420Y-78071527D02*
X171681580Y-78071527D01*
X171400420Y-79091527D02*
X171681580Y-79091527D01*
%TO.C,R6*%
X177260850Y-149297486D02*
X177260850Y-149604768D01*
X176500850Y-149297486D02*
X176500850Y-149604768D01*
%TO.C,C1*%
X109937770Y-77316000D02*
X110218930Y-77316000D01*
X109937770Y-76296000D02*
X110218930Y-76296000D01*
%TO.C,U3*%
X180759450Y-117680327D02*
X180759450Y-121440327D01*
X180759450Y-121440327D02*
X179499450Y-121440327D01*
X173939450Y-121440327D02*
X175199450Y-121440327D01*
X173939450Y-115430327D02*
X173939450Y-121440327D01*
%TO.C,R4*%
X103487409Y-64257400D02*
X103794691Y-64257400D01*
X103487409Y-63497400D02*
X103794691Y-63497400D01*
%TO.C,C10*%
X108405200Y-121476380D02*
X108405200Y-121195220D01*
X109425200Y-121476380D02*
X109425200Y-121195220D01*
%TO.C,D2*%
X180715250Y-137396327D02*
X180715250Y-142796327D01*
X177415250Y-137396327D02*
X177415250Y-142796327D01*
X177415250Y-137396327D02*
X180715250Y-137396327D01*
%TO.C,U3*%
X116756200Y-117606600D02*
X116756200Y-121366600D01*
X109936200Y-121366600D02*
X111196200Y-121366600D01*
X116756200Y-121366600D02*
X115496200Y-121366600D01*
X109936200Y-115356600D02*
X109936200Y-121366600D01*
%TO.C,R5*%
X109650800Y-149223759D02*
X109650800Y-149531041D01*
X108890800Y-149223759D02*
X108890800Y-149531041D01*
%TO.C,C9*%
X177009850Y-142949907D02*
X177009850Y-142668747D01*
X175989850Y-142949907D02*
X175989850Y-142668747D01*
%TO.C,R5*%
X172894050Y-149297486D02*
X172894050Y-149604768D01*
X173654050Y-149297486D02*
X173654050Y-149604768D01*
%TO.C,R3*%
X105637600Y-136172641D02*
X105637600Y-135865359D01*
X104877600Y-136172641D02*
X104877600Y-135865359D01*
%TO.C,C1*%
X111658980Y-137513600D02*
X111377820Y-137513600D01*
X111658980Y-138533600D02*
X111377820Y-138533600D01*
%TO.C,R4*%
X118109341Y-150572200D02*
X117802059Y-150572200D01*
X118109341Y-151332200D02*
X117802059Y-151332200D01*
%TO.C,C4*%
X178202830Y-136905527D02*
X177921670Y-136905527D01*
X178202830Y-135885527D02*
X177921670Y-135885527D01*
%TO.C,C7*%
X193630000Y-81540580D02*
X193630000Y-81259420D01*
X194650000Y-81540580D02*
X194650000Y-81259420D01*
%TO.C,R2*%
X114536750Y-78658959D02*
X114536750Y-78966241D01*
X115296750Y-78658959D02*
X115296750Y-78966241D01*
%TO.C,C9*%
X172593400Y-72027147D02*
X172593400Y-72308307D01*
X173613400Y-72027147D02*
X173613400Y-72308307D01*
%TO.C,U2*%
X111912400Y-135311200D02*
X108462400Y-135311200D01*
X111912400Y-125191200D02*
X113862400Y-125191200D01*
X111912400Y-125191200D02*
X109962400Y-125191200D01*
X111912400Y-135311200D02*
X113862400Y-135311200D01*
%TO.C,C7*%
X141740580Y-59270000D02*
X141459420Y-59270000D01*
X141740580Y-58250000D02*
X141459420Y-58250000D01*
%TO.C,U2*%
X175915650Y-125264927D02*
X177865650Y-125264927D01*
X175915650Y-125264927D02*
X173965650Y-125264927D01*
X175915650Y-135384927D02*
X177865650Y-135384927D01*
X175915650Y-135384927D02*
X172465650Y-135384927D01*
%TO.C,C1*%
X173941020Y-77389727D02*
X174222180Y-77389727D01*
X173941020Y-76369727D02*
X174222180Y-76369727D01*
%TO.C,C10*%
X112171550Y-93353220D02*
X112171550Y-93634380D01*
X113191550Y-93353220D02*
X113191550Y-93634380D01*
%TO.C,C7*%
X194650000Y-137140580D02*
X194650000Y-136859420D01*
X193630000Y-137140580D02*
X193630000Y-136859420D01*
%TO.C,R1*%
X114966550Y-93568759D02*
X114966550Y-93876041D01*
X114206550Y-93568759D02*
X114206550Y-93876041D01*
%TO.C,C5*%
X116892800Y-131787020D02*
X116892800Y-132068180D01*
X115872800Y-131787020D02*
X115872800Y-132068180D01*
%TO.C,R1*%
X178209800Y-93642486D02*
X178209800Y-93949768D01*
X178969800Y-93642486D02*
X178969800Y-93949768D01*
%TO.C,Y1*%
X178510600Y-80208927D02*
X178510600Y-81208927D01*
X178510600Y-83808927D02*
X180510600Y-83808927D01*
X178510600Y-83008927D02*
X178510600Y-83808927D01*
X180510600Y-80208927D02*
X180910600Y-80208927D01*
X180910600Y-81208927D02*
X180910600Y-80208927D01*
X180910600Y-81208927D02*
X181310600Y-81208927D01*
X180910600Y-83808927D02*
X180910600Y-83008927D01*
X178510600Y-80008927D02*
X180510600Y-80008927D01*
X180510600Y-80008927D02*
X180910600Y-80008927D01*
X180510600Y-83808927D02*
X180910600Y-83808927D01*
X180510600Y-80208927D02*
X178510600Y-80208927D01*
%TO.C,U3*%
X104840550Y-93463000D02*
X106100550Y-93463000D01*
X111660550Y-99473000D02*
X111660550Y-93463000D01*
X104840550Y-97223000D02*
X104840550Y-93463000D01*
X111660550Y-93463000D02*
X110400550Y-93463000D01*
%TO.C,U2*%
X173687600Y-89712127D02*
X175637600Y-89712127D01*
X173687600Y-89712127D02*
X171737600Y-89712127D01*
X173687600Y-79592127D02*
X171737600Y-79592127D01*
X173687600Y-79592127D02*
X177137600Y-79592127D01*
%TD*%
M02*
