%TF.GenerationSoftware,KiCad,Pcbnew,(6.0.1)*%
%TF.CreationDate,2022-04-04T10:53:51-04:00*%
%TF.ProjectId,arduino_usb_c,61726475-696e-46f5-9f75-73625f632e6b,rev?*%
%TF.SameCoordinates,Original*%
%TF.FileFunction,Legend,Top*%
%TF.FilePolarity,Positive*%
%FSLAX46Y46*%
G04 Gerber Fmt 4.6, Leading zero omitted, Abs format (unit mm)*
G04 Created by KiCad (PCBNEW (6.0.1)) date 2022-04-04 10:53:51*
%MOMM*%
%LPD*%
G01*
G04 APERTURE LIST*
%ADD10C,0.150000*%
%ADD11C,0.300000*%
%ADD12C,0.750000*%
%ADD13C,0.250000*%
%ADD14C,0.254000*%
%ADD15C,0.120000*%
%ADD16C,0.200000*%
%ADD17C,0.100000*%
G04 APERTURE END LIST*
D10*
X100900000Y-152800000D02*
X203600000Y-152800000D01*
X203600000Y-152800000D02*
X203600000Y-50100000D01*
X203600000Y-50100000D02*
X100900000Y-50100000D01*
X100900000Y-50100000D02*
X100900000Y-152800000D01*
X128143000Y-103783400D02*
X161213800Y-103783400D01*
X161213800Y-103783400D02*
X161213800Y-119658400D01*
X161213800Y-119658400D02*
X128143000Y-119658400D01*
X128143000Y-119658400D02*
X128143000Y-103783400D01*
D11*
X133056076Y-100757761D02*
X133437028Y-100757761D01*
X133627504Y-100853000D01*
X133817980Y-101043476D01*
X133913219Y-101424428D01*
X133913219Y-102091095D01*
X133817980Y-102472047D01*
X133627504Y-102662523D01*
X133437028Y-102757761D01*
X133056076Y-102757761D01*
X132865600Y-102662523D01*
X132675123Y-102472047D01*
X132579885Y-102091095D01*
X132579885Y-101424428D01*
X132675123Y-101043476D01*
X132865600Y-100853000D01*
X133056076Y-100757761D01*
X135627504Y-101424428D02*
X135627504Y-102757761D01*
X134770361Y-101424428D02*
X134770361Y-102472047D01*
X134865600Y-102662523D01*
X135056076Y-102757761D01*
X135341790Y-102757761D01*
X135532266Y-102662523D01*
X135627504Y-102567285D01*
X136294171Y-101424428D02*
X137056076Y-101424428D01*
X136579885Y-100757761D02*
X136579885Y-102472047D01*
X136675123Y-102662523D01*
X136865600Y-102757761D01*
X137056076Y-102757761D01*
X137722742Y-101424428D02*
X137722742Y-103424428D01*
X137722742Y-101519666D02*
X137913219Y-101424428D01*
X138294171Y-101424428D01*
X138484647Y-101519666D01*
X138579885Y-101614904D01*
X138675123Y-101805380D01*
X138675123Y-102376809D01*
X138579885Y-102567285D01*
X138484647Y-102662523D01*
X138294171Y-102757761D01*
X137913219Y-102757761D01*
X137722742Y-102662523D01*
X140389409Y-101424428D02*
X140389409Y-102757761D01*
X139532266Y-101424428D02*
X139532266Y-102472047D01*
X139627504Y-102662523D01*
X139817980Y-102757761D01*
X140103695Y-102757761D01*
X140294171Y-102662523D01*
X140389409Y-102567285D01*
X141056076Y-101424428D02*
X141817980Y-101424428D01*
X141341790Y-100757761D02*
X141341790Y-102472047D01*
X141437028Y-102662523D01*
X141627504Y-102757761D01*
X141817980Y-102757761D01*
X143722742Y-100757761D02*
X144389409Y-102757761D01*
X145056076Y-100757761D01*
X146008457Y-102757761D02*
X145817980Y-102662523D01*
X145722742Y-102567285D01*
X145627504Y-102376809D01*
X145627504Y-101805380D01*
X145722742Y-101614904D01*
X145817980Y-101519666D01*
X146008457Y-101424428D01*
X146294171Y-101424428D01*
X146484647Y-101519666D01*
X146579885Y-101614904D01*
X146675123Y-101805380D01*
X146675123Y-102376809D01*
X146579885Y-102567285D01*
X146484647Y-102662523D01*
X146294171Y-102757761D01*
X146008457Y-102757761D01*
X147817980Y-102757761D02*
X147627504Y-102662523D01*
X147532266Y-102472047D01*
X147532266Y-100757761D01*
X148294171Y-101424428D02*
X149056076Y-101424428D01*
X148579885Y-100757761D02*
X148579885Y-102472047D01*
X148675123Y-102662523D01*
X148865600Y-102757761D01*
X149056076Y-102757761D01*
X150579885Y-102757761D02*
X150579885Y-101710142D01*
X150484647Y-101519666D01*
X150294171Y-101424428D01*
X149913219Y-101424428D01*
X149722742Y-101519666D01*
X150579885Y-102662523D02*
X150389409Y-102757761D01*
X149913219Y-102757761D01*
X149722742Y-102662523D01*
X149627504Y-102472047D01*
X149627504Y-102281571D01*
X149722742Y-102091095D01*
X149913219Y-101995857D01*
X150389409Y-101995857D01*
X150579885Y-101900619D01*
X152389409Y-101424428D02*
X152389409Y-103043476D01*
X152294171Y-103233952D01*
X152198933Y-103329190D01*
X152008457Y-103424428D01*
X151722742Y-103424428D01*
X151532266Y-103329190D01*
X152389409Y-102662523D02*
X152198933Y-102757761D01*
X151817980Y-102757761D01*
X151627504Y-102662523D01*
X151532266Y-102567285D01*
X151437028Y-102376809D01*
X151437028Y-101805380D01*
X151532266Y-101614904D01*
X151627504Y-101519666D01*
X151817980Y-101424428D01*
X152198933Y-101424428D01*
X152389409Y-101519666D01*
X154103695Y-102662523D02*
X153913219Y-102757761D01*
X153532266Y-102757761D01*
X153341790Y-102662523D01*
X153246552Y-102472047D01*
X153246552Y-101710142D01*
X153341790Y-101519666D01*
X153532266Y-101424428D01*
X153913219Y-101424428D01*
X154103695Y-101519666D01*
X154198933Y-101710142D01*
X154198933Y-101900619D01*
X153246552Y-102091095D01*
X155056076Y-102567285D02*
X155151314Y-102662523D01*
X155056076Y-102757761D01*
X154960838Y-102662523D01*
X155056076Y-102567285D01*
X155056076Y-102757761D01*
X155056076Y-101519666D02*
X155151314Y-101614904D01*
X155056076Y-101710142D01*
X154960838Y-101614904D01*
X155056076Y-101519666D01*
X155056076Y-101710142D01*
X104409942Y-123587171D02*
X104409942Y-122087171D01*
X106124228Y-122087171D02*
X106481371Y-123587171D01*
X106767085Y-122515742D01*
X107052800Y-123587171D01*
X107409942Y-122087171D01*
X107981371Y-123587171D02*
X107981371Y-122087171D01*
X109409942Y-123587171D02*
X108695657Y-123587171D01*
X108695657Y-122087171D01*
X110624228Y-123587171D02*
X109909942Y-123587171D01*
X109909942Y-122087171D01*
X112267085Y-123587171D02*
X112267085Y-122087171D01*
X112267085Y-122801457D02*
X113124228Y-122801457D01*
X113124228Y-123587171D02*
X113124228Y-122087171D01*
X113767085Y-123158600D02*
X114481371Y-123158600D01*
X113624228Y-123587171D02*
X114124228Y-122087171D01*
X114624228Y-123587171D01*
X114909942Y-122087171D02*
X115409942Y-123587171D01*
X115909942Y-122087171D01*
X116409942Y-122801457D02*
X116909942Y-122801457D01*
X117124228Y-123587171D02*
X116409942Y-123587171D01*
X116409942Y-122087171D01*
X117124228Y-122087171D01*
X106088514Y-126002171D02*
X106088514Y-124502171D01*
X106588514Y-125573600D01*
X107088514Y-124502171D01*
X107088514Y-126002171D01*
X108088514Y-125287885D02*
X108088514Y-126002171D01*
X107588514Y-124502171D02*
X108088514Y-125287885D01*
X108588514Y-124502171D01*
X110731371Y-125216457D02*
X110945657Y-125287885D01*
X111017085Y-125359314D01*
X111088514Y-125502171D01*
X111088514Y-125716457D01*
X111017085Y-125859314D01*
X110945657Y-125930742D01*
X110802800Y-126002171D01*
X110231371Y-126002171D01*
X110231371Y-124502171D01*
X110731371Y-124502171D01*
X110874228Y-124573600D01*
X110945657Y-124645028D01*
X111017085Y-124787885D01*
X111017085Y-124930742D01*
X110945657Y-125073600D01*
X110874228Y-125145028D01*
X110731371Y-125216457D01*
X110231371Y-125216457D01*
X112445657Y-126002171D02*
X111731371Y-126002171D01*
X111731371Y-124502171D01*
X112874228Y-125573600D02*
X113588514Y-125573600D01*
X112731371Y-126002171D02*
X113231371Y-124502171D01*
X113731371Y-126002171D01*
X115088514Y-125859314D02*
X115017085Y-125930742D01*
X114802800Y-126002171D01*
X114659942Y-126002171D01*
X114445657Y-125930742D01*
X114302800Y-125787885D01*
X114231371Y-125645028D01*
X114159942Y-125359314D01*
X114159942Y-125145028D01*
X114231371Y-124859314D01*
X114302800Y-124716457D01*
X114445657Y-124573600D01*
X114659942Y-124502171D01*
X114802800Y-124502171D01*
X115017085Y-124573600D01*
X115088514Y-124645028D01*
X115731371Y-126002171D02*
X115731371Y-124502171D01*
X116588514Y-126002171D02*
X115945657Y-125145028D01*
X116588514Y-124502171D02*
X115731371Y-125359314D01*
X106374228Y-127988600D02*
X107088514Y-127988600D01*
X106231371Y-128417171D02*
X106731371Y-126917171D01*
X107231371Y-128417171D01*
X108588514Y-128417171D02*
X108088514Y-127702885D01*
X107731371Y-128417171D02*
X107731371Y-126917171D01*
X108302800Y-126917171D01*
X108445657Y-126988600D01*
X108517085Y-127060028D01*
X108588514Y-127202885D01*
X108588514Y-127417171D01*
X108517085Y-127560028D01*
X108445657Y-127631457D01*
X108302800Y-127702885D01*
X107731371Y-127702885D01*
X109231371Y-128417171D02*
X109231371Y-126917171D01*
X109588514Y-126917171D01*
X109802800Y-126988600D01*
X109945657Y-127131457D01*
X110017085Y-127274314D01*
X110088514Y-127560028D01*
X110088514Y-127774314D01*
X110017085Y-128060028D01*
X109945657Y-128202885D01*
X109802800Y-128345742D01*
X109588514Y-128417171D01*
X109231371Y-128417171D01*
X110731371Y-126917171D02*
X110731371Y-128131457D01*
X110802800Y-128274314D01*
X110874228Y-128345742D01*
X111017085Y-128417171D01*
X111302800Y-128417171D01*
X111445657Y-128345742D01*
X111517085Y-128274314D01*
X111588514Y-128131457D01*
X111588514Y-126917171D01*
X112302800Y-128417171D02*
X112302800Y-126917171D01*
X113017085Y-128417171D02*
X113017085Y-126917171D01*
X113874228Y-128417171D01*
X113874228Y-126917171D01*
X114874228Y-126917171D02*
X115159942Y-126917171D01*
X115302800Y-126988600D01*
X115445657Y-127131457D01*
X115517085Y-127417171D01*
X115517085Y-127917171D01*
X115445657Y-128202885D01*
X115302800Y-128345742D01*
X115159942Y-128417171D01*
X114874228Y-128417171D01*
X114731371Y-128345742D01*
X114588514Y-128202885D01*
X114517085Y-127917171D01*
X114517085Y-127417171D01*
X114588514Y-127131457D01*
X114731371Y-126988600D01*
X114874228Y-126917171D01*
X116159942Y-128274314D02*
X116231371Y-128345742D01*
X116159942Y-128417171D01*
X116088514Y-128345742D01*
X116159942Y-128274314D01*
X116159942Y-128417171D01*
D10*
X156162571Y-123819019D02*
X156210190Y-123771400D01*
X156305428Y-123723780D01*
X156543523Y-123723780D01*
X156638761Y-123771400D01*
X156686380Y-123819019D01*
X156734000Y-123914257D01*
X156734000Y-124009495D01*
X156686380Y-124152352D01*
X156114952Y-124723780D01*
X156734000Y-124723780D01*
X157353047Y-123723780D02*
X157448285Y-123723780D01*
X157543523Y-123771400D01*
X157591142Y-123819019D01*
X157638761Y-123914257D01*
X157686380Y-124104733D01*
X157686380Y-124342828D01*
X157638761Y-124533304D01*
X157591142Y-124628542D01*
X157543523Y-124676161D01*
X157448285Y-124723780D01*
X157353047Y-124723780D01*
X157257809Y-124676161D01*
X157210190Y-124628542D01*
X157162571Y-124533304D01*
X157114952Y-124342828D01*
X157114952Y-124104733D01*
X157162571Y-123914257D01*
X157210190Y-123819019D01*
X157257809Y-123771400D01*
X157353047Y-123723780D01*
X158067333Y-124438066D02*
X158543523Y-124438066D01*
X157972095Y-124723780D02*
X158305428Y-123723780D01*
X158638761Y-124723780D01*
X153734000Y-126333780D02*
X153734000Y-125333780D01*
X154067333Y-126048066D01*
X154400666Y-125333780D01*
X154400666Y-126333780D01*
X154876857Y-126333780D02*
X154876857Y-125333780D01*
X155353047Y-126333780D02*
X155353047Y-125333780D01*
X155924476Y-126333780D01*
X155924476Y-125333780D01*
X156400666Y-126333780D02*
X156400666Y-125333780D01*
X157972095Y-125809971D02*
X158114952Y-125857590D01*
X158162571Y-125905209D01*
X158210190Y-126000447D01*
X158210190Y-126143304D01*
X158162571Y-126238542D01*
X158114952Y-126286161D01*
X158019714Y-126333780D01*
X157638761Y-126333780D01*
X157638761Y-125333780D01*
X157972095Y-125333780D01*
X158067333Y-125381400D01*
X158114952Y-125429019D01*
X158162571Y-125524257D01*
X158162571Y-125619495D01*
X158114952Y-125714733D01*
X158067333Y-125762352D01*
X157972095Y-125809971D01*
X157638761Y-125809971D01*
X159114952Y-126333780D02*
X158638761Y-126333780D01*
X158638761Y-125333780D01*
X159400666Y-126048066D02*
X159876857Y-126048066D01*
X159305428Y-126333780D02*
X159638761Y-125333780D01*
X159972095Y-126333780D01*
X160305428Y-126333780D02*
X160305428Y-125333780D01*
X160543523Y-125333780D01*
X160686380Y-125381400D01*
X160781619Y-125476638D01*
X160829238Y-125571876D01*
X160876857Y-125762352D01*
X160876857Y-125905209D01*
X160829238Y-126095685D01*
X160781619Y-126190923D01*
X160686380Y-126286161D01*
X160543523Y-126333780D01*
X160305428Y-126333780D01*
X161305428Y-125809971D02*
X161638761Y-125809971D01*
X161781619Y-126333780D02*
X161305428Y-126333780D01*
X161305428Y-125333780D01*
X161781619Y-125333780D01*
X156424476Y-127419971D02*
X156091142Y-127419971D01*
X156091142Y-127943780D02*
X156091142Y-126943780D01*
X156567333Y-126943780D01*
X156948285Y-126943780D02*
X156948285Y-127753304D01*
X156995904Y-127848542D01*
X157043523Y-127896161D01*
X157138761Y-127943780D01*
X157329238Y-127943780D01*
X157424476Y-127896161D01*
X157472095Y-127848542D01*
X157519714Y-127753304D01*
X157519714Y-126943780D01*
X157948285Y-127896161D02*
X158091142Y-127943780D01*
X158329238Y-127943780D01*
X158424476Y-127896161D01*
X158472095Y-127848542D01*
X158519714Y-127753304D01*
X158519714Y-127658066D01*
X158472095Y-127562828D01*
X158424476Y-127515209D01*
X158329238Y-127467590D01*
X158138761Y-127419971D01*
X158043523Y-127372352D01*
X157995904Y-127324733D01*
X157948285Y-127229495D01*
X157948285Y-127134257D01*
X157995904Y-127039019D01*
X158043523Y-126991400D01*
X158138761Y-126943780D01*
X158376857Y-126943780D01*
X158519714Y-126991400D01*
X158948285Y-127419971D02*
X159281619Y-127419971D01*
X159424476Y-127943780D02*
X158948285Y-127943780D01*
X158948285Y-126943780D01*
X159424476Y-126943780D01*
D12*
X127479657Y-120174542D02*
X128051085Y-120174542D01*
X128336800Y-120317400D01*
X128622514Y-120603114D01*
X128765371Y-121174542D01*
X128765371Y-122174542D01*
X128622514Y-122745971D01*
X128336800Y-123031685D01*
X128051085Y-123174542D01*
X127479657Y-123174542D01*
X127193942Y-123031685D01*
X126908228Y-122745971D01*
X126765371Y-122174542D01*
X126765371Y-121174542D01*
X126908228Y-120603114D01*
X127193942Y-120317400D01*
X127479657Y-120174542D01*
X130051085Y-123174542D02*
X130051085Y-120174542D01*
X131765371Y-123174542D01*
X131765371Y-120174542D01*
D13*
X104260580Y-147563885D02*
X104260580Y-146944838D01*
X104641533Y-147278171D01*
X104641533Y-147135314D01*
X104689152Y-147040076D01*
X104736771Y-146992457D01*
X104832009Y-146944838D01*
X105070104Y-146944838D01*
X105165342Y-146992457D01*
X105212961Y-147040076D01*
X105260580Y-147135314D01*
X105260580Y-147421028D01*
X105212961Y-147516266D01*
X105165342Y-147563885D01*
X104212961Y-145801980D02*
X105498676Y-146659123D01*
X104260580Y-145563885D02*
X104260580Y-144944838D01*
X104641533Y-145278171D01*
X104641533Y-145135314D01*
X104689152Y-145040076D01*
X104736771Y-144992457D01*
X104832009Y-144944838D01*
X105070104Y-144944838D01*
X105165342Y-144992457D01*
X105212961Y-145040076D01*
X105260580Y-145135314D01*
X105260580Y-145421028D01*
X105212961Y-145516266D01*
X105165342Y-145563885D01*
X105260580Y-143992457D02*
X105260580Y-144563885D01*
X105260580Y-144278171D02*
X104260580Y-144278171D01*
X104403438Y-144373409D01*
X104498676Y-144468647D01*
X104546295Y-144563885D01*
X104212961Y-142849600D02*
X105498676Y-143706742D01*
X104355819Y-142563885D02*
X104308200Y-142516266D01*
X104260580Y-142421028D01*
X104260580Y-142182933D01*
X104308200Y-142087695D01*
X104355819Y-142040076D01*
X104451057Y-141992457D01*
X104546295Y-141992457D01*
X104689152Y-142040076D01*
X105260580Y-142611504D01*
X105260580Y-141992457D01*
X105260580Y-141040076D02*
X105260580Y-141611504D01*
X105260580Y-141325790D02*
X104260580Y-141325790D01*
X104403438Y-141421028D01*
X104498676Y-141516266D01*
X104546295Y-141611504D01*
X104260580Y-139944838D02*
X105260580Y-139706742D01*
X104546295Y-139516266D01*
X105260580Y-139325790D01*
X104260580Y-139087695D01*
X105212961Y-138754361D02*
X105260580Y-138611504D01*
X105260580Y-138373409D01*
X105212961Y-138278171D01*
X105165342Y-138230552D01*
X105070104Y-138182933D01*
X104974866Y-138182933D01*
X104879628Y-138230552D01*
X104832009Y-138278171D01*
X104784390Y-138373409D01*
X104736771Y-138563885D01*
X104689152Y-138659123D01*
X104641533Y-138706742D01*
X104546295Y-138754361D01*
X104451057Y-138754361D01*
X104355819Y-138706742D01*
X104308200Y-138659123D01*
X104260580Y-138563885D01*
X104260580Y-138325790D01*
X104308200Y-138182933D01*
X105965819Y-144801980D02*
X105918200Y-144754361D01*
X105870580Y-144659123D01*
X105870580Y-144421028D01*
X105918200Y-144325790D01*
X105965819Y-144278171D01*
X106061057Y-144230552D01*
X106156295Y-144230552D01*
X106299152Y-144278171D01*
X106870580Y-144849600D01*
X106870580Y-144230552D01*
X106775342Y-143801980D02*
X106822961Y-143754361D01*
X106870580Y-143801980D01*
X106822961Y-143849600D01*
X106775342Y-143801980D01*
X106870580Y-143801980D01*
X105870580Y-143135314D02*
X105870580Y-143040076D01*
X105918200Y-142944838D01*
X105965819Y-142897219D01*
X106061057Y-142849600D01*
X106251533Y-142801980D01*
X106489628Y-142801980D01*
X106680104Y-142849600D01*
X106775342Y-142897219D01*
X106822961Y-142944838D01*
X106870580Y-143040076D01*
X106870580Y-143135314D01*
X106822961Y-143230552D01*
X106775342Y-143278171D01*
X106680104Y-143325790D01*
X106489628Y-143373409D01*
X106251533Y-143373409D01*
X106061057Y-143325790D01*
X105965819Y-143278171D01*
X105918200Y-143230552D01*
X105870580Y-143135314D01*
X105870580Y-142182933D02*
X105870580Y-142087695D01*
X105918200Y-141992457D01*
X105965819Y-141944838D01*
X106061057Y-141897219D01*
X106251533Y-141849600D01*
X106489628Y-141849600D01*
X106680104Y-141897219D01*
X106775342Y-141944838D01*
X106822961Y-141992457D01*
X106870580Y-142087695D01*
X106870580Y-142182933D01*
X106822961Y-142278171D01*
X106775342Y-142325790D01*
X106680104Y-142373409D01*
X106489628Y-142421028D01*
X106251533Y-142421028D01*
X106061057Y-142373409D01*
X105965819Y-142325790D01*
X105918200Y-142278171D01*
X105870580Y-142182933D01*
X105870580Y-141516266D02*
X105870580Y-140849600D01*
X106870580Y-141278171D01*
X145628361Y-139973628D02*
X146390266Y-139973628D01*
X146723600Y-139354580D02*
X147056933Y-140354580D01*
X147390266Y-139354580D01*
X147914076Y-139354580D02*
X148104552Y-139354580D01*
X148199790Y-139402200D01*
X148295028Y-139497438D01*
X148342647Y-139687914D01*
X148342647Y-140021247D01*
X148295028Y-140211723D01*
X148199790Y-140306961D01*
X148104552Y-140354580D01*
X147914076Y-140354580D01*
X147818838Y-140306961D01*
X147723600Y-140211723D01*
X147675980Y-140021247D01*
X147675980Y-139687914D01*
X147723600Y-139497438D01*
X147818838Y-139402200D01*
X147914076Y-139354580D01*
X148771219Y-139354580D02*
X148771219Y-140164104D01*
X148818838Y-140259342D01*
X148866457Y-140306961D01*
X148961695Y-140354580D01*
X149152171Y-140354580D01*
X149247409Y-140306961D01*
X149295028Y-140259342D01*
X149342647Y-140164104D01*
X149342647Y-139354580D01*
X149675980Y-139354580D02*
X150247409Y-139354580D01*
X149961695Y-140354580D02*
X149961695Y-139354580D01*
X151342647Y-139973628D02*
X152104552Y-139973628D01*
X151723600Y-140354580D02*
X151723600Y-139592676D01*
X152437885Y-139354580D02*
X152771219Y-140354580D01*
X153104552Y-139354580D01*
X153628361Y-139354580D02*
X153818838Y-139354580D01*
X153914076Y-139402200D01*
X154009314Y-139497438D01*
X154056933Y-139687914D01*
X154056933Y-140021247D01*
X154009314Y-140211723D01*
X153914076Y-140306961D01*
X153818838Y-140354580D01*
X153628361Y-140354580D01*
X153533123Y-140306961D01*
X153437885Y-140211723D01*
X153390266Y-140021247D01*
X153390266Y-139687914D01*
X153437885Y-139497438D01*
X153533123Y-139402200D01*
X153628361Y-139354580D01*
X154485504Y-139354580D02*
X154485504Y-140164104D01*
X154533123Y-140259342D01*
X154580742Y-140306961D01*
X154675980Y-140354580D01*
X154866457Y-140354580D01*
X154961695Y-140306961D01*
X155009314Y-140259342D01*
X155056933Y-140164104D01*
X155056933Y-139354580D01*
X155390266Y-139354580D02*
X155961695Y-139354580D01*
X155675980Y-140354580D02*
X155675980Y-139354580D01*
X168263830Y-147637612D02*
X168263830Y-147018565D01*
X168644783Y-147351898D01*
X168644783Y-147209041D01*
X168692402Y-147113803D01*
X168740021Y-147066184D01*
X168835259Y-147018565D01*
X169073354Y-147018565D01*
X169168592Y-147066184D01*
X169216211Y-147113803D01*
X169263830Y-147209041D01*
X169263830Y-147494755D01*
X169216211Y-147589993D01*
X169168592Y-147637612D01*
X168216211Y-145875707D02*
X169501926Y-146732850D01*
X168263830Y-145637612D02*
X168263830Y-145018565D01*
X168644783Y-145351898D01*
X168644783Y-145209041D01*
X168692402Y-145113803D01*
X168740021Y-145066184D01*
X168835259Y-145018565D01*
X169073354Y-145018565D01*
X169168592Y-145066184D01*
X169216211Y-145113803D01*
X169263830Y-145209041D01*
X169263830Y-145494755D01*
X169216211Y-145589993D01*
X169168592Y-145637612D01*
X169263830Y-144066184D02*
X169263830Y-144637612D01*
X169263830Y-144351898D02*
X168263830Y-144351898D01*
X168406688Y-144447136D01*
X168501926Y-144542374D01*
X168549545Y-144637612D01*
X168216211Y-142923327D02*
X169501926Y-143780469D01*
X168359069Y-142637612D02*
X168311450Y-142589993D01*
X168263830Y-142494755D01*
X168263830Y-142256660D01*
X168311450Y-142161422D01*
X168359069Y-142113803D01*
X168454307Y-142066184D01*
X168549545Y-142066184D01*
X168692402Y-142113803D01*
X169263830Y-142685231D01*
X169263830Y-142066184D01*
X169263830Y-141113803D02*
X169263830Y-141685231D01*
X169263830Y-141399517D02*
X168263830Y-141399517D01*
X168406688Y-141494755D01*
X168501926Y-141589993D01*
X168549545Y-141685231D01*
X168263830Y-140018565D02*
X169263830Y-139780469D01*
X168549545Y-139589993D01*
X169263830Y-139399517D01*
X168263830Y-139161422D01*
X169216211Y-138828088D02*
X169263830Y-138685231D01*
X169263830Y-138447136D01*
X169216211Y-138351898D01*
X169168592Y-138304279D01*
X169073354Y-138256660D01*
X168978116Y-138256660D01*
X168882878Y-138304279D01*
X168835259Y-138351898D01*
X168787640Y-138447136D01*
X168740021Y-138637612D01*
X168692402Y-138732850D01*
X168644783Y-138780469D01*
X168549545Y-138828088D01*
X168454307Y-138828088D01*
X168359069Y-138780469D01*
X168311450Y-138732850D01*
X168263830Y-138637612D01*
X168263830Y-138399517D01*
X168311450Y-138256660D01*
X169969069Y-144875707D02*
X169921450Y-144828088D01*
X169873830Y-144732850D01*
X169873830Y-144494755D01*
X169921450Y-144399517D01*
X169969069Y-144351898D01*
X170064307Y-144304279D01*
X170159545Y-144304279D01*
X170302402Y-144351898D01*
X170873830Y-144923327D01*
X170873830Y-144304279D01*
X170778592Y-143875707D02*
X170826211Y-143828088D01*
X170873830Y-143875707D01*
X170826211Y-143923327D01*
X170778592Y-143875707D01*
X170873830Y-143875707D01*
X169873830Y-143209041D02*
X169873830Y-143113803D01*
X169921450Y-143018565D01*
X169969069Y-142970946D01*
X170064307Y-142923327D01*
X170254783Y-142875707D01*
X170492878Y-142875707D01*
X170683354Y-142923327D01*
X170778592Y-142970946D01*
X170826211Y-143018565D01*
X170873830Y-143113803D01*
X170873830Y-143209041D01*
X170826211Y-143304279D01*
X170778592Y-143351898D01*
X170683354Y-143399517D01*
X170492878Y-143447136D01*
X170254783Y-143447136D01*
X170064307Y-143399517D01*
X169969069Y-143351898D01*
X169921450Y-143304279D01*
X169873830Y-143209041D01*
X169873830Y-142256660D02*
X169873830Y-142161422D01*
X169921450Y-142066184D01*
X169969069Y-142018565D01*
X170064307Y-141970946D01*
X170254783Y-141923327D01*
X170492878Y-141923327D01*
X170683354Y-141970946D01*
X170778592Y-142018565D01*
X170826211Y-142066184D01*
X170873830Y-142161422D01*
X170873830Y-142256660D01*
X170826211Y-142351898D01*
X170778592Y-142399517D01*
X170683354Y-142447136D01*
X170492878Y-142494755D01*
X170254783Y-142494755D01*
X170064307Y-142447136D01*
X169969069Y-142399517D01*
X169921450Y-142351898D01*
X169873830Y-142256660D01*
X169873830Y-141589993D02*
X169873830Y-140923327D01*
X170873830Y-141351898D01*
X117336169Y-67265714D02*
X117336169Y-67884761D01*
X116955216Y-67551428D01*
X116955216Y-67694285D01*
X116907597Y-67789523D01*
X116859978Y-67837142D01*
X116764740Y-67884761D01*
X116526645Y-67884761D01*
X116431407Y-67837142D01*
X116383788Y-67789523D01*
X116336169Y-67694285D01*
X116336169Y-67408571D01*
X116383788Y-67313333D01*
X116431407Y-67265714D01*
X117383788Y-69027619D02*
X116098073Y-68170476D01*
X117336169Y-69265714D02*
X117336169Y-69884761D01*
X116955216Y-69551428D01*
X116955216Y-69694285D01*
X116907597Y-69789523D01*
X116859978Y-69837142D01*
X116764740Y-69884761D01*
X116526645Y-69884761D01*
X116431407Y-69837142D01*
X116383788Y-69789523D01*
X116336169Y-69694285D01*
X116336169Y-69408571D01*
X116383788Y-69313333D01*
X116431407Y-69265714D01*
X116336169Y-70837142D02*
X116336169Y-70265714D01*
X116336169Y-70551428D02*
X117336169Y-70551428D01*
X117193311Y-70456190D01*
X117098073Y-70360952D01*
X117050454Y-70265714D01*
X117383788Y-71980000D02*
X116098073Y-71122857D01*
X117240930Y-72265714D02*
X117288550Y-72313333D01*
X117336169Y-72408571D01*
X117336169Y-72646666D01*
X117288550Y-72741904D01*
X117240930Y-72789523D01*
X117145692Y-72837142D01*
X117050454Y-72837142D01*
X116907597Y-72789523D01*
X116336169Y-72218095D01*
X116336169Y-72837142D01*
X116336169Y-73789523D02*
X116336169Y-73218095D01*
X116336169Y-73503809D02*
X117336169Y-73503809D01*
X117193311Y-73408571D01*
X117098073Y-73313333D01*
X117050454Y-73218095D01*
X117336169Y-74884761D02*
X116336169Y-75122857D01*
X117050454Y-75313333D01*
X116336169Y-75503809D01*
X117336169Y-75741904D01*
X116383788Y-76075238D02*
X116336169Y-76218095D01*
X116336169Y-76456190D01*
X116383788Y-76551428D01*
X116431407Y-76599047D01*
X116526645Y-76646666D01*
X116621883Y-76646666D01*
X116717121Y-76599047D01*
X116764740Y-76551428D01*
X116812359Y-76456190D01*
X116859978Y-76265714D01*
X116907597Y-76170476D01*
X116955216Y-76122857D01*
X117050454Y-76075238D01*
X117145692Y-76075238D01*
X117240930Y-76122857D01*
X117288550Y-76170476D01*
X117336169Y-76265714D01*
X117336169Y-76503809D01*
X117288550Y-76646666D01*
X115630930Y-70027619D02*
X115678550Y-70075238D01*
X115726169Y-70170476D01*
X115726169Y-70408571D01*
X115678550Y-70503809D01*
X115630930Y-70551428D01*
X115535692Y-70599047D01*
X115440454Y-70599047D01*
X115297597Y-70551428D01*
X114726169Y-69980000D01*
X114726169Y-70599047D01*
X114821407Y-71027619D02*
X114773788Y-71075238D01*
X114726169Y-71027619D01*
X114773788Y-70980000D01*
X114821407Y-71027619D01*
X114726169Y-71027619D01*
X115726169Y-71694285D02*
X115726169Y-71789523D01*
X115678550Y-71884761D01*
X115630930Y-71932380D01*
X115535692Y-71980000D01*
X115345216Y-72027619D01*
X115107121Y-72027619D01*
X114916645Y-71980000D01*
X114821407Y-71932380D01*
X114773788Y-71884761D01*
X114726169Y-71789523D01*
X114726169Y-71694285D01*
X114773788Y-71599047D01*
X114821407Y-71551428D01*
X114916645Y-71503809D01*
X115107121Y-71456190D01*
X115345216Y-71456190D01*
X115535692Y-71503809D01*
X115630930Y-71551428D01*
X115678550Y-71599047D01*
X115726169Y-71694285D01*
X115726169Y-72646666D02*
X115726169Y-72741904D01*
X115678550Y-72837142D01*
X115630930Y-72884761D01*
X115535692Y-72932380D01*
X115345216Y-72980000D01*
X115107121Y-72980000D01*
X114916645Y-72932380D01*
X114821407Y-72884761D01*
X114773788Y-72837142D01*
X114726169Y-72741904D01*
X114726169Y-72646666D01*
X114773788Y-72551428D01*
X114821407Y-72503809D01*
X114916645Y-72456190D01*
X115107121Y-72408571D01*
X115345216Y-72408571D01*
X115535692Y-72456190D01*
X115630930Y-72503809D01*
X115678550Y-72551428D01*
X115726169Y-72646666D01*
X115726169Y-73313333D02*
X115726169Y-73980000D01*
X114726169Y-73551428D01*
X181339419Y-67339441D02*
X181339419Y-67958488D01*
X180958466Y-67625155D01*
X180958466Y-67768012D01*
X180910847Y-67863250D01*
X180863228Y-67910869D01*
X180767990Y-67958488D01*
X180529895Y-67958488D01*
X180434657Y-67910869D01*
X180387038Y-67863250D01*
X180339419Y-67768012D01*
X180339419Y-67482298D01*
X180387038Y-67387060D01*
X180434657Y-67339441D01*
X181387038Y-69101346D02*
X180101323Y-68244203D01*
X181339419Y-69339441D02*
X181339419Y-69958488D01*
X180958466Y-69625155D01*
X180958466Y-69768012D01*
X180910847Y-69863250D01*
X180863228Y-69910869D01*
X180767990Y-69958488D01*
X180529895Y-69958488D01*
X180434657Y-69910869D01*
X180387038Y-69863250D01*
X180339419Y-69768012D01*
X180339419Y-69482298D01*
X180387038Y-69387060D01*
X180434657Y-69339441D01*
X180339419Y-70910869D02*
X180339419Y-70339441D01*
X180339419Y-70625155D02*
X181339419Y-70625155D01*
X181196561Y-70529917D01*
X181101323Y-70434679D01*
X181053704Y-70339441D01*
X181387038Y-72053727D02*
X180101323Y-71196584D01*
X181244180Y-72339441D02*
X181291800Y-72387060D01*
X181339419Y-72482298D01*
X181339419Y-72720393D01*
X181291800Y-72815631D01*
X181244180Y-72863250D01*
X181148942Y-72910869D01*
X181053704Y-72910869D01*
X180910847Y-72863250D01*
X180339419Y-72291822D01*
X180339419Y-72910869D01*
X180339419Y-73863250D02*
X180339419Y-73291822D01*
X180339419Y-73577536D02*
X181339419Y-73577536D01*
X181196561Y-73482298D01*
X181101323Y-73387060D01*
X181053704Y-73291822D01*
X181339419Y-74958488D02*
X180339419Y-75196584D01*
X181053704Y-75387060D01*
X180339419Y-75577536D01*
X181339419Y-75815631D01*
X180387038Y-76148965D02*
X180339419Y-76291822D01*
X180339419Y-76529917D01*
X180387038Y-76625155D01*
X180434657Y-76672774D01*
X180529895Y-76720393D01*
X180625133Y-76720393D01*
X180720371Y-76672774D01*
X180767990Y-76625155D01*
X180815609Y-76529917D01*
X180863228Y-76339441D01*
X180910847Y-76244203D01*
X180958466Y-76196584D01*
X181053704Y-76148965D01*
X181148942Y-76148965D01*
X181244180Y-76196584D01*
X181291800Y-76244203D01*
X181339419Y-76339441D01*
X181339419Y-76577536D01*
X181291800Y-76720393D01*
X179634180Y-70101346D02*
X179681800Y-70148965D01*
X179729419Y-70244203D01*
X179729419Y-70482298D01*
X179681800Y-70577536D01*
X179634180Y-70625155D01*
X179538942Y-70672774D01*
X179443704Y-70672774D01*
X179300847Y-70625155D01*
X178729419Y-70053727D01*
X178729419Y-70672774D01*
X178824657Y-71101346D02*
X178777038Y-71148965D01*
X178729419Y-71101346D01*
X178777038Y-71053727D01*
X178824657Y-71101346D01*
X178729419Y-71101346D01*
X179729419Y-71768012D02*
X179729419Y-71863250D01*
X179681800Y-71958488D01*
X179634180Y-72006107D01*
X179538942Y-72053727D01*
X179348466Y-72101346D01*
X179110371Y-72101346D01*
X178919895Y-72053727D01*
X178824657Y-72006107D01*
X178777038Y-71958488D01*
X178729419Y-71863250D01*
X178729419Y-71768012D01*
X178777038Y-71672774D01*
X178824657Y-71625155D01*
X178919895Y-71577536D01*
X179110371Y-71529917D01*
X179348466Y-71529917D01*
X179538942Y-71577536D01*
X179634180Y-71625155D01*
X179681800Y-71672774D01*
X179729419Y-71768012D01*
X179729419Y-72720393D02*
X179729419Y-72815631D01*
X179681800Y-72910869D01*
X179634180Y-72958488D01*
X179538942Y-73006107D01*
X179348466Y-73053727D01*
X179110371Y-73053727D01*
X178919895Y-73006107D01*
X178824657Y-72958488D01*
X178777038Y-72910869D01*
X178729419Y-72815631D01*
X178729419Y-72720393D01*
X178777038Y-72625155D01*
X178824657Y-72577536D01*
X178919895Y-72529917D01*
X179110371Y-72482298D01*
X179348466Y-72482298D01*
X179538942Y-72529917D01*
X179634180Y-72577536D01*
X179681800Y-72625155D01*
X179729419Y-72720393D01*
X179729419Y-73387060D02*
X179729419Y-74053727D01*
X178729419Y-73625155D01*
D11*
X127751228Y-72058638D02*
X127846466Y-71963400D01*
X128036942Y-71868161D01*
X128513133Y-71868161D01*
X128703609Y-71963400D01*
X128798847Y-72058638D01*
X128894085Y-72249114D01*
X128894085Y-72439590D01*
X128798847Y-72725304D01*
X127655990Y-73868161D01*
X128894085Y-73868161D01*
X129751228Y-73677685D02*
X129846466Y-73772923D01*
X129751228Y-73868161D01*
X129655990Y-73772923D01*
X129751228Y-73677685D01*
X129751228Y-73868161D01*
X131084561Y-71868161D02*
X131275038Y-71868161D01*
X131465514Y-71963400D01*
X131560752Y-72058638D01*
X131655990Y-72249114D01*
X131751228Y-72630066D01*
X131751228Y-73106257D01*
X131655990Y-73487209D01*
X131560752Y-73677685D01*
X131465514Y-73772923D01*
X131275038Y-73868161D01*
X131084561Y-73868161D01*
X130894085Y-73772923D01*
X130798847Y-73677685D01*
X130703609Y-73487209D01*
X130608371Y-73106257D01*
X130608371Y-72630066D01*
X130703609Y-72249114D01*
X130798847Y-72058638D01*
X130894085Y-71963400D01*
X131084561Y-71868161D01*
X132989323Y-71868161D02*
X133179800Y-71868161D01*
X133370276Y-71963400D01*
X133465514Y-72058638D01*
X133560752Y-72249114D01*
X133655990Y-72630066D01*
X133655990Y-73106257D01*
X133560752Y-73487209D01*
X133465514Y-73677685D01*
X133370276Y-73772923D01*
X133179800Y-73868161D01*
X132989323Y-73868161D01*
X132798847Y-73772923D01*
X132703609Y-73677685D01*
X132608371Y-73487209D01*
X132513133Y-73106257D01*
X132513133Y-72630066D01*
X132608371Y-72249114D01*
X132703609Y-72058638D01*
X132798847Y-71963400D01*
X132989323Y-71868161D01*
X134322657Y-71868161D02*
X135655990Y-71868161D01*
X134798847Y-73868161D01*
X137941704Y-73868161D02*
X137941704Y-71868161D01*
X138703609Y-71868161D01*
X138894085Y-71963400D01*
X138989323Y-72058638D01*
X139084561Y-72249114D01*
X139084561Y-72534828D01*
X138989323Y-72725304D01*
X138894085Y-72820542D01*
X138703609Y-72915780D01*
X137941704Y-72915780D01*
X140322657Y-71868161D02*
X140703609Y-71868161D01*
X140894085Y-71963400D01*
X141084561Y-72153876D01*
X141179800Y-72534828D01*
X141179800Y-73201495D01*
X141084561Y-73582447D01*
X140894085Y-73772923D01*
X140703609Y-73868161D01*
X140322657Y-73868161D01*
X140132180Y-73772923D01*
X139941704Y-73582447D01*
X139846466Y-73201495D01*
X139846466Y-72534828D01*
X139941704Y-72153876D01*
X140132180Y-71963400D01*
X140322657Y-71868161D01*
X141846466Y-71868161D02*
X142322657Y-73868161D01*
X142703609Y-72439590D01*
X143084561Y-73868161D01*
X143560752Y-71868161D01*
X144322657Y-72820542D02*
X144989323Y-72820542D01*
X145275038Y-73868161D02*
X144322657Y-73868161D01*
X144322657Y-71868161D01*
X145275038Y-71868161D01*
X147275038Y-73868161D02*
X146608371Y-72915780D01*
X146132180Y-73868161D02*
X146132180Y-71868161D01*
X146894085Y-71868161D01*
X147084561Y-71963400D01*
X147179800Y-72058638D01*
X147275038Y-72249114D01*
X147275038Y-72534828D01*
X147179800Y-72725304D01*
X147084561Y-72820542D01*
X146894085Y-72915780D01*
X146132180Y-72915780D01*
X150322657Y-72820542D02*
X150608371Y-72915780D01*
X150703609Y-73011019D01*
X150798847Y-73201495D01*
X150798847Y-73487209D01*
X150703609Y-73677685D01*
X150608371Y-73772923D01*
X150417895Y-73868161D01*
X149655990Y-73868161D01*
X149655990Y-71868161D01*
X150322657Y-71868161D01*
X150513133Y-71963400D01*
X150608371Y-72058638D01*
X150703609Y-72249114D01*
X150703609Y-72439590D01*
X150608371Y-72630066D01*
X150513133Y-72725304D01*
X150322657Y-72820542D01*
X149655990Y-72820542D01*
X152036942Y-71868161D02*
X152417895Y-71868161D01*
X152608371Y-71963400D01*
X152798847Y-72153876D01*
X152894085Y-72534828D01*
X152894085Y-73201495D01*
X152798847Y-73582447D01*
X152608371Y-73772923D01*
X152417895Y-73868161D01*
X152036942Y-73868161D01*
X151846466Y-73772923D01*
X151655990Y-73582447D01*
X151560752Y-73201495D01*
X151560752Y-72534828D01*
X151655990Y-72153876D01*
X151846466Y-71963400D01*
X152036942Y-71868161D01*
X153655990Y-73296733D02*
X154608371Y-73296733D01*
X153465514Y-73868161D02*
X154132180Y-71868161D01*
X154798847Y-73868161D01*
X156608371Y-73868161D02*
X155941704Y-72915780D01*
X155465514Y-73868161D02*
X155465514Y-71868161D01*
X156227419Y-71868161D01*
X156417895Y-71963400D01*
X156513133Y-72058638D01*
X156608371Y-72249114D01*
X156608371Y-72534828D01*
X156513133Y-72725304D01*
X156417895Y-72820542D01*
X156227419Y-72915780D01*
X155465514Y-72915780D01*
X157465514Y-73868161D02*
X157465514Y-71868161D01*
X157941704Y-71868161D01*
X158227419Y-71963400D01*
X158417895Y-72153876D01*
X158513133Y-72344352D01*
X158608371Y-72725304D01*
X158608371Y-73011019D01*
X158513133Y-73391971D01*
X158417895Y-73582447D01*
X158227419Y-73772923D01*
X157941704Y-73868161D01*
X157465514Y-73868161D01*
X133751228Y-75088161D02*
X134989323Y-75088161D01*
X134322657Y-75850066D01*
X134608371Y-75850066D01*
X134798847Y-75945304D01*
X134894085Y-76040542D01*
X134989323Y-76231019D01*
X134989323Y-76707209D01*
X134894085Y-76897685D01*
X134798847Y-76992923D01*
X134608371Y-77088161D01*
X134036942Y-77088161D01*
X133846466Y-76992923D01*
X133751228Y-76897685D01*
X137275038Y-74992923D02*
X135560752Y-77564352D01*
X137751228Y-75088161D02*
X138989323Y-75088161D01*
X138322657Y-75850066D01*
X138608371Y-75850066D01*
X138798847Y-75945304D01*
X138894085Y-76040542D01*
X138989323Y-76231019D01*
X138989323Y-76707209D01*
X138894085Y-76897685D01*
X138798847Y-76992923D01*
X138608371Y-77088161D01*
X138036942Y-77088161D01*
X137846466Y-76992923D01*
X137751228Y-76897685D01*
X140894085Y-77088161D02*
X139751228Y-77088161D01*
X140322657Y-77088161D02*
X140322657Y-75088161D01*
X140132180Y-75373876D01*
X139941704Y-75564352D01*
X139751228Y-75659590D01*
X143179800Y-74992923D02*
X141465514Y-77564352D01*
X143751228Y-75278638D02*
X143846466Y-75183400D01*
X144036942Y-75088161D01*
X144513133Y-75088161D01*
X144703609Y-75183400D01*
X144798847Y-75278638D01*
X144894085Y-75469114D01*
X144894085Y-75659590D01*
X144798847Y-75945304D01*
X143655990Y-77088161D01*
X144894085Y-77088161D01*
X146798847Y-77088161D02*
X145655990Y-77088161D01*
X146227419Y-77088161D02*
X146227419Y-75088161D01*
X146036942Y-75373876D01*
X145846466Y-75564352D01*
X145655990Y-75659590D01*
X148989323Y-75088161D02*
X149465514Y-77088161D01*
X149846466Y-75659590D01*
X150227419Y-77088161D01*
X150703609Y-75088161D01*
X151370276Y-76992923D02*
X151655990Y-77088161D01*
X152132180Y-77088161D01*
X152322657Y-76992923D01*
X152417895Y-76897685D01*
X152513133Y-76707209D01*
X152513133Y-76516733D01*
X152417895Y-76326257D01*
X152322657Y-76231019D01*
X152132180Y-76135780D01*
X151751228Y-76040542D01*
X151560752Y-75945304D01*
X151465514Y-75850066D01*
X151370276Y-75659590D01*
X151370276Y-75469114D01*
X151465514Y-75278638D01*
X151560752Y-75183400D01*
X151751228Y-75088161D01*
X152227419Y-75088161D01*
X152513133Y-75183400D01*
X133244342Y-139958542D02*
X134387200Y-139958542D01*
X134887200Y-139029971D02*
X135387200Y-140529971D01*
X135887200Y-139029971D01*
X136387200Y-140529971D02*
X136387200Y-139029971D01*
X137101485Y-140529971D02*
X137101485Y-139029971D01*
X137958628Y-140529971D01*
X137958628Y-139029971D01*
X139815771Y-139958542D02*
X140958628Y-139958542D01*
X140387200Y-140529971D02*
X140387200Y-139387114D01*
X141458628Y-139029971D02*
X141958628Y-140529971D01*
X142458628Y-139029971D01*
X142958628Y-140529971D02*
X142958628Y-139029971D01*
X143672914Y-140529971D02*
X143672914Y-139029971D01*
X144530057Y-140529971D01*
X144530057Y-139029971D01*
X181190057Y-91316155D02*
X181190057Y-92816155D01*
X179475771Y-92816155D02*
X179118628Y-91316155D01*
X178832914Y-92387584D01*
X178547200Y-91316155D01*
X178190057Y-92816155D01*
X177618628Y-91316155D02*
X177618628Y-92816155D01*
X176190057Y-91316155D02*
X176904342Y-91316155D01*
X176904342Y-92816155D01*
X174975771Y-91316155D02*
X175690057Y-91316155D01*
X175690057Y-92816155D01*
X173332914Y-91316155D02*
X173332914Y-92816155D01*
X173332914Y-92101869D02*
X172475771Y-92101869D01*
X172475771Y-91316155D02*
X172475771Y-92816155D01*
X171832914Y-91744727D02*
X171118628Y-91744727D01*
X171975771Y-91316155D02*
X171475771Y-92816155D01*
X170975771Y-91316155D01*
X170690057Y-92816155D02*
X170190057Y-91316155D01*
X169690057Y-92816155D01*
X169190057Y-92101869D02*
X168690057Y-92101869D01*
X168475771Y-91316155D02*
X169190057Y-91316155D01*
X169190057Y-92816155D01*
X168475771Y-92816155D01*
X179511485Y-88901155D02*
X179511485Y-90401155D01*
X179011485Y-89329727D01*
X178511485Y-90401155D01*
X178511485Y-88901155D01*
X177511485Y-89615441D02*
X177511485Y-88901155D01*
X178011485Y-90401155D02*
X177511485Y-89615441D01*
X177011485Y-90401155D01*
X174868628Y-89686869D02*
X174654342Y-89615441D01*
X174582914Y-89544012D01*
X174511485Y-89401155D01*
X174511485Y-89186869D01*
X174582914Y-89044012D01*
X174654342Y-88972584D01*
X174797200Y-88901155D01*
X175368628Y-88901155D01*
X175368628Y-90401155D01*
X174868628Y-90401155D01*
X174725771Y-90329727D01*
X174654342Y-90258298D01*
X174582914Y-90115441D01*
X174582914Y-89972584D01*
X174654342Y-89829727D01*
X174725771Y-89758298D01*
X174868628Y-89686869D01*
X175368628Y-89686869D01*
X173154342Y-88901155D02*
X173868628Y-88901155D01*
X173868628Y-90401155D01*
X172725771Y-89329727D02*
X172011485Y-89329727D01*
X172868628Y-88901155D02*
X172368628Y-90401155D01*
X171868628Y-88901155D01*
X170511485Y-89044012D02*
X170582914Y-88972584D01*
X170797200Y-88901155D01*
X170940057Y-88901155D01*
X171154342Y-88972584D01*
X171297200Y-89115441D01*
X171368628Y-89258298D01*
X171440057Y-89544012D01*
X171440057Y-89758298D01*
X171368628Y-90044012D01*
X171297200Y-90186869D01*
X171154342Y-90329727D01*
X170940057Y-90401155D01*
X170797200Y-90401155D01*
X170582914Y-90329727D01*
X170511485Y-90258298D01*
X169868628Y-88901155D02*
X169868628Y-90401155D01*
X169011485Y-88901155D02*
X169654342Y-89758298D01*
X169011485Y-90401155D02*
X169868628Y-89544012D01*
X179225771Y-86914727D02*
X178511485Y-86914727D01*
X179368628Y-86486155D02*
X178868628Y-87986155D01*
X178368628Y-86486155D01*
X177011485Y-86486155D02*
X177511485Y-87200441D01*
X177868628Y-86486155D02*
X177868628Y-87986155D01*
X177297200Y-87986155D01*
X177154342Y-87914727D01*
X177082914Y-87843298D01*
X177011485Y-87700441D01*
X177011485Y-87486155D01*
X177082914Y-87343298D01*
X177154342Y-87271869D01*
X177297200Y-87200441D01*
X177868628Y-87200441D01*
X176368628Y-86486155D02*
X176368628Y-87986155D01*
X176011485Y-87986155D01*
X175797200Y-87914727D01*
X175654342Y-87771869D01*
X175582914Y-87629012D01*
X175511485Y-87343298D01*
X175511485Y-87129012D01*
X175582914Y-86843298D01*
X175654342Y-86700441D01*
X175797200Y-86557584D01*
X176011485Y-86486155D01*
X176368628Y-86486155D01*
X174868628Y-87986155D02*
X174868628Y-86771869D01*
X174797200Y-86629012D01*
X174725771Y-86557584D01*
X174582914Y-86486155D01*
X174297200Y-86486155D01*
X174154342Y-86557584D01*
X174082914Y-86629012D01*
X174011485Y-86771869D01*
X174011485Y-87986155D01*
X173297200Y-86486155D02*
X173297200Y-87986155D01*
X172582914Y-86486155D02*
X172582914Y-87986155D01*
X171725771Y-86486155D01*
X171725771Y-87986155D01*
X170725771Y-87986155D02*
X170440057Y-87986155D01*
X170297200Y-87914727D01*
X170154342Y-87771869D01*
X170082914Y-87486155D01*
X170082914Y-86986155D01*
X170154342Y-86700441D01*
X170297200Y-86557584D01*
X170440057Y-86486155D01*
X170725771Y-86486155D01*
X170868628Y-86557584D01*
X171011485Y-86700441D01*
X171082914Y-86986155D01*
X171082914Y-87486155D01*
X171011485Y-87771869D01*
X170868628Y-87914727D01*
X170725771Y-87986155D01*
X169440057Y-86629012D02*
X169368628Y-86557584D01*
X169440057Y-86486155D01*
X169511485Y-86557584D01*
X169440057Y-86629012D01*
X169440057Y-86486155D01*
D10*
X135764000Y-111324161D02*
X136430666Y-113324161D01*
X137097333Y-111324161D01*
X138144952Y-111324161D02*
X138525904Y-111324161D01*
X138716380Y-111419400D01*
X138906857Y-111609876D01*
X139002095Y-111990828D01*
X139002095Y-112657495D01*
X138906857Y-113038447D01*
X138716380Y-113228923D01*
X138525904Y-113324161D01*
X138144952Y-113324161D01*
X137954476Y-113228923D01*
X137764000Y-113038447D01*
X137668761Y-112657495D01*
X137668761Y-111990828D01*
X137764000Y-111609876D01*
X137954476Y-111419400D01*
X138144952Y-111324161D01*
X140811619Y-113324161D02*
X139859238Y-113324161D01*
X139859238Y-111324161D01*
X141192571Y-111324161D02*
X142335428Y-111324161D01*
X141764000Y-113324161D02*
X141764000Y-111324161D01*
X143002095Y-113324161D02*
X143002095Y-111324161D01*
X143668761Y-112752733D01*
X144335428Y-111324161D01*
X144335428Y-113324161D01*
X145287809Y-112276542D02*
X145954476Y-112276542D01*
X146240190Y-113324161D02*
X145287809Y-113324161D01*
X145287809Y-111324161D01*
X146240190Y-111324161D01*
X146811619Y-111324161D02*
X147954476Y-111324161D01*
X147383047Y-113324161D02*
X147383047Y-111324161D01*
X148621142Y-112276542D02*
X149287809Y-112276542D01*
X149573523Y-113324161D02*
X148621142Y-113324161D01*
X148621142Y-111324161D01*
X149573523Y-111324161D01*
X151573523Y-113324161D02*
X150906857Y-112371780D01*
X150430666Y-113324161D02*
X150430666Y-111324161D01*
X151192571Y-111324161D01*
X151383047Y-111419400D01*
X151478285Y-111514638D01*
X151573523Y-111705114D01*
X151573523Y-111990828D01*
X151478285Y-112181304D01*
X151383047Y-112276542D01*
X151192571Y-112371780D01*
X150430666Y-112371780D01*
X181069916Y-150826107D02*
X180736583Y-150349917D01*
X180498488Y-150826107D02*
X180498488Y-149826107D01*
X180879440Y-149826107D01*
X180974678Y-149873727D01*
X181022297Y-149921346D01*
X181069916Y-150016584D01*
X181069916Y-150159441D01*
X181022297Y-150254679D01*
X180974678Y-150302298D01*
X180879440Y-150349917D01*
X180498488Y-150349917D01*
X181498488Y-150302298D02*
X181831821Y-150302298D01*
X181974678Y-150826107D02*
X181498488Y-150826107D01*
X181498488Y-149826107D01*
X181974678Y-149826107D01*
X182736583Y-150302298D02*
X182403250Y-150302298D01*
X182403250Y-150826107D02*
X182403250Y-149826107D01*
X182879440Y-149826107D01*
X183403250Y-149826107D02*
X183403250Y-150064203D01*
X183165154Y-149968965D02*
X183403250Y-150064203D01*
X183641345Y-149968965D01*
X183260392Y-150254679D02*
X183403250Y-150064203D01*
X183546107Y-150254679D01*
X184165154Y-149826107D02*
X184165154Y-150064203D01*
X183927059Y-149968965D02*
X184165154Y-150064203D01*
X184403250Y-149968965D01*
X184022297Y-150254679D02*
X184165154Y-150064203D01*
X184308011Y-150254679D01*
D12*
X126174857Y-142450342D02*
X126746285Y-142450342D01*
X127032000Y-142593200D01*
X127317714Y-142878914D01*
X127460571Y-143450342D01*
X127460571Y-144450342D01*
X127317714Y-145021771D01*
X127032000Y-145307485D01*
X126746285Y-145450342D01*
X126174857Y-145450342D01*
X125889142Y-145307485D01*
X125603428Y-145021771D01*
X125460571Y-144450342D01*
X125460571Y-143450342D01*
X125603428Y-142878914D01*
X125889142Y-142593200D01*
X126174857Y-142450342D01*
X129746285Y-143878914D02*
X128746285Y-143878914D01*
X128746285Y-145450342D02*
X128746285Y-142450342D01*
X130174857Y-142450342D01*
X132317714Y-143878914D02*
X131317714Y-143878914D01*
X131317714Y-145450342D02*
X131317714Y-142450342D01*
X132746285Y-142450342D01*
D10*
X104530083Y-99377219D02*
X104863416Y-99853409D01*
X105101511Y-99377219D02*
X105101511Y-100377219D01*
X104720559Y-100377219D01*
X104625321Y-100329600D01*
X104577702Y-100281980D01*
X104530083Y-100186742D01*
X104530083Y-100043885D01*
X104577702Y-99948647D01*
X104625321Y-99901028D01*
X104720559Y-99853409D01*
X105101511Y-99853409D01*
X104101511Y-99901028D02*
X103768178Y-99901028D01*
X103625321Y-99377219D02*
X104101511Y-99377219D01*
X104101511Y-100377219D01*
X103625321Y-100377219D01*
X102863416Y-99901028D02*
X103196750Y-99901028D01*
X103196750Y-99377219D02*
X103196750Y-100377219D01*
X102720559Y-100377219D01*
X102196750Y-100377219D02*
X102196750Y-100139123D01*
X102434845Y-100234361D02*
X102196750Y-100139123D01*
X101958654Y-100234361D01*
X102339607Y-99948647D02*
X102196750Y-100139123D01*
X102053892Y-99948647D01*
X101434845Y-100377219D02*
X101434845Y-100139123D01*
X101672940Y-100234361D02*
X101434845Y-100139123D01*
X101196750Y-100234361D01*
X101577702Y-99948647D02*
X101434845Y-100139123D01*
X101291988Y-99948647D01*
D11*
X126193114Y-85362857D02*
X126407400Y-85434285D01*
X126478828Y-85505714D01*
X126550257Y-85648571D01*
X126550257Y-85862857D01*
X126478828Y-86005714D01*
X126407400Y-86077142D01*
X126264542Y-86148571D01*
X125693114Y-86148571D01*
X125693114Y-84648571D01*
X126193114Y-84648571D01*
X126335971Y-84720000D01*
X126407400Y-84791428D01*
X126478828Y-84934285D01*
X126478828Y-85077142D01*
X126407400Y-85220000D01*
X126335971Y-85291428D01*
X126193114Y-85362857D01*
X125693114Y-85362857D01*
X127121685Y-85720000D02*
X127835971Y-85720000D01*
X126978828Y-86148571D02*
X127478828Y-84648571D01*
X127978828Y-86148571D01*
X128264542Y-84648571D02*
X129121685Y-84648571D01*
X128693114Y-86148571D02*
X128693114Y-84648571D01*
X129407400Y-84648571D02*
X130264542Y-84648571D01*
X129835971Y-86148571D02*
X129835971Y-84648571D01*
X130764542Y-85362857D02*
X131264542Y-85362857D01*
X131478828Y-86148571D02*
X130764542Y-86148571D01*
X130764542Y-84648571D01*
X131478828Y-84648571D01*
X132978828Y-86148571D02*
X132478828Y-85434285D01*
X132121685Y-86148571D02*
X132121685Y-84648571D01*
X132693114Y-84648571D01*
X132835971Y-84720000D01*
X132907400Y-84791428D01*
X132978828Y-84934285D01*
X132978828Y-85148571D01*
X132907400Y-85291428D01*
X132835971Y-85362857D01*
X132693114Y-85434285D01*
X132121685Y-85434285D01*
X133907400Y-85434285D02*
X133907400Y-86148571D01*
X133407400Y-84648571D02*
X133907400Y-85434285D01*
X134407400Y-84648571D01*
X136050257Y-86148571D02*
X136050257Y-84648571D01*
X136550257Y-85720000D01*
X137050257Y-84648571D01*
X137050257Y-86148571D01*
X138050257Y-84648571D02*
X138335971Y-84648571D01*
X138478828Y-84720000D01*
X138621685Y-84862857D01*
X138693114Y-85148571D01*
X138693114Y-85648571D01*
X138621685Y-85934285D01*
X138478828Y-86077142D01*
X138335971Y-86148571D01*
X138050257Y-86148571D01*
X137907400Y-86077142D01*
X137764542Y-85934285D01*
X137693114Y-85648571D01*
X137693114Y-85148571D01*
X137764542Y-84862857D01*
X137907400Y-84720000D01*
X138050257Y-84648571D01*
X139335971Y-86148571D02*
X139335971Y-84648571D01*
X140193114Y-86148571D01*
X140193114Y-84648571D01*
X140907400Y-86148571D02*
X140907400Y-84648571D01*
X141407400Y-84648571D02*
X142264542Y-84648571D01*
X141835971Y-86148571D02*
X141835971Y-84648571D01*
X143050257Y-84648571D02*
X143335971Y-84648571D01*
X143478828Y-84720000D01*
X143621685Y-84862857D01*
X143693114Y-85148571D01*
X143693114Y-85648571D01*
X143621685Y-85934285D01*
X143478828Y-86077142D01*
X143335971Y-86148571D01*
X143050257Y-86148571D01*
X142907400Y-86077142D01*
X142764542Y-85934285D01*
X142693114Y-85648571D01*
X142693114Y-85148571D01*
X142764542Y-84862857D01*
X142907400Y-84720000D01*
X143050257Y-84648571D01*
X145193114Y-86148571D02*
X144693114Y-85434285D01*
X144335971Y-86148571D02*
X144335971Y-84648571D01*
X144907400Y-84648571D01*
X145050257Y-84720000D01*
X145121685Y-84791428D01*
X145193114Y-84934285D01*
X145193114Y-85148571D01*
X145121685Y-85291428D01*
X145050257Y-85362857D01*
X144907400Y-85434285D01*
X144335971Y-85434285D01*
X117186807Y-91242428D02*
X117186807Y-92742428D01*
X115472521Y-92742428D02*
X115115378Y-91242428D01*
X114829664Y-92313857D01*
X114543950Y-91242428D01*
X114186807Y-92742428D01*
X113615378Y-91242428D02*
X113615378Y-92742428D01*
X112186807Y-91242428D02*
X112901092Y-91242428D01*
X112901092Y-92742428D01*
X110972521Y-91242428D02*
X111686807Y-91242428D01*
X111686807Y-92742428D01*
X109329664Y-91242428D02*
X109329664Y-92742428D01*
X109329664Y-92028142D02*
X108472521Y-92028142D01*
X108472521Y-91242428D02*
X108472521Y-92742428D01*
X107829664Y-91671000D02*
X107115378Y-91671000D01*
X107972521Y-91242428D02*
X107472521Y-92742428D01*
X106972521Y-91242428D01*
X106686807Y-92742428D02*
X106186807Y-91242428D01*
X105686807Y-92742428D01*
X105186807Y-92028142D02*
X104686807Y-92028142D01*
X104472521Y-91242428D02*
X105186807Y-91242428D01*
X105186807Y-92742428D01*
X104472521Y-92742428D01*
X115508235Y-88827428D02*
X115508235Y-90327428D01*
X115008235Y-89256000D01*
X114508235Y-90327428D01*
X114508235Y-88827428D01*
X113508235Y-89541714D02*
X113508235Y-88827428D01*
X114008235Y-90327428D02*
X113508235Y-89541714D01*
X113008235Y-90327428D01*
X110865378Y-89613142D02*
X110651092Y-89541714D01*
X110579664Y-89470285D01*
X110508235Y-89327428D01*
X110508235Y-89113142D01*
X110579664Y-88970285D01*
X110651092Y-88898857D01*
X110793950Y-88827428D01*
X111365378Y-88827428D01*
X111365378Y-90327428D01*
X110865378Y-90327428D01*
X110722521Y-90256000D01*
X110651092Y-90184571D01*
X110579664Y-90041714D01*
X110579664Y-89898857D01*
X110651092Y-89756000D01*
X110722521Y-89684571D01*
X110865378Y-89613142D01*
X111365378Y-89613142D01*
X109151092Y-88827428D02*
X109865378Y-88827428D01*
X109865378Y-90327428D01*
X108722521Y-89256000D02*
X108008235Y-89256000D01*
X108865378Y-88827428D02*
X108365378Y-90327428D01*
X107865378Y-88827428D01*
X106508235Y-88970285D02*
X106579664Y-88898857D01*
X106793950Y-88827428D01*
X106936807Y-88827428D01*
X107151092Y-88898857D01*
X107293950Y-89041714D01*
X107365378Y-89184571D01*
X107436807Y-89470285D01*
X107436807Y-89684571D01*
X107365378Y-89970285D01*
X107293950Y-90113142D01*
X107151092Y-90256000D01*
X106936807Y-90327428D01*
X106793950Y-90327428D01*
X106579664Y-90256000D01*
X106508235Y-90184571D01*
X105865378Y-88827428D02*
X105865378Y-90327428D01*
X105008235Y-88827428D02*
X105651092Y-89684571D01*
X105008235Y-90327428D02*
X105865378Y-89470285D01*
X115222521Y-86841000D02*
X114508235Y-86841000D01*
X115365378Y-86412428D02*
X114865378Y-87912428D01*
X114365378Y-86412428D01*
X113008235Y-86412428D02*
X113508235Y-87126714D01*
X113865378Y-86412428D02*
X113865378Y-87912428D01*
X113293950Y-87912428D01*
X113151092Y-87841000D01*
X113079664Y-87769571D01*
X113008235Y-87626714D01*
X113008235Y-87412428D01*
X113079664Y-87269571D01*
X113151092Y-87198142D01*
X113293950Y-87126714D01*
X113865378Y-87126714D01*
X112365378Y-86412428D02*
X112365378Y-87912428D01*
X112008235Y-87912428D01*
X111793950Y-87841000D01*
X111651092Y-87698142D01*
X111579664Y-87555285D01*
X111508235Y-87269571D01*
X111508235Y-87055285D01*
X111579664Y-86769571D01*
X111651092Y-86626714D01*
X111793950Y-86483857D01*
X112008235Y-86412428D01*
X112365378Y-86412428D01*
X110865378Y-87912428D02*
X110865378Y-86698142D01*
X110793950Y-86555285D01*
X110722521Y-86483857D01*
X110579664Y-86412428D01*
X110293950Y-86412428D01*
X110151092Y-86483857D01*
X110079664Y-86555285D01*
X110008235Y-86698142D01*
X110008235Y-87912428D01*
X109293950Y-86412428D02*
X109293950Y-87912428D01*
X108579664Y-86412428D02*
X108579664Y-87912428D01*
X107722521Y-86412428D01*
X107722521Y-87912428D01*
X106722521Y-87912428D02*
X106436807Y-87912428D01*
X106293950Y-87841000D01*
X106151092Y-87698142D01*
X106079664Y-87412428D01*
X106079664Y-86912428D01*
X106151092Y-86626714D01*
X106293950Y-86483857D01*
X106436807Y-86412428D01*
X106722521Y-86412428D01*
X106865378Y-86483857D01*
X107008235Y-86626714D01*
X107079664Y-86912428D01*
X107079664Y-87412428D01*
X107008235Y-87698142D01*
X106865378Y-87841000D01*
X106722521Y-87912428D01*
X105436807Y-86555285D02*
X105365378Y-86483857D01*
X105436807Y-86412428D01*
X105508235Y-86483857D01*
X105436807Y-86555285D01*
X105436807Y-86412428D01*
D10*
X181069916Y-115526107D02*
X180736583Y-115049917D01*
X180498488Y-115526107D02*
X180498488Y-114526107D01*
X180879440Y-114526107D01*
X180974678Y-114573727D01*
X181022297Y-114621346D01*
X181069916Y-114716584D01*
X181069916Y-114859441D01*
X181022297Y-114954679D01*
X180974678Y-115002298D01*
X180879440Y-115049917D01*
X180498488Y-115049917D01*
X181498488Y-115002298D02*
X181831821Y-115002298D01*
X181974678Y-115526107D02*
X181498488Y-115526107D01*
X181498488Y-114526107D01*
X181974678Y-114526107D01*
X182736583Y-115002298D02*
X182403250Y-115002298D01*
X182403250Y-115526107D02*
X182403250Y-114526107D01*
X182879440Y-114526107D01*
X183403250Y-114526107D02*
X183403250Y-114764203D01*
X183165154Y-114668965D02*
X183403250Y-114764203D01*
X183641345Y-114668965D01*
X183260392Y-114954679D02*
X183403250Y-114764203D01*
X183546107Y-114954679D01*
X184165154Y-114526107D02*
X184165154Y-114764203D01*
X183927059Y-114668965D02*
X184165154Y-114764203D01*
X184403250Y-114668965D01*
X184022297Y-114954679D02*
X184165154Y-114764203D01*
X184308011Y-114954679D01*
D13*
X146123447Y-133013980D02*
X146123447Y-132013980D01*
X146504400Y-132013980D01*
X146599638Y-132061600D01*
X146647257Y-132109219D01*
X146694876Y-132204457D01*
X146694876Y-132347314D01*
X146647257Y-132442552D01*
X146599638Y-132490171D01*
X146504400Y-132537790D01*
X146123447Y-132537790D01*
X147266304Y-133013980D02*
X147171066Y-132966361D01*
X147123447Y-132918742D01*
X147075828Y-132823504D01*
X147075828Y-132537790D01*
X147123447Y-132442552D01*
X147171066Y-132394933D01*
X147266304Y-132347314D01*
X147409161Y-132347314D01*
X147504400Y-132394933D01*
X147552019Y-132442552D01*
X147599638Y-132537790D01*
X147599638Y-132823504D01*
X147552019Y-132918742D01*
X147504400Y-132966361D01*
X147409161Y-133013980D01*
X147266304Y-133013980D01*
X147932971Y-132347314D02*
X148123447Y-133013980D01*
X148313923Y-132537790D01*
X148504400Y-133013980D01*
X148694876Y-132347314D01*
X149456780Y-132966361D02*
X149361542Y-133013980D01*
X149171066Y-133013980D01*
X149075828Y-132966361D01*
X149028209Y-132871123D01*
X149028209Y-132490171D01*
X149075828Y-132394933D01*
X149171066Y-132347314D01*
X149361542Y-132347314D01*
X149456780Y-132394933D01*
X149504400Y-132490171D01*
X149504400Y-132585409D01*
X149028209Y-132680647D01*
X149932971Y-133013980D02*
X149932971Y-132347314D01*
X149932971Y-132537790D02*
X149980590Y-132442552D01*
X150028209Y-132394933D01*
X150123447Y-132347314D01*
X150218685Y-132347314D01*
X151504400Y-132013980D02*
X151694876Y-132013980D01*
X151790114Y-132061600D01*
X151885352Y-132156838D01*
X151932971Y-132347314D01*
X151932971Y-132680647D01*
X151885352Y-132871123D01*
X151790114Y-132966361D01*
X151694876Y-133013980D01*
X151504400Y-133013980D01*
X151409161Y-132966361D01*
X151313923Y-132871123D01*
X151266304Y-132680647D01*
X151266304Y-132347314D01*
X151313923Y-132156838D01*
X151409161Y-132061600D01*
X151504400Y-132013980D01*
X152361542Y-133013980D02*
X152361542Y-132013980D01*
X152932971Y-133013980D02*
X152504400Y-132442552D01*
X152932971Y-132013980D02*
X152361542Y-132585409D01*
D10*
X104530083Y-64077219D02*
X104863416Y-64553409D01*
X105101511Y-64077219D02*
X105101511Y-65077219D01*
X104720559Y-65077219D01*
X104625321Y-65029600D01*
X104577702Y-64981980D01*
X104530083Y-64886742D01*
X104530083Y-64743885D01*
X104577702Y-64648647D01*
X104625321Y-64601028D01*
X104720559Y-64553409D01*
X105101511Y-64553409D01*
X104101511Y-64601028D02*
X103768178Y-64601028D01*
X103625321Y-64077219D02*
X104101511Y-64077219D01*
X104101511Y-65077219D01*
X103625321Y-65077219D01*
X102863416Y-64601028D02*
X103196750Y-64601028D01*
X103196750Y-64077219D02*
X103196750Y-65077219D01*
X102720559Y-65077219D01*
X102196750Y-65077219D02*
X102196750Y-64839123D01*
X102434845Y-64934361D02*
X102196750Y-64839123D01*
X101958654Y-64934361D01*
X102339607Y-64648647D02*
X102196750Y-64839123D01*
X102053892Y-64648647D01*
X101434845Y-65077219D02*
X101434845Y-64839123D01*
X101672940Y-64934361D02*
X101434845Y-64839123D01*
X101196750Y-64934361D01*
X101577702Y-64648647D02*
X101434845Y-64839123D01*
X101291988Y-64648647D01*
D11*
X168413192Y-123660898D02*
X168413192Y-122160898D01*
X170127478Y-122160898D02*
X170484621Y-123660898D01*
X170770335Y-122589469D01*
X171056050Y-123660898D01*
X171413192Y-122160898D01*
X171984621Y-123660898D02*
X171984621Y-122160898D01*
X173413192Y-123660898D02*
X172698907Y-123660898D01*
X172698907Y-122160898D01*
X174627478Y-123660898D02*
X173913192Y-123660898D01*
X173913192Y-122160898D01*
X176270335Y-123660898D02*
X176270335Y-122160898D01*
X176270335Y-122875184D02*
X177127478Y-122875184D01*
X177127478Y-123660898D02*
X177127478Y-122160898D01*
X177770335Y-123232327D02*
X178484621Y-123232327D01*
X177627478Y-123660898D02*
X178127478Y-122160898D01*
X178627478Y-123660898D01*
X178913192Y-122160898D02*
X179413192Y-123660898D01*
X179913192Y-122160898D01*
X180413192Y-122875184D02*
X180913192Y-122875184D01*
X181127478Y-123660898D02*
X180413192Y-123660898D01*
X180413192Y-122160898D01*
X181127478Y-122160898D01*
X170091764Y-126075898D02*
X170091764Y-124575898D01*
X170591764Y-125647327D01*
X171091764Y-124575898D01*
X171091764Y-126075898D01*
X172091764Y-125361612D02*
X172091764Y-126075898D01*
X171591764Y-124575898D02*
X172091764Y-125361612D01*
X172591764Y-124575898D01*
X174734621Y-125290184D02*
X174948907Y-125361612D01*
X175020335Y-125433041D01*
X175091764Y-125575898D01*
X175091764Y-125790184D01*
X175020335Y-125933041D01*
X174948907Y-126004469D01*
X174806050Y-126075898D01*
X174234621Y-126075898D01*
X174234621Y-124575898D01*
X174734621Y-124575898D01*
X174877478Y-124647327D01*
X174948907Y-124718755D01*
X175020335Y-124861612D01*
X175020335Y-125004469D01*
X174948907Y-125147327D01*
X174877478Y-125218755D01*
X174734621Y-125290184D01*
X174234621Y-125290184D01*
X176448907Y-126075898D02*
X175734621Y-126075898D01*
X175734621Y-124575898D01*
X176877478Y-125647327D02*
X177591764Y-125647327D01*
X176734621Y-126075898D02*
X177234621Y-124575898D01*
X177734621Y-126075898D01*
X179091764Y-125933041D02*
X179020335Y-126004469D01*
X178806050Y-126075898D01*
X178663192Y-126075898D01*
X178448907Y-126004469D01*
X178306050Y-125861612D01*
X178234621Y-125718755D01*
X178163192Y-125433041D01*
X178163192Y-125218755D01*
X178234621Y-124933041D01*
X178306050Y-124790184D01*
X178448907Y-124647327D01*
X178663192Y-124575898D01*
X178806050Y-124575898D01*
X179020335Y-124647327D01*
X179091764Y-124718755D01*
X179734621Y-126075898D02*
X179734621Y-124575898D01*
X180591764Y-126075898D02*
X179948907Y-125218755D01*
X180591764Y-124575898D02*
X179734621Y-125433041D01*
X170377478Y-128062327D02*
X171091764Y-128062327D01*
X170234621Y-128490898D02*
X170734621Y-126990898D01*
X171234621Y-128490898D01*
X172591764Y-128490898D02*
X172091764Y-127776612D01*
X171734621Y-128490898D02*
X171734621Y-126990898D01*
X172306050Y-126990898D01*
X172448907Y-127062327D01*
X172520335Y-127133755D01*
X172591764Y-127276612D01*
X172591764Y-127490898D01*
X172520335Y-127633755D01*
X172448907Y-127705184D01*
X172306050Y-127776612D01*
X171734621Y-127776612D01*
X173234621Y-128490898D02*
X173234621Y-126990898D01*
X173591764Y-126990898D01*
X173806050Y-127062327D01*
X173948907Y-127205184D01*
X174020335Y-127348041D01*
X174091764Y-127633755D01*
X174091764Y-127848041D01*
X174020335Y-128133755D01*
X173948907Y-128276612D01*
X173806050Y-128419469D01*
X173591764Y-128490898D01*
X173234621Y-128490898D01*
X174734621Y-126990898D02*
X174734621Y-128205184D01*
X174806050Y-128348041D01*
X174877478Y-128419469D01*
X175020335Y-128490898D01*
X175306050Y-128490898D01*
X175448907Y-128419469D01*
X175520335Y-128348041D01*
X175591764Y-128205184D01*
X175591764Y-126990898D01*
X176306050Y-128490898D02*
X176306050Y-126990898D01*
X177020335Y-128490898D02*
X177020335Y-126990898D01*
X177877478Y-128490898D01*
X177877478Y-126990898D01*
X178877478Y-126990898D02*
X179163192Y-126990898D01*
X179306050Y-127062327D01*
X179448907Y-127205184D01*
X179520335Y-127490898D01*
X179520335Y-127990898D01*
X179448907Y-128276612D01*
X179306050Y-128419469D01*
X179163192Y-128490898D01*
X178877478Y-128490898D01*
X178734621Y-128419469D01*
X178591764Y-128276612D01*
X178520335Y-127990898D01*
X178520335Y-127490898D01*
X178591764Y-127205184D01*
X178734621Y-127062327D01*
X178877478Y-126990898D01*
X180163192Y-128348041D02*
X180234621Y-128419469D01*
X180163192Y-128490898D01*
X180091764Y-128419469D01*
X180163192Y-128348041D01*
X180163192Y-128490898D01*
D10*
%TO.C,D3*%
X112172054Y-94022380D02*
X112172054Y-93022380D01*
X112410150Y-93022380D01*
X112553007Y-93070000D01*
X112648245Y-93165238D01*
X112695864Y-93260476D01*
X112743483Y-93450952D01*
X112743483Y-93593809D01*
X112695864Y-93784285D01*
X112648245Y-93879523D01*
X112553007Y-93974761D01*
X112410150Y-94022380D01*
X112172054Y-94022380D01*
X113076816Y-93022380D02*
X113695864Y-93022380D01*
X113362530Y-93403333D01*
X113505388Y-93403333D01*
X113600626Y-93450952D01*
X113648245Y-93498571D01*
X113695864Y-93593809D01*
X113695864Y-93831904D01*
X113648245Y-93927142D01*
X113600626Y-93974761D01*
X113505388Y-94022380D01*
X113219673Y-94022380D01*
X113124435Y-93974761D01*
X113076816Y-93927142D01*
%TO.C,J1*%
X173405066Y-70744107D02*
X173405066Y-71458393D01*
X173357447Y-71601250D01*
X173262209Y-71696488D01*
X173119352Y-71744107D01*
X173024114Y-71744107D01*
X174405066Y-71744107D02*
X173833638Y-71744107D01*
X174119352Y-71744107D02*
X174119352Y-70744107D01*
X174024114Y-70886965D01*
X173928876Y-70982203D01*
X173833638Y-71029822D01*
%TO.C,R13*%
X194457142Y-126752380D02*
X194123809Y-126276190D01*
X193885714Y-126752380D02*
X193885714Y-125752380D01*
X194266666Y-125752380D01*
X194361904Y-125800000D01*
X194409523Y-125847619D01*
X194457142Y-125942857D01*
X194457142Y-126085714D01*
X194409523Y-126180952D01*
X194361904Y-126228571D01*
X194266666Y-126276190D01*
X193885714Y-126276190D01*
X195409523Y-126752380D02*
X194838095Y-126752380D01*
X195123809Y-126752380D02*
X195123809Y-125752380D01*
X195028571Y-125895238D01*
X194933333Y-125990476D01*
X194838095Y-126038095D01*
X195742857Y-125752380D02*
X196361904Y-125752380D01*
X196028571Y-126133333D01*
X196171428Y-126133333D01*
X196266666Y-126180952D01*
X196314285Y-126228571D01*
X196361904Y-126323809D01*
X196361904Y-126561904D01*
X196314285Y-126657142D01*
X196266666Y-126704761D01*
X196171428Y-126752380D01*
X195885714Y-126752380D01*
X195790476Y-126704761D01*
X195742857Y-126657142D01*
%TO.C,REF\u002A\u002A*%
X181066666Y-95252380D02*
X180733333Y-94776190D01*
X180495238Y-95252380D02*
X180495238Y-94252380D01*
X180876190Y-94252380D01*
X180971428Y-94300000D01*
X181019047Y-94347619D01*
X181066666Y-94442857D01*
X181066666Y-94585714D01*
X181019047Y-94680952D01*
X180971428Y-94728571D01*
X180876190Y-94776190D01*
X180495238Y-94776190D01*
X181495238Y-94728571D02*
X181828571Y-94728571D01*
X181971428Y-95252380D02*
X181495238Y-95252380D01*
X181495238Y-94252380D01*
X181971428Y-94252380D01*
X182733333Y-94728571D02*
X182400000Y-94728571D01*
X182400000Y-95252380D02*
X182400000Y-94252380D01*
X182876190Y-94252380D01*
X183400000Y-94252380D02*
X183400000Y-94490476D01*
X183161904Y-94395238D02*
X183400000Y-94490476D01*
X183638095Y-94395238D01*
X183257142Y-94680952D02*
X183400000Y-94490476D01*
X183542857Y-94680952D01*
X184161904Y-94252380D02*
X184161904Y-94490476D01*
X183923809Y-94395238D02*
X184161904Y-94490476D01*
X184400000Y-94395238D01*
X184019047Y-94680952D02*
X184161904Y-94490476D01*
X184304761Y-94680952D01*
%TO.C,SW1*%
X109613866Y-116457361D02*
X109756723Y-116504980D01*
X109994819Y-116504980D01*
X110090057Y-116457361D01*
X110137676Y-116409742D01*
X110185295Y-116314504D01*
X110185295Y-116219266D01*
X110137676Y-116124028D01*
X110090057Y-116076409D01*
X109994819Y-116028790D01*
X109804342Y-115981171D01*
X109709104Y-115933552D01*
X109661485Y-115885933D01*
X109613866Y-115790695D01*
X109613866Y-115695457D01*
X109661485Y-115600219D01*
X109709104Y-115552600D01*
X109804342Y-115504980D01*
X110042438Y-115504980D01*
X110185295Y-115552600D01*
X110518628Y-115504980D02*
X110756723Y-116504980D01*
X110947200Y-115790695D01*
X111137676Y-116504980D01*
X111375771Y-115504980D01*
X112280533Y-116504980D02*
X111709104Y-116504980D01*
X111994819Y-116504980D02*
X111994819Y-115504980D01*
X111899580Y-115647838D01*
X111804342Y-115743076D01*
X111709104Y-115790695D01*
%TO.C,R13*%
X131352380Y-58442857D02*
X130876190Y-58776190D01*
X131352380Y-59014285D02*
X130352380Y-59014285D01*
X130352380Y-58633333D01*
X130400000Y-58538095D01*
X130447619Y-58490476D01*
X130542857Y-58442857D01*
X130685714Y-58442857D01*
X130780952Y-58490476D01*
X130828571Y-58538095D01*
X130876190Y-58633333D01*
X130876190Y-59014285D01*
X131352380Y-57490476D02*
X131352380Y-58061904D01*
X131352380Y-57776190D02*
X130352380Y-57776190D01*
X130495238Y-57871428D01*
X130590476Y-57966666D01*
X130638095Y-58061904D01*
X130352380Y-57157142D02*
X130352380Y-56538095D01*
X130733333Y-56871428D01*
X130733333Y-56728571D01*
X130780952Y-56633333D01*
X130828571Y-56585714D01*
X130923809Y-56538095D01*
X131161904Y-56538095D01*
X131257142Y-56585714D01*
X131304761Y-56633333D01*
X131352380Y-56728571D01*
X131352380Y-57014285D01*
X131304761Y-57109523D01*
X131257142Y-57157142D01*
%TO.C,SW1*%
X173319466Y-99255488D02*
X173462323Y-99303107D01*
X173700419Y-99303107D01*
X173795657Y-99255488D01*
X173843276Y-99207869D01*
X173890895Y-99112631D01*
X173890895Y-99017393D01*
X173843276Y-98922155D01*
X173795657Y-98874536D01*
X173700419Y-98826917D01*
X173509942Y-98779298D01*
X173414704Y-98731679D01*
X173367085Y-98684060D01*
X173319466Y-98588822D01*
X173319466Y-98493584D01*
X173367085Y-98398346D01*
X173414704Y-98350727D01*
X173509942Y-98303107D01*
X173748038Y-98303107D01*
X173890895Y-98350727D01*
X174224228Y-98303107D02*
X174462323Y-99303107D01*
X174652800Y-98588822D01*
X174843276Y-99303107D01*
X175081371Y-98303107D01*
X175986133Y-99303107D02*
X175414704Y-99303107D01*
X175700419Y-99303107D02*
X175700419Y-98303107D01*
X175605180Y-98445965D01*
X175509942Y-98541203D01*
X175414704Y-98588822D01*
%TO.C,U5*%
X198522380Y-80971904D02*
X199331904Y-80971904D01*
X199427142Y-80924285D01*
X199474761Y-80876666D01*
X199522380Y-80781428D01*
X199522380Y-80590952D01*
X199474761Y-80495714D01*
X199427142Y-80448095D01*
X199331904Y-80400476D01*
X198522380Y-80400476D01*
X198522380Y-79448095D02*
X198522380Y-79924285D01*
X198998571Y-79971904D01*
X198950952Y-79924285D01*
X198903333Y-79829047D01*
X198903333Y-79590952D01*
X198950952Y-79495714D01*
X198998571Y-79448095D01*
X199093809Y-79400476D01*
X199331904Y-79400476D01*
X199427142Y-79448095D01*
X199474761Y-79495714D01*
X199522380Y-79590952D01*
X199522380Y-79829047D01*
X199474761Y-79924285D01*
X199427142Y-79971904D01*
%TO.C,R7*%
X168923533Y-94273907D02*
X168590200Y-93797717D01*
X168352104Y-94273907D02*
X168352104Y-93273907D01*
X168733057Y-93273907D01*
X168828295Y-93321527D01*
X168875914Y-93369146D01*
X168923533Y-93464384D01*
X168923533Y-93607241D01*
X168875914Y-93702479D01*
X168828295Y-93750098D01*
X168733057Y-93797717D01*
X168352104Y-93797717D01*
X169256866Y-93273907D02*
X169923533Y-93273907D01*
X169494961Y-94273907D01*
%TO.C,D3*%
X171951754Y-121785707D02*
X171951754Y-120785707D01*
X172189850Y-120785707D01*
X172332707Y-120833327D01*
X172427945Y-120928565D01*
X172475564Y-121023803D01*
X172523183Y-121214279D01*
X172523183Y-121357136D01*
X172475564Y-121547612D01*
X172427945Y-121642850D01*
X172332707Y-121738088D01*
X172189850Y-121785707D01*
X171951754Y-121785707D01*
X172856516Y-120785707D02*
X173475564Y-120785707D01*
X173142230Y-121166660D01*
X173285088Y-121166660D01*
X173380326Y-121214279D01*
X173427945Y-121261898D01*
X173475564Y-121357136D01*
X173475564Y-121595231D01*
X173427945Y-121690469D01*
X173380326Y-121738088D01*
X173285088Y-121785707D01*
X172999373Y-121785707D01*
X172904135Y-121738088D01*
X172856516Y-121690469D01*
%TO.C,R12*%
X197062380Y-69042857D02*
X196586190Y-69376190D01*
X197062380Y-69614285D02*
X196062380Y-69614285D01*
X196062380Y-69233333D01*
X196110000Y-69138095D01*
X196157619Y-69090476D01*
X196252857Y-69042857D01*
X196395714Y-69042857D01*
X196490952Y-69090476D01*
X196538571Y-69138095D01*
X196586190Y-69233333D01*
X196586190Y-69614285D01*
X197062380Y-68090476D02*
X197062380Y-68661904D01*
X197062380Y-68376190D02*
X196062380Y-68376190D01*
X196205238Y-68471428D01*
X196300476Y-68566666D01*
X196348095Y-68661904D01*
X196157619Y-67709523D02*
X196110000Y-67661904D01*
X196062380Y-67566666D01*
X196062380Y-67328571D01*
X196110000Y-67233333D01*
X196157619Y-67185714D01*
X196252857Y-67138095D01*
X196348095Y-67138095D01*
X196490952Y-67185714D01*
X197062380Y-67757142D01*
X197062380Y-67138095D01*
%TO.C,U1*%
X170373926Y-83506096D02*
X170946346Y-82933676D01*
X170980018Y-82832661D01*
X170980018Y-82765317D01*
X170946346Y-82664302D01*
X170811659Y-82529615D01*
X170710644Y-82495943D01*
X170643300Y-82495943D01*
X170542285Y-82529615D01*
X169969865Y-83102035D01*
X169969865Y-81687821D02*
X170373926Y-82091882D01*
X170171896Y-81889852D02*
X169464789Y-82596958D01*
X169633148Y-82563287D01*
X169767835Y-82563287D01*
X169868850Y-82596958D01*
%TO.C,REF\u002A\u002A*%
X155452380Y-71833333D02*
X154976190Y-72166666D01*
X155452380Y-72404761D02*
X154452380Y-72404761D01*
X154452380Y-72023809D01*
X154500000Y-71928571D01*
X154547619Y-71880952D01*
X154642857Y-71833333D01*
X154785714Y-71833333D01*
X154880952Y-71880952D01*
X154928571Y-71928571D01*
X154976190Y-72023809D01*
X154976190Y-72404761D01*
X154928571Y-71404761D02*
X154928571Y-71071428D01*
X155452380Y-70928571D02*
X155452380Y-71404761D01*
X154452380Y-71404761D01*
X154452380Y-70928571D01*
X154928571Y-70166666D02*
X154928571Y-70500000D01*
X155452380Y-70500000D02*
X154452380Y-70500000D01*
X154452380Y-70023809D01*
X154452380Y-69500000D02*
X154690476Y-69500000D01*
X154595238Y-69738095D02*
X154690476Y-69500000D01*
X154595238Y-69261904D01*
X154880952Y-69642857D02*
X154690476Y-69500000D01*
X154880952Y-69357142D01*
X154452380Y-68738095D02*
X154690476Y-68738095D01*
X154595238Y-68976190D02*
X154690476Y-68738095D01*
X154595238Y-68500000D01*
X154880952Y-68880952D02*
X154690476Y-68738095D01*
X154880952Y-68595238D01*
X168533333Y-99450946D02*
X168866666Y-99927136D01*
X169104761Y-99450946D02*
X169104761Y-100450946D01*
X168723809Y-100450946D01*
X168628571Y-100403327D01*
X168580952Y-100355707D01*
X168533333Y-100260469D01*
X168533333Y-100117612D01*
X168580952Y-100022374D01*
X168628571Y-99974755D01*
X168723809Y-99927136D01*
X169104761Y-99927136D01*
X168104761Y-99974755D02*
X167771428Y-99974755D01*
X167628571Y-99450946D02*
X168104761Y-99450946D01*
X168104761Y-100450946D01*
X167628571Y-100450946D01*
X166866666Y-99974755D02*
X167200000Y-99974755D01*
X167200000Y-99450946D02*
X167200000Y-100450946D01*
X166723809Y-100450946D01*
X166200000Y-100450946D02*
X166200000Y-100212850D01*
X166438095Y-100308088D02*
X166200000Y-100212850D01*
X165961904Y-100308088D01*
X166342857Y-100022374D02*
X166200000Y-100212850D01*
X166057142Y-100022374D01*
X165438095Y-100450946D02*
X165438095Y-100212850D01*
X165676190Y-100308088D02*
X165438095Y-100212850D01*
X165200000Y-100308088D01*
X165580952Y-100022374D02*
X165438095Y-100212850D01*
X165295238Y-100022374D01*
X168533333Y-111050946D02*
X168866666Y-111527136D01*
X169104761Y-111050946D02*
X169104761Y-112050946D01*
X168723809Y-112050946D01*
X168628571Y-112003327D01*
X168580952Y-111955707D01*
X168533333Y-111860469D01*
X168533333Y-111717612D01*
X168580952Y-111622374D01*
X168628571Y-111574755D01*
X168723809Y-111527136D01*
X169104761Y-111527136D01*
X168104761Y-111574755D02*
X167771428Y-111574755D01*
X167628571Y-111050946D02*
X168104761Y-111050946D01*
X168104761Y-112050946D01*
X167628571Y-112050946D01*
X166866666Y-111574755D02*
X167200000Y-111574755D01*
X167200000Y-111050946D02*
X167200000Y-112050946D01*
X166723809Y-112050946D01*
X166200000Y-112050946D02*
X166200000Y-111812850D01*
X166438095Y-111908088D02*
X166200000Y-111812850D01*
X165961904Y-111908088D01*
X166342857Y-111622374D02*
X166200000Y-111812850D01*
X166057142Y-111622374D01*
X165438095Y-112050946D02*
X165438095Y-111812850D01*
X165676190Y-111908088D02*
X165438095Y-111812850D01*
X165200000Y-111908088D01*
X165580952Y-111622374D02*
X165438095Y-111812850D01*
X165295238Y-111622374D01*
%TO.C,R10*%
X190457142Y-70852380D02*
X190123809Y-70376190D01*
X189885714Y-70852380D02*
X189885714Y-69852380D01*
X190266666Y-69852380D01*
X190361904Y-69900000D01*
X190409523Y-69947619D01*
X190457142Y-70042857D01*
X190457142Y-70185714D01*
X190409523Y-70280952D01*
X190361904Y-70328571D01*
X190266666Y-70376190D01*
X189885714Y-70376190D01*
X191409523Y-70852380D02*
X190838095Y-70852380D01*
X191123809Y-70852380D02*
X191123809Y-69852380D01*
X191028571Y-69995238D01*
X190933333Y-70090476D01*
X190838095Y-70138095D01*
X192028571Y-69852380D02*
X192123809Y-69852380D01*
X192219047Y-69900000D01*
X192266666Y-69947619D01*
X192314285Y-70042857D01*
X192361904Y-70233333D01*
X192361904Y-70471428D01*
X192314285Y-70661904D01*
X192266666Y-70757142D01*
X192219047Y-70804761D01*
X192123809Y-70852380D01*
X192028571Y-70852380D01*
X191933333Y-70804761D01*
X191885714Y-70757142D01*
X191838095Y-70661904D01*
X191790476Y-70471428D01*
X191790476Y-70233333D01*
X191838095Y-70042857D01*
X191885714Y-69947619D01*
X191933333Y-69900000D01*
X192028571Y-69852380D01*
%TO.C,C3*%
X106205087Y-130037389D02*
X106205087Y-130104732D01*
X106137743Y-130239419D01*
X106070400Y-130306763D01*
X105935712Y-130374106D01*
X105801025Y-130374106D01*
X105700010Y-130340435D01*
X105531651Y-130239419D01*
X105430636Y-130138404D01*
X105329621Y-129970045D01*
X105295949Y-129869030D01*
X105295949Y-129734343D01*
X105363293Y-129599656D01*
X105430636Y-129532312D01*
X105565323Y-129464969D01*
X105632667Y-129464969D01*
X105801025Y-129161923D02*
X106238758Y-128724190D01*
X106272430Y-129229267D01*
X106373445Y-129128251D01*
X106474461Y-129094580D01*
X106541804Y-129094580D01*
X106642819Y-129128251D01*
X106811178Y-129296610D01*
X106844850Y-129397625D01*
X106844850Y-129464969D01*
X106811178Y-129565984D01*
X106609148Y-129768015D01*
X106508132Y-129801687D01*
X106440789Y-129801687D01*
%TO.C,REF\u002A\u002A*%
X107647619Y-103066666D02*
X108123809Y-102733333D01*
X107647619Y-102495238D02*
X108647619Y-102495238D01*
X108647619Y-102876190D01*
X108600000Y-102971428D01*
X108552380Y-103019047D01*
X108457142Y-103066666D01*
X108314285Y-103066666D01*
X108219047Y-103019047D01*
X108171428Y-102971428D01*
X108123809Y-102876190D01*
X108123809Y-102495238D01*
X108171428Y-103495238D02*
X108171428Y-103828571D01*
X107647619Y-103971428D02*
X107647619Y-103495238D01*
X108647619Y-103495238D01*
X108647619Y-103971428D01*
X108171428Y-104733333D02*
X108171428Y-104400000D01*
X107647619Y-104400000D02*
X108647619Y-104400000D01*
X108647619Y-104876190D01*
X108647619Y-105400000D02*
X108409523Y-105400000D01*
X108504761Y-105161904D02*
X108409523Y-105400000D01*
X108504761Y-105638095D01*
X108219047Y-105257142D02*
X108409523Y-105400000D01*
X108219047Y-105542857D01*
X108647619Y-106161904D02*
X108409523Y-106161904D01*
X108504761Y-105923809D02*
X108409523Y-106161904D01*
X108504761Y-106400000D01*
X108219047Y-106019047D02*
X108409523Y-106161904D01*
X108219047Y-106304761D01*
%TO.C,R10*%
X190457142Y-126452380D02*
X190123809Y-125976190D01*
X189885714Y-126452380D02*
X189885714Y-125452380D01*
X190266666Y-125452380D01*
X190361904Y-125500000D01*
X190409523Y-125547619D01*
X190457142Y-125642857D01*
X190457142Y-125785714D01*
X190409523Y-125880952D01*
X190361904Y-125928571D01*
X190266666Y-125976190D01*
X189885714Y-125976190D01*
X191409523Y-126452380D02*
X190838095Y-126452380D01*
X191123809Y-126452380D02*
X191123809Y-125452380D01*
X191028571Y-125595238D01*
X190933333Y-125690476D01*
X190838095Y-125738095D01*
X192028571Y-125452380D02*
X192123809Y-125452380D01*
X192219047Y-125500000D01*
X192266666Y-125547619D01*
X192314285Y-125642857D01*
X192361904Y-125833333D01*
X192361904Y-126071428D01*
X192314285Y-126261904D01*
X192266666Y-126357142D01*
X192219047Y-126404761D01*
X192123809Y-126452380D01*
X192028571Y-126452380D01*
X191933333Y-126404761D01*
X191885714Y-126357142D01*
X191838095Y-126261904D01*
X191790476Y-126071428D01*
X191790476Y-125833333D01*
X191838095Y-125642857D01*
X191885714Y-125547619D01*
X191933333Y-125500000D01*
X192028571Y-125452380D01*
%TO.C,C6*%
X131457142Y-64666666D02*
X131504761Y-64714285D01*
X131552380Y-64857142D01*
X131552380Y-64952380D01*
X131504761Y-65095238D01*
X131409523Y-65190476D01*
X131314285Y-65238095D01*
X131123809Y-65285714D01*
X130980952Y-65285714D01*
X130790476Y-65238095D01*
X130695238Y-65190476D01*
X130600000Y-65095238D01*
X130552380Y-64952380D01*
X130552380Y-64857142D01*
X130600000Y-64714285D01*
X130647619Y-64666666D01*
X130552380Y-63809523D02*
X130552380Y-64000000D01*
X130600000Y-64095238D01*
X130647619Y-64142857D01*
X130790476Y-64238095D01*
X130980952Y-64285714D01*
X131361904Y-64285714D01*
X131457142Y-64238095D01*
X131504761Y-64190476D01*
X131552380Y-64095238D01*
X131552380Y-63904761D01*
X131504761Y-63809523D01*
X131457142Y-63761904D01*
X131361904Y-63714285D01*
X131123809Y-63714285D01*
X131028571Y-63761904D01*
X130980952Y-63809523D01*
X130933333Y-63904761D01*
X130933333Y-64095238D01*
X130980952Y-64190476D01*
X131028571Y-64238095D01*
X131123809Y-64285714D01*
%TO.C,U4*%
X145389695Y-130362980D02*
X145389695Y-131172504D01*
X145437314Y-131267742D01*
X145484933Y-131315361D01*
X145580171Y-131362980D01*
X145770647Y-131362980D01*
X145865885Y-131315361D01*
X145913504Y-131267742D01*
X145961123Y-131172504D01*
X145961123Y-130362980D01*
X146865885Y-130696314D02*
X146865885Y-131362980D01*
X146627790Y-130315361D02*
X146389695Y-131029647D01*
X147008742Y-131029647D01*
%TO.C,C6*%
X188233333Y-71257142D02*
X188185714Y-71304761D01*
X188042857Y-71352380D01*
X187947619Y-71352380D01*
X187804761Y-71304761D01*
X187709523Y-71209523D01*
X187661904Y-71114285D01*
X187614285Y-70923809D01*
X187614285Y-70780952D01*
X187661904Y-70590476D01*
X187709523Y-70495238D01*
X187804761Y-70400000D01*
X187947619Y-70352380D01*
X188042857Y-70352380D01*
X188185714Y-70400000D01*
X188233333Y-70447619D01*
X189090476Y-70352380D02*
X188900000Y-70352380D01*
X188804761Y-70400000D01*
X188757142Y-70447619D01*
X188661904Y-70590476D01*
X188614285Y-70780952D01*
X188614285Y-71161904D01*
X188661904Y-71257142D01*
X188709523Y-71304761D01*
X188804761Y-71352380D01*
X188995238Y-71352380D01*
X189090476Y-71304761D01*
X189138095Y-71257142D01*
X189185714Y-71161904D01*
X189185714Y-70923809D01*
X189138095Y-70828571D01*
X189090476Y-70780952D01*
X188995238Y-70733333D01*
X188804761Y-70733333D01*
X188709523Y-70780952D01*
X188661904Y-70828571D01*
X188614285Y-70923809D01*
%TO.C,R12*%
X127957142Y-56742380D02*
X127623809Y-56266190D01*
X127385714Y-56742380D02*
X127385714Y-55742380D01*
X127766666Y-55742380D01*
X127861904Y-55790000D01*
X127909523Y-55837619D01*
X127957142Y-55932857D01*
X127957142Y-56075714D01*
X127909523Y-56170952D01*
X127861904Y-56218571D01*
X127766666Y-56266190D01*
X127385714Y-56266190D01*
X128909523Y-56742380D02*
X128338095Y-56742380D01*
X128623809Y-56742380D02*
X128623809Y-55742380D01*
X128528571Y-55885238D01*
X128433333Y-55980476D01*
X128338095Y-56028095D01*
X129290476Y-55837619D02*
X129338095Y-55790000D01*
X129433333Y-55742380D01*
X129671428Y-55742380D01*
X129766666Y-55790000D01*
X129814285Y-55837619D01*
X129861904Y-55932857D01*
X129861904Y-56028095D01*
X129814285Y-56170952D01*
X129242857Y-56742380D01*
X129861904Y-56742380D01*
%TO.C,R7*%
X104920283Y-94200180D02*
X104586950Y-93723990D01*
X104348854Y-94200180D02*
X104348854Y-93200180D01*
X104729807Y-93200180D01*
X104825045Y-93247800D01*
X104872664Y-93295419D01*
X104920283Y-93390657D01*
X104920283Y-93533514D01*
X104872664Y-93628752D01*
X104825045Y-93676371D01*
X104729807Y-93723990D01*
X104348854Y-93723990D01*
X105253616Y-93200180D02*
X105920283Y-93200180D01*
X105491711Y-94200180D01*
%TO.C,C3*%
X170208337Y-130111116D02*
X170208337Y-130178459D01*
X170140993Y-130313146D01*
X170073650Y-130380490D01*
X169938962Y-130447833D01*
X169804275Y-130447833D01*
X169703260Y-130414162D01*
X169534901Y-130313146D01*
X169433886Y-130212131D01*
X169332871Y-130043772D01*
X169299199Y-129942757D01*
X169299199Y-129808070D01*
X169366543Y-129673383D01*
X169433886Y-129606039D01*
X169568573Y-129538696D01*
X169635917Y-129538696D01*
X169804275Y-129235650D02*
X170242008Y-128797917D01*
X170275680Y-129302994D01*
X170376695Y-129201978D01*
X170477711Y-129168307D01*
X170545054Y-129168307D01*
X170646069Y-129201978D01*
X170814428Y-129370337D01*
X170848100Y-129471352D01*
X170848100Y-129538696D01*
X170814428Y-129639711D01*
X170612398Y-129841742D01*
X170511382Y-129875414D01*
X170444039Y-129875414D01*
%TO.C,A1*%
X182059364Y-109993793D02*
X182535554Y-109993793D01*
X181964126Y-110279507D02*
X182297459Y-109279507D01*
X182630792Y-110279507D01*
X183487935Y-110279507D02*
X182916507Y-110279507D01*
X183202221Y-110279507D02*
X183202221Y-109279507D01*
X183106983Y-109422365D01*
X183011745Y-109517603D01*
X182916507Y-109565222D01*
%TO.C,REF\u002A\u002A*%
X117066666Y-115452380D02*
X116733333Y-114976190D01*
X116495238Y-115452380D02*
X116495238Y-114452380D01*
X116876190Y-114452380D01*
X116971428Y-114500000D01*
X117019047Y-114547619D01*
X117066666Y-114642857D01*
X117066666Y-114785714D01*
X117019047Y-114880952D01*
X116971428Y-114928571D01*
X116876190Y-114976190D01*
X116495238Y-114976190D01*
X117495238Y-114928571D02*
X117828571Y-114928571D01*
X117971428Y-115452380D02*
X117495238Y-115452380D01*
X117495238Y-114452380D01*
X117971428Y-114452380D01*
X118733333Y-114928571D02*
X118400000Y-114928571D01*
X118400000Y-115452380D02*
X118400000Y-114452380D01*
X118876190Y-114452380D01*
X119400000Y-114452380D02*
X119400000Y-114690476D01*
X119161904Y-114595238D02*
X119400000Y-114690476D01*
X119638095Y-114595238D01*
X119257142Y-114880952D02*
X119400000Y-114690476D01*
X119542857Y-114880952D01*
X120161904Y-114452380D02*
X120161904Y-114690476D01*
X119923809Y-114595238D02*
X120161904Y-114690476D01*
X120400000Y-114595238D01*
X120019047Y-114880952D02*
X120161904Y-114690476D01*
X120304761Y-114880952D01*
%TO.C,J6*%
X132839580Y-96420933D02*
X133553866Y-96420933D01*
X133696723Y-96468552D01*
X133791961Y-96563790D01*
X133839580Y-96706647D01*
X133839580Y-96801885D01*
X132839580Y-95516171D02*
X132839580Y-95706647D01*
X132887200Y-95801885D01*
X132934819Y-95849504D01*
X133077676Y-95944742D01*
X133268152Y-95992361D01*
X133649104Y-95992361D01*
X133744342Y-95944742D01*
X133791961Y-95897123D01*
X133839580Y-95801885D01*
X133839580Y-95611409D01*
X133791961Y-95516171D01*
X133744342Y-95468552D01*
X133649104Y-95420933D01*
X133411009Y-95420933D01*
X133315771Y-95468552D01*
X133268152Y-95516171D01*
X133220533Y-95611409D01*
X133220533Y-95801885D01*
X133268152Y-95897123D01*
X133315771Y-95944742D01*
X133411009Y-95992361D01*
%TO.C,REF\u002A\u002A*%
X168533333Y-139350946D02*
X168866666Y-139827136D01*
X169104761Y-139350946D02*
X169104761Y-140350946D01*
X168723809Y-140350946D01*
X168628571Y-140303327D01*
X168580952Y-140255707D01*
X168533333Y-140160469D01*
X168533333Y-140017612D01*
X168580952Y-139922374D01*
X168628571Y-139874755D01*
X168723809Y-139827136D01*
X169104761Y-139827136D01*
X168104761Y-139874755D02*
X167771428Y-139874755D01*
X167628571Y-139350946D02*
X168104761Y-139350946D01*
X168104761Y-140350946D01*
X167628571Y-140350946D01*
X166866666Y-139874755D02*
X167200000Y-139874755D01*
X167200000Y-139350946D02*
X167200000Y-140350946D01*
X166723809Y-140350946D01*
X166200000Y-140350946D02*
X166200000Y-140112850D01*
X166438095Y-140208088D02*
X166200000Y-140112850D01*
X165961904Y-140208088D01*
X166342857Y-139922374D02*
X166200000Y-140112850D01*
X166057142Y-139922374D01*
X165438095Y-140350946D02*
X165438095Y-140112850D01*
X165676190Y-140208088D02*
X165438095Y-140112850D01*
X165200000Y-140208088D01*
X165580952Y-139922374D02*
X165438095Y-140112850D01*
X165295238Y-139922374D01*
%TO.C,C2*%
X105999266Y-72573034D02*
X105999266Y-72640377D01*
X105931922Y-72775064D01*
X105864579Y-72842408D01*
X105729891Y-72909751D01*
X105595204Y-72909751D01*
X105494189Y-72876080D01*
X105325830Y-72775064D01*
X105224815Y-72674049D01*
X105123800Y-72505690D01*
X105090128Y-72404675D01*
X105090128Y-72269988D01*
X105157472Y-72135301D01*
X105224815Y-72067957D01*
X105359502Y-72000614D01*
X105426846Y-72000614D01*
X105696220Y-71731240D02*
X105696220Y-71663896D01*
X105729891Y-71562881D01*
X105898250Y-71394522D01*
X105999266Y-71360851D01*
X106066609Y-71360851D01*
X106167624Y-71394522D01*
X106234968Y-71461866D01*
X106302311Y-71596553D01*
X106302311Y-72404675D01*
X106740044Y-71966942D01*
X179870108Y-143071071D02*
X179870108Y-143138414D01*
X179802764Y-143273101D01*
X179735421Y-143340445D01*
X179600733Y-143407788D01*
X179466046Y-143407788D01*
X179365031Y-143374117D01*
X179196672Y-143273101D01*
X179095657Y-143172086D01*
X178994642Y-143003727D01*
X178960970Y-142902712D01*
X178960970Y-142768025D01*
X179028314Y-142633338D01*
X179095657Y-142565994D01*
X179230344Y-142498651D01*
X179297688Y-142498651D01*
X179567062Y-142229277D02*
X179567062Y-142161933D01*
X179600733Y-142060918D01*
X179769092Y-141892559D01*
X179870108Y-141858888D01*
X179937451Y-141858888D01*
X180038466Y-141892559D01*
X180105810Y-141959903D01*
X180173153Y-142094590D01*
X180173153Y-142902712D01*
X180610886Y-142464979D01*
%TO.C,U5*%
X139648095Y-53282380D02*
X139648095Y-54091904D01*
X139695714Y-54187142D01*
X139743333Y-54234761D01*
X139838571Y-54282380D01*
X140029047Y-54282380D01*
X140124285Y-54234761D01*
X140171904Y-54187142D01*
X140219523Y-54091904D01*
X140219523Y-53282380D01*
X141171904Y-53282380D02*
X140695714Y-53282380D01*
X140648095Y-53758571D01*
X140695714Y-53710952D01*
X140790952Y-53663333D01*
X141029047Y-53663333D01*
X141124285Y-53710952D01*
X141171904Y-53758571D01*
X141219523Y-53853809D01*
X141219523Y-54091904D01*
X141171904Y-54187142D01*
X141124285Y-54234761D01*
X141029047Y-54282380D01*
X140790952Y-54282380D01*
X140695714Y-54234761D01*
X140648095Y-54187142D01*
%TO.C,C2*%
X170002516Y-72646761D02*
X170002516Y-72714104D01*
X169935172Y-72848791D01*
X169867829Y-72916135D01*
X169733141Y-72983478D01*
X169598454Y-72983478D01*
X169497439Y-72949807D01*
X169329080Y-72848791D01*
X169228065Y-72747776D01*
X169127050Y-72579417D01*
X169093378Y-72478402D01*
X169093378Y-72343715D01*
X169160722Y-72209028D01*
X169228065Y-72141684D01*
X169362752Y-72074341D01*
X169430096Y-72074341D01*
X169699470Y-71804967D02*
X169699470Y-71737623D01*
X169733141Y-71636608D01*
X169901500Y-71468249D01*
X170002516Y-71434578D01*
X170069859Y-71434578D01*
X170170874Y-71468249D01*
X170238218Y-71535593D01*
X170305561Y-71670280D01*
X170305561Y-72478402D01*
X170743294Y-72040669D01*
%TO.C,F1*%
X144065666Y-121719371D02*
X143732333Y-121719371D01*
X143732333Y-122243180D02*
X143732333Y-121243180D01*
X144208523Y-121243180D01*
X145113285Y-122243180D02*
X144541857Y-122243180D01*
X144827571Y-122243180D02*
X144827571Y-121243180D01*
X144732333Y-121386038D01*
X144637095Y-121481276D01*
X144541857Y-121528895D01*
%TO.C,J7*%
X124866666Y-54902380D02*
X124866666Y-55616666D01*
X124819047Y-55759523D01*
X124723809Y-55854761D01*
X124580952Y-55902380D01*
X124485714Y-55902380D01*
X125247619Y-54902380D02*
X125914285Y-54902380D01*
X125485714Y-55902380D01*
%TO.C,A1*%
X166115314Y-105316593D02*
X166591504Y-105316593D01*
X166020076Y-105602307D02*
X166353409Y-104602307D01*
X166686742Y-105602307D01*
X167543885Y-105602307D02*
X166972457Y-105602307D01*
X167258171Y-105602307D02*
X167258171Y-104602307D01*
X167162933Y-104745165D01*
X167067695Y-104840403D01*
X166972457Y-104888022D01*
%TO.C,R8*%
X143241733Y-137350180D02*
X142908400Y-136873990D01*
X142670304Y-137350180D02*
X142670304Y-136350180D01*
X143051257Y-136350180D01*
X143146495Y-136397800D01*
X143194114Y-136445419D01*
X143241733Y-136540657D01*
X143241733Y-136683514D01*
X143194114Y-136778752D01*
X143146495Y-136826371D01*
X143051257Y-136873990D01*
X142670304Y-136873990D01*
X143813161Y-136778752D02*
X143717923Y-136731133D01*
X143670304Y-136683514D01*
X143622685Y-136588276D01*
X143622685Y-136540657D01*
X143670304Y-136445419D01*
X143717923Y-136397800D01*
X143813161Y-136350180D01*
X144003638Y-136350180D01*
X144098876Y-136397800D01*
X144146495Y-136445419D01*
X144194114Y-136540657D01*
X144194114Y-136588276D01*
X144146495Y-136683514D01*
X144098876Y-136731133D01*
X144003638Y-136778752D01*
X143813161Y-136778752D01*
X143717923Y-136826371D01*
X143670304Y-136873990D01*
X143622685Y-136969228D01*
X143622685Y-137159704D01*
X143670304Y-137254942D01*
X143717923Y-137302561D01*
X143813161Y-137350180D01*
X144003638Y-137350180D01*
X144098876Y-137302561D01*
X144146495Y-137254942D01*
X144194114Y-137159704D01*
X144194114Y-136969228D01*
X144146495Y-136873990D01*
X144098876Y-136826371D01*
X144003638Y-136778752D01*
%TO.C,REF\u002A\u002A*%
X177952380Y-111836660D02*
X177476190Y-112169993D01*
X177952380Y-112408088D02*
X176952380Y-112408088D01*
X176952380Y-112027136D01*
X177000000Y-111931898D01*
X177047619Y-111884279D01*
X177142857Y-111836660D01*
X177285714Y-111836660D01*
X177380952Y-111884279D01*
X177428571Y-111931898D01*
X177476190Y-112027136D01*
X177476190Y-112408088D01*
X177428571Y-111408088D02*
X177428571Y-111074755D01*
X177952380Y-110931898D02*
X177952380Y-111408088D01*
X176952380Y-111408088D01*
X176952380Y-110931898D01*
X177428571Y-110169993D02*
X177428571Y-110503327D01*
X177952380Y-110503327D02*
X176952380Y-110503327D01*
X176952380Y-110027136D01*
X176952380Y-109503327D02*
X177190476Y-109503327D01*
X177095238Y-109741422D02*
X177190476Y-109503327D01*
X177095238Y-109265231D01*
X177380952Y-109646184D02*
X177190476Y-109503327D01*
X177380952Y-109360469D01*
X176952380Y-108741422D02*
X177190476Y-108741422D01*
X177095238Y-108979517D02*
X177190476Y-108741422D01*
X177095238Y-108503327D01*
X177380952Y-108884279D02*
X177190476Y-108741422D01*
X177380952Y-108598565D01*
%TO.C,J8*%
X196787380Y-150058333D02*
X197501666Y-150058333D01*
X197644523Y-150105952D01*
X197739761Y-150201190D01*
X197787380Y-150344047D01*
X197787380Y-150439285D01*
X197215952Y-149439285D02*
X197168333Y-149534523D01*
X197120714Y-149582142D01*
X197025476Y-149629761D01*
X196977857Y-149629761D01*
X196882619Y-149582142D01*
X196835000Y-149534523D01*
X196787380Y-149439285D01*
X196787380Y-149248809D01*
X196835000Y-149153571D01*
X196882619Y-149105952D01*
X196977857Y-149058333D01*
X197025476Y-149058333D01*
X197120714Y-149105952D01*
X197168333Y-149153571D01*
X197215952Y-149248809D01*
X197215952Y-149439285D01*
X197263571Y-149534523D01*
X197311190Y-149582142D01*
X197406428Y-149629761D01*
X197596904Y-149629761D01*
X197692142Y-149582142D01*
X197739761Y-149534523D01*
X197787380Y-149439285D01*
X197787380Y-149248809D01*
X197739761Y-149153571D01*
X197692142Y-149105952D01*
X197596904Y-149058333D01*
X197406428Y-149058333D01*
X197311190Y-149105952D01*
X197263571Y-149153571D01*
X197215952Y-149248809D01*
%TO.C,J1*%
X175531516Y-143137707D02*
X175531516Y-143851993D01*
X175483897Y-143994850D01*
X175388659Y-144090088D01*
X175245802Y-144137707D01*
X175150564Y-144137707D01*
X176531516Y-144137707D02*
X175960088Y-144137707D01*
X176245802Y-144137707D02*
X176245802Y-143137707D01*
X176150564Y-143280565D01*
X176055326Y-143375803D01*
X175960088Y-143423422D01*
%TO.C,R14*%
X150252380Y-59242857D02*
X149776190Y-59576190D01*
X150252380Y-59814285D02*
X149252380Y-59814285D01*
X149252380Y-59433333D01*
X149300000Y-59338095D01*
X149347619Y-59290476D01*
X149442857Y-59242857D01*
X149585714Y-59242857D01*
X149680952Y-59290476D01*
X149728571Y-59338095D01*
X149776190Y-59433333D01*
X149776190Y-59814285D01*
X150252380Y-58290476D02*
X150252380Y-58861904D01*
X150252380Y-58576190D02*
X149252380Y-58576190D01*
X149395238Y-58671428D01*
X149490476Y-58766666D01*
X149538095Y-58861904D01*
X149585714Y-57433333D02*
X150252380Y-57433333D01*
X149204761Y-57671428D02*
X149919047Y-57909523D01*
X149919047Y-57290476D01*
%TO.C,J1*%
X109401816Y-70670380D02*
X109401816Y-71384666D01*
X109354197Y-71527523D01*
X109258959Y-71622761D01*
X109116102Y-71670380D01*
X109020864Y-71670380D01*
X110401816Y-71670380D02*
X109830388Y-71670380D01*
X110116102Y-71670380D02*
X110116102Y-70670380D01*
X110020864Y-70813238D01*
X109925626Y-70908476D01*
X109830388Y-70956095D01*
%TO.C,D1*%
X104475854Y-66615780D02*
X104475854Y-65615780D01*
X104713950Y-65615780D01*
X104856807Y-65663400D01*
X104952045Y-65758638D01*
X104999664Y-65853876D01*
X105047283Y-66044352D01*
X105047283Y-66187209D01*
X104999664Y-66377685D01*
X104952045Y-66472923D01*
X104856807Y-66568161D01*
X104713950Y-66615780D01*
X104475854Y-66615780D01*
X105999664Y-66615780D02*
X105428235Y-66615780D01*
X105713950Y-66615780D02*
X105713950Y-65615780D01*
X105618711Y-65758638D01*
X105523473Y-65853876D01*
X105428235Y-65901495D01*
%TO.C,J8*%
X196787380Y-94458333D02*
X197501666Y-94458333D01*
X197644523Y-94505952D01*
X197739761Y-94601190D01*
X197787380Y-94744047D01*
X197787380Y-94839285D01*
X197215952Y-93839285D02*
X197168333Y-93934523D01*
X197120714Y-93982142D01*
X197025476Y-94029761D01*
X196977857Y-94029761D01*
X196882619Y-93982142D01*
X196835000Y-93934523D01*
X196787380Y-93839285D01*
X196787380Y-93648809D01*
X196835000Y-93553571D01*
X196882619Y-93505952D01*
X196977857Y-93458333D01*
X197025476Y-93458333D01*
X197120714Y-93505952D01*
X197168333Y-93553571D01*
X197215952Y-93648809D01*
X197215952Y-93839285D01*
X197263571Y-93934523D01*
X197311190Y-93982142D01*
X197406428Y-94029761D01*
X197596904Y-94029761D01*
X197692142Y-93982142D01*
X197739761Y-93934523D01*
X197787380Y-93839285D01*
X197787380Y-93648809D01*
X197739761Y-93553571D01*
X197692142Y-93505952D01*
X197596904Y-93458333D01*
X197406428Y-93458333D01*
X197311190Y-93505952D01*
X197263571Y-93553571D01*
X197215952Y-93648809D01*
%TO.C,U1*%
X106370676Y-83432369D02*
X106943096Y-82859949D01*
X106976768Y-82758934D01*
X106976768Y-82691590D01*
X106943096Y-82590575D01*
X106808409Y-82455888D01*
X106707394Y-82422216D01*
X106640050Y-82422216D01*
X106539035Y-82455888D01*
X105966615Y-83028308D01*
X105966615Y-81614094D02*
X106370676Y-82018155D01*
X106168646Y-81816125D02*
X105461539Y-82523231D01*
X105629898Y-82489560D01*
X105764585Y-82489560D01*
X105865600Y-82523231D01*
%TO.C,D3*%
X107948504Y-121711980D02*
X107948504Y-120711980D01*
X108186600Y-120711980D01*
X108329457Y-120759600D01*
X108424695Y-120854838D01*
X108472314Y-120950076D01*
X108519933Y-121140552D01*
X108519933Y-121283409D01*
X108472314Y-121473885D01*
X108424695Y-121569123D01*
X108329457Y-121664361D01*
X108186600Y-121711980D01*
X107948504Y-121711980D01*
X108853266Y-120711980D02*
X109472314Y-120711980D01*
X109138980Y-121092933D01*
X109281838Y-121092933D01*
X109377076Y-121140552D01*
X109424695Y-121188171D01*
X109472314Y-121283409D01*
X109472314Y-121521504D01*
X109424695Y-121616742D01*
X109377076Y-121664361D01*
X109281838Y-121711980D01*
X108996123Y-121711980D01*
X108900885Y-121664361D01*
X108853266Y-121616742D01*
%TO.C,REF\u002A\u002A*%
X181066666Y-150852380D02*
X180733333Y-150376190D01*
X180495238Y-150852380D02*
X180495238Y-149852380D01*
X180876190Y-149852380D01*
X180971428Y-149900000D01*
X181019047Y-149947619D01*
X181066666Y-150042857D01*
X181066666Y-150185714D01*
X181019047Y-150280952D01*
X180971428Y-150328571D01*
X180876190Y-150376190D01*
X180495238Y-150376190D01*
X181495238Y-150328571D02*
X181828571Y-150328571D01*
X181971428Y-150852380D02*
X181495238Y-150852380D01*
X181495238Y-149852380D01*
X181971428Y-149852380D01*
X182733333Y-150328571D02*
X182400000Y-150328571D01*
X182400000Y-150852380D02*
X182400000Y-149852380D01*
X182876190Y-149852380D01*
X183400000Y-149852380D02*
X183400000Y-150090476D01*
X183161904Y-149995238D02*
X183400000Y-150090476D01*
X183638095Y-149995238D01*
X183257142Y-150280952D02*
X183400000Y-150090476D01*
X183542857Y-150280952D01*
X184161904Y-149852380D02*
X184161904Y-150090476D01*
X183923809Y-149995238D02*
X184161904Y-150090476D01*
X184400000Y-149995238D01*
X184019047Y-150280952D02*
X184161904Y-150090476D01*
X184304761Y-150280952D01*
%TO.C,C3*%
X115661037Y-85532989D02*
X115661037Y-85600332D01*
X115593693Y-85735019D01*
X115526350Y-85802363D01*
X115391662Y-85869706D01*
X115256975Y-85869706D01*
X115155960Y-85836035D01*
X114987601Y-85735019D01*
X114886586Y-85634004D01*
X114785571Y-85465645D01*
X114751899Y-85364630D01*
X114751899Y-85229943D01*
X114819243Y-85095256D01*
X114886586Y-85027912D01*
X115021273Y-84960569D01*
X115088617Y-84960569D01*
X115256975Y-84657523D02*
X115694708Y-84219790D01*
X115728380Y-84724867D01*
X115829395Y-84623851D01*
X115930411Y-84590180D01*
X115997754Y-84590180D01*
X116098769Y-84623851D01*
X116267128Y-84792210D01*
X116300800Y-84893225D01*
X116300800Y-84960569D01*
X116267128Y-85061584D01*
X116065098Y-85263615D01*
X115964082Y-85297287D01*
X115896739Y-85297287D01*
%TO.C,R11*%
X199652380Y-122242857D02*
X199176190Y-122576190D01*
X199652380Y-122814285D02*
X198652380Y-122814285D01*
X198652380Y-122433333D01*
X198700000Y-122338095D01*
X198747619Y-122290476D01*
X198842857Y-122242857D01*
X198985714Y-122242857D01*
X199080952Y-122290476D01*
X199128571Y-122338095D01*
X199176190Y-122433333D01*
X199176190Y-122814285D01*
X199652380Y-121290476D02*
X199652380Y-121861904D01*
X199652380Y-121576190D02*
X198652380Y-121576190D01*
X198795238Y-121671428D01*
X198890476Y-121766666D01*
X198938095Y-121861904D01*
X199652380Y-120338095D02*
X199652380Y-120909523D01*
X199652380Y-120623809D02*
X198652380Y-120623809D01*
X198795238Y-120719047D01*
X198890476Y-120814285D01*
X198938095Y-120909523D01*
%TO.C,A1*%
X102112064Y-105242866D02*
X102588254Y-105242866D01*
X102016826Y-105528580D02*
X102350159Y-104528580D01*
X102683492Y-105528580D01*
X103540635Y-105528580D02*
X102969207Y-105528580D01*
X103254921Y-105528580D02*
X103254921Y-104528580D01*
X103159683Y-104671438D01*
X103064445Y-104766676D01*
X102969207Y-104814295D01*
%TO.C,J7*%
X196902380Y-120933333D02*
X197616666Y-120933333D01*
X197759523Y-120980952D01*
X197854761Y-121076190D01*
X197902380Y-121219047D01*
X197902380Y-121314285D01*
X196902380Y-120552380D02*
X196902380Y-119885714D01*
X197902380Y-120314285D01*
%TO.C,C6*%
X188233333Y-126857142D02*
X188185714Y-126904761D01*
X188042857Y-126952380D01*
X187947619Y-126952380D01*
X187804761Y-126904761D01*
X187709523Y-126809523D01*
X187661904Y-126714285D01*
X187614285Y-126523809D01*
X187614285Y-126380952D01*
X187661904Y-126190476D01*
X187709523Y-126095238D01*
X187804761Y-126000000D01*
X187947619Y-125952380D01*
X188042857Y-125952380D01*
X188185714Y-126000000D01*
X188233333Y-126047619D01*
X189090476Y-125952380D02*
X188900000Y-125952380D01*
X188804761Y-126000000D01*
X188757142Y-126047619D01*
X188661904Y-126190476D01*
X188614285Y-126380952D01*
X188614285Y-126761904D01*
X188661904Y-126857142D01*
X188709523Y-126904761D01*
X188804761Y-126952380D01*
X188995238Y-126952380D01*
X189090476Y-126904761D01*
X189138095Y-126857142D01*
X189185714Y-126761904D01*
X189185714Y-126523809D01*
X189138095Y-126428571D01*
X189090476Y-126380952D01*
X188995238Y-126333333D01*
X188804761Y-126333333D01*
X188709523Y-126380952D01*
X188661904Y-126428571D01*
X188614285Y-126523809D01*
%TO.C,D1*%
X179647954Y-149192307D02*
X179647954Y-148192307D01*
X179886050Y-148192307D01*
X180028907Y-148239927D01*
X180124145Y-148335165D01*
X180171764Y-148430403D01*
X180219383Y-148620879D01*
X180219383Y-148763736D01*
X180171764Y-148954212D01*
X180124145Y-149049450D01*
X180028907Y-149144688D01*
X179886050Y-149192307D01*
X179647954Y-149192307D01*
X181171764Y-149192307D02*
X180600335Y-149192307D01*
X180886050Y-149192307D02*
X180886050Y-148192307D01*
X180790811Y-148335165D01*
X180695573Y-148430403D01*
X180600335Y-148478022D01*
X168479104Y-66689507D02*
X168479104Y-65689507D01*
X168717200Y-65689507D01*
X168860057Y-65737127D01*
X168955295Y-65832365D01*
X169002914Y-65927603D01*
X169050533Y-66118079D01*
X169050533Y-66260936D01*
X169002914Y-66451412D01*
X168955295Y-66546650D01*
X168860057Y-66641888D01*
X168717200Y-66689507D01*
X168479104Y-66689507D01*
X170002914Y-66689507D02*
X169431485Y-66689507D01*
X169717200Y-66689507D02*
X169717200Y-65689507D01*
X169621961Y-65832365D01*
X169526723Y-65927603D01*
X169431485Y-65975222D01*
X115644704Y-149118580D02*
X115644704Y-148118580D01*
X115882800Y-148118580D01*
X116025657Y-148166200D01*
X116120895Y-148261438D01*
X116168514Y-148356676D01*
X116216133Y-148547152D01*
X116216133Y-148690009D01*
X116168514Y-148880485D01*
X116120895Y-148975723D01*
X116025657Y-149070961D01*
X115882800Y-149118580D01*
X115644704Y-149118580D01*
X117168514Y-149118580D02*
X116597085Y-149118580D01*
X116882800Y-149118580D02*
X116882800Y-148118580D01*
X116787561Y-148261438D01*
X116692323Y-148356676D01*
X116597085Y-148404295D01*
%TO.C,J2*%
X115251330Y-102818733D02*
X115965616Y-102818733D01*
X116108473Y-102866352D01*
X116203711Y-102961590D01*
X116251330Y-103104447D01*
X116251330Y-103199685D01*
X115346569Y-102390161D02*
X115298950Y-102342542D01*
X115251330Y-102247304D01*
X115251330Y-102009209D01*
X115298950Y-101913971D01*
X115346569Y-101866352D01*
X115441807Y-101818733D01*
X115537045Y-101818733D01*
X115679902Y-101866352D01*
X116251330Y-102437780D01*
X116251330Y-101818733D01*
%TO.C,J1*%
X111528266Y-143063980D02*
X111528266Y-143778266D01*
X111480647Y-143921123D01*
X111385409Y-144016361D01*
X111242552Y-144063980D01*
X111147314Y-144063980D01*
X112528266Y-144063980D02*
X111956838Y-144063980D01*
X112242552Y-144063980D02*
X112242552Y-143063980D01*
X112147314Y-143206838D01*
X112052076Y-143302076D01*
X111956838Y-143349695D01*
%TO.C,J2*%
X179254580Y-102892460D02*
X179968866Y-102892460D01*
X180111723Y-102940079D01*
X180206961Y-103035317D01*
X180254580Y-103178174D01*
X180254580Y-103273412D01*
X179349819Y-102463888D02*
X179302200Y-102416269D01*
X179254580Y-102321031D01*
X179254580Y-102082936D01*
X179302200Y-101987698D01*
X179349819Y-101940079D01*
X179445057Y-101892460D01*
X179540295Y-101892460D01*
X179683152Y-101940079D01*
X180254580Y-102511507D01*
X180254580Y-101892460D01*
X169253430Y-112751260D02*
X169967716Y-112751260D01*
X170110573Y-112798879D01*
X170205811Y-112894117D01*
X170253430Y-113036974D01*
X170253430Y-113132212D01*
X169348669Y-112322688D02*
X169301050Y-112275069D01*
X169253430Y-112179831D01*
X169253430Y-111941736D01*
X169301050Y-111846498D01*
X169348669Y-111798879D01*
X169443907Y-111751260D01*
X169539145Y-111751260D01*
X169682002Y-111798879D01*
X170253430Y-112370307D01*
X170253430Y-111751260D01*
%TO.C,J3*%
X150390266Y-145856980D02*
X150390266Y-146571266D01*
X150342647Y-146714123D01*
X150247409Y-146809361D01*
X150104552Y-146856980D01*
X150009314Y-146856980D01*
X150771219Y-145856980D02*
X151390266Y-145856980D01*
X151056933Y-146237933D01*
X151199790Y-146237933D01*
X151295028Y-146285552D01*
X151342647Y-146333171D01*
X151390266Y-146428409D01*
X151390266Y-146666504D01*
X151342647Y-146761742D01*
X151295028Y-146809361D01*
X151199790Y-146856980D01*
X150914076Y-146856980D01*
X150818838Y-146809361D01*
X150771219Y-146761742D01*
%TO.C,R10*%
X131052380Y-62442857D02*
X130576190Y-62776190D01*
X131052380Y-63014285D02*
X130052380Y-63014285D01*
X130052380Y-62633333D01*
X130100000Y-62538095D01*
X130147619Y-62490476D01*
X130242857Y-62442857D01*
X130385714Y-62442857D01*
X130480952Y-62490476D01*
X130528571Y-62538095D01*
X130576190Y-62633333D01*
X130576190Y-63014285D01*
X131052380Y-61490476D02*
X131052380Y-62061904D01*
X131052380Y-61776190D02*
X130052380Y-61776190D01*
X130195238Y-61871428D01*
X130290476Y-61966666D01*
X130338095Y-62061904D01*
X130052380Y-60871428D02*
X130052380Y-60776190D01*
X130100000Y-60680952D01*
X130147619Y-60633333D01*
X130242857Y-60585714D01*
X130433333Y-60538095D01*
X130671428Y-60538095D01*
X130861904Y-60585714D01*
X130957142Y-60633333D01*
X131004761Y-60680952D01*
X131052380Y-60776190D01*
X131052380Y-60871428D01*
X131004761Y-60966666D01*
X130957142Y-61014285D01*
X130861904Y-61061904D01*
X130671428Y-61109523D01*
X130433333Y-61109523D01*
X130242857Y-61061904D01*
X130147619Y-61014285D01*
X130100000Y-60966666D01*
X130052380Y-60871428D01*
%TO.C,MES1*%
X153735704Y-137465780D02*
X153735704Y-136465780D01*
X154069038Y-137180066D01*
X154402371Y-136465780D01*
X154402371Y-137465780D01*
X154878561Y-136941971D02*
X155211895Y-136941971D01*
X155354752Y-137465780D02*
X154878561Y-137465780D01*
X154878561Y-136465780D01*
X155354752Y-136465780D01*
X155735704Y-137418161D02*
X155878561Y-137465780D01*
X156116657Y-137465780D01*
X156211895Y-137418161D01*
X156259514Y-137370542D01*
X156307133Y-137275304D01*
X156307133Y-137180066D01*
X156259514Y-137084828D01*
X156211895Y-137037209D01*
X156116657Y-136989590D01*
X155926180Y-136941971D01*
X155830942Y-136894352D01*
X155783323Y-136846733D01*
X155735704Y-136751495D01*
X155735704Y-136656257D01*
X155783323Y-136561019D01*
X155830942Y-136513400D01*
X155926180Y-136465780D01*
X156164276Y-136465780D01*
X156307133Y-136513400D01*
X157259514Y-137465780D02*
X156688085Y-137465780D01*
X156973800Y-137465780D02*
X156973800Y-136465780D01*
X156878561Y-136608638D01*
X156783323Y-136703876D01*
X156688085Y-136751495D01*
%TO.C,REF\u002A\u002A*%
X117066666Y-75552380D02*
X116733333Y-75076190D01*
X116495238Y-75552380D02*
X116495238Y-74552380D01*
X116876190Y-74552380D01*
X116971428Y-74600000D01*
X117019047Y-74647619D01*
X117066666Y-74742857D01*
X117066666Y-74885714D01*
X117019047Y-74980952D01*
X116971428Y-75028571D01*
X116876190Y-75076190D01*
X116495238Y-75076190D01*
X117495238Y-75028571D02*
X117828571Y-75028571D01*
X117971428Y-75552380D02*
X117495238Y-75552380D01*
X117495238Y-74552380D01*
X117971428Y-74552380D01*
X118733333Y-75028571D02*
X118400000Y-75028571D01*
X118400000Y-75552380D02*
X118400000Y-74552380D01*
X118876190Y-74552380D01*
X119400000Y-74552380D02*
X119400000Y-74790476D01*
X119161904Y-74695238D02*
X119400000Y-74790476D01*
X119638095Y-74695238D01*
X119257142Y-74980952D02*
X119400000Y-74790476D01*
X119542857Y-74980952D01*
X120161904Y-74552380D02*
X120161904Y-74790476D01*
X119923809Y-74695238D02*
X120161904Y-74790476D01*
X120400000Y-74695238D01*
X120019047Y-74980952D02*
X120161904Y-74790476D01*
X120304761Y-74980952D01*
%TO.C,R13*%
X194457142Y-71152380D02*
X194123809Y-70676190D01*
X193885714Y-71152380D02*
X193885714Y-70152380D01*
X194266666Y-70152380D01*
X194361904Y-70200000D01*
X194409523Y-70247619D01*
X194457142Y-70342857D01*
X194457142Y-70485714D01*
X194409523Y-70580952D01*
X194361904Y-70628571D01*
X194266666Y-70676190D01*
X193885714Y-70676190D01*
X195409523Y-71152380D02*
X194838095Y-71152380D01*
X195123809Y-71152380D02*
X195123809Y-70152380D01*
X195028571Y-70295238D01*
X194933333Y-70390476D01*
X194838095Y-70438095D01*
X195742857Y-70152380D02*
X196361904Y-70152380D01*
X196028571Y-70533333D01*
X196171428Y-70533333D01*
X196266666Y-70580952D01*
X196314285Y-70628571D01*
X196361904Y-70723809D01*
X196361904Y-70961904D01*
X196314285Y-71057142D01*
X196266666Y-71104761D01*
X196171428Y-71152380D01*
X195885714Y-71152380D01*
X195790476Y-71104761D01*
X195742857Y-71057142D01*
%TO.C,REF\u002A\u002A*%
X129452380Y-71833333D02*
X128976190Y-72166666D01*
X129452380Y-72404761D02*
X128452380Y-72404761D01*
X128452380Y-72023809D01*
X128500000Y-71928571D01*
X128547619Y-71880952D01*
X128642857Y-71833333D01*
X128785714Y-71833333D01*
X128880952Y-71880952D01*
X128928571Y-71928571D01*
X128976190Y-72023809D01*
X128976190Y-72404761D01*
X128928571Y-71404761D02*
X128928571Y-71071428D01*
X129452380Y-70928571D02*
X129452380Y-71404761D01*
X128452380Y-71404761D01*
X128452380Y-70928571D01*
X128928571Y-70166666D02*
X128928571Y-70500000D01*
X129452380Y-70500000D02*
X128452380Y-70500000D01*
X128452380Y-70023809D01*
X128452380Y-69500000D02*
X128690476Y-69500000D01*
X128595238Y-69738095D02*
X128690476Y-69500000D01*
X128595238Y-69261904D01*
X128880952Y-69642857D02*
X128690476Y-69500000D01*
X128880952Y-69357142D01*
X128452380Y-68738095D02*
X128690476Y-68738095D01*
X128595238Y-68976190D02*
X128690476Y-68738095D01*
X128595238Y-68500000D01*
X128880952Y-68880952D02*
X128690476Y-68738095D01*
X128880952Y-68595238D01*
%TO.C,C2*%
X115866858Y-142997344D02*
X115866858Y-143064687D01*
X115799514Y-143199374D01*
X115732171Y-143266718D01*
X115597483Y-143334061D01*
X115462796Y-143334061D01*
X115361781Y-143300390D01*
X115193422Y-143199374D01*
X115092407Y-143098359D01*
X114991392Y-142930000D01*
X114957720Y-142828985D01*
X114957720Y-142694298D01*
X115025064Y-142559611D01*
X115092407Y-142492267D01*
X115227094Y-142424924D01*
X115294438Y-142424924D01*
X115563812Y-142155550D02*
X115563812Y-142088206D01*
X115597483Y-141987191D01*
X115765842Y-141818832D01*
X115866858Y-141785161D01*
X115934201Y-141785161D01*
X116035216Y-141818832D01*
X116102560Y-141886176D01*
X116169903Y-142020863D01*
X116169903Y-142828985D01*
X116607636Y-142391252D01*
%TO.C,REF\u002A\u002A*%
X117066666Y-150752380D02*
X116733333Y-150276190D01*
X116495238Y-150752380D02*
X116495238Y-149752380D01*
X116876190Y-149752380D01*
X116971428Y-149800000D01*
X117019047Y-149847619D01*
X117066666Y-149942857D01*
X117066666Y-150085714D01*
X117019047Y-150180952D01*
X116971428Y-150228571D01*
X116876190Y-150276190D01*
X116495238Y-150276190D01*
X117495238Y-150228571D02*
X117828571Y-150228571D01*
X117971428Y-150752380D02*
X117495238Y-150752380D01*
X117495238Y-149752380D01*
X117971428Y-149752380D01*
X118733333Y-150228571D02*
X118400000Y-150228571D01*
X118400000Y-150752380D02*
X118400000Y-149752380D01*
X118876190Y-149752380D01*
X119400000Y-149752380D02*
X119400000Y-149990476D01*
X119161904Y-149895238D02*
X119400000Y-149990476D01*
X119638095Y-149895238D01*
X119257142Y-150180952D02*
X119400000Y-149990476D01*
X119542857Y-150180952D01*
X120161904Y-149752380D02*
X120161904Y-149990476D01*
X119923809Y-149895238D02*
X120161904Y-149990476D01*
X120400000Y-149895238D01*
X120019047Y-150180952D02*
X120161904Y-149990476D01*
X120304761Y-150180952D01*
%TO.C,A1*%
X118056114Y-109920066D02*
X118532304Y-109920066D01*
X117960876Y-110205780D02*
X118294209Y-109205780D01*
X118627542Y-110205780D01*
X119484685Y-110205780D02*
X118913257Y-110205780D01*
X119198971Y-110205780D02*
X119198971Y-109205780D01*
X119103733Y-109348638D01*
X119008495Y-109443876D01*
X118913257Y-109491495D01*
%TO.C,SW1*%
X173617116Y-116531088D02*
X173759973Y-116578707D01*
X173998069Y-116578707D01*
X174093307Y-116531088D01*
X174140926Y-116483469D01*
X174188545Y-116388231D01*
X174188545Y-116292993D01*
X174140926Y-116197755D01*
X174093307Y-116150136D01*
X173998069Y-116102517D01*
X173807592Y-116054898D01*
X173712354Y-116007279D01*
X173664735Y-115959660D01*
X173617116Y-115864422D01*
X173617116Y-115769184D01*
X173664735Y-115673946D01*
X173712354Y-115626327D01*
X173807592Y-115578707D01*
X174045688Y-115578707D01*
X174188545Y-115626327D01*
X174521878Y-115578707D02*
X174759973Y-116578707D01*
X174950450Y-115864422D01*
X175140926Y-116578707D01*
X175379021Y-115578707D01*
X176283783Y-116578707D02*
X175712354Y-116578707D01*
X175998069Y-116578707D02*
X175998069Y-115578707D01*
X175902830Y-115721565D01*
X175807592Y-115816803D01*
X175712354Y-115864422D01*
%TO.C,C3*%
X179664287Y-85606716D02*
X179664287Y-85674059D01*
X179596943Y-85808746D01*
X179529600Y-85876090D01*
X179394912Y-85943433D01*
X179260225Y-85943433D01*
X179159210Y-85909762D01*
X178990851Y-85808746D01*
X178889836Y-85707731D01*
X178788821Y-85539372D01*
X178755149Y-85438357D01*
X178755149Y-85303670D01*
X178822493Y-85168983D01*
X178889836Y-85101639D01*
X179024523Y-85034296D01*
X179091867Y-85034296D01*
X179260225Y-84731250D02*
X179697958Y-84293517D01*
X179731630Y-84798594D01*
X179832645Y-84697578D01*
X179933661Y-84663907D01*
X180001004Y-84663907D01*
X180102019Y-84697578D01*
X180270378Y-84865937D01*
X180304050Y-84966952D01*
X180304050Y-85034296D01*
X180270378Y-85135311D01*
X180068348Y-85337342D01*
X179967332Y-85371014D01*
X179899989Y-85371014D01*
%TO.C,U5*%
X198522380Y-136571904D02*
X199331904Y-136571904D01*
X199427142Y-136524285D01*
X199474761Y-136476666D01*
X199522380Y-136381428D01*
X199522380Y-136190952D01*
X199474761Y-136095714D01*
X199427142Y-136048095D01*
X199331904Y-136000476D01*
X198522380Y-136000476D01*
X198522380Y-135048095D02*
X198522380Y-135524285D01*
X198998571Y-135571904D01*
X198950952Y-135524285D01*
X198903333Y-135429047D01*
X198903333Y-135190952D01*
X198950952Y-135095714D01*
X198998571Y-135048095D01*
X199093809Y-135000476D01*
X199331904Y-135000476D01*
X199427142Y-135048095D01*
X199474761Y-135095714D01*
X199522380Y-135190952D01*
X199522380Y-135429047D01*
X199474761Y-135524285D01*
X199427142Y-135571904D01*
%TO.C,R11*%
X125557142Y-54152380D02*
X125223809Y-53676190D01*
X124985714Y-54152380D02*
X124985714Y-53152380D01*
X125366666Y-53152380D01*
X125461904Y-53200000D01*
X125509523Y-53247619D01*
X125557142Y-53342857D01*
X125557142Y-53485714D01*
X125509523Y-53580952D01*
X125461904Y-53628571D01*
X125366666Y-53676190D01*
X124985714Y-53676190D01*
X126509523Y-54152380D02*
X125938095Y-54152380D01*
X126223809Y-54152380D02*
X126223809Y-53152380D01*
X126128571Y-53295238D01*
X126033333Y-53390476D01*
X125938095Y-53438095D01*
X127461904Y-54152380D02*
X126890476Y-54152380D01*
X127176190Y-54152380D02*
X127176190Y-53152380D01*
X127080952Y-53295238D01*
X126985714Y-53390476D01*
X126890476Y-53438095D01*
%TO.C,R12*%
X197062380Y-124642857D02*
X196586190Y-124976190D01*
X197062380Y-125214285D02*
X196062380Y-125214285D01*
X196062380Y-124833333D01*
X196110000Y-124738095D01*
X196157619Y-124690476D01*
X196252857Y-124642857D01*
X196395714Y-124642857D01*
X196490952Y-124690476D01*
X196538571Y-124738095D01*
X196586190Y-124833333D01*
X196586190Y-125214285D01*
X197062380Y-123690476D02*
X197062380Y-124261904D01*
X197062380Y-123976190D02*
X196062380Y-123976190D01*
X196205238Y-124071428D01*
X196300476Y-124166666D01*
X196348095Y-124261904D01*
X196157619Y-123309523D02*
X196110000Y-123261904D01*
X196062380Y-123166666D01*
X196062380Y-122928571D01*
X196110000Y-122833333D01*
X196157619Y-122785714D01*
X196252857Y-122738095D01*
X196348095Y-122738095D01*
X196490952Y-122785714D01*
X197062380Y-123357142D01*
X197062380Y-122738095D01*
D14*
%TO.C,SW2*%
X127516466Y-133126447D02*
X127697895Y-133186923D01*
X128000276Y-133186923D01*
X128121228Y-133126447D01*
X128181704Y-133065971D01*
X128242180Y-132945019D01*
X128242180Y-132824066D01*
X128181704Y-132703114D01*
X128121228Y-132642638D01*
X128000276Y-132582161D01*
X127758371Y-132521685D01*
X127637419Y-132461209D01*
X127576942Y-132400733D01*
X127516466Y-132279780D01*
X127516466Y-132158828D01*
X127576942Y-132037876D01*
X127637419Y-131977400D01*
X127758371Y-131916923D01*
X128060752Y-131916923D01*
X128242180Y-131977400D01*
X128665514Y-131916923D02*
X128967895Y-133186923D01*
X129209800Y-132279780D01*
X129451704Y-133186923D01*
X129754085Y-131916923D01*
X130177419Y-132037876D02*
X130237895Y-131977400D01*
X130358847Y-131916923D01*
X130661228Y-131916923D01*
X130782180Y-131977400D01*
X130842657Y-132037876D01*
X130903133Y-132158828D01*
X130903133Y-132279780D01*
X130842657Y-132461209D01*
X130116942Y-133186923D01*
X130903133Y-133186923D01*
D10*
%TO.C,R14*%
X193657142Y-90052380D02*
X193323809Y-89576190D01*
X193085714Y-90052380D02*
X193085714Y-89052380D01*
X193466666Y-89052380D01*
X193561904Y-89100000D01*
X193609523Y-89147619D01*
X193657142Y-89242857D01*
X193657142Y-89385714D01*
X193609523Y-89480952D01*
X193561904Y-89528571D01*
X193466666Y-89576190D01*
X193085714Y-89576190D01*
X194609523Y-90052380D02*
X194038095Y-90052380D01*
X194323809Y-90052380D02*
X194323809Y-89052380D01*
X194228571Y-89195238D01*
X194133333Y-89290476D01*
X194038095Y-89338095D01*
X195466666Y-89385714D02*
X195466666Y-90052380D01*
X195228571Y-89004761D02*
X194990476Y-89719047D01*
X195609523Y-89719047D01*
%TO.C,SW1*%
X109316216Y-99181761D02*
X109459073Y-99229380D01*
X109697169Y-99229380D01*
X109792407Y-99181761D01*
X109840026Y-99134142D01*
X109887645Y-99038904D01*
X109887645Y-98943666D01*
X109840026Y-98848428D01*
X109792407Y-98800809D01*
X109697169Y-98753190D01*
X109506692Y-98705571D01*
X109411454Y-98657952D01*
X109363835Y-98610333D01*
X109316216Y-98515095D01*
X109316216Y-98419857D01*
X109363835Y-98324619D01*
X109411454Y-98277000D01*
X109506692Y-98229380D01*
X109744788Y-98229380D01*
X109887645Y-98277000D01*
X110220978Y-98229380D02*
X110459073Y-99229380D01*
X110649550Y-98515095D01*
X110840026Y-99229380D01*
X111078121Y-98229380D01*
X111982883Y-99229380D02*
X111411454Y-99229380D01*
X111697169Y-99229380D02*
X111697169Y-98229380D01*
X111601930Y-98372238D01*
X111506692Y-98467476D01*
X111411454Y-98515095D01*
%TO.C,REF\u002A\u002A*%
X168533333Y-70447619D02*
X168866666Y-70923809D01*
X169104761Y-70447619D02*
X169104761Y-71447619D01*
X168723809Y-71447619D01*
X168628571Y-71400000D01*
X168580952Y-71352380D01*
X168533333Y-71257142D01*
X168533333Y-71114285D01*
X168580952Y-71019047D01*
X168628571Y-70971428D01*
X168723809Y-70923809D01*
X169104761Y-70923809D01*
X168104761Y-70971428D02*
X167771428Y-70971428D01*
X167628571Y-70447619D02*
X168104761Y-70447619D01*
X168104761Y-71447619D01*
X167628571Y-71447619D01*
X166866666Y-70971428D02*
X167200000Y-70971428D01*
X167200000Y-70447619D02*
X167200000Y-71447619D01*
X166723809Y-71447619D01*
X166200000Y-71447619D02*
X166200000Y-71209523D01*
X166438095Y-71304761D02*
X166200000Y-71209523D01*
X165961904Y-71304761D01*
X166342857Y-71019047D02*
X166200000Y-71209523D01*
X166057142Y-71019047D01*
X165438095Y-71447619D02*
X165438095Y-71209523D01*
X165676190Y-71304761D02*
X165438095Y-71209523D01*
X165200000Y-71304761D01*
X165580952Y-71019047D02*
X165438095Y-71209523D01*
X165295238Y-71019047D01*
%TO.C,R11*%
X199652380Y-66642857D02*
X199176190Y-66976190D01*
X199652380Y-67214285D02*
X198652380Y-67214285D01*
X198652380Y-66833333D01*
X198700000Y-66738095D01*
X198747619Y-66690476D01*
X198842857Y-66642857D01*
X198985714Y-66642857D01*
X199080952Y-66690476D01*
X199128571Y-66738095D01*
X199176190Y-66833333D01*
X199176190Y-67214285D01*
X199652380Y-65690476D02*
X199652380Y-66261904D01*
X199652380Y-65976190D02*
X198652380Y-65976190D01*
X198795238Y-66071428D01*
X198890476Y-66166666D01*
X198938095Y-66261904D01*
X199652380Y-64738095D02*
X199652380Y-65309523D01*
X199652380Y-65023809D02*
X198652380Y-65023809D01*
X198795238Y-65119047D01*
X198890476Y-65214285D01*
X198938095Y-65309523D01*
%TO.C,REF\u002A\u002A*%
X181066666Y-69252380D02*
X180733333Y-68776190D01*
X180495238Y-69252380D02*
X180495238Y-68252380D01*
X180876190Y-68252380D01*
X180971428Y-68300000D01*
X181019047Y-68347619D01*
X181066666Y-68442857D01*
X181066666Y-68585714D01*
X181019047Y-68680952D01*
X180971428Y-68728571D01*
X180876190Y-68776190D01*
X180495238Y-68776190D01*
X181495238Y-68728571D02*
X181828571Y-68728571D01*
X181971428Y-69252380D02*
X181495238Y-69252380D01*
X181495238Y-68252380D01*
X181971428Y-68252380D01*
X182733333Y-68728571D02*
X182400000Y-68728571D01*
X182400000Y-69252380D02*
X182400000Y-68252380D01*
X182876190Y-68252380D01*
X183400000Y-68252380D02*
X183400000Y-68490476D01*
X183161904Y-68395238D02*
X183400000Y-68490476D01*
X183638095Y-68395238D01*
X183257142Y-68680952D02*
X183400000Y-68490476D01*
X183542857Y-68680952D01*
X184161904Y-68252380D02*
X184161904Y-68490476D01*
X183923809Y-68395238D02*
X184161904Y-68490476D01*
X184400000Y-68395238D01*
X184019047Y-68680952D02*
X184161904Y-68490476D01*
X184304761Y-68680952D01*
X181066666Y-124852380D02*
X180733333Y-124376190D01*
X180495238Y-124852380D02*
X180495238Y-123852380D01*
X180876190Y-123852380D01*
X180971428Y-123900000D01*
X181019047Y-123947619D01*
X181066666Y-124042857D01*
X181066666Y-124185714D01*
X181019047Y-124280952D01*
X180971428Y-124328571D01*
X180876190Y-124376190D01*
X180495238Y-124376190D01*
X181495238Y-124328571D02*
X181828571Y-124328571D01*
X181971428Y-124852380D02*
X181495238Y-124852380D01*
X181495238Y-123852380D01*
X181971428Y-123852380D01*
X182733333Y-124328571D02*
X182400000Y-124328571D01*
X182400000Y-124852380D02*
X182400000Y-123852380D01*
X182876190Y-123852380D01*
X183400000Y-123852380D02*
X183400000Y-124090476D01*
X183161904Y-123995238D02*
X183400000Y-124090476D01*
X183638095Y-123995238D01*
X183257142Y-124280952D02*
X183400000Y-124090476D01*
X183542857Y-124280952D01*
X184161904Y-123852380D02*
X184161904Y-124090476D01*
X183923809Y-123995238D02*
X184161904Y-124090476D01*
X184400000Y-123995238D01*
X184019047Y-124280952D02*
X184161904Y-124090476D01*
X184304761Y-124280952D01*
%TO.C,U1*%
X115529118Y-133249177D02*
X116101538Y-132676757D01*
X116135210Y-132575742D01*
X116135210Y-132508398D01*
X116101538Y-132407383D01*
X115966851Y-132272696D01*
X115865836Y-132239024D01*
X115798492Y-132239024D01*
X115697477Y-132272696D01*
X115125057Y-132845116D01*
X115125057Y-131430902D02*
X115529118Y-131834963D01*
X115327088Y-131632933D02*
X114619981Y-132340039D01*
X114788340Y-132306368D01*
X114923027Y-132306368D01*
X115024042Y-132340039D01*
%TO.C,J8*%
X153991666Y-55017380D02*
X153991666Y-55731666D01*
X153944047Y-55874523D01*
X153848809Y-55969761D01*
X153705952Y-56017380D01*
X153610714Y-56017380D01*
X154610714Y-55445952D02*
X154515476Y-55398333D01*
X154467857Y-55350714D01*
X154420238Y-55255476D01*
X154420238Y-55207857D01*
X154467857Y-55112619D01*
X154515476Y-55065000D01*
X154610714Y-55017380D01*
X154801190Y-55017380D01*
X154896428Y-55065000D01*
X154944047Y-55112619D01*
X154991666Y-55207857D01*
X154991666Y-55255476D01*
X154944047Y-55350714D01*
X154896428Y-55398333D01*
X154801190Y-55445952D01*
X154610714Y-55445952D01*
X154515476Y-55493571D01*
X154467857Y-55541190D01*
X154420238Y-55636428D01*
X154420238Y-55826904D01*
X154467857Y-55922142D01*
X154515476Y-55969761D01*
X154610714Y-56017380D01*
X154801190Y-56017380D01*
X154896428Y-55969761D01*
X154944047Y-55922142D01*
X154991666Y-55826904D01*
X154991666Y-55636428D01*
X154944047Y-55541190D01*
X154896428Y-55493571D01*
X154801190Y-55445952D01*
%TO.C,J5*%
X156562466Y-99411380D02*
X156562466Y-100125666D01*
X156514847Y-100268523D01*
X156419609Y-100363761D01*
X156276752Y-100411380D01*
X156181514Y-100411380D01*
X157514847Y-99411380D02*
X157038657Y-99411380D01*
X156991038Y-99887571D01*
X157038657Y-99839952D01*
X157133895Y-99792333D01*
X157371990Y-99792333D01*
X157467228Y-99839952D01*
X157514847Y-99887571D01*
X157562466Y-99982809D01*
X157562466Y-100220904D01*
X157514847Y-100316142D01*
X157467228Y-100363761D01*
X157371990Y-100411380D01*
X157133895Y-100411380D01*
X157038657Y-100363761D01*
X156991038Y-100316142D01*
%TO.C,D3*%
X176175304Y-94096107D02*
X176175304Y-93096107D01*
X176413400Y-93096107D01*
X176556257Y-93143727D01*
X176651495Y-93238965D01*
X176699114Y-93334203D01*
X176746733Y-93524679D01*
X176746733Y-93667536D01*
X176699114Y-93858012D01*
X176651495Y-93953250D01*
X176556257Y-94048488D01*
X176413400Y-94096107D01*
X176175304Y-94096107D01*
X177080066Y-93096107D02*
X177699114Y-93096107D01*
X177365780Y-93477060D01*
X177508638Y-93477060D01*
X177603876Y-93524679D01*
X177651495Y-93572298D01*
X177699114Y-93667536D01*
X177699114Y-93905631D01*
X177651495Y-94000869D01*
X177603876Y-94048488D01*
X177508638Y-94096107D01*
X177222923Y-94096107D01*
X177127685Y-94048488D01*
X177080066Y-94000869D01*
%TO.C,REF\u002A\u002A*%
X117066666Y-103852380D02*
X116733333Y-103376190D01*
X116495238Y-103852380D02*
X116495238Y-102852380D01*
X116876190Y-102852380D01*
X116971428Y-102900000D01*
X117019047Y-102947619D01*
X117066666Y-103042857D01*
X117066666Y-103185714D01*
X117019047Y-103280952D01*
X116971428Y-103328571D01*
X116876190Y-103376190D01*
X116495238Y-103376190D01*
X117495238Y-103328571D02*
X117828571Y-103328571D01*
X117971428Y-103852380D02*
X117495238Y-103852380D01*
X117495238Y-102852380D01*
X117971428Y-102852380D01*
X118733333Y-103328571D02*
X118400000Y-103328571D01*
X118400000Y-103852380D02*
X118400000Y-102852380D01*
X118876190Y-102852380D01*
X119400000Y-102852380D02*
X119400000Y-103090476D01*
X119161904Y-102995238D02*
X119400000Y-103090476D01*
X119638095Y-102995238D01*
X119257142Y-103280952D02*
X119400000Y-103090476D01*
X119542857Y-103280952D01*
X120161904Y-102852380D02*
X120161904Y-103090476D01*
X119923809Y-102995238D02*
X120161904Y-103090476D01*
X120400000Y-102995238D01*
X120019047Y-103280952D02*
X120161904Y-103090476D01*
X120304761Y-103280952D01*
%TO.C,J7*%
X196902380Y-65333333D02*
X197616666Y-65333333D01*
X197759523Y-65380952D01*
X197854761Y-65476190D01*
X197902380Y-65619047D01*
X197902380Y-65714285D01*
X196902380Y-64952380D02*
X196902380Y-64285714D01*
X197902380Y-64714285D01*
%TO.C,R7*%
X116343133Y-121534180D02*
X116009800Y-121057990D01*
X115771704Y-121534180D02*
X115771704Y-120534180D01*
X116152657Y-120534180D01*
X116247895Y-120581800D01*
X116295514Y-120629419D01*
X116343133Y-120724657D01*
X116343133Y-120867514D01*
X116295514Y-120962752D01*
X116247895Y-121010371D01*
X116152657Y-121057990D01*
X115771704Y-121057990D01*
X116676466Y-120534180D02*
X117343133Y-120534180D01*
X116914561Y-121534180D01*
%TO.C,J4*%
X139138066Y-145806180D02*
X139138066Y-146520466D01*
X139090447Y-146663323D01*
X138995209Y-146758561D01*
X138852352Y-146806180D01*
X138757114Y-146806180D01*
X140042828Y-146139514D02*
X140042828Y-146806180D01*
X139804733Y-145758561D02*
X139566638Y-146472847D01*
X140185685Y-146472847D01*
%TO.C,D4*%
X147013704Y-134657380D02*
X147013704Y-133657380D01*
X147251800Y-133657380D01*
X147394657Y-133705000D01*
X147489895Y-133800238D01*
X147537514Y-133895476D01*
X147585133Y-134085952D01*
X147585133Y-134228809D01*
X147537514Y-134419285D01*
X147489895Y-134514523D01*
X147394657Y-134609761D01*
X147251800Y-134657380D01*
X147013704Y-134657380D01*
X148442276Y-133990714D02*
X148442276Y-134657380D01*
X148204180Y-133609761D02*
X147966085Y-134324047D01*
X148585133Y-134324047D01*
%TO.C,J2*%
X105250180Y-112677533D02*
X105964466Y-112677533D01*
X106107323Y-112725152D01*
X106202561Y-112820390D01*
X106250180Y-112963247D01*
X106250180Y-113058485D01*
X105345419Y-112248961D02*
X105297800Y-112201342D01*
X105250180Y-112106104D01*
X105250180Y-111868009D01*
X105297800Y-111772771D01*
X105345419Y-111725152D01*
X105440657Y-111677533D01*
X105535895Y-111677533D01*
X105678752Y-111725152D01*
X106250180Y-112296580D01*
X106250180Y-111677533D01*
%TO.C,U1*%
X179532368Y-133322904D02*
X180104788Y-132750484D01*
X180138460Y-132649469D01*
X180138460Y-132582125D01*
X180104788Y-132481110D01*
X179970101Y-132346423D01*
X179869086Y-132312751D01*
X179801742Y-132312751D01*
X179700727Y-132346423D01*
X179128307Y-132918843D01*
X179128307Y-131504629D02*
X179532368Y-131908690D01*
X179330338Y-131706660D02*
X178623231Y-132413766D01*
X178791590Y-132380095D01*
X178926277Y-132380095D01*
X179027292Y-132413766D01*
%TO.C,R7*%
X180346383Y-121607907D02*
X180013050Y-121131717D01*
X179774954Y-121607907D02*
X179774954Y-120607907D01*
X180155907Y-120607907D01*
X180251145Y-120655527D01*
X180298764Y-120703146D01*
X180346383Y-120798384D01*
X180346383Y-120941241D01*
X180298764Y-121036479D01*
X180251145Y-121084098D01*
X180155907Y-121131717D01*
X179774954Y-121131717D01*
X180679716Y-120607907D02*
X181346383Y-120607907D01*
X180917811Y-121607907D01*
%TO.C,R9*%
X150175933Y-137257380D02*
X149842600Y-136781190D01*
X149604504Y-137257380D02*
X149604504Y-136257380D01*
X149985457Y-136257380D01*
X150080695Y-136305000D01*
X150128314Y-136352619D01*
X150175933Y-136447857D01*
X150175933Y-136590714D01*
X150128314Y-136685952D01*
X150080695Y-136733571D01*
X149985457Y-136781190D01*
X149604504Y-136781190D01*
X150652123Y-137257380D02*
X150842600Y-137257380D01*
X150937838Y-137209761D01*
X150985457Y-137162142D01*
X151080695Y-137019285D01*
X151128314Y-136828809D01*
X151128314Y-136447857D01*
X151080695Y-136352619D01*
X151033076Y-136305000D01*
X150937838Y-136257380D01*
X150747361Y-136257380D01*
X150652123Y-136305000D01*
X150604504Y-136352619D01*
X150556885Y-136447857D01*
X150556885Y-136685952D01*
X150604504Y-136781190D01*
X150652123Y-136828809D01*
X150747361Y-136876428D01*
X150937838Y-136876428D01*
X151033076Y-136828809D01*
X151080695Y-136781190D01*
X151128314Y-136685952D01*
%TO.C,R14*%
X193657142Y-145652380D02*
X193323809Y-145176190D01*
X193085714Y-145652380D02*
X193085714Y-144652380D01*
X193466666Y-144652380D01*
X193561904Y-144700000D01*
X193609523Y-144747619D01*
X193657142Y-144842857D01*
X193657142Y-144985714D01*
X193609523Y-145080952D01*
X193561904Y-145128571D01*
X193466666Y-145176190D01*
X193085714Y-145176190D01*
X194609523Y-145652380D02*
X194038095Y-145652380D01*
X194323809Y-145652380D02*
X194323809Y-144652380D01*
X194228571Y-144795238D01*
X194133333Y-144890476D01*
X194038095Y-144938095D01*
X195466666Y-144985714D02*
X195466666Y-145652380D01*
X195228571Y-144604761D02*
X194990476Y-145319047D01*
X195609523Y-145319047D01*
D15*
%TO.C,D3*%
X111753550Y-92835000D02*
X109468550Y-92835000D01*
X109468550Y-94305000D02*
X111753550Y-94305000D01*
X111753550Y-94305000D02*
X111753550Y-92835000D01*
%TO.C,J1*%
X179173600Y-67604327D02*
X179173600Y-65804327D01*
X170233600Y-62094327D02*
X179173600Y-62094327D01*
X179173600Y-62094327D02*
X179173600Y-63554327D01*
X170233600Y-67604327D02*
X170233600Y-65804327D01*
X170233600Y-62094327D02*
X170233600Y-63554327D01*
%TO.C,R13*%
X190270000Y-127230000D02*
X190270000Y-129970000D01*
X197580000Y-128600000D02*
X196810000Y-128600000D01*
X189500000Y-128600000D02*
X190270000Y-128600000D01*
X196810000Y-129970000D02*
X196810000Y-127230000D01*
X190270000Y-129970000D02*
X196810000Y-129970000D01*
X196810000Y-127230000D02*
X190270000Y-127230000D01*
%TO.C,SW1*%
X113854800Y-120264800D02*
X107734800Y-120264800D01*
X107734800Y-120264800D02*
X107734800Y-116564800D01*
X113854800Y-116564800D02*
X113854800Y-120264800D01*
X107734800Y-116564800D02*
X113854800Y-116564800D01*
%TO.C,R13*%
X133200000Y-63400000D02*
X133200000Y-62630000D01*
X134570000Y-56090000D02*
X131830000Y-56090000D01*
X133200000Y-55320000D02*
X133200000Y-56090000D01*
X134570000Y-62630000D02*
X134570000Y-56090000D01*
X131830000Y-56090000D02*
X131830000Y-62630000D01*
X131830000Y-62630000D02*
X134570000Y-62630000D01*
%TO.C,SW1*%
X177865200Y-98338527D02*
X171745200Y-98338527D01*
X177865200Y-94638527D02*
X177865200Y-98338527D01*
X171745200Y-98338527D02*
X171745200Y-94638527D01*
X171745200Y-94638527D02*
X177865200Y-94638527D01*
%TO.C,U5*%
X198130000Y-85350000D02*
X198130000Y-75070000D01*
X198070000Y-82860000D02*
X198070000Y-81210000D01*
X187790000Y-82860000D02*
X198070000Y-82860000D01*
X187730000Y-85350000D02*
X198130000Y-85350000D01*
X198130000Y-75070000D02*
X187730000Y-75070000D01*
X198070000Y-79210000D02*
X198070000Y-77560000D01*
X187730000Y-75070000D02*
X187730000Y-85350000D01*
X187790000Y-77560000D02*
X187790000Y-82860000D01*
X198070000Y-77560000D02*
X187790000Y-77560000D01*
X198070000Y-79210000D02*
G75*
G03*
X198070000Y-81210000I0J-1000000D01*
G01*
%TO.C,R7*%
X170663759Y-93441527D02*
X170971041Y-93441527D01*
X170663759Y-94201527D02*
X170971041Y-94201527D01*
%TO.C,D3*%
X173846450Y-120598327D02*
X173846450Y-122068327D01*
X176131450Y-120598327D02*
X173846450Y-120598327D01*
X173846450Y-122068327D02*
X176131450Y-122068327D01*
%TO.C,R12*%
X195060000Y-68246359D02*
X195060000Y-68553641D01*
X195820000Y-68246359D02*
X195820000Y-68553641D01*
D10*
%TO.C,U1*%
X174500400Y-83428651D02*
X174270590Y-83198841D01*
X174500400Y-73175603D02*
X174270590Y-73405413D01*
X174500400Y-73175603D02*
X174730210Y-73405413D01*
X169373876Y-78302127D02*
X169603686Y-78072317D01*
X174500400Y-83428651D02*
X174659499Y-83269552D01*
X179626924Y-78302127D02*
X179397114Y-78072317D01*
X179626924Y-78302127D02*
X179397114Y-78531937D01*
X174659499Y-83269552D02*
X175667126Y-84277179D01*
X169373876Y-78302127D02*
X169603686Y-78531937D01*
D15*
%TO.C,R10*%
X189760000Y-68246359D02*
X189760000Y-68553641D01*
X190520000Y-68246359D02*
X190520000Y-68553641D01*
%TO.C,C3*%
X109838162Y-129710728D02*
X108515872Y-128388438D01*
X107073374Y-132475516D02*
X109838162Y-129710728D01*
X108515872Y-128388438D02*
X105751084Y-131153226D01*
%TO.C,R10*%
X189760000Y-123846359D02*
X189760000Y-124153641D01*
X190520000Y-123846359D02*
X190520000Y-124153641D01*
%TO.C,C6*%
X128659420Y-64770000D02*
X128940580Y-64770000D01*
X128659420Y-63750000D02*
X128940580Y-63750000D01*
%TO.C,U4*%
X138206600Y-135712400D02*
X144206600Y-135712400D01*
X141206600Y-130512400D02*
X144206600Y-130512400D01*
%TO.C,C6*%
X189150000Y-68459420D02*
X189150000Y-68740580D01*
X188130000Y-68459420D02*
X188130000Y-68740580D01*
%TO.C,R12*%
X128446359Y-57080000D02*
X128753641Y-57080000D01*
X128446359Y-57840000D02*
X128753641Y-57840000D01*
%TO.C,R7*%
X106660509Y-93367800D02*
X106967791Y-93367800D01*
X106660509Y-94127800D02*
X106967791Y-94127800D01*
%TO.C,C3*%
X172519122Y-128462165D02*
X169754334Y-131226953D01*
X173841412Y-129784455D02*
X172519122Y-128462165D01*
X171076624Y-132549243D02*
X173841412Y-129784455D01*
%TO.C,J6*%
X127717200Y-100247600D02*
X127717200Y-100687600D01*
X125177200Y-100247600D02*
X125177200Y-100687600D01*
X130055775Y-89107600D02*
X130055775Y-97737600D01*
X128437200Y-100247600D02*
X128437200Y-100687600D01*
X129819585Y-89107600D02*
X129819585Y-97737600D01*
X127717200Y-97737600D02*
X127717200Y-98147600D01*
X128437200Y-97737600D02*
X128437200Y-98147600D01*
X129701490Y-89107600D02*
X129701490Y-97737600D01*
X126807200Y-89107600D02*
X126807200Y-97737600D01*
X131827200Y-89107600D02*
X131827200Y-97737600D01*
X130173870Y-89107600D02*
X130173870Y-97737600D01*
X131947200Y-97737600D02*
X124207200Y-97737600D01*
X125177200Y-97737600D02*
X125177200Y-98147600D01*
X131947200Y-102847600D02*
X130617200Y-102847600D01*
X130257200Y-97737600D02*
X130257200Y-98147600D01*
X131236725Y-89107600D02*
X131236725Y-97737600D01*
X129347200Y-89107600D02*
X129347200Y-97737600D01*
X130410060Y-89107600D02*
X130410060Y-97737600D01*
X131354820Y-89107600D02*
X131354820Y-97737600D01*
X130291965Y-89107600D02*
X130291965Y-97737600D01*
X130977200Y-97737600D02*
X130977200Y-98147600D01*
X129937680Y-89107600D02*
X129937680Y-97737600D01*
X129465300Y-89107600D02*
X129465300Y-97737600D01*
X125897200Y-97737600D02*
X125897200Y-98147600D01*
X124207200Y-89107600D02*
X124207200Y-97737600D01*
X131472915Y-89107600D02*
X131472915Y-97737600D01*
X131947200Y-101737600D02*
X131947200Y-102847600D01*
X131709105Y-89107600D02*
X131709105Y-97737600D01*
X130882440Y-89107600D02*
X130882440Y-97737600D01*
X125897200Y-100247600D02*
X125897200Y-100687600D01*
X131947200Y-89107600D02*
X124207200Y-89107600D01*
X129583395Y-89107600D02*
X129583395Y-97737600D01*
X131000535Y-89107600D02*
X131000535Y-97737600D01*
X130528155Y-89107600D02*
X130528155Y-97737600D01*
X131118630Y-89107600D02*
X131118630Y-97737600D01*
X130764345Y-89107600D02*
X130764345Y-97737600D01*
X131591010Y-89107600D02*
X131591010Y-97737600D01*
X130977200Y-100247600D02*
X130977200Y-100627600D01*
X131947200Y-89107600D02*
X131947200Y-97737600D01*
X130646250Y-89107600D02*
X130646250Y-97737600D01*
X130257200Y-100247600D02*
X130257200Y-100627600D01*
%TO.C,C2*%
X107136961Y-73673838D02*
X107335772Y-73475027D01*
X106415712Y-72952589D02*
X106614523Y-72753778D01*
X178463039Y-141229489D02*
X178264228Y-141428300D01*
X179184288Y-141950738D02*
X178985477Y-142149549D01*
%TO.C,U5*%
X135270000Y-54770000D02*
X135270000Y-65170000D01*
X135270000Y-65170000D02*
X145550000Y-65170000D01*
X137760000Y-65110000D02*
X143060000Y-65110000D01*
X145550000Y-65170000D02*
X145550000Y-54770000D01*
X143060000Y-65110000D02*
X143060000Y-54830000D01*
X145550000Y-54770000D02*
X135270000Y-54770000D01*
X137760000Y-54830000D02*
X137760000Y-65110000D01*
X143060000Y-54830000D02*
X141410000Y-54830000D01*
X139410000Y-54830000D02*
X137760000Y-54830000D01*
X139410000Y-54830000D02*
G75*
G03*
X141410000Y-54830000I1000000J0D01*
G01*
%TO.C,C2*%
X171140211Y-73747565D02*
X171339022Y-73548754D01*
X170418962Y-73026316D02*
X170617773Y-72827505D01*
%TO.C,F1*%
X142799000Y-124160800D02*
X145999000Y-124160800D01*
X145999000Y-128160800D02*
X142799000Y-128160800D01*
X143649000Y-126160800D02*
X145149000Y-126160800D01*
X152499000Y-129630800D02*
X152499000Y-122690800D01*
X136299000Y-122690800D02*
X136299000Y-129630800D01*
X136299000Y-129630800D02*
X152499000Y-129630800D01*
X152499000Y-122690800D02*
X136299000Y-122690800D01*
%TO.C,J7*%
X123870000Y-59490000D02*
X126530000Y-59490000D01*
X126530000Y-59490000D02*
X126530000Y-64630000D01*
X123870000Y-59490000D02*
X123870000Y-64630000D01*
X125200000Y-56890000D02*
X126530000Y-56890000D01*
X123870000Y-64630000D02*
X126530000Y-64630000D01*
X126530000Y-56890000D02*
X126530000Y-58220000D01*
%TO.C,R8*%
X141479241Y-136492400D02*
X141171959Y-136492400D01*
X141479241Y-137252400D02*
X141171959Y-137252400D01*
%TO.C,J8*%
X193295000Y-148395000D02*
X188155000Y-148395000D01*
X188155000Y-148395000D02*
X188155000Y-151055000D01*
X193295000Y-148395000D02*
X193295000Y-151055000D01*
X195895000Y-151055000D02*
X194565000Y-151055000D01*
X195895000Y-149725000D02*
X195895000Y-151055000D01*
X193295000Y-151055000D02*
X188155000Y-151055000D01*
%TO.C,J1*%
X170429650Y-152882727D02*
X170429650Y-151422727D01*
X179369650Y-147372727D02*
X179369650Y-149172727D01*
X179369650Y-152882727D02*
X170429650Y-152882727D01*
X179369650Y-152882727D02*
X179369650Y-151422727D01*
X170429650Y-147372727D02*
X170429650Y-149172727D01*
%TO.C,R14*%
X146230000Y-62730000D02*
X148970000Y-62730000D01*
X147600000Y-55420000D02*
X147600000Y-56190000D01*
X148970000Y-62730000D02*
X148970000Y-56190000D01*
X146230000Y-56190000D02*
X146230000Y-62730000D01*
X147600000Y-63500000D02*
X147600000Y-62730000D01*
X148970000Y-56190000D02*
X146230000Y-56190000D01*
%TO.C,J1*%
X106230350Y-67530600D02*
X106230350Y-65730600D01*
X115170350Y-67530600D02*
X115170350Y-65730600D01*
X106230350Y-62020600D02*
X106230350Y-63480600D01*
X115170350Y-62020600D02*
X115170350Y-63480600D01*
X106230350Y-62020600D02*
X115170350Y-62020600D01*
%TO.C,D1*%
X104413650Y-63117000D02*
X102128650Y-63117000D01*
X102128650Y-63117000D02*
X102128650Y-64587000D01*
X102128650Y-64587000D02*
X104413650Y-64587000D01*
%TO.C,J8*%
X195895000Y-95455000D02*
X194565000Y-95455000D01*
X195895000Y-94125000D02*
X195895000Y-95455000D01*
X188155000Y-92795000D02*
X188155000Y-95455000D01*
X193295000Y-92795000D02*
X193295000Y-95455000D01*
X193295000Y-95455000D02*
X188155000Y-95455000D01*
X193295000Y-92795000D02*
X188155000Y-92795000D01*
D10*
%TO.C,U1*%
X105370626Y-78228400D02*
X105600436Y-78458210D01*
X105370626Y-78228400D02*
X105600436Y-77998590D01*
X110497150Y-83354924D02*
X110656249Y-83195825D01*
X110656249Y-83195825D02*
X111663876Y-84203452D01*
X110497150Y-73101876D02*
X110267340Y-73331686D01*
X115623674Y-78228400D02*
X115393864Y-77998590D01*
X115623674Y-78228400D02*
X115393864Y-78458210D01*
X110497150Y-73101876D02*
X110726960Y-73331686D01*
X110497150Y-83354924D02*
X110267340Y-83125114D01*
D15*
%TO.C,D3*%
X112128200Y-120524600D02*
X109843200Y-120524600D01*
X109843200Y-120524600D02*
X109843200Y-121994600D01*
X109843200Y-121994600D02*
X112128200Y-121994600D01*
%TO.C,C3*%
X111758588Y-85118872D02*
X113080878Y-86441162D01*
X113080878Y-86441162D02*
X115845666Y-83676374D01*
X114523376Y-82354084D02*
X111758588Y-85118872D01*
%TO.C,R11*%
X198820000Y-124153641D02*
X198820000Y-123846359D01*
X198060000Y-124153641D02*
X198060000Y-123846359D01*
%TO.C,J7*%
X196010000Y-121930000D02*
X194680000Y-121930000D01*
X193410000Y-121930000D02*
X188270000Y-121930000D01*
X188270000Y-119270000D02*
X188270000Y-121930000D01*
X193410000Y-119270000D02*
X188270000Y-119270000D01*
X196010000Y-120600000D02*
X196010000Y-121930000D01*
X193410000Y-119270000D02*
X193410000Y-121930000D01*
%TO.C,C6*%
X188130000Y-124059420D02*
X188130000Y-124340580D01*
X189150000Y-124059420D02*
X189150000Y-124340580D01*
%TO.C,D1*%
X183471350Y-150316327D02*
X181186350Y-150316327D01*
X181186350Y-151786327D02*
X183471350Y-151786327D01*
X183471350Y-151786327D02*
X183471350Y-150316327D01*
X166131900Y-63190727D02*
X166131900Y-64660727D01*
X168416900Y-63190727D02*
X166131900Y-63190727D01*
X166131900Y-64660727D02*
X168416900Y-64660727D01*
X119468100Y-150242600D02*
X117183100Y-150242600D01*
X119468100Y-151712600D02*
X119468100Y-150242600D01*
X117183100Y-151712600D02*
X119468100Y-151712600D01*
%TO.C,J2*%
X114798950Y-102485400D02*
X114798950Y-105085400D01*
X112198950Y-102485400D02*
X114798950Y-102485400D01*
X107058950Y-99885400D02*
X107058950Y-105085400D01*
X113468950Y-99885400D02*
X114798950Y-99885400D01*
X114798950Y-99885400D02*
X114798950Y-101215400D01*
X112198950Y-99885400D02*
X107058950Y-99885400D01*
X114798950Y-105085400D02*
X107058950Y-105085400D01*
X112198950Y-99885400D02*
X112198950Y-102485400D01*
%TO.C,J1*%
X106426400Y-152809000D02*
X106426400Y-151349000D01*
X115366400Y-147299000D02*
X115366400Y-149099000D01*
X106426400Y-147299000D02*
X106426400Y-149099000D01*
X115366400Y-152809000D02*
X106426400Y-152809000D01*
X115366400Y-152809000D02*
X115366400Y-151349000D01*
%TO.C,J2*%
X178802200Y-99959127D02*
X178802200Y-101289127D01*
X176202200Y-102559127D02*
X178802200Y-102559127D01*
X176202200Y-99959127D02*
X171062200Y-99959127D01*
X178802200Y-102559127D02*
X178802200Y-105159127D01*
X176202200Y-99959127D02*
X176202200Y-102559127D01*
X171062200Y-99959127D02*
X171062200Y-105159127D01*
X177472200Y-99959127D02*
X178802200Y-99959127D01*
X178802200Y-105159127D02*
X171062200Y-105159127D01*
X170801050Y-112417927D02*
X170801050Y-109817927D01*
X173401050Y-112417927D02*
X170801050Y-112417927D01*
X173401050Y-115017927D02*
X173401050Y-112417927D01*
X173401050Y-115017927D02*
X178541050Y-115017927D01*
X172131050Y-115017927D02*
X170801050Y-115017927D01*
X170801050Y-109817927D02*
X178541050Y-109817927D01*
X170801050Y-115017927D02*
X170801050Y-113687927D01*
X178541050Y-115017927D02*
X178541050Y-109817927D01*
%TO.C,J3*%
X145629400Y-150657200D02*
X155909400Y-150657200D01*
X145389400Y-150717200D02*
X145389400Y-151457200D01*
X145629400Y-151217200D02*
X155909400Y-151217200D01*
X145629400Y-141296200D02*
X155909400Y-141296200D01*
X155909400Y-141296200D02*
X155909400Y-151217200D01*
X145629400Y-149157200D02*
X155909400Y-149157200D01*
X154379400Y-145282200D02*
X154344400Y-145318200D01*
X145389400Y-151457200D02*
X145889400Y-151457200D01*
X154584400Y-145488200D02*
X154537400Y-145534200D01*
X145629400Y-141296200D02*
X145629400Y-151217200D01*
X152082400Y-147580200D02*
X152035400Y-147626200D01*
X145629400Y-144256200D02*
X155909400Y-144256200D01*
X152275400Y-147796200D02*
X152240400Y-147831200D01*
X148229400Y-148237200D02*
G75*
G03*
X148912718Y-148091956I1J1679992D01*
G01*
X149764400Y-147241200D02*
G75*
G03*
X149764827Y-145874158I-1534993J684001D01*
G01*
X146694400Y-145873200D02*
G75*
G03*
X146693973Y-147240242I1534993J-684001D01*
G01*
X147545400Y-148092200D02*
G75*
G03*
X148258205Y-148237453I683999J1535001D01*
G01*
X148913400Y-145022200D02*
G75*
G03*
X147546358Y-145021773I-684001J-1534993D01*
G01*
X154989400Y-146557200D02*
G75*
G03*
X154989400Y-146557200I-1680000J0D01*
G01*
%TO.C,R10*%
X128446359Y-63140000D02*
X128753641Y-63140000D01*
X128446359Y-62380000D02*
X128753641Y-62380000D01*
%TO.C,MES1*%
X156803800Y-130373400D02*
X154143800Y-130373400D01*
X154143800Y-132973400D02*
X154143800Y-130373400D01*
X155473800Y-135573400D02*
X154143800Y-135573400D01*
X156803800Y-132973400D02*
X154143800Y-132973400D01*
X156803800Y-132973400D02*
X156803800Y-130373400D01*
X154143800Y-135573400D02*
X154143800Y-134243400D01*
%TO.C,R13*%
X190270000Y-74370000D02*
X196810000Y-74370000D01*
X190270000Y-71630000D02*
X190270000Y-74370000D01*
X196810000Y-74370000D02*
X196810000Y-71630000D01*
X197580000Y-73000000D02*
X196810000Y-73000000D01*
X189500000Y-73000000D02*
X190270000Y-73000000D01*
X196810000Y-71630000D02*
X190270000Y-71630000D01*
%TO.C,C2*%
X114459789Y-141155762D02*
X114260978Y-141354573D01*
X115181038Y-141877011D02*
X114982227Y-142075822D01*
%TO.C,SW1*%
X171738050Y-116638527D02*
X177858050Y-116638527D01*
X177858050Y-120338527D02*
X171738050Y-120338527D01*
X177858050Y-116638527D02*
X177858050Y-120338527D01*
X171738050Y-120338527D02*
X171738050Y-116638527D01*
%TO.C,C3*%
X178526626Y-82427811D02*
X175761838Y-85192599D01*
X175761838Y-85192599D02*
X177084128Y-86514889D01*
X177084128Y-86514889D02*
X179848916Y-83750101D01*
%TO.C,U5*%
X187790000Y-133160000D02*
X187790000Y-138460000D01*
X198070000Y-138460000D02*
X198070000Y-136810000D01*
X198070000Y-133160000D02*
X187790000Y-133160000D01*
X187730000Y-140950000D02*
X198130000Y-140950000D01*
X198130000Y-140950000D02*
X198130000Y-130670000D01*
X198070000Y-134810000D02*
X198070000Y-133160000D01*
X187790000Y-138460000D02*
X198070000Y-138460000D01*
X198130000Y-130670000D02*
X187730000Y-130670000D01*
X187730000Y-130670000D02*
X187730000Y-140950000D01*
X198070000Y-134810000D02*
G75*
G03*
X198070000Y-136810000I0J-1000000D01*
G01*
%TO.C,R11*%
X128753641Y-54840000D02*
X128446359Y-54840000D01*
X128753641Y-54080000D02*
X128446359Y-54080000D01*
%TO.C,R12*%
X195060000Y-123846359D02*
X195060000Y-124153641D01*
X195820000Y-123846359D02*
X195820000Y-124153641D01*
D16*
%TO.C,SW2*%
X132209800Y-140512400D02*
X133209800Y-140512400D01*
X126209800Y-124712400D02*
X125209800Y-124712400D01*
X125209800Y-124712400D02*
X125209800Y-140512400D01*
X125209800Y-140512400D02*
X126209800Y-140512400D01*
X129009800Y-124712400D02*
X129409800Y-124712400D01*
X133209800Y-124712400D02*
X132209800Y-124712400D01*
X133209800Y-140512400D02*
X133209800Y-124712400D01*
X129009800Y-140512400D02*
X129409800Y-140512400D01*
D17*
X124809800Y-137312400D02*
X124809800Y-137312400D01*
X124709800Y-137312400D02*
X124709800Y-137312400D01*
X124709800Y-137312400D02*
G75*
G03*
X124809800Y-137312400I50000J0D01*
G01*
X124809800Y-137312400D02*
G75*
G03*
X124709800Y-137312400I-50000J0D01*
G01*
D15*
%TO.C,R14*%
X190170000Y-88770000D02*
X196710000Y-88770000D01*
X196710000Y-86030000D02*
X190170000Y-86030000D01*
X189400000Y-87400000D02*
X190170000Y-87400000D01*
X196710000Y-88770000D02*
X196710000Y-86030000D01*
X197480000Y-87400000D02*
X196710000Y-87400000D01*
X190170000Y-86030000D02*
X190170000Y-88770000D01*
%TO.C,SW1*%
X107741950Y-98264800D02*
X107741950Y-94564800D01*
X107741950Y-94564800D02*
X113861950Y-94564800D01*
X113861950Y-98264800D02*
X107741950Y-98264800D01*
X113861950Y-94564800D02*
X113861950Y-98264800D01*
%TO.C,R11*%
X198060000Y-68553641D02*
X198060000Y-68246359D01*
X198820000Y-68553641D02*
X198820000Y-68246359D01*
D10*
%TO.C,U1*%
X110940501Y-131633775D02*
X109932874Y-130626148D01*
X111099600Y-141727724D02*
X110869790Y-141497914D01*
X116226124Y-136601200D02*
X115996314Y-136371390D01*
X105973076Y-136601200D02*
X106202886Y-136831010D01*
X111099600Y-141727724D02*
X111329410Y-141497914D01*
X111099600Y-131474676D02*
X111329410Y-131704486D01*
X111099600Y-131474676D02*
X110940501Y-131633775D01*
X105973076Y-136601200D02*
X106202886Y-136371390D01*
X116226124Y-136601200D02*
X115996314Y-136831010D01*
D15*
%TO.C,J8*%
X155655000Y-57005000D02*
X155655000Y-58335000D01*
X152995000Y-59605000D02*
X152995000Y-64745000D01*
X154325000Y-57005000D02*
X155655000Y-57005000D01*
X152995000Y-59605000D02*
X155655000Y-59605000D01*
X155655000Y-59605000D02*
X155655000Y-64745000D01*
X152995000Y-64745000D02*
X155655000Y-64745000D01*
%TO.C,J5*%
X158645800Y-98109000D02*
X155145800Y-98109000D01*
X153645800Y-98859000D02*
X153645800Y-98109000D01*
X161945800Y-98109000D02*
X160145800Y-98109000D01*
X162245800Y-99159000D02*
X162245800Y-97909000D01*
X153645800Y-98109000D02*
X151845800Y-98109000D01*
X161195800Y-93659000D02*
X156895800Y-93659000D01*
X151835800Y-92899000D02*
X151835800Y-98869000D01*
X151845800Y-98859000D02*
X153645800Y-98859000D01*
X160145800Y-98859000D02*
X161945800Y-98859000D01*
X160145800Y-98109000D02*
X160145800Y-98859000D01*
X155145800Y-98109000D02*
X155145800Y-98859000D01*
X161945800Y-98859000D02*
X161945800Y-98109000D01*
X161955800Y-92899000D02*
X151835800Y-92899000D01*
X155145800Y-98859000D02*
X158645800Y-98859000D01*
X152595800Y-96609000D02*
X152595800Y-93659000D01*
X151845800Y-98109000D02*
X151845800Y-98859000D01*
X161195800Y-96609000D02*
X161195800Y-93659000D01*
X161955800Y-98869000D02*
X161955800Y-92899000D01*
X160995800Y-99159000D02*
X162245800Y-99159000D01*
X151835800Y-98869000D02*
X161955800Y-98869000D01*
X152595800Y-93659000D02*
X156895800Y-93659000D01*
X151845800Y-96609000D02*
X152595800Y-96609000D01*
X161945800Y-96609000D02*
X161195800Y-96609000D01*
X158645800Y-98859000D02*
X158645800Y-98109000D01*
%TO.C,D3*%
X175756800Y-94378727D02*
X175756800Y-92908727D01*
X173471800Y-94378727D02*
X175756800Y-94378727D01*
X175756800Y-92908727D02*
X173471800Y-92908727D01*
%TO.C,J7*%
X188270000Y-63670000D02*
X188270000Y-66330000D01*
X193410000Y-63670000D02*
X188270000Y-63670000D01*
X196010000Y-65000000D02*
X196010000Y-66330000D01*
X196010000Y-66330000D02*
X194680000Y-66330000D01*
X193410000Y-66330000D02*
X188270000Y-66330000D01*
X193410000Y-63670000D02*
X193410000Y-66330000D01*
%TO.C,R7*%
X114936241Y-120701800D02*
X114628959Y-120701800D01*
X114936241Y-121461800D02*
X114628959Y-121461800D01*
%TO.C,J4*%
X134351800Y-150657200D02*
X144631800Y-150657200D01*
X134351800Y-151217200D02*
X144631800Y-151217200D01*
X134351800Y-149157200D02*
X144631800Y-149157200D01*
X134111800Y-151457200D02*
X134611800Y-151457200D01*
X134351800Y-144256200D02*
X144631800Y-144256200D01*
X134351800Y-141296200D02*
X144631800Y-141296200D01*
X134111800Y-150717200D02*
X134111800Y-151457200D01*
X134351800Y-141296200D02*
X134351800Y-151217200D01*
X143306800Y-145488200D02*
X143259800Y-145534200D01*
X144631800Y-141296200D02*
X144631800Y-151217200D01*
X143101800Y-145282200D02*
X143066800Y-145318200D01*
X140997800Y-147796200D02*
X140962800Y-147831200D01*
X140804800Y-147580200D02*
X140757800Y-147626200D01*
X138486800Y-147241200D02*
G75*
G03*
X138487227Y-145874158I-1534993J684001D01*
G01*
X135416800Y-145873200D02*
G75*
G03*
X135416373Y-147240242I1534993J-684001D01*
G01*
X137635800Y-145022200D02*
G75*
G03*
X136268758Y-145021773I-684001J-1534993D01*
G01*
X136951800Y-148237200D02*
G75*
G03*
X137635118Y-148091956I1J1679992D01*
G01*
X136267800Y-148092200D02*
G75*
G03*
X136980605Y-148237453I683999J1535001D01*
G01*
X143711800Y-146557200D02*
G75*
G03*
X143711800Y-146557200I-1680000J0D01*
G01*
%TO.C,D4*%
X148551800Y-134900000D02*
X146266800Y-134900000D01*
X146266800Y-134900000D02*
X146266800Y-136370000D01*
X146266800Y-136370000D02*
X148551800Y-136370000D01*
%TO.C,J2*%
X109397800Y-114944200D02*
X114537800Y-114944200D01*
X106797800Y-112344200D02*
X106797800Y-109744200D01*
X106797800Y-114944200D02*
X106797800Y-113614200D01*
X109397800Y-112344200D02*
X106797800Y-112344200D01*
X114537800Y-114944200D02*
X114537800Y-109744200D01*
X106797800Y-109744200D02*
X114537800Y-109744200D01*
X109397800Y-114944200D02*
X109397800Y-112344200D01*
X108127800Y-114944200D02*
X106797800Y-114944200D01*
D10*
%TO.C,U1*%
X175102850Y-141801451D02*
X175332660Y-141571641D01*
X175102850Y-141801451D02*
X174873040Y-141571641D01*
X169976326Y-136674927D02*
X170206136Y-136904737D01*
X180229374Y-136674927D02*
X179999564Y-136904737D01*
X175102850Y-131548403D02*
X174943751Y-131707502D01*
X174943751Y-131707502D02*
X173936124Y-130699875D01*
X169976326Y-136674927D02*
X170206136Y-136445117D01*
X180229374Y-136674927D02*
X179999564Y-136445117D01*
X175102850Y-131548403D02*
X175332660Y-131778213D01*
D15*
%TO.C,R7*%
X178939491Y-120775527D02*
X178632209Y-120775527D01*
X178939491Y-121535527D02*
X178632209Y-121535527D01*
%TO.C,R9*%
X150496241Y-135255000D02*
X150188959Y-135255000D01*
X150496241Y-136015000D02*
X150188959Y-136015000D01*
%TO.C,R14*%
X190170000Y-141630000D02*
X190170000Y-144370000D01*
X196710000Y-141630000D02*
X190170000Y-141630000D01*
X196710000Y-144370000D02*
X196710000Y-141630000D01*
X189400000Y-143000000D02*
X190170000Y-143000000D01*
X190170000Y-144370000D02*
X196710000Y-144370000D01*
X197480000Y-143000000D02*
X196710000Y-143000000D01*
%TD*%
M02*
