%TF.GenerationSoftware,KiCad,Pcbnew,(6.0.1)*%
%TF.CreationDate,2022-04-04T10:53:51-04:00*%
%TF.ProjectId,arduino_usb_c,61726475-696e-46f5-9f75-73625f632e6b,rev?*%
%TF.SameCoordinates,Original*%
%TF.FileFunction,Profile,NP*%
%FSLAX46Y46*%
G04 Gerber Fmt 4.6, Leading zero omitted, Abs format (unit mm)*
G04 Created by KiCad (PCBNEW (6.0.1)) date 2022-04-04 10:53:51*
%MOMM*%
%LPD*%
G01*
G04 APERTURE LIST*
%TA.AperFunction,Profile*%
%ADD10C,0.100000*%
%TD*%
%TA.AperFunction,Profile*%
%ADD11C,0.200000*%
%TD*%
%TA.AperFunction,Profile*%
%ADD12C,0.120000*%
%TD*%
G04 APERTURE END LIST*
D10*
X184000000Y-96800000D02*
X184000000Y-106103327D01*
X200000000Y-96800000D02*
X186800000Y-96800000D01*
X179500000Y-106103327D02*
X184000000Y-106103327D01*
X122800000Y-117000000D02*
X122800000Y-144100000D01*
X162800000Y-97903327D02*
X162800000Y-77100000D01*
X122800000Y-105400000D02*
X122800000Y-108800000D01*
D11*
X154203400Y-114172000D02*
X158775400Y-114172000D01*
D10*
X122800000Y-66100000D02*
X122800000Y-52900000D01*
X120000000Y-108800000D02*
X114300000Y-108800000D01*
D11*
X132578871Y-112190800D02*
G75*
G03*
X132578871Y-112190800I-1514871J0D01*
G01*
D10*
X184000000Y-152400000D02*
X165603250Y-152373727D01*
X165600000Y-77100000D02*
X165600000Y-97903327D01*
X165600000Y-68900000D02*
X165600000Y-62603327D01*
X157000000Y-52900000D02*
X157000000Y-66100000D01*
X106100000Y-108800000D02*
X101600000Y-108800000D01*
D11*
X158775400Y-114172000D02*
G75*
G03*
X158775400Y-111124000I0J1524000D01*
G01*
D10*
X157000000Y-68900000D02*
X162800000Y-68900000D01*
X122800000Y-97200000D02*
X122800000Y-77100000D01*
X119996750Y-106029600D02*
X120000000Y-105400000D01*
X122800000Y-52900000D02*
X157000000Y-52900000D01*
X101596750Y-106029600D02*
X106100000Y-106000000D01*
X120000000Y-77100000D02*
X120000000Y-97200000D01*
X184000000Y-70800000D02*
X184000000Y-88600000D01*
X186800000Y-118200000D02*
X200000000Y-118200000D01*
X120000000Y-144100000D02*
X120000000Y-117000000D01*
X131000000Y-66100000D02*
X148800000Y-66100000D01*
D11*
X158775400Y-111124000D02*
X154203400Y-111102979D01*
D10*
X162800000Y-109503327D02*
X162800000Y-106103327D01*
X184000000Y-126400000D02*
X184000000Y-144200000D01*
X165600000Y-146003327D02*
X165603250Y-152373727D01*
X186800000Y-126400000D02*
X186800000Y-144200000D01*
X165600000Y-106103327D02*
X171300000Y-106103327D01*
X101596750Y-62529600D02*
X101596750Y-106029600D01*
X120000000Y-152300000D02*
X101600000Y-152300000D01*
X184003250Y-108873727D02*
X184000000Y-118200000D01*
X165600000Y-137803327D02*
X165600000Y-117703327D01*
X114300000Y-106000000D02*
X119996750Y-106029600D01*
X171300000Y-108903327D02*
X165603250Y-108873727D01*
X186800000Y-62600000D02*
X200000000Y-62600000D01*
X165603250Y-108873727D02*
X165600000Y-109503327D01*
X184003250Y-108873727D02*
X179500000Y-108903327D01*
X120000000Y-68900000D02*
X119996750Y-62529600D01*
X162800000Y-152300000D02*
X122800000Y-152300000D01*
X101596750Y-62529600D02*
X119996750Y-62529600D01*
X200000000Y-118200000D02*
X200000000Y-152400000D01*
X186800000Y-70800000D02*
X186800000Y-88600000D01*
X165600000Y-62603327D02*
X184000000Y-62603327D01*
X131000000Y-68900000D02*
X148800000Y-68900000D01*
X200000000Y-152400000D02*
X186800000Y-152400000D01*
X162800000Y-146003327D02*
X162800000Y-152300000D01*
D11*
X154203400Y-111102978D02*
G75*
G03*
X154203400Y-114172000I2J-1534511D01*
G01*
D10*
X162800000Y-117703327D02*
X162800000Y-137803327D01*
X101600000Y-152300000D02*
X101600000Y-108800000D01*
X200000000Y-62600000D02*
X200000000Y-96800000D01*
D12*
%TO.C,REF\u002A\u002A*%
X186800000Y-96800000D02*
G75*
G03*
X184000000Y-96800000I-1400000J0D01*
G01*
X184000000Y-88600000D02*
G75*
G03*
X186800000Y-88600000I1400000J0D01*
G01*
X148800000Y-68900000D02*
G75*
G03*
X148800000Y-66100000I0J1400000D01*
G01*
X157000000Y-66100000D02*
G75*
G03*
X157000000Y-68900000I0J-1400000D01*
G01*
X162800000Y-97903327D02*
G75*
G03*
X165600000Y-97903327I1400000J0D01*
G01*
X165600000Y-106103327D02*
G75*
G03*
X162800000Y-106103327I-1400000J0D01*
G01*
X165600000Y-117703327D02*
G75*
G03*
X162800000Y-117703327I-1400000J0D01*
G01*
X162800000Y-109503327D02*
G75*
G03*
X165600000Y-109503327I1400000J0D01*
G01*
X106100000Y-108800000D02*
G75*
G03*
X106100000Y-106000000I0J1400000D01*
G01*
X114300000Y-106000000D02*
G75*
G03*
X114300000Y-108800000I0J-1400000D01*
G01*
X120000000Y-108800000D02*
G75*
G03*
X122800000Y-108800000I1400000J0D01*
G01*
X122800000Y-117000000D02*
G75*
G03*
X120000000Y-117000000I-1400000J0D01*
G01*
X165600000Y-146003327D02*
G75*
G03*
X162800000Y-146003327I-1400000J0D01*
G01*
X162800000Y-137803327D02*
G75*
G03*
X165600000Y-137803327I1400000J0D01*
G01*
X171300000Y-108903327D02*
G75*
G03*
X171300000Y-106103327I0J1400000D01*
G01*
X179500000Y-106103327D02*
G75*
G03*
X179500000Y-108903327I0J-1400000D01*
G01*
X186800000Y-152400000D02*
G75*
G03*
X184000000Y-152400000I-1400000J0D01*
G01*
X184000000Y-144200000D02*
G75*
G03*
X186800000Y-144200000I1400000J0D01*
G01*
X122800000Y-77100000D02*
G75*
G03*
X120000000Y-77100000I-1400000J0D01*
G01*
X120000000Y-68900000D02*
G75*
G03*
X122800000Y-68900000I1400000J0D01*
G01*
X122800000Y-68900000D02*
G75*
G03*
X122800000Y-66100000I0J1400000D01*
G01*
X131000000Y-66100000D02*
G75*
G03*
X131000000Y-68900000I0J-1400000D01*
G01*
X120000000Y-144100000D02*
G75*
G03*
X122800000Y-144100000I1400000J0D01*
G01*
X122800000Y-152300000D02*
G75*
G03*
X120000000Y-152300000I-1400000J0D01*
G01*
X165600000Y-77100000D02*
G75*
G03*
X162800000Y-77100000I-1400000J0D01*
G01*
X162800000Y-68900000D02*
G75*
G03*
X165600000Y-68900000I1400000J0D01*
G01*
X186800000Y-70800000D02*
G75*
G03*
X184000000Y-70800000I-1400000J0D01*
G01*
X184000000Y-62600000D02*
G75*
G03*
X186800000Y-62600000I1400000J0D01*
G01*
X184000000Y-118200000D02*
G75*
G03*
X186800000Y-118200000I1400000J0D01*
G01*
X186800000Y-126400000D02*
G75*
G03*
X184000000Y-126400000I-1400000J0D01*
G01*
X120000000Y-97200000D02*
G75*
G03*
X122800000Y-97200000I1400000J0D01*
G01*
X122800000Y-105400000D02*
G75*
G03*
X120000000Y-105400000I-1400000J0D01*
G01*
%TD*%
M02*
