%TF.GenerationSoftware,KiCad,Pcbnew,(6.0.1)*%
%TF.CreationDate,2022-04-04T10:53:51-04:00*%
%TF.ProjectId,arduino_usb_c,61726475-696e-46f5-9f75-73625f632e6b,rev?*%
%TF.SameCoordinates,Original*%
%TF.FileFunction,Soldermask,Bot*%
%TF.FilePolarity,Negative*%
%FSLAX46Y46*%
G04 Gerber Fmt 4.6, Leading zero omitted, Abs format (unit mm)*
G04 Created by KiCad (PCBNEW (6.0.1)) date 2022-04-04 10:53:51*
%MOMM*%
%LPD*%
G01*
G04 APERTURE LIST*
G04 Aperture macros list*
%AMRoundRect*
0 Rectangle with rounded corners*
0 $1 Rounding radius*
0 $2 $3 $4 $5 $6 $7 $8 $9 X,Y pos of 4 corners*
0 Add a 4 corners polygon primitive as box body*
4,1,4,$2,$3,$4,$5,$6,$7,$8,$9,$2,$3,0*
0 Add four circle primitives for the rounded corners*
1,1,$1+$1,$2,$3*
1,1,$1+$1,$4,$5*
1,1,$1+$1,$6,$7*
1,1,$1+$1,$8,$9*
0 Add four rect primitives between the rounded corners*
20,1,$1+$1,$2,$3,$4,$5,0*
20,1,$1+$1,$4,$5,$6,$7,0*
20,1,$1+$1,$6,$7,$8,$9,0*
20,1,$1+$1,$8,$9,$2,$3,0*%
G04 Aperture macros list end*
%ADD10C,0.600000*%
%ADD11O,0.900000X1.700000*%
%ADD12O,0.900000X2.000000*%
%ADD13C,1.600000*%
%ADD14O,1.600000X1.600000*%
%ADD15C,0.800000*%
%ADD16R,1.600000X1.600000*%
%ADD17R,1.700000X1.700000*%
%ADD18O,1.700000X1.700000*%
%ADD19C,2.780000*%
%ADD20R,2.600000X2.600000*%
%ADD21C,2.600000*%
%ADD22R,2.700000X2.700000*%
%ADD23C,2.700000*%
%ADD24C,2.250000*%
%ADD25RoundRect,0.250000X0.600000X0.725000X-0.600000X0.725000X-0.600000X-0.725000X0.600000X-0.725000X0*%
%ADD26O,1.700000X1.950000*%
%ADD27RoundRect,0.225000X0.250000X-0.225000X0.250000X0.225000X-0.250000X0.225000X-0.250000X-0.225000X0*%
%ADD28R,1.800000X2.500000*%
%ADD29RoundRect,0.225000X0.225000X0.250000X-0.225000X0.250000X-0.225000X-0.250000X0.225000X-0.250000X0*%
%ADD30RoundRect,0.135000X-0.185000X0.135000X-0.185000X-0.135000X0.185000X-0.135000X0.185000X0.135000X0*%
%ADD31RoundRect,0.135000X0.135000X0.185000X-0.135000X0.185000X-0.135000X-0.185000X0.135000X-0.185000X0*%
%ADD32R,1.500000X2.000000*%
%ADD33R,3.800000X2.000000*%
%ADD34RoundRect,0.135000X0.185000X-0.135000X0.185000X0.135000X-0.185000X0.135000X-0.185000X-0.135000X0*%
%ADD35RoundRect,0.250000X0.425000X-0.450000X0.425000X0.450000X-0.425000X0.450000X-0.425000X-0.450000X0*%
%ADD36R,1.900000X0.400000*%
%ADD37RoundRect,0.225000X-0.250000X0.225000X-0.250000X-0.225000X0.250000X-0.225000X0.250000X0.225000X0*%
%ADD38RoundRect,0.225000X-0.225000X-0.250000X0.225000X-0.250000X0.225000X0.250000X-0.225000X0.250000X0*%
%ADD39RoundRect,0.135000X-0.135000X-0.185000X0.135000X-0.185000X0.135000X0.185000X-0.135000X0.185000X0*%
%ADD40RoundRect,0.150000X0.825000X0.150000X-0.825000X0.150000X-0.825000X-0.150000X0.825000X-0.150000X0*%
%ADD41RoundRect,0.250000X-0.425000X0.450000X-0.425000X-0.450000X0.425000X-0.450000X0.425000X0.450000X0*%
%ADD42RoundRect,0.150000X-0.825000X-0.150000X0.825000X-0.150000X0.825000X0.150000X-0.825000X0.150000X0*%
G04 APERTURE END LIST*
D10*
%TO.C,J1*%
X171813600Y-68384327D03*
X177593600Y-68384327D03*
D11*
X170383600Y-64694327D03*
X179023600Y-64694327D03*
D12*
X179023600Y-68864327D03*
X170383600Y-68864327D03*
%TD*%
D13*
%TO.C,R13*%
X198620000Y-128600000D03*
D14*
X188460000Y-128600000D03*
%TD*%
D15*
%TO.C,REF\u002A\u002A*%
X184400000Y-94200000D03*
X186400000Y-92200000D03*
X186400000Y-94200000D03*
X184400000Y-90200000D03*
X186400000Y-90200000D03*
X184400000Y-95200000D03*
X184400000Y-92200000D03*
X186400000Y-95200000D03*
X186400000Y-91200000D03*
X186400000Y-93200000D03*
X184400000Y-91200000D03*
X184400000Y-93200000D03*
%TD*%
D13*
%TO.C,R13*%
X133200000Y-54280000D03*
D14*
X133200000Y-64440000D03*
%TD*%
D16*
%TO.C,U5*%
X196740000Y-76400000D03*
D14*
X194200000Y-76400000D03*
X191660000Y-76400000D03*
X189120000Y-76400000D03*
X189120000Y-84020000D03*
X191660000Y-84020000D03*
X194200000Y-84020000D03*
X196740000Y-84020000D03*
%TD*%
D15*
%TO.C,REF\u002A\u002A*%
X152400000Y-66500000D03*
X151400000Y-68500000D03*
X154400000Y-66500000D03*
X150400000Y-68500000D03*
X151400000Y-66500000D03*
X155400000Y-68500000D03*
X153400000Y-66500000D03*
X152400000Y-68500000D03*
X153400000Y-68500000D03*
X150400000Y-66500000D03*
X155400000Y-66500000D03*
X154400000Y-68500000D03*
%TD*%
%TO.C,REF\u002A\u002A*%
X165200000Y-100503327D03*
X163200000Y-100503327D03*
X163200000Y-104503327D03*
X163200000Y-102503327D03*
X163200000Y-99503327D03*
X165200000Y-104503327D03*
X165200000Y-101503327D03*
X163200000Y-101503327D03*
X165200000Y-99503327D03*
X163200000Y-103503327D03*
X165200000Y-102503327D03*
X165200000Y-103503327D03*
%TD*%
%TO.C,REF\u002A\u002A*%
X163200000Y-116103327D03*
X163200000Y-114103327D03*
X163200000Y-112103327D03*
X165200000Y-114103327D03*
X165200000Y-113103327D03*
X163200000Y-111103327D03*
X165200000Y-112103327D03*
X165200000Y-111103327D03*
X165200000Y-116103327D03*
X163200000Y-113103327D03*
X163200000Y-115103327D03*
X165200000Y-115103327D03*
%TD*%
%TO.C,REF\u002A\u002A*%
X112700000Y-108400000D03*
X110700000Y-108400000D03*
X111700000Y-106400000D03*
X109700000Y-106400000D03*
X110700000Y-106400000D03*
X107700000Y-108400000D03*
X111700000Y-108400000D03*
X108700000Y-108400000D03*
X109700000Y-108400000D03*
X112700000Y-106400000D03*
X108700000Y-106400000D03*
X107700000Y-106400000D03*
%TD*%
D16*
%TO.C,A1*%
X167178050Y-112925927D03*
D14*
X167178050Y-115465927D03*
X167178050Y-118005927D03*
X167178050Y-120545927D03*
X167178050Y-123085927D03*
X167178050Y-125625927D03*
X167178050Y-128165927D03*
X167178050Y-130705927D03*
X167178050Y-133245927D03*
X167178050Y-135785927D03*
X167178050Y-138325927D03*
X167178050Y-140865927D03*
X167178050Y-143405927D03*
X167178050Y-145945927D03*
X167178050Y-148485927D03*
X182418050Y-148485927D03*
X182418050Y-145945927D03*
X182418050Y-143405927D03*
X182418050Y-140865927D03*
X182418050Y-138325927D03*
X182418050Y-135785927D03*
X182418050Y-133245927D03*
X182418050Y-130705927D03*
X182418050Y-128165927D03*
X182418050Y-125625927D03*
X182418050Y-123085927D03*
X182418050Y-120545927D03*
X182418050Y-118005927D03*
X182418050Y-115465927D03*
X182418050Y-112925927D03*
%TD*%
D15*
%TO.C,REF\u002A\u002A*%
X122400000Y-114400000D03*
X122400000Y-112400000D03*
X120400000Y-113400000D03*
X120400000Y-112400000D03*
X122400000Y-111400000D03*
X120400000Y-114400000D03*
X122400000Y-110400000D03*
X120400000Y-111400000D03*
X120400000Y-110400000D03*
X122400000Y-113400000D03*
X122400000Y-115400000D03*
X120400000Y-115400000D03*
%TD*%
D17*
%TO.C,J6*%
X130617200Y-101737600D03*
D18*
X130617200Y-99197600D03*
X128077200Y-101737600D03*
X128077200Y-99197600D03*
X125537200Y-101737600D03*
X125537200Y-99197600D03*
%TD*%
D15*
%TO.C,REF\u002A\u002A*%
X163200000Y-144403327D03*
X163200000Y-140403327D03*
X163200000Y-142403327D03*
X165200000Y-144403327D03*
X165200000Y-143403327D03*
X163200000Y-143403327D03*
X163200000Y-139403327D03*
X165200000Y-139403327D03*
X163200000Y-141403327D03*
X165200000Y-140403327D03*
X165200000Y-142403327D03*
X165200000Y-141403327D03*
%TD*%
D16*
%TO.C,U5*%
X136600000Y-56160000D03*
D14*
X136600000Y-58700000D03*
X136600000Y-61240000D03*
X136600000Y-63780000D03*
X144220000Y-63780000D03*
X144220000Y-61240000D03*
X144220000Y-58700000D03*
X144220000Y-56160000D03*
%TD*%
D19*
%TO.C,F1*%
X139439000Y-127860800D03*
X139439000Y-124460800D03*
X149359000Y-127860800D03*
X149359000Y-124460800D03*
%TD*%
D17*
%TO.C,J7*%
X125200000Y-58220000D03*
D18*
X125200000Y-60760000D03*
X125200000Y-63300000D03*
%TD*%
D16*
%TO.C,A1*%
X182425200Y-102051127D03*
D14*
X182425200Y-99511127D03*
X182425200Y-96971127D03*
X182425200Y-94431127D03*
X182425200Y-91891127D03*
X182425200Y-89351127D03*
X182425200Y-86811127D03*
X182425200Y-84271127D03*
X182425200Y-81731127D03*
X182425200Y-79191127D03*
X182425200Y-76651127D03*
X182425200Y-74111127D03*
X182425200Y-71571127D03*
X182425200Y-69031127D03*
X182425200Y-66491127D03*
X167185200Y-66491127D03*
X167185200Y-69031127D03*
X167185200Y-71571127D03*
X167185200Y-74111127D03*
X167185200Y-76651127D03*
X167185200Y-79191127D03*
X167185200Y-81731127D03*
X167185200Y-84271127D03*
X167185200Y-86811127D03*
X167185200Y-89351127D03*
X167185200Y-91891127D03*
X167185200Y-94431127D03*
X167185200Y-96971127D03*
X167185200Y-99511127D03*
X167185200Y-102051127D03*
%TD*%
D15*
%TO.C,REF\u002A\u002A*%
X175900000Y-108503327D03*
X174900000Y-106503327D03*
X176900000Y-108503327D03*
X173900000Y-106503327D03*
X172900000Y-106503327D03*
X172900000Y-108503327D03*
X174900000Y-108503327D03*
X175900000Y-106503327D03*
X176900000Y-106503327D03*
X173900000Y-108503327D03*
X177900000Y-108503327D03*
X177900000Y-106503327D03*
%TD*%
D17*
%TO.C,J8*%
X194565000Y-149725000D03*
D18*
X192025000Y-149725000D03*
X189485000Y-149725000D03*
%TD*%
D10*
%TO.C,J1*%
X172009650Y-146592727D03*
X177789650Y-146592727D03*
D12*
X170579650Y-146112727D03*
D11*
X170579650Y-150282727D03*
X179219650Y-150282727D03*
D12*
X179219650Y-146112727D03*
%TD*%
D13*
%TO.C,R14*%
X147600000Y-64540000D03*
D14*
X147600000Y-54380000D03*
%TD*%
D10*
%TO.C,J1*%
X107810350Y-68310600D03*
X113590350Y-68310600D03*
D11*
X115020350Y-64620600D03*
D12*
X106380350Y-68790600D03*
X115020350Y-68790600D03*
D11*
X106380350Y-64620600D03*
%TD*%
D17*
%TO.C,J8*%
X194565000Y-94125000D03*
D18*
X192025000Y-94125000D03*
X189485000Y-94125000D03*
%TD*%
D15*
%TO.C,REF\u002A\u002A*%
X186400000Y-149800000D03*
X184400000Y-150800000D03*
X184400000Y-146800000D03*
X184400000Y-147800000D03*
X186400000Y-147800000D03*
X184400000Y-145800000D03*
X184400000Y-149800000D03*
X186400000Y-145800000D03*
X186400000Y-148800000D03*
X184400000Y-148800000D03*
X186400000Y-146800000D03*
X186400000Y-150800000D03*
%TD*%
D16*
%TO.C,A1*%
X118421950Y-101977400D03*
D14*
X118421950Y-99437400D03*
X118421950Y-96897400D03*
X118421950Y-94357400D03*
X118421950Y-91817400D03*
X118421950Y-89277400D03*
X118421950Y-86737400D03*
X118421950Y-84197400D03*
X118421950Y-81657400D03*
X118421950Y-79117400D03*
X118421950Y-76577400D03*
X118421950Y-74037400D03*
X118421950Y-71497400D03*
X118421950Y-68957400D03*
X118421950Y-66417400D03*
X103181950Y-66417400D03*
X103181950Y-68957400D03*
X103181950Y-71497400D03*
X103181950Y-74037400D03*
X103181950Y-76577400D03*
X103181950Y-79117400D03*
X103181950Y-81657400D03*
X103181950Y-84197400D03*
X103181950Y-86737400D03*
X103181950Y-89277400D03*
X103181950Y-91817400D03*
X103181950Y-94357400D03*
X103181950Y-96897400D03*
X103181950Y-99437400D03*
X103181950Y-101977400D03*
%TD*%
D17*
%TO.C,J7*%
X194680000Y-120600000D03*
D18*
X192140000Y-120600000D03*
X189600000Y-120600000D03*
%TD*%
D17*
%TO.C,J2*%
X113468950Y-101215400D03*
D18*
X113468950Y-103755400D03*
X110928950Y-101215400D03*
X110928950Y-103755400D03*
X108388950Y-101215400D03*
X108388950Y-103755400D03*
%TD*%
D10*
%TO.C,J1*%
X108006400Y-146519000D03*
X113786400Y-146519000D03*
D12*
X106576400Y-146039000D03*
D11*
X115216400Y-150209000D03*
X106576400Y-150209000D03*
D12*
X115216400Y-146039000D03*
%TD*%
D17*
%TO.C,J2*%
X177472200Y-101289127D03*
D18*
X177472200Y-103829127D03*
X174932200Y-101289127D03*
X174932200Y-103829127D03*
X172392200Y-101289127D03*
X172392200Y-103829127D03*
%TD*%
D17*
%TO.C,J2*%
X172131050Y-113687927D03*
D18*
X172131050Y-111147927D03*
X174671050Y-113687927D03*
X174671050Y-111147927D03*
X177211050Y-113687927D03*
X177211050Y-111147927D03*
%TD*%
D20*
%TO.C,J3*%
X148229400Y-146557200D03*
D21*
X153309400Y-146557200D03*
%TD*%
D17*
%TO.C,MES1*%
X155473800Y-134243400D03*
D18*
X155473800Y-131703400D03*
%TD*%
D15*
%TO.C,REF\u002A\u002A*%
X122400000Y-75500000D03*
X120400000Y-74500000D03*
X122400000Y-72500000D03*
X120400000Y-75500000D03*
X120400000Y-70500000D03*
X122400000Y-74500000D03*
X120400000Y-72500000D03*
X122400000Y-71500000D03*
X122400000Y-70500000D03*
X122400000Y-73500000D03*
X120400000Y-73500000D03*
X120400000Y-71500000D03*
%TD*%
D13*
%TO.C,R13*%
X198620000Y-73000000D03*
D14*
X188460000Y-73000000D03*
%TD*%
D15*
%TO.C,REF\u002A\u002A*%
X125400000Y-66500000D03*
X127400000Y-66500000D03*
X124400000Y-66500000D03*
X128400000Y-66500000D03*
X127400000Y-68500000D03*
X125400000Y-68500000D03*
X124400000Y-68500000D03*
X126400000Y-66500000D03*
X128400000Y-68500000D03*
X129400000Y-68500000D03*
X129400000Y-66500000D03*
X126400000Y-68500000D03*
%TD*%
%TO.C,REF\u002A\u002A*%
X120400000Y-147700000D03*
X120400000Y-145700000D03*
X122400000Y-145700000D03*
X122400000Y-148700000D03*
X122400000Y-150700000D03*
X120400000Y-146700000D03*
X120400000Y-148700000D03*
X120400000Y-150700000D03*
X122400000Y-149700000D03*
X120400000Y-149700000D03*
X122400000Y-147700000D03*
X122400000Y-146700000D03*
%TD*%
D16*
%TO.C,A1*%
X103174800Y-112852200D03*
D14*
X103174800Y-115392200D03*
X103174800Y-117932200D03*
X103174800Y-120472200D03*
X103174800Y-123012200D03*
X103174800Y-125552200D03*
X103174800Y-128092200D03*
X103174800Y-130632200D03*
X103174800Y-133172200D03*
X103174800Y-135712200D03*
X103174800Y-138252200D03*
X103174800Y-140792200D03*
X103174800Y-143332200D03*
X103174800Y-145872200D03*
X103174800Y-148412200D03*
X118414800Y-148412200D03*
X118414800Y-145872200D03*
X118414800Y-143332200D03*
X118414800Y-140792200D03*
X118414800Y-138252200D03*
X118414800Y-135712200D03*
X118414800Y-133172200D03*
X118414800Y-130632200D03*
X118414800Y-128092200D03*
X118414800Y-125552200D03*
X118414800Y-123012200D03*
X118414800Y-120472200D03*
X118414800Y-117932200D03*
X118414800Y-115392200D03*
X118414800Y-112852200D03*
%TD*%
D16*
%TO.C,U5*%
X196740000Y-132000000D03*
D14*
X194200000Y-132000000D03*
X191660000Y-132000000D03*
X189120000Y-132000000D03*
X189120000Y-139620000D03*
X191660000Y-139620000D03*
X194200000Y-139620000D03*
X196740000Y-139620000D03*
%TD*%
D22*
%TO.C,SW2*%
X129209800Y-137312400D03*
D23*
X129209800Y-132612400D03*
X129209800Y-127912400D03*
D24*
X127609800Y-140512400D03*
X130809800Y-140512400D03*
X127609800Y-124712400D03*
X130809800Y-124712400D03*
%TD*%
D13*
%TO.C,R14*%
X188360000Y-87400000D03*
D14*
X198520000Y-87400000D03*
%TD*%
D15*
%TO.C,REF\u002A\u002A*%
X165200000Y-70500000D03*
X163200000Y-75500000D03*
X163200000Y-74500000D03*
X163200000Y-73500000D03*
X165200000Y-75500000D03*
X163200000Y-71500000D03*
X165200000Y-72500000D03*
X165200000Y-71500000D03*
X163200000Y-70500000D03*
X163200000Y-72500000D03*
X165200000Y-73500000D03*
X165200000Y-74500000D03*
%TD*%
%TO.C,REF\u002A\u002A*%
X184400000Y-67200000D03*
X186400000Y-67200000D03*
X186400000Y-64200000D03*
X184400000Y-68200000D03*
X186400000Y-68200000D03*
X186400000Y-69200000D03*
X184400000Y-66200000D03*
X186400000Y-66200000D03*
X184400000Y-64200000D03*
X184400000Y-65200000D03*
X186400000Y-65200000D03*
X184400000Y-69200000D03*
%TD*%
%TO.C,REF\u002A\u002A*%
X184400000Y-123800000D03*
X186400000Y-124800000D03*
X184400000Y-119800000D03*
X184400000Y-124800000D03*
X184400000Y-122800000D03*
X186400000Y-119800000D03*
X184400000Y-120800000D03*
X186400000Y-123800000D03*
X186400000Y-122800000D03*
X186400000Y-121800000D03*
X186400000Y-120800000D03*
X184400000Y-121800000D03*
%TD*%
D17*
%TO.C,J8*%
X154325000Y-58335000D03*
D18*
X154325000Y-60875000D03*
X154325000Y-63415000D03*
%TD*%
D25*
%TO.C,J5*%
X159395800Y-96409000D03*
D26*
X156895800Y-96409000D03*
X154395800Y-96409000D03*
%TD*%
D15*
%TO.C,REF\u002A\u002A*%
X120400000Y-103800000D03*
X120400000Y-101800000D03*
X122400000Y-103800000D03*
X122400000Y-98800000D03*
X122400000Y-102800000D03*
X122400000Y-99800000D03*
X122400000Y-100800000D03*
X120400000Y-99800000D03*
X120400000Y-98800000D03*
X120400000Y-100800000D03*
X120400000Y-102800000D03*
X122400000Y-101800000D03*
%TD*%
D17*
%TO.C,J7*%
X194680000Y-65000000D03*
D18*
X192140000Y-65000000D03*
X189600000Y-65000000D03*
%TD*%
D20*
%TO.C,J4*%
X136951800Y-146557200D03*
D21*
X142031800Y-146557200D03*
%TD*%
D17*
%TO.C,J2*%
X108127800Y-113614200D03*
D18*
X108127800Y-111074200D03*
X110667800Y-113614200D03*
X110667800Y-111074200D03*
X113207800Y-113614200D03*
X113207800Y-111074200D03*
%TD*%
D13*
%TO.C,R14*%
X188360000Y-143000000D03*
D14*
X198520000Y-143000000D03*
%TD*%
D27*
%TO.C,C5*%
X105213950Y-83677000D03*
X105213950Y-82127000D03*
%TD*%
D28*
%TO.C,D2*%
X115062000Y-138722600D03*
X115062000Y-142722600D03*
%TD*%
D29*
%TO.C,C4*%
X114834000Y-136321800D03*
X113284000Y-136321800D03*
%TD*%
%TO.C,C1*%
X176296650Y-138097327D03*
X174746650Y-138097327D03*
%TD*%
D30*
%TO.C,R2*%
X178920000Y-78376327D03*
X178920000Y-79396327D03*
%TD*%
D31*
%TO.C,R4*%
X182468950Y-151025927D03*
X181448950Y-151025927D03*
%TD*%
D32*
%TO.C,U3*%
X174553800Y-98596727D03*
D33*
X172253800Y-92296727D03*
D32*
X172253800Y-98596727D03*
X169953800Y-98596727D03*
%TD*%
D34*
%TO.C,R2*%
X170683250Y-136600727D03*
X170683250Y-135580727D03*
%TD*%
D35*
%TO.C,C8*%
X174620250Y-143358927D03*
X174620250Y-140658927D03*
%TD*%
D34*
%TO.C,R6*%
X108719150Y-65962200D03*
X108719150Y-64942200D03*
%TD*%
%TO.C,R3*%
X169260850Y-136602727D03*
X169260850Y-135582727D03*
%TD*%
D36*
%TO.C,Y1*%
X169892650Y-134168127D03*
X169892650Y-132968127D03*
X169892650Y-131768127D03*
%TD*%
D30*
%TO.C,R6*%
X112877600Y-148867400D03*
X112877600Y-149887400D03*
%TD*%
D37*
%TO.C,C10*%
X176684800Y-92792527D03*
X176684800Y-94342527D03*
%TD*%
%TO.C,C9*%
X109100150Y-71319000D03*
X109100150Y-72869000D03*
%TD*%
D34*
%TO.C,R5*%
X112325950Y-65962200D03*
X112325950Y-64942200D03*
%TD*%
D38*
%TO.C,C4*%
X106762750Y-78507800D03*
X108312750Y-78507800D03*
%TD*%
D34*
%TO.C,R2*%
X106680000Y-136527000D03*
X106680000Y-135507000D03*
%TD*%
D28*
%TO.C,D2*%
X106534750Y-76107000D03*
X106534750Y-72107000D03*
%TD*%
D39*
%TO.C,R4*%
X167134300Y-63951127D03*
X168154300Y-63951127D03*
%TD*%
D30*
%TO.C,R3*%
X116339150Y-78300600D03*
X116339150Y-79320600D03*
%TD*%
D34*
%TO.C,R6*%
X172722400Y-66035927D03*
X172722400Y-65015927D03*
%TD*%
D27*
%TO.C,C9*%
X112496600Y-143510600D03*
X112496600Y-141960600D03*
%TD*%
D30*
%TO.C,R3*%
X180342400Y-78374327D03*
X180342400Y-79394327D03*
%TD*%
D35*
%TO.C,C8*%
X110617000Y-143285200D03*
X110617000Y-140585200D03*
%TD*%
D40*
%TO.C,U2*%
X112159350Y-80133400D03*
X112159350Y-81403400D03*
X112159350Y-82673400D03*
X112159350Y-83943400D03*
X112159350Y-85213400D03*
X112159350Y-86483400D03*
X112159350Y-87753400D03*
X112159350Y-89023400D03*
X107209350Y-89023400D03*
X107209350Y-87753400D03*
X107209350Y-86483400D03*
X107209350Y-85213400D03*
X107209350Y-83943400D03*
X107209350Y-82673400D03*
X107209350Y-81403400D03*
X107209350Y-80133400D03*
%TD*%
D41*
%TO.C,C8*%
X110979750Y-71544400D03*
X110979750Y-74244400D03*
%TD*%
D27*
%TO.C,C10*%
X172918450Y-122184527D03*
X172918450Y-120634527D03*
%TD*%
D34*
%TO.C,R5*%
X176329200Y-66035927D03*
X176329200Y-65015927D03*
%TD*%
D36*
%TO.C,Y1*%
X115707350Y-80735200D03*
X115707350Y-81935200D03*
X115707350Y-83135200D03*
%TD*%
D41*
%TO.C,C8*%
X174983000Y-71618127D03*
X174983000Y-74318127D03*
%TD*%
D28*
%TO.C,D2*%
X170538000Y-76180727D03*
X170538000Y-72180727D03*
%TD*%
D37*
%TO.C,C5*%
X180386050Y-131226327D03*
X180386050Y-132776327D03*
%TD*%
D34*
%TO.C,R1*%
X107010200Y-121617200D03*
X107010200Y-120597200D03*
%TD*%
D27*
%TO.C,C5*%
X169217200Y-83750727D03*
X169217200Y-82200727D03*
%TD*%
D34*
%TO.C,R1*%
X171013450Y-121690927D03*
X171013450Y-120670927D03*
%TD*%
D36*
%TO.C,Y1*%
X105889400Y-134094400D03*
X105889400Y-132894400D03*
X105889400Y-131694400D03*
%TD*%
D38*
%TO.C,C4*%
X170766000Y-78581527D03*
X172316000Y-78581527D03*
%TD*%
D30*
%TO.C,R6*%
X176880850Y-148941127D03*
X176880850Y-149961127D03*
%TD*%
D38*
%TO.C,C1*%
X109303350Y-76806000D03*
X110853350Y-76806000D03*
%TD*%
D32*
%TO.C,U3*%
X175049450Y-116380327D03*
X177349450Y-116380327D03*
D33*
X177349450Y-122680327D03*
D32*
X179649450Y-116380327D03*
%TD*%
D39*
%TO.C,R4*%
X103131050Y-63877400D03*
X104151050Y-63877400D03*
%TD*%
D27*
%TO.C,C10*%
X108915200Y-122110800D03*
X108915200Y-120560800D03*
%TD*%
D28*
%TO.C,D2*%
X179065250Y-138796327D03*
X179065250Y-142796327D03*
%TD*%
D32*
%TO.C,U3*%
X111046200Y-116306600D03*
D33*
X113346200Y-122606600D03*
D32*
X113346200Y-116306600D03*
X115646200Y-116306600D03*
%TD*%
D30*
%TO.C,R5*%
X109270800Y-148867400D03*
X109270800Y-149887400D03*
%TD*%
D27*
%TO.C,C9*%
X176499850Y-143584327D03*
X176499850Y-142034327D03*
%TD*%
D30*
%TO.C,R5*%
X173274050Y-148941127D03*
X173274050Y-149961127D03*
%TD*%
D34*
%TO.C,R3*%
X105257600Y-136529000D03*
X105257600Y-135509000D03*
%TD*%
D29*
%TO.C,C1*%
X112293400Y-138023600D03*
X110743400Y-138023600D03*
%TD*%
D31*
%TO.C,R4*%
X118465700Y-150952200D03*
X117445700Y-150952200D03*
%TD*%
D29*
%TO.C,C4*%
X178837250Y-136395527D03*
X177287250Y-136395527D03*
%TD*%
D27*
%TO.C,C7*%
X194140000Y-82175000D03*
X194140000Y-80625000D03*
%TD*%
D30*
%TO.C,R2*%
X114916750Y-78302600D03*
X114916750Y-79322600D03*
%TD*%
D37*
%TO.C,C9*%
X173103400Y-71392727D03*
X173103400Y-72942727D03*
%TD*%
D42*
%TO.C,U2*%
X109437400Y-134696200D03*
X109437400Y-133426200D03*
X109437400Y-132156200D03*
X109437400Y-130886200D03*
X109437400Y-129616200D03*
X109437400Y-128346200D03*
X109437400Y-127076200D03*
X109437400Y-125806200D03*
X114387400Y-125806200D03*
X114387400Y-127076200D03*
X114387400Y-128346200D03*
X114387400Y-129616200D03*
X114387400Y-130886200D03*
X114387400Y-132156200D03*
X114387400Y-133426200D03*
X114387400Y-134696200D03*
%TD*%
D29*
%TO.C,C7*%
X142375000Y-58760000D03*
X140825000Y-58760000D03*
%TD*%
D42*
%TO.C,U2*%
X173440650Y-134769927D03*
X173440650Y-133499927D03*
X173440650Y-132229927D03*
X173440650Y-130959927D03*
X173440650Y-129689927D03*
X173440650Y-128419927D03*
X173440650Y-127149927D03*
X173440650Y-125879927D03*
X178390650Y-125879927D03*
X178390650Y-127149927D03*
X178390650Y-128419927D03*
X178390650Y-129689927D03*
X178390650Y-130959927D03*
X178390650Y-132229927D03*
X178390650Y-133499927D03*
X178390650Y-134769927D03*
%TD*%
D38*
%TO.C,C1*%
X173306600Y-76879727D03*
X174856600Y-76879727D03*
%TD*%
D37*
%TO.C,C10*%
X112681550Y-92718800D03*
X112681550Y-94268800D03*
%TD*%
D27*
%TO.C,C7*%
X194140000Y-137775000D03*
X194140000Y-136225000D03*
%TD*%
D30*
%TO.C,R1*%
X114586550Y-93212400D03*
X114586550Y-94232400D03*
%TD*%
D37*
%TO.C,C5*%
X116382800Y-131152600D03*
X116382800Y-132702600D03*
%TD*%
D30*
%TO.C,R1*%
X178589800Y-93286127D03*
X178589800Y-94306127D03*
%TD*%
D36*
%TO.C,Y1*%
X179710600Y-80808927D03*
X179710600Y-82008927D03*
X179710600Y-83208927D03*
%TD*%
D32*
%TO.C,U3*%
X110550550Y-98523000D03*
D33*
X108250550Y-92223000D03*
D32*
X108250550Y-98523000D03*
X105950550Y-98523000D03*
%TD*%
D40*
%TO.C,U2*%
X176162600Y-80207127D03*
X176162600Y-81477127D03*
X176162600Y-82747127D03*
X176162600Y-84017127D03*
X176162600Y-85287127D03*
X176162600Y-86557127D03*
X176162600Y-87827127D03*
X176162600Y-89097127D03*
X171212600Y-89097127D03*
X171212600Y-87827127D03*
X171212600Y-86557127D03*
X171212600Y-85287127D03*
X171212600Y-84017127D03*
X171212600Y-82747127D03*
X171212600Y-81477127D03*
X171212600Y-80207127D03*
%TD*%
M02*
