%TF.GenerationSoftware,KiCad,Pcbnew,(6.0.1)*%
%TF.CreationDate,2022-04-04T10:53:51-04:00*%
%TF.ProjectId,arduino_usb_c,61726475-696e-46f5-9f75-73625f632e6b,rev?*%
%TF.SameCoordinates,Original*%
%TF.FileFunction,Soldermask,Top*%
%TF.FilePolarity,Negative*%
%FSLAX46Y46*%
G04 Gerber Fmt 4.6, Leading zero omitted, Abs format (unit mm)*
G04 Created by KiCad (PCBNEW (6.0.1)) date 2022-04-04 10:53:51*
%MOMM*%
%LPD*%
G01*
G04 APERTURE LIST*
G04 Aperture macros list*
%AMRoundRect*
0 Rectangle with rounded corners*
0 $1 Rounding radius*
0 $2 $3 $4 $5 $6 $7 $8 $9 X,Y pos of 4 corners*
0 Add a 4 corners polygon primitive as box body*
4,1,4,$2,$3,$4,$5,$6,$7,$8,$9,$2,$3,0*
0 Add four circle primitives for the rounded corners*
1,1,$1+$1,$2,$3*
1,1,$1+$1,$4,$5*
1,1,$1+$1,$6,$7*
1,1,$1+$1,$8,$9*
0 Add four rect primitives between the rounded corners*
20,1,$1+$1,$2,$3,$4,$5,0*
20,1,$1+$1,$4,$5,$6,$7,0*
20,1,$1+$1,$6,$7,$8,$9,0*
20,1,$1+$1,$8,$9,$2,$3,0*%
%AMRotRect*
0 Rectangle, with rotation*
0 The origin of the aperture is its center*
0 $1 length*
0 $2 width*
0 $3 Rotation angle, in degrees counterclockwise*
0 Add horizontal line*
21,1,$1,$2,0,0,$3*%
G04 Aperture macros list end*
%ADD10RoundRect,0.218750X0.218750X0.256250X-0.218750X0.256250X-0.218750X-0.256250X0.218750X-0.256250X0*%
%ADD11C,0.600000*%
%ADD12R,0.600000X1.160000*%
%ADD13R,0.300000X1.160000*%
%ADD14O,0.900000X1.700000*%
%ADD15O,0.900000X2.000000*%
%ADD16C,1.600000*%
%ADD17O,1.600000X1.600000*%
%ADD18C,0.800000*%
%ADD19R,1.500000X1.500000*%
%ADD20R,1.600000X1.600000*%
%ADD21RoundRect,0.135000X-0.135000X-0.185000X0.135000X-0.185000X0.135000X0.185000X-0.135000X0.185000X0*%
%ADD22RoundRect,0.218750X-0.218750X-0.256250X0.218750X-0.256250X0.218750X0.256250X-0.218750X0.256250X0*%
%ADD23RoundRect,0.135000X-0.185000X0.135000X-0.185000X-0.135000X0.185000X-0.135000X0.185000X0.135000X0*%
%ADD24RotRect,1.600000X0.550000X135.000000*%
%ADD25RotRect,1.600000X0.550000X225.000000*%
%ADD26RoundRect,0.250000X0.017678X0.618718X-0.618718X-0.017678X-0.017678X-0.618718X0.618718X0.017678X0*%
%ADD27RoundRect,0.225000X-0.225000X-0.250000X0.225000X-0.250000X0.225000X0.250000X-0.225000X0.250000X0*%
%ADD28R,1.100000X0.500000*%
%ADD29R,4.000000X4.000000*%
%ADD30RoundRect,0.225000X-0.250000X0.225000X-0.250000X-0.225000X0.250000X-0.225000X0.250000X0.225000X0*%
%ADD31R,1.700000X1.700000*%
%ADD32O,1.700000X1.700000*%
%ADD33RoundRect,0.225000X0.017678X-0.335876X0.335876X-0.017678X-0.017678X0.335876X-0.335876X0.017678X0*%
%ADD34RoundRect,0.225000X-0.017678X0.335876X-0.335876X0.017678X0.017678X-0.335876X0.335876X-0.017678X0*%
%ADD35C,2.780000*%
%ADD36RoundRect,0.135000X0.135000X0.185000X-0.135000X0.185000X-0.135000X-0.185000X0.135000X-0.185000X0*%
%ADD37RoundRect,0.250000X-0.017678X-0.618718X0.618718X0.017678X0.017678X0.618718X-0.618718X-0.017678X0*%
%ADD38RoundRect,0.135000X0.185000X-0.135000X0.185000X0.135000X-0.185000X0.135000X-0.185000X-0.135000X0*%
%ADD39R,2.600000X2.600000*%
%ADD40C,2.600000*%
%ADD41R,2.700000X2.700000*%
%ADD42C,2.700000*%
%ADD43C,2.250000*%
%ADD44RotRect,1.600000X0.550000X315.000000*%
%ADD45RotRect,1.600000X0.550000X45.000000*%
%ADD46RoundRect,0.250000X0.600000X0.725000X-0.600000X0.725000X-0.600000X-0.725000X0.600000X-0.725000X0*%
%ADD47O,1.700000X1.950000*%
G04 APERTURE END LIST*
D10*
%TO.C,D3*%
X111056050Y-93570000D03*
X109481050Y-93570000D03*
%TD*%
D11*
%TO.C,J1*%
X171813600Y-68384327D03*
X177593600Y-68384327D03*
D12*
X177903600Y-69444327D03*
X177103600Y-69444327D03*
D13*
X175953600Y-69444327D03*
X174953600Y-69444327D03*
X174453600Y-69444327D03*
X173453600Y-69444327D03*
D12*
X172303600Y-69444327D03*
X171503600Y-69444327D03*
X171503600Y-69444327D03*
X172303600Y-69444327D03*
D13*
X172953600Y-69444327D03*
X173953600Y-69444327D03*
X175453600Y-69444327D03*
X176453600Y-69444327D03*
D12*
X177103600Y-69444327D03*
X177903600Y-69444327D03*
D14*
X170383600Y-64694327D03*
X179023600Y-64694327D03*
D15*
X179023600Y-68864327D03*
X170383600Y-68864327D03*
%TD*%
D16*
%TO.C,R13*%
X198620000Y-128600000D03*
D17*
X188460000Y-128600000D03*
%TD*%
D18*
%TO.C,REF\u002A\u002A*%
X184400000Y-94200000D03*
X186400000Y-92200000D03*
X186400000Y-94200000D03*
X184400000Y-90200000D03*
X186400000Y-90200000D03*
X184400000Y-95200000D03*
X184400000Y-92200000D03*
X186400000Y-95200000D03*
X186400000Y-91200000D03*
X186400000Y-93200000D03*
X184400000Y-91200000D03*
X184400000Y-93200000D03*
%TD*%
D19*
%TO.C,SW1*%
X114694800Y-118414800D03*
X106894800Y-118414800D03*
%TD*%
D16*
%TO.C,R13*%
X133200000Y-54280000D03*
D17*
X133200000Y-64440000D03*
%TD*%
D19*
%TO.C,SW1*%
X170905200Y-96488527D03*
X178705200Y-96488527D03*
%TD*%
D20*
%TO.C,U5*%
X196740000Y-76400000D03*
D17*
X194200000Y-76400000D03*
X191660000Y-76400000D03*
X189120000Y-76400000D03*
X189120000Y-84020000D03*
X191660000Y-84020000D03*
X194200000Y-84020000D03*
X196740000Y-84020000D03*
%TD*%
D21*
%TO.C,R7*%
X170307400Y-93821527D03*
X171327400Y-93821527D03*
%TD*%
D22*
%TO.C,D3*%
X174543950Y-121333327D03*
X176118950Y-121333327D03*
%TD*%
D23*
%TO.C,R12*%
X195440000Y-67890000D03*
X195440000Y-68910000D03*
%TD*%
D24*
%TO.C,U1*%
X175525705Y-83287230D03*
X176091390Y-82721544D03*
X176657076Y-82155859D03*
X177222761Y-81590174D03*
X177788447Y-81024488D03*
X178354132Y-80458803D03*
X178919817Y-79893117D03*
X179485503Y-79327432D03*
D25*
X179485503Y-77276822D03*
X178919817Y-76711137D03*
X178354132Y-76145451D03*
X177788447Y-75579766D03*
X177222761Y-75014080D03*
X176657076Y-74448395D03*
X176091390Y-73882710D03*
X175525705Y-73317024D03*
D24*
X173475095Y-73317024D03*
X172909410Y-73882710D03*
X172343724Y-74448395D03*
X171778039Y-75014080D03*
X171212353Y-75579766D03*
X170646668Y-76145451D03*
X170080983Y-76711137D03*
X169515297Y-77276822D03*
D25*
X169515297Y-79327432D03*
X170080983Y-79893117D03*
X170646668Y-80458803D03*
X171212353Y-81024488D03*
X171778039Y-81590174D03*
X172343724Y-82155859D03*
X172909410Y-82721544D03*
X173475095Y-83287230D03*
%TD*%
D18*
%TO.C,REF\u002A\u002A*%
X152400000Y-66500000D03*
X151400000Y-68500000D03*
X154400000Y-66500000D03*
X150400000Y-68500000D03*
X151400000Y-66500000D03*
X155400000Y-68500000D03*
X153400000Y-66500000D03*
X152400000Y-68500000D03*
X153400000Y-68500000D03*
X150400000Y-66500000D03*
X155400000Y-66500000D03*
X154400000Y-68500000D03*
%TD*%
%TO.C,REF\u002A\u002A*%
X165200000Y-100503327D03*
X163200000Y-100503327D03*
X163200000Y-104503327D03*
X163200000Y-102503327D03*
X163200000Y-99503327D03*
X165200000Y-104503327D03*
X165200000Y-101503327D03*
X163200000Y-101503327D03*
X165200000Y-99503327D03*
X163200000Y-103503327D03*
X165200000Y-102503327D03*
X165200000Y-103503327D03*
%TD*%
%TO.C,REF\u002A\u002A*%
X163200000Y-116103327D03*
X163200000Y-114103327D03*
X163200000Y-112103327D03*
X165200000Y-114103327D03*
X165200000Y-113103327D03*
X163200000Y-111103327D03*
X165200000Y-112103327D03*
X165200000Y-111103327D03*
X165200000Y-116103327D03*
X163200000Y-113103327D03*
X163200000Y-115103327D03*
X165200000Y-115103327D03*
%TD*%
D23*
%TO.C,R10*%
X190140000Y-67890000D03*
X190140000Y-68910000D03*
%TD*%
D26*
%TO.C,C3*%
X108498194Y-129728406D03*
X106589006Y-131637594D03*
%TD*%
D18*
%TO.C,REF\u002A\u002A*%
X112700000Y-108400000D03*
X110700000Y-108400000D03*
X111700000Y-106400000D03*
X109700000Y-106400000D03*
X110700000Y-106400000D03*
X107700000Y-108400000D03*
X111700000Y-108400000D03*
X108700000Y-108400000D03*
X109700000Y-108400000D03*
X112700000Y-106400000D03*
X108700000Y-106400000D03*
X107700000Y-106400000D03*
%TD*%
D23*
%TO.C,R10*%
X190140000Y-123490000D03*
X190140000Y-124510000D03*
%TD*%
D27*
%TO.C,C6*%
X128025000Y-64260000D03*
X129575000Y-64260000D03*
%TD*%
D28*
%TO.C,U4*%
X138306600Y-131207400D03*
X138306600Y-132477400D03*
X138306600Y-133747400D03*
X138306600Y-135017400D03*
X144106600Y-135017400D03*
X144106600Y-133747400D03*
X144106600Y-132477400D03*
X144106600Y-131207400D03*
D29*
X141206600Y-133112400D03*
%TD*%
D30*
%TO.C,C6*%
X188640000Y-67825000D03*
X188640000Y-69375000D03*
%TD*%
D21*
%TO.C,R12*%
X128090000Y-57460000D03*
X129110000Y-57460000D03*
%TD*%
%TO.C,R7*%
X106304150Y-93747800D03*
X107324150Y-93747800D03*
%TD*%
D26*
%TO.C,C3*%
X172501444Y-129802133D03*
X170592256Y-131711321D03*
%TD*%
D20*
%TO.C,A1*%
X167178050Y-112925927D03*
D17*
X167178050Y-115465927D03*
X167178050Y-118005927D03*
X167178050Y-120545927D03*
X167178050Y-123085927D03*
X167178050Y-125625927D03*
X167178050Y-128165927D03*
X167178050Y-130705927D03*
X167178050Y-133245927D03*
X167178050Y-135785927D03*
X167178050Y-138325927D03*
X167178050Y-140865927D03*
X167178050Y-143405927D03*
X167178050Y-145945927D03*
X167178050Y-148485927D03*
X182418050Y-148485927D03*
X182418050Y-145945927D03*
X182418050Y-143405927D03*
X182418050Y-140865927D03*
X182418050Y-138325927D03*
X182418050Y-135785927D03*
X182418050Y-133245927D03*
X182418050Y-130705927D03*
X182418050Y-128165927D03*
X182418050Y-125625927D03*
X182418050Y-123085927D03*
X182418050Y-120545927D03*
X182418050Y-118005927D03*
X182418050Y-115465927D03*
X182418050Y-112925927D03*
%TD*%
D18*
%TO.C,REF\u002A\u002A*%
X122400000Y-114400000D03*
X122400000Y-112400000D03*
X120400000Y-113400000D03*
X120400000Y-112400000D03*
X122400000Y-111400000D03*
X120400000Y-114400000D03*
X122400000Y-110400000D03*
X120400000Y-111400000D03*
X120400000Y-110400000D03*
X122400000Y-113400000D03*
X122400000Y-115400000D03*
X120400000Y-115400000D03*
%TD*%
D31*
%TO.C,J6*%
X130617200Y-101737600D03*
D32*
X130617200Y-99197600D03*
X128077200Y-101737600D03*
X128077200Y-99197600D03*
X125537200Y-101737600D03*
X125537200Y-99197600D03*
%TD*%
D18*
%TO.C,REF\u002A\u002A*%
X163200000Y-144403327D03*
X163200000Y-140403327D03*
X163200000Y-142403327D03*
X165200000Y-144403327D03*
X165200000Y-143403327D03*
X163200000Y-143403327D03*
X163200000Y-139403327D03*
X165200000Y-139403327D03*
X163200000Y-141403327D03*
X165200000Y-140403327D03*
X165200000Y-142403327D03*
X165200000Y-141403327D03*
%TD*%
D33*
%TO.C,C2*%
X106327734Y-73761816D03*
X107423750Y-72665800D03*
%TD*%
D34*
%TO.C,C2*%
X179272266Y-141141511D03*
X178176250Y-142237527D03*
%TD*%
D20*
%TO.C,U5*%
X136600000Y-56160000D03*
D17*
X136600000Y-58700000D03*
X136600000Y-61240000D03*
X136600000Y-63780000D03*
X144220000Y-63780000D03*
X144220000Y-61240000D03*
X144220000Y-58700000D03*
X144220000Y-56160000D03*
%TD*%
D33*
%TO.C,C2*%
X170330984Y-73835543D03*
X171427000Y-72739527D03*
%TD*%
D35*
%TO.C,F1*%
X139439000Y-127860800D03*
X139439000Y-124460800D03*
X149359000Y-127860800D03*
X149359000Y-124460800D03*
%TD*%
D31*
%TO.C,J7*%
X125200000Y-58220000D03*
D32*
X125200000Y-60760000D03*
X125200000Y-63300000D03*
%TD*%
D20*
%TO.C,A1*%
X182425200Y-102051127D03*
D17*
X182425200Y-99511127D03*
X182425200Y-96971127D03*
X182425200Y-94431127D03*
X182425200Y-91891127D03*
X182425200Y-89351127D03*
X182425200Y-86811127D03*
X182425200Y-84271127D03*
X182425200Y-81731127D03*
X182425200Y-79191127D03*
X182425200Y-76651127D03*
X182425200Y-74111127D03*
X182425200Y-71571127D03*
X182425200Y-69031127D03*
X182425200Y-66491127D03*
X167185200Y-66491127D03*
X167185200Y-69031127D03*
X167185200Y-71571127D03*
X167185200Y-74111127D03*
X167185200Y-76651127D03*
X167185200Y-79191127D03*
X167185200Y-81731127D03*
X167185200Y-84271127D03*
X167185200Y-86811127D03*
X167185200Y-89351127D03*
X167185200Y-91891127D03*
X167185200Y-94431127D03*
X167185200Y-96971127D03*
X167185200Y-99511127D03*
X167185200Y-102051127D03*
%TD*%
D36*
%TO.C,R8*%
X141835600Y-136872400D03*
X140815600Y-136872400D03*
%TD*%
D18*
%TO.C,REF\u002A\u002A*%
X175900000Y-108503327D03*
X174900000Y-106503327D03*
X176900000Y-108503327D03*
X173900000Y-106503327D03*
X172900000Y-106503327D03*
X172900000Y-108503327D03*
X174900000Y-108503327D03*
X175900000Y-106503327D03*
X176900000Y-106503327D03*
X173900000Y-108503327D03*
X177900000Y-108503327D03*
X177900000Y-106503327D03*
%TD*%
D31*
%TO.C,J8*%
X194565000Y-149725000D03*
D32*
X192025000Y-149725000D03*
X189485000Y-149725000D03*
%TD*%
D11*
%TO.C,J1*%
X172009650Y-146592727D03*
X177789650Y-146592727D03*
D12*
X171699650Y-145532727D03*
X172499650Y-145532727D03*
D13*
X173649650Y-145532727D03*
X174649650Y-145532727D03*
X175149650Y-145532727D03*
X176149650Y-145532727D03*
D12*
X177299650Y-145532727D03*
X178099650Y-145532727D03*
X178099650Y-145532727D03*
X177299650Y-145532727D03*
D13*
X176649650Y-145532727D03*
X175649650Y-145532727D03*
X174149650Y-145532727D03*
X173149650Y-145532727D03*
D12*
X172499650Y-145532727D03*
X171699650Y-145532727D03*
D15*
X170579650Y-146112727D03*
D14*
X170579650Y-150282727D03*
X179219650Y-150282727D03*
D15*
X179219650Y-146112727D03*
%TD*%
D16*
%TO.C,R14*%
X147600000Y-64540000D03*
D17*
X147600000Y-54380000D03*
%TD*%
D11*
%TO.C,J1*%
X107810350Y-68310600D03*
X113590350Y-68310600D03*
D12*
X113900350Y-69370600D03*
X113100350Y-69370600D03*
D13*
X111950350Y-69370600D03*
X110950350Y-69370600D03*
X110450350Y-69370600D03*
X109450350Y-69370600D03*
D12*
X108300350Y-69370600D03*
X107500350Y-69370600D03*
X107500350Y-69370600D03*
X108300350Y-69370600D03*
D13*
X108950350Y-69370600D03*
X109950350Y-69370600D03*
X111450350Y-69370600D03*
X112450350Y-69370600D03*
D12*
X113100350Y-69370600D03*
X113900350Y-69370600D03*
D14*
X115020350Y-64620600D03*
D15*
X106380350Y-68790600D03*
X115020350Y-68790600D03*
D14*
X106380350Y-64620600D03*
%TD*%
D22*
%TO.C,D1*%
X102826150Y-63852000D03*
X104401150Y-63852000D03*
%TD*%
D31*
%TO.C,J8*%
X194565000Y-94125000D03*
D32*
X192025000Y-94125000D03*
X189485000Y-94125000D03*
%TD*%
D24*
%TO.C,U1*%
X111522455Y-83213503D03*
X112088140Y-82647817D03*
X112653826Y-82082132D03*
X113219511Y-81516447D03*
X113785197Y-80950761D03*
X114350882Y-80385076D03*
X114916567Y-79819390D03*
X115482253Y-79253705D03*
D25*
X115482253Y-77203095D03*
X114916567Y-76637410D03*
X114350882Y-76071724D03*
X113785197Y-75506039D03*
X113219511Y-74940353D03*
X112653826Y-74374668D03*
X112088140Y-73808983D03*
X111522455Y-73243297D03*
D24*
X109471845Y-73243297D03*
X108906160Y-73808983D03*
X108340474Y-74374668D03*
X107774789Y-74940353D03*
X107209103Y-75506039D03*
X106643418Y-76071724D03*
X106077733Y-76637410D03*
X105512047Y-77203095D03*
D25*
X105512047Y-79253705D03*
X106077733Y-79819390D03*
X106643418Y-80385076D03*
X107209103Y-80950761D03*
X107774789Y-81516447D03*
X108340474Y-82082132D03*
X108906160Y-82647817D03*
X109471845Y-83213503D03*
%TD*%
D22*
%TO.C,D3*%
X110540700Y-121259600D03*
X112115700Y-121259600D03*
%TD*%
D18*
%TO.C,REF\u002A\u002A*%
X186400000Y-149800000D03*
X184400000Y-150800000D03*
X184400000Y-146800000D03*
X184400000Y-147800000D03*
X186400000Y-147800000D03*
X184400000Y-145800000D03*
X184400000Y-149800000D03*
X186400000Y-145800000D03*
X186400000Y-148800000D03*
X184400000Y-148800000D03*
X186400000Y-146800000D03*
X186400000Y-150800000D03*
%TD*%
D37*
%TO.C,C3*%
X113098556Y-85101194D03*
X115007744Y-83192006D03*
%TD*%
D38*
%TO.C,R11*%
X198440000Y-124510000D03*
X198440000Y-123490000D03*
%TD*%
D20*
%TO.C,A1*%
X118421950Y-101977400D03*
D17*
X118421950Y-99437400D03*
X118421950Y-96897400D03*
X118421950Y-94357400D03*
X118421950Y-91817400D03*
X118421950Y-89277400D03*
X118421950Y-86737400D03*
X118421950Y-84197400D03*
X118421950Y-81657400D03*
X118421950Y-79117400D03*
X118421950Y-76577400D03*
X118421950Y-74037400D03*
X118421950Y-71497400D03*
X118421950Y-68957400D03*
X118421950Y-66417400D03*
X103181950Y-66417400D03*
X103181950Y-68957400D03*
X103181950Y-71497400D03*
X103181950Y-74037400D03*
X103181950Y-76577400D03*
X103181950Y-79117400D03*
X103181950Y-81657400D03*
X103181950Y-84197400D03*
X103181950Y-86737400D03*
X103181950Y-89277400D03*
X103181950Y-91817400D03*
X103181950Y-94357400D03*
X103181950Y-96897400D03*
X103181950Y-99437400D03*
X103181950Y-101977400D03*
%TD*%
D31*
%TO.C,J7*%
X194680000Y-120600000D03*
D32*
X192140000Y-120600000D03*
X189600000Y-120600000D03*
%TD*%
D30*
%TO.C,C6*%
X188640000Y-123425000D03*
X188640000Y-124975000D03*
%TD*%
D10*
%TO.C,D1*%
X182773850Y-151051327D03*
X181198850Y-151051327D03*
%TD*%
D22*
%TO.C,D1*%
X166829400Y-63925727D03*
X168404400Y-63925727D03*
%TD*%
D10*
%TO.C,D1*%
X118770600Y-150977600D03*
X117195600Y-150977600D03*
%TD*%
D31*
%TO.C,J2*%
X113468950Y-101215400D03*
D32*
X113468950Y-103755400D03*
X110928950Y-101215400D03*
X110928950Y-103755400D03*
X108388950Y-101215400D03*
X108388950Y-103755400D03*
%TD*%
D11*
%TO.C,J1*%
X108006400Y-146519000D03*
X113786400Y-146519000D03*
D12*
X107696400Y-145459000D03*
X108496400Y-145459000D03*
D13*
X109646400Y-145459000D03*
X110646400Y-145459000D03*
X111146400Y-145459000D03*
X112146400Y-145459000D03*
D12*
X113296400Y-145459000D03*
X114096400Y-145459000D03*
X114096400Y-145459000D03*
X113296400Y-145459000D03*
D13*
X112646400Y-145459000D03*
X111646400Y-145459000D03*
X110146400Y-145459000D03*
X109146400Y-145459000D03*
D12*
X108496400Y-145459000D03*
X107696400Y-145459000D03*
D15*
X106576400Y-146039000D03*
D14*
X115216400Y-150209000D03*
X106576400Y-150209000D03*
D15*
X115216400Y-146039000D03*
%TD*%
D31*
%TO.C,J2*%
X177472200Y-101289127D03*
D32*
X177472200Y-103829127D03*
X174932200Y-101289127D03*
X174932200Y-103829127D03*
X172392200Y-101289127D03*
X172392200Y-103829127D03*
%TD*%
D31*
%TO.C,J2*%
X172131050Y-113687927D03*
D32*
X172131050Y-111147927D03*
X174671050Y-113687927D03*
X174671050Y-111147927D03*
X177211050Y-113687927D03*
X177211050Y-111147927D03*
%TD*%
D39*
%TO.C,J3*%
X148229400Y-146557200D03*
D40*
X153309400Y-146557200D03*
%TD*%
D21*
%TO.C,R10*%
X128090000Y-62760000D03*
X129110000Y-62760000D03*
%TD*%
D31*
%TO.C,MES1*%
X155473800Y-134243400D03*
D32*
X155473800Y-131703400D03*
%TD*%
D18*
%TO.C,REF\u002A\u002A*%
X122400000Y-75500000D03*
X120400000Y-74500000D03*
X122400000Y-72500000D03*
X120400000Y-75500000D03*
X120400000Y-70500000D03*
X122400000Y-74500000D03*
X120400000Y-72500000D03*
X122400000Y-71500000D03*
X122400000Y-70500000D03*
X122400000Y-73500000D03*
X120400000Y-73500000D03*
X120400000Y-71500000D03*
%TD*%
D16*
%TO.C,R13*%
X198620000Y-73000000D03*
D17*
X188460000Y-73000000D03*
%TD*%
D18*
%TO.C,REF\u002A\u002A*%
X125400000Y-66500000D03*
X127400000Y-66500000D03*
X124400000Y-66500000D03*
X128400000Y-66500000D03*
X127400000Y-68500000D03*
X125400000Y-68500000D03*
X124400000Y-68500000D03*
X126400000Y-66500000D03*
X128400000Y-68500000D03*
X129400000Y-68500000D03*
X129400000Y-66500000D03*
X126400000Y-68500000D03*
%TD*%
D34*
%TO.C,C2*%
X115269016Y-141067784D03*
X114173000Y-142163800D03*
%TD*%
D18*
%TO.C,REF\u002A\u002A*%
X120400000Y-147700000D03*
X120400000Y-145700000D03*
X122400000Y-145700000D03*
X122400000Y-148700000D03*
X122400000Y-150700000D03*
X120400000Y-146700000D03*
X120400000Y-148700000D03*
X120400000Y-150700000D03*
X122400000Y-149700000D03*
X120400000Y-149700000D03*
X122400000Y-147700000D03*
X122400000Y-146700000D03*
%TD*%
D20*
%TO.C,A1*%
X103174800Y-112852200D03*
D17*
X103174800Y-115392200D03*
X103174800Y-117932200D03*
X103174800Y-120472200D03*
X103174800Y-123012200D03*
X103174800Y-125552200D03*
X103174800Y-128092200D03*
X103174800Y-130632200D03*
X103174800Y-133172200D03*
X103174800Y-135712200D03*
X103174800Y-138252200D03*
X103174800Y-140792200D03*
X103174800Y-143332200D03*
X103174800Y-145872200D03*
X103174800Y-148412200D03*
X118414800Y-148412200D03*
X118414800Y-145872200D03*
X118414800Y-143332200D03*
X118414800Y-140792200D03*
X118414800Y-138252200D03*
X118414800Y-135712200D03*
X118414800Y-133172200D03*
X118414800Y-130632200D03*
X118414800Y-128092200D03*
X118414800Y-125552200D03*
X118414800Y-123012200D03*
X118414800Y-120472200D03*
X118414800Y-117932200D03*
X118414800Y-115392200D03*
X118414800Y-112852200D03*
%TD*%
D19*
%TO.C,SW1*%
X178698050Y-118488527D03*
X170898050Y-118488527D03*
%TD*%
D37*
%TO.C,C3*%
X177101806Y-85174921D03*
X179010994Y-83265733D03*
%TD*%
D20*
%TO.C,U5*%
X196740000Y-132000000D03*
D17*
X194200000Y-132000000D03*
X191660000Y-132000000D03*
X189120000Y-132000000D03*
X189120000Y-139620000D03*
X191660000Y-139620000D03*
X194200000Y-139620000D03*
X196740000Y-139620000D03*
%TD*%
D36*
%TO.C,R11*%
X129110000Y-54460000D03*
X128090000Y-54460000D03*
%TD*%
D23*
%TO.C,R12*%
X195440000Y-123490000D03*
X195440000Y-124510000D03*
%TD*%
D41*
%TO.C,SW2*%
X129209800Y-137312400D03*
D42*
X129209800Y-132612400D03*
X129209800Y-127912400D03*
D43*
X127609800Y-140512400D03*
X130809800Y-140512400D03*
X127609800Y-124712400D03*
X130809800Y-124712400D03*
%TD*%
D16*
%TO.C,R14*%
X188360000Y-87400000D03*
D17*
X198520000Y-87400000D03*
%TD*%
D19*
%TO.C,SW1*%
X106901950Y-96414800D03*
X114701950Y-96414800D03*
%TD*%
D18*
%TO.C,REF\u002A\u002A*%
X165200000Y-70500000D03*
X163200000Y-75500000D03*
X163200000Y-74500000D03*
X163200000Y-73500000D03*
X165200000Y-75500000D03*
X163200000Y-71500000D03*
X165200000Y-72500000D03*
X165200000Y-71500000D03*
X163200000Y-70500000D03*
X163200000Y-72500000D03*
X165200000Y-73500000D03*
X165200000Y-74500000D03*
%TD*%
D38*
%TO.C,R11*%
X198440000Y-68910000D03*
X198440000Y-67890000D03*
%TD*%
D18*
%TO.C,REF\u002A\u002A*%
X184400000Y-67200000D03*
X186400000Y-67200000D03*
X186400000Y-64200000D03*
X184400000Y-68200000D03*
X186400000Y-68200000D03*
X186400000Y-69200000D03*
X184400000Y-66200000D03*
X186400000Y-66200000D03*
X184400000Y-64200000D03*
X184400000Y-65200000D03*
X186400000Y-65200000D03*
X184400000Y-69200000D03*
%TD*%
%TO.C,REF\u002A\u002A*%
X184400000Y-123800000D03*
X186400000Y-124800000D03*
X184400000Y-119800000D03*
X184400000Y-124800000D03*
X184400000Y-122800000D03*
X186400000Y-119800000D03*
X184400000Y-120800000D03*
X186400000Y-123800000D03*
X186400000Y-122800000D03*
X186400000Y-121800000D03*
X186400000Y-120800000D03*
X184400000Y-121800000D03*
%TD*%
D44*
%TO.C,U1*%
X110074295Y-131616097D03*
X109508610Y-132181783D03*
X108942924Y-132747468D03*
X108377239Y-133313153D03*
X107811553Y-133878839D03*
X107245868Y-134444524D03*
X106680183Y-135010210D03*
X106114497Y-135575895D03*
D45*
X106114497Y-137626505D03*
X106680183Y-138192190D03*
X107245868Y-138757876D03*
X107811553Y-139323561D03*
X108377239Y-139889247D03*
X108942924Y-140454932D03*
X109508610Y-141020617D03*
X110074295Y-141586303D03*
D44*
X112124905Y-141586303D03*
X112690590Y-141020617D03*
X113256276Y-140454932D03*
X113821961Y-139889247D03*
X114387647Y-139323561D03*
X114953332Y-138757876D03*
X115519017Y-138192190D03*
X116084703Y-137626505D03*
D45*
X116084703Y-135575895D03*
X115519017Y-135010210D03*
X114953332Y-134444524D03*
X114387647Y-133878839D03*
X113821961Y-133313153D03*
X113256276Y-132747468D03*
X112690590Y-132181783D03*
X112124905Y-131616097D03*
%TD*%
D31*
%TO.C,J8*%
X154325000Y-58335000D03*
D32*
X154325000Y-60875000D03*
X154325000Y-63415000D03*
%TD*%
D46*
%TO.C,J5*%
X159395800Y-96409000D03*
D47*
X156895800Y-96409000D03*
X154395800Y-96409000D03*
%TD*%
D10*
%TO.C,D3*%
X175059300Y-93643727D03*
X173484300Y-93643727D03*
%TD*%
D18*
%TO.C,REF\u002A\u002A*%
X120400000Y-103800000D03*
X120400000Y-101800000D03*
X122400000Y-103800000D03*
X122400000Y-98800000D03*
X122400000Y-102800000D03*
X122400000Y-99800000D03*
X122400000Y-100800000D03*
X120400000Y-99800000D03*
X120400000Y-98800000D03*
X120400000Y-100800000D03*
X120400000Y-102800000D03*
X122400000Y-101800000D03*
%TD*%
D31*
%TO.C,J7*%
X194680000Y-65000000D03*
D32*
X192140000Y-65000000D03*
X189600000Y-65000000D03*
%TD*%
D36*
%TO.C,R7*%
X115292600Y-121081800D03*
X114272600Y-121081800D03*
%TD*%
D39*
%TO.C,J4*%
X136951800Y-146557200D03*
D40*
X142031800Y-146557200D03*
%TD*%
D22*
%TO.C,D4*%
X146964300Y-135635000D03*
X148539300Y-135635000D03*
%TD*%
D31*
%TO.C,J2*%
X108127800Y-113614200D03*
D32*
X108127800Y-111074200D03*
X110667800Y-113614200D03*
X110667800Y-111074200D03*
X113207800Y-113614200D03*
X113207800Y-111074200D03*
%TD*%
D44*
%TO.C,U1*%
X174077545Y-131689824D03*
X173511860Y-132255510D03*
X172946174Y-132821195D03*
X172380489Y-133386880D03*
X171814803Y-133952566D03*
X171249118Y-134518251D03*
X170683433Y-135083937D03*
X170117747Y-135649622D03*
D45*
X170117747Y-137700232D03*
X170683433Y-138265917D03*
X171249118Y-138831603D03*
X171814803Y-139397288D03*
X172380489Y-139962974D03*
X172946174Y-140528659D03*
X173511860Y-141094344D03*
X174077545Y-141660030D03*
D44*
X176128155Y-141660030D03*
X176693840Y-141094344D03*
X177259526Y-140528659D03*
X177825211Y-139962974D03*
X178390897Y-139397288D03*
X178956582Y-138831603D03*
X179522267Y-138265917D03*
X180087953Y-137700232D03*
D45*
X180087953Y-135649622D03*
X179522267Y-135083937D03*
X178956582Y-134518251D03*
X178390897Y-133952566D03*
X177825211Y-133386880D03*
X177259526Y-132821195D03*
X176693840Y-132255510D03*
X176128155Y-131689824D03*
%TD*%
D36*
%TO.C,R7*%
X179295850Y-121155527D03*
X178275850Y-121155527D03*
%TD*%
%TO.C,R9*%
X150852600Y-135635000D03*
X149832600Y-135635000D03*
%TD*%
D16*
%TO.C,R14*%
X188360000Y-143000000D03*
D17*
X198520000Y-143000000D03*
%TD*%
M02*
