M48
; DRILL file {KiCad (6.0.1)} date Mon Apr  4 10:53:39 2022
; FORMAT={-:-/ absolute / inch / decimal}
; #@! TF.CreationDate,2022-04-04T10:53:39-04:00
; #@! TF.GenerationSoftware,Kicad,Pcbnew,(6.0.1)
; #@! TF.FileFunction,NonPlated,1,2,NPTH
FMAT,2
INCH
; #@! TA.AperFunction,NonPlated,NPTH,ComponentDrill
T1C0.0236
; #@! TA.AperFunction,NonPlated,NPTH,ComponentDrill
T2C0.0315
%
G90
G05
T1
X4.2445Y-2.6894
X4.2522Y-5.7685
X4.4721Y-2.6894
X4.4798Y-5.7685
X6.7643Y-2.6923
X6.772Y-5.7714
X6.9919Y-2.6923
X6.9996Y-5.7714
T2
X4.2402Y-4.189
X4.2402Y-4.2677
X4.2795Y-4.189
X4.2795Y-4.2677
X4.3189Y-4.189
X4.3189Y-4.2677
X4.3583Y-4.189
X4.3583Y-4.2677
X4.3976Y-4.189
X4.3976Y-4.2677
X4.437Y-4.189
X4.437Y-4.2677
X4.7402Y-2.7756
X4.7402Y-2.815
X4.7402Y-2.8543
X4.7402Y-2.8937
X4.7402Y-2.9331
X4.7402Y-2.9724
X4.7402Y-3.8898
X4.7402Y-3.9291
X4.7402Y-3.9685
X4.7402Y-4.0079
X4.7402Y-4.0472
X4.7402Y-4.0866
X4.7402Y-4.3465
X4.7402Y-4.3858
X4.7402Y-4.4252
X4.7402Y-4.4646
X4.7402Y-4.5039
X4.7402Y-4.5433
X4.7402Y-5.7362
X4.7402Y-5.7756
X4.7402Y-5.815
X4.7402Y-5.8543
X4.7402Y-5.8937
X4.7402Y-5.9331
X4.8189Y-2.7756
X4.8189Y-2.815
X4.8189Y-2.8543
X4.8189Y-2.8937
X4.8189Y-2.9331
X4.8189Y-2.9724
X4.8189Y-3.8898
X4.8189Y-3.9291
X4.8189Y-3.9685
X4.8189Y-4.0079
X4.8189Y-4.0472
X4.8189Y-4.0866
X4.8189Y-4.3465
X4.8189Y-4.3858
X4.8189Y-4.4252
X4.8189Y-4.4646
X4.8189Y-4.5039
X4.8189Y-4.5433
X4.8189Y-5.7362
X4.8189Y-5.7756
X4.8189Y-5.815
X4.8189Y-5.8543
X4.8189Y-5.8937
X4.8189Y-5.9331
X4.8976Y-2.6181
X4.8976Y-2.6969
X4.937Y-2.6181
X4.937Y-2.6969
X4.9764Y-2.6181
X4.9764Y-2.6969
X5.0157Y-2.6181
X5.0157Y-2.6969
X5.0551Y-2.6181
X5.0551Y-2.6969
X5.0945Y-2.6181
X5.0945Y-2.6969
X5.9213Y-2.6181
X5.9213Y-2.6969
X5.9606Y-2.6181
X5.9606Y-2.6969
X6.0Y-2.6181
X6.0Y-2.6969
X6.0394Y-2.6181
X6.0394Y-2.6969
X6.0787Y-2.6181
X6.0787Y-2.6969
X6.1181Y-2.6181
X6.1181Y-2.6969
X6.4252Y-2.7756
X6.4252Y-2.815
X6.4252Y-2.8543
X6.4252Y-2.8937
X6.4252Y-2.9331
X6.4252Y-2.9724
X6.4252Y-3.9175
X6.4252Y-3.9568
X6.4252Y-3.9962
X6.4252Y-4.0356
X6.4252Y-4.0749
X6.4252Y-4.1143
X6.4252Y-4.3741
X6.4252Y-4.4135
X6.4252Y-4.4529
X6.4252Y-4.4923
X6.4252Y-4.5316
X6.4252Y-4.571
X6.4252Y-5.4883
X6.4252Y-5.5277
X6.4252Y-5.5671
X6.4252Y-5.6064
X6.4252Y-5.6458
X6.4252Y-5.6852
X6.5039Y-2.7756
X6.5039Y-2.815
X6.5039Y-2.8543
X6.5039Y-2.8937
X6.5039Y-2.9331
X6.5039Y-2.9724
X6.5039Y-3.9175
X6.5039Y-3.9568
X6.5039Y-3.9962
X6.5039Y-4.0356
X6.5039Y-4.0749
X6.5039Y-4.1143
X6.5039Y-4.3741
X6.5039Y-4.4135
X6.5039Y-4.4529
X6.5039Y-4.4923
X6.5039Y-4.5316
X6.5039Y-4.571
X6.5039Y-5.4883
X6.5039Y-5.5277
X6.5039Y-5.5671
X6.5039Y-5.6064
X6.5039Y-5.6458
X6.5039Y-5.6852
X6.8071Y-4.193
X6.8071Y-4.2718
X6.8465Y-4.193
X6.8465Y-4.2718
X6.8858Y-4.193
X6.8858Y-4.2718
X6.9252Y-4.193
X6.9252Y-4.2718
X6.9646Y-4.193
X6.9646Y-4.2718
X7.0039Y-4.193
X7.0039Y-4.2718
X7.2598Y-2.5276
X7.2598Y-2.5669
X7.2598Y-2.6063
X7.2598Y-2.6457
X7.2598Y-2.685
X7.2598Y-2.7244
X7.2598Y-3.5512
X7.2598Y-3.5906
X7.2598Y-3.6299
X7.2598Y-3.6693
X7.2598Y-3.7087
X7.2598Y-3.748
X7.2598Y-4.7165
X7.2598Y-4.7559
X7.2598Y-4.7953
X7.2598Y-4.8346
X7.2598Y-4.874
X7.2598Y-4.9134
X7.2598Y-5.7402
X7.2598Y-5.7795
X7.2598Y-5.8189
X7.2598Y-5.8583
X7.2598Y-5.8976
X7.2598Y-5.937
X7.3386Y-2.5276
X7.3386Y-2.5669
X7.3386Y-2.6063
X7.3386Y-2.6457
X7.3386Y-2.685
X7.3386Y-2.7244
X7.3386Y-3.5512
X7.3386Y-3.5906
X7.3386Y-3.6299
X7.3386Y-3.6693
X7.3386Y-3.7087
X7.3386Y-3.748
X7.3386Y-4.7165
X7.3386Y-4.7559
X7.3386Y-4.7953
X7.3386Y-4.8346
X7.3386Y-4.874
X7.3386Y-4.9134
X7.3386Y-5.7402
X7.3386Y-5.7795
X7.3386Y-5.8189
X7.3386Y-5.8583
X7.3386Y-5.8976
X7.3386Y-5.937
T0
M30
