%TF.GenerationSoftware,KiCad,Pcbnew,(6.0.1)*%
%TF.CreationDate,2022-04-04T10:53:51-04:00*%
%TF.ProjectId,arduino_usb_c,61726475-696e-46f5-9f75-73625f632e6b,rev?*%
%TF.SameCoordinates,Original*%
%TF.FileFunction,Paste,Bot*%
%TF.FilePolarity,Positive*%
%FSLAX46Y46*%
G04 Gerber Fmt 4.6, Leading zero omitted, Abs format (unit mm)*
G04 Created by KiCad (PCBNEW (6.0.1)) date 2022-04-04 10:53:51*
%MOMM*%
%LPD*%
G01*
G04 APERTURE LIST*
G04 Aperture macros list*
%AMRoundRect*
0 Rectangle with rounded corners*
0 $1 Rounding radius*
0 $2 $3 $4 $5 $6 $7 $8 $9 X,Y pos of 4 corners*
0 Add a 4 corners polygon primitive as box body*
4,1,4,$2,$3,$4,$5,$6,$7,$8,$9,$2,$3,0*
0 Add four circle primitives for the rounded corners*
1,1,$1+$1,$2,$3*
1,1,$1+$1,$4,$5*
1,1,$1+$1,$6,$7*
1,1,$1+$1,$8,$9*
0 Add four rect primitives between the rounded corners*
20,1,$1+$1,$2,$3,$4,$5,0*
20,1,$1+$1,$4,$5,$6,$7,0*
20,1,$1+$1,$6,$7,$8,$9,0*
20,1,$1+$1,$8,$9,$2,$3,0*%
G04 Aperture macros list end*
%ADD10RoundRect,0.225000X0.250000X-0.225000X0.250000X0.225000X-0.250000X0.225000X-0.250000X-0.225000X0*%
%ADD11R,1.800000X2.500000*%
%ADD12RoundRect,0.225000X0.225000X0.250000X-0.225000X0.250000X-0.225000X-0.250000X0.225000X-0.250000X0*%
%ADD13RoundRect,0.135000X-0.185000X0.135000X-0.185000X-0.135000X0.185000X-0.135000X0.185000X0.135000X0*%
%ADD14RoundRect,0.135000X0.135000X0.185000X-0.135000X0.185000X-0.135000X-0.185000X0.135000X-0.185000X0*%
%ADD15R,1.500000X2.000000*%
%ADD16R,3.800000X2.000000*%
%ADD17RoundRect,0.135000X0.185000X-0.135000X0.185000X0.135000X-0.185000X0.135000X-0.185000X-0.135000X0*%
%ADD18RoundRect,0.250000X0.425000X-0.450000X0.425000X0.450000X-0.425000X0.450000X-0.425000X-0.450000X0*%
%ADD19R,1.900000X0.400000*%
%ADD20RoundRect,0.225000X-0.250000X0.225000X-0.250000X-0.225000X0.250000X-0.225000X0.250000X0.225000X0*%
%ADD21RoundRect,0.225000X-0.225000X-0.250000X0.225000X-0.250000X0.225000X0.250000X-0.225000X0.250000X0*%
%ADD22RoundRect,0.135000X-0.135000X-0.185000X0.135000X-0.185000X0.135000X0.185000X-0.135000X0.185000X0*%
%ADD23RoundRect,0.150000X0.825000X0.150000X-0.825000X0.150000X-0.825000X-0.150000X0.825000X-0.150000X0*%
%ADD24RoundRect,0.250000X-0.425000X0.450000X-0.425000X-0.450000X0.425000X-0.450000X0.425000X0.450000X0*%
%ADD25RoundRect,0.150000X-0.825000X-0.150000X0.825000X-0.150000X0.825000X0.150000X-0.825000X0.150000X0*%
G04 APERTURE END LIST*
D10*
%TO.C,C5*%
X105213950Y-83677000D03*
X105213950Y-82127000D03*
%TD*%
D11*
%TO.C,D2*%
X115062000Y-138722600D03*
X115062000Y-142722600D03*
%TD*%
D12*
%TO.C,C4*%
X114834000Y-136321800D03*
X113284000Y-136321800D03*
%TD*%
%TO.C,C1*%
X176296650Y-138097327D03*
X174746650Y-138097327D03*
%TD*%
D13*
%TO.C,R2*%
X178920000Y-78376327D03*
X178920000Y-79396327D03*
%TD*%
D14*
%TO.C,R4*%
X182468950Y-151025927D03*
X181448950Y-151025927D03*
%TD*%
D15*
%TO.C,U3*%
X174553800Y-98596727D03*
D16*
X172253800Y-92296727D03*
D15*
X172253800Y-98596727D03*
X169953800Y-98596727D03*
%TD*%
D17*
%TO.C,R2*%
X170683250Y-136600727D03*
X170683250Y-135580727D03*
%TD*%
D18*
%TO.C,C8*%
X174620250Y-143358927D03*
X174620250Y-140658927D03*
%TD*%
D17*
%TO.C,R6*%
X108719150Y-65962200D03*
X108719150Y-64942200D03*
%TD*%
%TO.C,R3*%
X169260850Y-136602727D03*
X169260850Y-135582727D03*
%TD*%
D19*
%TO.C,Y1*%
X169892650Y-134168127D03*
X169892650Y-132968127D03*
X169892650Y-131768127D03*
%TD*%
D13*
%TO.C,R6*%
X112877600Y-148867400D03*
X112877600Y-149887400D03*
%TD*%
D20*
%TO.C,C10*%
X176684800Y-92792527D03*
X176684800Y-94342527D03*
%TD*%
%TO.C,C9*%
X109100150Y-71319000D03*
X109100150Y-72869000D03*
%TD*%
D17*
%TO.C,R5*%
X112325950Y-65962200D03*
X112325950Y-64942200D03*
%TD*%
D21*
%TO.C,C4*%
X106762750Y-78507800D03*
X108312750Y-78507800D03*
%TD*%
D17*
%TO.C,R2*%
X106680000Y-136527000D03*
X106680000Y-135507000D03*
%TD*%
D11*
%TO.C,D2*%
X106534750Y-76107000D03*
X106534750Y-72107000D03*
%TD*%
D22*
%TO.C,R4*%
X167134300Y-63951127D03*
X168154300Y-63951127D03*
%TD*%
D13*
%TO.C,R3*%
X116339150Y-78300600D03*
X116339150Y-79320600D03*
%TD*%
D17*
%TO.C,R6*%
X172722400Y-66035927D03*
X172722400Y-65015927D03*
%TD*%
D10*
%TO.C,C9*%
X112496600Y-143510600D03*
X112496600Y-141960600D03*
%TD*%
D13*
%TO.C,R3*%
X180342400Y-78374327D03*
X180342400Y-79394327D03*
%TD*%
D18*
%TO.C,C8*%
X110617000Y-143285200D03*
X110617000Y-140585200D03*
%TD*%
D23*
%TO.C,U2*%
X112159350Y-80133400D03*
X112159350Y-81403400D03*
X112159350Y-82673400D03*
X112159350Y-83943400D03*
X112159350Y-85213400D03*
X112159350Y-86483400D03*
X112159350Y-87753400D03*
X112159350Y-89023400D03*
X107209350Y-89023400D03*
X107209350Y-87753400D03*
X107209350Y-86483400D03*
X107209350Y-85213400D03*
X107209350Y-83943400D03*
X107209350Y-82673400D03*
X107209350Y-81403400D03*
X107209350Y-80133400D03*
%TD*%
D24*
%TO.C,C8*%
X110979750Y-71544400D03*
X110979750Y-74244400D03*
%TD*%
D10*
%TO.C,C10*%
X172918450Y-122184527D03*
X172918450Y-120634527D03*
%TD*%
D17*
%TO.C,R5*%
X176329200Y-66035927D03*
X176329200Y-65015927D03*
%TD*%
D19*
%TO.C,Y1*%
X115707350Y-80735200D03*
X115707350Y-81935200D03*
X115707350Y-83135200D03*
%TD*%
D24*
%TO.C,C8*%
X174983000Y-71618127D03*
X174983000Y-74318127D03*
%TD*%
D11*
%TO.C,D2*%
X170538000Y-76180727D03*
X170538000Y-72180727D03*
%TD*%
D20*
%TO.C,C5*%
X180386050Y-131226327D03*
X180386050Y-132776327D03*
%TD*%
D17*
%TO.C,R1*%
X107010200Y-121617200D03*
X107010200Y-120597200D03*
%TD*%
D10*
%TO.C,C5*%
X169217200Y-83750727D03*
X169217200Y-82200727D03*
%TD*%
D17*
%TO.C,R1*%
X171013450Y-121690927D03*
X171013450Y-120670927D03*
%TD*%
D19*
%TO.C,Y1*%
X105889400Y-134094400D03*
X105889400Y-132894400D03*
X105889400Y-131694400D03*
%TD*%
D21*
%TO.C,C4*%
X170766000Y-78581527D03*
X172316000Y-78581527D03*
%TD*%
D13*
%TO.C,R6*%
X176880850Y-148941127D03*
X176880850Y-149961127D03*
%TD*%
D21*
%TO.C,C1*%
X109303350Y-76806000D03*
X110853350Y-76806000D03*
%TD*%
D15*
%TO.C,U3*%
X175049450Y-116380327D03*
X177349450Y-116380327D03*
D16*
X177349450Y-122680327D03*
D15*
X179649450Y-116380327D03*
%TD*%
D22*
%TO.C,R4*%
X103131050Y-63877400D03*
X104151050Y-63877400D03*
%TD*%
D10*
%TO.C,C10*%
X108915200Y-122110800D03*
X108915200Y-120560800D03*
%TD*%
D11*
%TO.C,D2*%
X179065250Y-138796327D03*
X179065250Y-142796327D03*
%TD*%
D15*
%TO.C,U3*%
X111046200Y-116306600D03*
D16*
X113346200Y-122606600D03*
D15*
X113346200Y-116306600D03*
X115646200Y-116306600D03*
%TD*%
D13*
%TO.C,R5*%
X109270800Y-148867400D03*
X109270800Y-149887400D03*
%TD*%
D10*
%TO.C,C9*%
X176499850Y-143584327D03*
X176499850Y-142034327D03*
%TD*%
D13*
%TO.C,R5*%
X173274050Y-148941127D03*
X173274050Y-149961127D03*
%TD*%
D17*
%TO.C,R3*%
X105257600Y-136529000D03*
X105257600Y-135509000D03*
%TD*%
D12*
%TO.C,C1*%
X112293400Y-138023600D03*
X110743400Y-138023600D03*
%TD*%
D14*
%TO.C,R4*%
X118465700Y-150952200D03*
X117445700Y-150952200D03*
%TD*%
D12*
%TO.C,C4*%
X178837250Y-136395527D03*
X177287250Y-136395527D03*
%TD*%
D10*
%TO.C,C7*%
X194140000Y-82175000D03*
X194140000Y-80625000D03*
%TD*%
D13*
%TO.C,R2*%
X114916750Y-78302600D03*
X114916750Y-79322600D03*
%TD*%
D20*
%TO.C,C9*%
X173103400Y-71392727D03*
X173103400Y-72942727D03*
%TD*%
D25*
%TO.C,U2*%
X109437400Y-134696200D03*
X109437400Y-133426200D03*
X109437400Y-132156200D03*
X109437400Y-130886200D03*
X109437400Y-129616200D03*
X109437400Y-128346200D03*
X109437400Y-127076200D03*
X109437400Y-125806200D03*
X114387400Y-125806200D03*
X114387400Y-127076200D03*
X114387400Y-128346200D03*
X114387400Y-129616200D03*
X114387400Y-130886200D03*
X114387400Y-132156200D03*
X114387400Y-133426200D03*
X114387400Y-134696200D03*
%TD*%
D12*
%TO.C,C7*%
X142375000Y-58760000D03*
X140825000Y-58760000D03*
%TD*%
D25*
%TO.C,U2*%
X173440650Y-134769927D03*
X173440650Y-133499927D03*
X173440650Y-132229927D03*
X173440650Y-130959927D03*
X173440650Y-129689927D03*
X173440650Y-128419927D03*
X173440650Y-127149927D03*
X173440650Y-125879927D03*
X178390650Y-125879927D03*
X178390650Y-127149927D03*
X178390650Y-128419927D03*
X178390650Y-129689927D03*
X178390650Y-130959927D03*
X178390650Y-132229927D03*
X178390650Y-133499927D03*
X178390650Y-134769927D03*
%TD*%
D21*
%TO.C,C1*%
X173306600Y-76879727D03*
X174856600Y-76879727D03*
%TD*%
D20*
%TO.C,C10*%
X112681550Y-92718800D03*
X112681550Y-94268800D03*
%TD*%
D10*
%TO.C,C7*%
X194140000Y-137775000D03*
X194140000Y-136225000D03*
%TD*%
D13*
%TO.C,R1*%
X114586550Y-93212400D03*
X114586550Y-94232400D03*
%TD*%
D20*
%TO.C,C5*%
X116382800Y-131152600D03*
X116382800Y-132702600D03*
%TD*%
D13*
%TO.C,R1*%
X178589800Y-93286127D03*
X178589800Y-94306127D03*
%TD*%
D19*
%TO.C,Y1*%
X179710600Y-80808927D03*
X179710600Y-82008927D03*
X179710600Y-83208927D03*
%TD*%
D15*
%TO.C,U3*%
X110550550Y-98523000D03*
D16*
X108250550Y-92223000D03*
D15*
X108250550Y-98523000D03*
X105950550Y-98523000D03*
%TD*%
D23*
%TO.C,U2*%
X176162600Y-80207127D03*
X176162600Y-81477127D03*
X176162600Y-82747127D03*
X176162600Y-84017127D03*
X176162600Y-85287127D03*
X176162600Y-86557127D03*
X176162600Y-87827127D03*
X176162600Y-89097127D03*
X171212600Y-89097127D03*
X171212600Y-87827127D03*
X171212600Y-86557127D03*
X171212600Y-85287127D03*
X171212600Y-84017127D03*
X171212600Y-82747127D03*
X171212600Y-81477127D03*
X171212600Y-80207127D03*
%TD*%
M02*
