%TF.GenerationSoftware,KiCad,Pcbnew,(6.0.1)*%
%TF.CreationDate,2022-03-17T15:17:59-04:00*%
%TF.ProjectId,2_679_PCB,325f3637-395f-4504-9342-2e6b69636164,rev?*%
%TF.SameCoordinates,Original*%
%TF.FileFunction,Profile,NP*%
%FSLAX46Y46*%
G04 Gerber Fmt 4.6, Leading zero omitted, Abs format (unit mm)*
G04 Created by KiCad (PCBNEW (6.0.1)) date 2022-03-17 15:17:59*
%MOMM*%
%LPD*%
G01*
G04 APERTURE LIST*
%TA.AperFunction,Profile*%
%ADD10C,0.100000*%
%TD*%
G04 APERTURE END LIST*
D10*
X193040000Y-73660000D02*
G75*
G03*
X193040000Y-76200000I0J-1270000D01*
G01*
X200660000Y-76200000D02*
G75*
G03*
X200660000Y-73660000I0J1270000D01*
G01*
X193040000Y-73660000D02*
X200660000Y-73660000D01*
X193040000Y-76200000D02*
X200660000Y-76200000D01*
X185420000Y-73660000D02*
X155194000Y-73660000D01*
X185420000Y-76200000D02*
G75*
G03*
X185420000Y-73660000I0J1270000D01*
G01*
X155194000Y-73660000D02*
G75*
G03*
X155194000Y-76200000I0J-1270000D01*
G01*
X155194000Y-76200000D02*
X185420000Y-76200000D01*
X188595000Y-59055000D02*
X188595000Y-71755000D01*
X191135000Y-59055000D02*
G75*
G03*
X188595000Y-59055000I-1270000J0D01*
G01*
X191135000Y-59055000D02*
X191135000Y-71755000D01*
X188595000Y-71755000D02*
G75*
G03*
X191135000Y-71755000I1270000J0D01*
G01*
X152400000Y-59182000D02*
G75*
G03*
X149860000Y-59182000I-1270000J0D01*
G01*
X149860000Y-59182000D02*
X149860000Y-71882000D01*
X152400000Y-59182000D02*
X152400000Y-71882000D01*
X149860000Y-71882000D02*
G75*
G03*
X152400000Y-71882000I1270000J0D01*
G01*
X147828000Y-76200000D02*
G75*
G03*
X147828000Y-73660000I0J1270000D01*
G01*
X128397000Y-73660000D02*
G75*
G03*
X128397000Y-76200000I0J-1270000D01*
G01*
X128397000Y-76200000D02*
X147828000Y-76200000D01*
X147828000Y-73660000D02*
X128397000Y-73660000D01*
X125984000Y-59436000D02*
X125984000Y-72136000D01*
X125984000Y-59436000D02*
G75*
G03*
X123444000Y-59436000I-1270000J0D01*
G01*
X123444000Y-72136000D02*
G75*
G03*
X125984000Y-72136000I1270000J0D01*
G01*
X123444000Y-59436000D02*
X123444000Y-72136000D01*
X103886000Y-76200000D02*
X120396000Y-76200000D01*
X120396000Y-73660000D02*
X103886000Y-73660000D01*
X103886000Y-73660000D02*
G75*
G03*
X103886000Y-76200000I0J-1270000D01*
G01*
X120396000Y-76200000D02*
G75*
G03*
X120396000Y-73660000I0J1270000D01*
G01*
X101701600Y-57150000D02*
X203301600Y-57150000D01*
X203301600Y-57150000D02*
X203301600Y-152400000D01*
X203301600Y-152400000D02*
X101701600Y-152400000D01*
X101701600Y-152400000D02*
X101701600Y-57150000D01*
M02*
