%TF.GenerationSoftware,KiCad,Pcbnew,(6.0.1)*%
%TF.CreationDate,2022-03-16T14:28:33-04:00*%
%TF.ProjectId,2_679_PCB,325f3637-395f-4504-9342-2e6b69636164,rev?*%
%TF.SameCoordinates,Original*%
%TF.FileFunction,Legend,Bot*%
%TF.FilePolarity,Positive*%
%FSLAX46Y46*%
G04 Gerber Fmt 4.6, Leading zero omitted, Abs format (unit mm)*
G04 Created by KiCad (PCBNEW (6.0.1)) date 2022-03-16 14:28:33*
%MOMM*%
%LPD*%
G01*
G04 APERTURE LIST*
%ADD10C,0.250000*%
%ADD11C,0.200000*%
%ADD12C,0.300000*%
%ADD13C,0.150000*%
%ADD14C,0.120000*%
G04 APERTURE END LIST*
D10*
X126430609Y-137892961D02*
X126287752Y-137940580D01*
X126049657Y-137940580D01*
X125954419Y-137892961D01*
X125906800Y-137845342D01*
X125859180Y-137750104D01*
X125859180Y-137654866D01*
X125906800Y-137559628D01*
X125954419Y-137512009D01*
X126049657Y-137464390D01*
X126240133Y-137416771D01*
X126335371Y-137369152D01*
X126382990Y-137321533D01*
X126430609Y-137226295D01*
X126430609Y-137131057D01*
X126382990Y-137035819D01*
X126335371Y-136988200D01*
X126240133Y-136940580D01*
X126002038Y-136940580D01*
X125859180Y-136988200D01*
X125430609Y-137273914D02*
X125430609Y-138273914D01*
X125430609Y-137321533D02*
X125335371Y-137273914D01*
X125144895Y-137273914D01*
X125049657Y-137321533D01*
X125002038Y-137369152D01*
X124954419Y-137464390D01*
X124954419Y-137750104D01*
X125002038Y-137845342D01*
X125049657Y-137892961D01*
X125144895Y-137940580D01*
X125335371Y-137940580D01*
X125430609Y-137892961D01*
X124144895Y-137892961D02*
X124240133Y-137940580D01*
X124430609Y-137940580D01*
X124525847Y-137892961D01*
X124573466Y-137797723D01*
X124573466Y-137416771D01*
X124525847Y-137321533D01*
X124430609Y-137273914D01*
X124240133Y-137273914D01*
X124144895Y-137321533D01*
X124097276Y-137416771D01*
X124097276Y-137512009D01*
X124573466Y-137607247D01*
X123240133Y-137892961D02*
X123335371Y-137940580D01*
X123525847Y-137940580D01*
X123621085Y-137892961D01*
X123668704Y-137845342D01*
X123716323Y-137750104D01*
X123716323Y-137464390D01*
X123668704Y-137369152D01*
X123621085Y-137321533D01*
X123525847Y-137273914D01*
X123335371Y-137273914D01*
X123240133Y-137321533D01*
X122811561Y-137940580D02*
X122811561Y-137273914D01*
X122811561Y-136940580D02*
X122859180Y-136988200D01*
X122811561Y-137035819D01*
X122763942Y-136988200D01*
X122811561Y-136940580D01*
X122811561Y-137035819D01*
X121906800Y-137940580D02*
X121906800Y-137416771D01*
X121954419Y-137321533D01*
X122049657Y-137273914D01*
X122240133Y-137273914D01*
X122335371Y-137321533D01*
X121906800Y-137892961D02*
X122002038Y-137940580D01*
X122240133Y-137940580D01*
X122335371Y-137892961D01*
X122382990Y-137797723D01*
X122382990Y-137702485D01*
X122335371Y-137607247D01*
X122240133Y-137559628D01*
X122002038Y-137559628D01*
X121906800Y-137512009D01*
X121287752Y-137940580D02*
X121382990Y-137892961D01*
X121430609Y-137797723D01*
X121430609Y-136940580D01*
X120144895Y-137273914D02*
X120144895Y-137940580D01*
X120144895Y-137369152D02*
X120097276Y-137321533D01*
X120002038Y-137273914D01*
X119859180Y-137273914D01*
X119763942Y-137321533D01*
X119716323Y-137416771D01*
X119716323Y-137940580D01*
X119097276Y-137940580D02*
X119192514Y-137892961D01*
X119240133Y-137845342D01*
X119287752Y-137750104D01*
X119287752Y-137464390D01*
X119240133Y-137369152D01*
X119192514Y-137321533D01*
X119097276Y-137273914D01*
X118954419Y-137273914D01*
X118859180Y-137321533D01*
X118811561Y-137369152D01*
X118763942Y-137464390D01*
X118763942Y-137750104D01*
X118811561Y-137845342D01*
X118859180Y-137892961D01*
X118954419Y-137940580D01*
X119097276Y-137940580D01*
X118478228Y-137273914D02*
X118097276Y-137273914D01*
X118335371Y-136940580D02*
X118335371Y-137797723D01*
X118287752Y-137892961D01*
X118192514Y-137940580D01*
X118097276Y-137940580D01*
X117382990Y-137892961D02*
X117478228Y-137940580D01*
X117668704Y-137940580D01*
X117763942Y-137892961D01*
X117811561Y-137797723D01*
X117811561Y-137416771D01*
X117763942Y-137321533D01*
X117668704Y-137273914D01*
X117478228Y-137273914D01*
X117382990Y-137321533D01*
X117335371Y-137416771D01*
X117335371Y-137512009D01*
X117811561Y-137607247D01*
X116287752Y-137273914D02*
X115906800Y-137273914D01*
X116144895Y-136940580D02*
X116144895Y-137797723D01*
X116097276Y-137892961D01*
X116002038Y-137940580D01*
X115906800Y-137940580D01*
X115430609Y-137940580D02*
X115525847Y-137892961D01*
X115573466Y-137845342D01*
X115621085Y-137750104D01*
X115621085Y-137464390D01*
X115573466Y-137369152D01*
X115525847Y-137321533D01*
X115430609Y-137273914D01*
X115287752Y-137273914D01*
X115192514Y-137321533D01*
X115144895Y-137369152D01*
X115097276Y-137464390D01*
X115097276Y-137750104D01*
X115144895Y-137845342D01*
X115192514Y-137892961D01*
X115287752Y-137940580D01*
X115430609Y-137940580D01*
X113906800Y-137940580D02*
X113906800Y-136940580D01*
X113668704Y-136940580D01*
X113525847Y-136988200D01*
X113430609Y-137083438D01*
X113382990Y-137178676D01*
X113335371Y-137369152D01*
X113335371Y-137512009D01*
X113382990Y-137702485D01*
X113430609Y-137797723D01*
X113525847Y-137892961D01*
X113668704Y-137940580D01*
X113906800Y-137940580D01*
X112478228Y-137940580D02*
X112478228Y-137416771D01*
X112525847Y-137321533D01*
X112621085Y-137273914D01*
X112811561Y-137273914D01*
X112906800Y-137321533D01*
X112478228Y-137892961D02*
X112573466Y-137940580D01*
X112811561Y-137940580D01*
X112906800Y-137892961D01*
X112954419Y-137797723D01*
X112954419Y-137702485D01*
X112906800Y-137607247D01*
X112811561Y-137559628D01*
X112573466Y-137559628D01*
X112478228Y-137512009D01*
X112002038Y-137273914D02*
X112002038Y-137940580D01*
X112002038Y-137369152D02*
X111954419Y-137321533D01*
X111859180Y-137273914D01*
X111716323Y-137273914D01*
X111621085Y-137321533D01*
X111573466Y-137416771D01*
X111573466Y-137940580D01*
X111097276Y-137273914D02*
X111097276Y-137940580D01*
X111097276Y-137369152D02*
X111049657Y-137321533D01*
X110954419Y-137273914D01*
X110811561Y-137273914D01*
X110716323Y-137321533D01*
X110668704Y-137416771D01*
X110668704Y-137940580D01*
X110287752Y-137273914D02*
X110049657Y-137940580D01*
X109811561Y-137273914D02*
X110049657Y-137940580D01*
X110144895Y-138178676D01*
X110192514Y-138226295D01*
X110287752Y-138273914D01*
X109430609Y-137845342D02*
X109382990Y-137892961D01*
X109430609Y-137940580D01*
X109478228Y-137892961D01*
X109430609Y-137845342D01*
X109430609Y-137940580D01*
X109430609Y-137321533D02*
X109382990Y-137369152D01*
X109430609Y-137416771D01*
X109478228Y-137369152D01*
X109430609Y-137321533D01*
X109430609Y-137416771D01*
X132121085Y-138550580D02*
X131549657Y-138550580D01*
X131835371Y-139550580D02*
X131835371Y-138550580D01*
X131216323Y-139550580D02*
X131216323Y-138550580D01*
X130787752Y-139550580D02*
X130787752Y-139026771D01*
X130835371Y-138931533D01*
X130930609Y-138883914D01*
X131073466Y-138883914D01*
X131168704Y-138931533D01*
X131216323Y-138979152D01*
X130311561Y-139550580D02*
X130311561Y-138883914D01*
X130311561Y-138550580D02*
X130359180Y-138598200D01*
X130311561Y-138645819D01*
X130263942Y-138598200D01*
X130311561Y-138550580D01*
X130311561Y-138645819D01*
X129882990Y-139502961D02*
X129787752Y-139550580D01*
X129597276Y-139550580D01*
X129502038Y-139502961D01*
X129454419Y-139407723D01*
X129454419Y-139360104D01*
X129502038Y-139264866D01*
X129597276Y-139217247D01*
X129740133Y-139217247D01*
X129835371Y-139169628D01*
X129882990Y-139074390D01*
X129882990Y-139026771D01*
X129835371Y-138931533D01*
X129740133Y-138883914D01*
X129597276Y-138883914D01*
X129502038Y-138931533D01*
X127835371Y-138883914D02*
X127835371Y-139550580D01*
X128263942Y-138883914D02*
X128263942Y-139407723D01*
X128216323Y-139502961D01*
X128121085Y-139550580D01*
X127978228Y-139550580D01*
X127882990Y-139502961D01*
X127835371Y-139455342D01*
X127406800Y-139502961D02*
X127311561Y-139550580D01*
X127121085Y-139550580D01*
X127025847Y-139502961D01*
X126978228Y-139407723D01*
X126978228Y-139360104D01*
X127025847Y-139264866D01*
X127121085Y-139217247D01*
X127263942Y-139217247D01*
X127359180Y-139169628D01*
X127406800Y-139074390D01*
X127406800Y-139026771D01*
X127359180Y-138931533D01*
X127263942Y-138883914D01*
X127121085Y-138883914D01*
X127025847Y-138931533D01*
X126168704Y-139502961D02*
X126263942Y-139550580D01*
X126454419Y-139550580D01*
X126549657Y-139502961D01*
X126597276Y-139407723D01*
X126597276Y-139026771D01*
X126549657Y-138931533D01*
X126454419Y-138883914D01*
X126263942Y-138883914D01*
X126168704Y-138931533D01*
X126121085Y-139026771D01*
X126121085Y-139122009D01*
X126597276Y-139217247D01*
X125740133Y-139502961D02*
X125644895Y-139550580D01*
X125454419Y-139550580D01*
X125359180Y-139502961D01*
X125311561Y-139407723D01*
X125311561Y-139360104D01*
X125359180Y-139264866D01*
X125454419Y-139217247D01*
X125597276Y-139217247D01*
X125692514Y-139169628D01*
X125740133Y-139074390D01*
X125740133Y-139026771D01*
X125692514Y-138931533D01*
X125597276Y-138883914D01*
X125454419Y-138883914D01*
X125359180Y-138931533D01*
X123692514Y-139550580D02*
X123692514Y-139026771D01*
X123740133Y-138931533D01*
X123835371Y-138883914D01*
X124025847Y-138883914D01*
X124121085Y-138931533D01*
X123692514Y-139502961D02*
X123787752Y-139550580D01*
X124025847Y-139550580D01*
X124121085Y-139502961D01*
X124168704Y-139407723D01*
X124168704Y-139312485D01*
X124121085Y-139217247D01*
X124025847Y-139169628D01*
X123787752Y-139169628D01*
X123692514Y-139122009D01*
X122502038Y-139502961D02*
X122359180Y-139550580D01*
X122121085Y-139550580D01*
X122025847Y-139502961D01*
X121978228Y-139455342D01*
X121930609Y-139360104D01*
X121930609Y-139264866D01*
X121978228Y-139169628D01*
X122025847Y-139122009D01*
X122121085Y-139074390D01*
X122311561Y-139026771D01*
X122406800Y-138979152D01*
X122454419Y-138931533D01*
X122502038Y-138836295D01*
X122502038Y-138741057D01*
X122454419Y-138645819D01*
X122406800Y-138598200D01*
X122311561Y-138550580D01*
X122073466Y-138550580D01*
X121930609Y-138598200D01*
X121502038Y-139550580D02*
X121502038Y-138550580D01*
X121121085Y-138550580D01*
X121025847Y-138598200D01*
X120978228Y-138645819D01*
X120930609Y-138741057D01*
X120930609Y-138883914D01*
X120978228Y-138979152D01*
X121025847Y-139026771D01*
X121121085Y-139074390D01*
X121502038Y-139074390D01*
X120597276Y-138550580D02*
X119930609Y-138550580D01*
X120359180Y-139550580D01*
X119121085Y-138550580D02*
X119311561Y-138550580D01*
X119406800Y-138598200D01*
X119454419Y-138645819D01*
X119549657Y-138788676D01*
X119597276Y-138979152D01*
X119597276Y-139360104D01*
X119549657Y-139455342D01*
X119502038Y-139502961D01*
X119406800Y-139550580D01*
X119216323Y-139550580D01*
X119121085Y-139502961D01*
X119073466Y-139455342D01*
X119025847Y-139360104D01*
X119025847Y-139122009D01*
X119073466Y-139026771D01*
X119121085Y-138979152D01*
X119216323Y-138931533D01*
X119406800Y-138931533D01*
X119502038Y-138979152D01*
X119549657Y-139026771D01*
X119597276Y-139122009D01*
X118121085Y-138550580D02*
X118597276Y-138550580D01*
X118644895Y-139026771D01*
X118597276Y-138979152D01*
X118502038Y-138931533D01*
X118263942Y-138931533D01*
X118168704Y-138979152D01*
X118121085Y-139026771D01*
X118073466Y-139122009D01*
X118073466Y-139360104D01*
X118121085Y-139455342D01*
X118168704Y-139502961D01*
X118263942Y-139550580D01*
X118502038Y-139550580D01*
X118597276Y-139502961D01*
X118644895Y-139455342D01*
X117692514Y-138645819D02*
X117644895Y-138598200D01*
X117549657Y-138550580D01*
X117311561Y-138550580D01*
X117216323Y-138598200D01*
X117168704Y-138645819D01*
X117121085Y-138741057D01*
X117121085Y-138836295D01*
X117168704Y-138979152D01*
X117740133Y-139550580D01*
X117121085Y-139550580D01*
X116692514Y-139026771D02*
X116359180Y-139026771D01*
X116216323Y-139550580D02*
X116692514Y-139550580D01*
X116692514Y-138550580D01*
X116216323Y-138550580D01*
X115216323Y-139550580D02*
X115549657Y-139074390D01*
X115787752Y-139550580D02*
X115787752Y-138550580D01*
X115406800Y-138550580D01*
X115311561Y-138598200D01*
X115263942Y-138645819D01*
X115216323Y-138741057D01*
X115216323Y-138883914D01*
X115263942Y-138979152D01*
X115311561Y-139026771D01*
X115406800Y-139074390D01*
X115787752Y-139074390D01*
X114787752Y-139169628D02*
X114025847Y-139169628D01*
X113073466Y-139550580D02*
X113549657Y-139550580D01*
X113549657Y-138550580D01*
X112025847Y-138502961D02*
X112882990Y-139788676D01*
X111835371Y-138550580D02*
X111263942Y-138550580D01*
X111549657Y-139550580D02*
X111549657Y-138550580D01*
X110359180Y-139550580D02*
X110692514Y-139074390D01*
X110930609Y-139550580D02*
X110930609Y-138550580D01*
X110549657Y-138550580D01*
X110454419Y-138598200D01*
X110406800Y-138645819D01*
X110359180Y-138741057D01*
X110359180Y-138883914D01*
X110406800Y-138979152D01*
X110454419Y-139026771D01*
X110549657Y-139074390D01*
X110930609Y-139074390D01*
X108835371Y-139026771D02*
X108692514Y-139074390D01*
X108644895Y-139122009D01*
X108597276Y-139217247D01*
X108597276Y-139360104D01*
X108644895Y-139455342D01*
X108692514Y-139502961D01*
X108787752Y-139550580D01*
X109168704Y-139550580D01*
X109168704Y-138550580D01*
X108835371Y-138550580D01*
X108740133Y-138598200D01*
X108692514Y-138645819D01*
X108644895Y-138741057D01*
X108644895Y-138836295D01*
X108692514Y-138931533D01*
X108740133Y-138979152D01*
X108835371Y-139026771D01*
X109168704Y-139026771D01*
X107740133Y-138883914D02*
X107740133Y-139550580D01*
X108168704Y-138883914D02*
X108168704Y-139407723D01*
X108121085Y-139502961D01*
X108025847Y-139550580D01*
X107882990Y-139550580D01*
X107787752Y-139502961D01*
X107740133Y-139455342D01*
X106835371Y-139502961D02*
X106930609Y-139550580D01*
X107121085Y-139550580D01*
X107216323Y-139502961D01*
X107263942Y-139455342D01*
X107311561Y-139360104D01*
X107311561Y-139074390D01*
X107263942Y-138979152D01*
X107216323Y-138931533D01*
X107121085Y-138883914D01*
X106930609Y-138883914D01*
X106835371Y-138931533D01*
X106406800Y-139550580D02*
X106406800Y-138550580D01*
X106311561Y-139169628D02*
X106025847Y-139550580D01*
X106025847Y-138883914D02*
X106406800Y-139264866D01*
X104835371Y-139550580D02*
X104835371Y-138550580D01*
X103787752Y-139455342D02*
X103835371Y-139502961D01*
X103978228Y-139550580D01*
X104073466Y-139550580D01*
X104216323Y-139502961D01*
X104311561Y-139407723D01*
X104359180Y-139312485D01*
X104406800Y-139122009D01*
X104406800Y-138979152D01*
X104359180Y-138788676D01*
X104311561Y-138693438D01*
X104216323Y-138598200D01*
X104073466Y-138550580D01*
X103978228Y-138550580D01*
X103835371Y-138598200D01*
X103787752Y-138645819D01*
X132954419Y-140684390D02*
X132954419Y-141160580D01*
X133287752Y-140160580D02*
X132954419Y-140684390D01*
X132621085Y-140160580D01*
X132144895Y-141160580D02*
X132240133Y-141112961D01*
X132287752Y-141065342D01*
X132335371Y-140970104D01*
X132335371Y-140684390D01*
X132287752Y-140589152D01*
X132240133Y-140541533D01*
X132144895Y-140493914D01*
X132002038Y-140493914D01*
X131906800Y-140541533D01*
X131859180Y-140589152D01*
X131811561Y-140684390D01*
X131811561Y-140970104D01*
X131859180Y-141065342D01*
X131906800Y-141112961D01*
X132002038Y-141160580D01*
X132144895Y-141160580D01*
X130954419Y-140493914D02*
X130954419Y-141160580D01*
X131382990Y-140493914D02*
X131382990Y-141017723D01*
X131335371Y-141112961D01*
X131240133Y-141160580D01*
X131097276Y-141160580D01*
X131002038Y-141112961D01*
X130954419Y-141065342D01*
X129287752Y-141112961D02*
X129382990Y-141160580D01*
X129573466Y-141160580D01*
X129668704Y-141112961D01*
X129716323Y-141065342D01*
X129763942Y-140970104D01*
X129763942Y-140684390D01*
X129716323Y-140589152D01*
X129668704Y-140541533D01*
X129573466Y-140493914D01*
X129382990Y-140493914D01*
X129287752Y-140541533D01*
X128430609Y-141160580D02*
X128430609Y-140636771D01*
X128478228Y-140541533D01*
X128573466Y-140493914D01*
X128763942Y-140493914D01*
X128859180Y-140541533D01*
X128430609Y-141112961D02*
X128525847Y-141160580D01*
X128763942Y-141160580D01*
X128859180Y-141112961D01*
X128906800Y-141017723D01*
X128906800Y-140922485D01*
X128859180Y-140827247D01*
X128763942Y-140779628D01*
X128525847Y-140779628D01*
X128430609Y-140732009D01*
X127954419Y-140493914D02*
X127954419Y-141160580D01*
X127954419Y-140589152D02*
X127906800Y-140541533D01*
X127811561Y-140493914D01*
X127668704Y-140493914D01*
X127573466Y-140541533D01*
X127525847Y-140636771D01*
X127525847Y-141160580D01*
X126335371Y-141112961D02*
X126240133Y-141160580D01*
X126049657Y-141160580D01*
X125954419Y-141112961D01*
X125906800Y-141017723D01*
X125906800Y-140970104D01*
X125954419Y-140874866D01*
X126049657Y-140827247D01*
X126192514Y-140827247D01*
X126287752Y-140779628D01*
X126335371Y-140684390D01*
X126335371Y-140636771D01*
X126287752Y-140541533D01*
X126192514Y-140493914D01*
X126049657Y-140493914D01*
X125954419Y-140541533D01*
X125621085Y-140493914D02*
X125240133Y-140493914D01*
X125478228Y-140160580D02*
X125478228Y-141017723D01*
X125430609Y-141112961D01*
X125335371Y-141160580D01*
X125240133Y-141160580D01*
X124478228Y-141160580D02*
X124478228Y-140636771D01*
X124525847Y-140541533D01*
X124621085Y-140493914D01*
X124811561Y-140493914D01*
X124906800Y-140541533D01*
X124478228Y-141112961D02*
X124573466Y-141160580D01*
X124811561Y-141160580D01*
X124906800Y-141112961D01*
X124954419Y-141017723D01*
X124954419Y-140922485D01*
X124906800Y-140827247D01*
X124811561Y-140779628D01*
X124573466Y-140779628D01*
X124478228Y-140732009D01*
X124002038Y-141160580D02*
X124002038Y-140493914D01*
X124002038Y-140684390D02*
X123954419Y-140589152D01*
X123906800Y-140541533D01*
X123811561Y-140493914D01*
X123716323Y-140493914D01*
X123002038Y-141112961D02*
X123097276Y-141160580D01*
X123287752Y-141160580D01*
X123382990Y-141112961D01*
X123430609Y-141017723D01*
X123430609Y-140636771D01*
X123382990Y-140541533D01*
X123287752Y-140493914D01*
X123097276Y-140493914D01*
X123002038Y-140541533D01*
X122954419Y-140636771D01*
X122954419Y-140732009D01*
X123430609Y-140827247D01*
X121335371Y-141160580D02*
X121335371Y-140636771D01*
X121382990Y-140541533D01*
X121478228Y-140493914D01*
X121668704Y-140493914D01*
X121763942Y-140541533D01*
X121335371Y-141112961D02*
X121430609Y-141160580D01*
X121668704Y-141160580D01*
X121763942Y-141112961D01*
X121811561Y-141017723D01*
X121811561Y-140922485D01*
X121763942Y-140827247D01*
X121668704Y-140779628D01*
X121430609Y-140779628D01*
X121335371Y-140732009D01*
X121002038Y-140493914D02*
X120621085Y-140493914D01*
X120859180Y-140160580D02*
X120859180Y-141017723D01*
X120811561Y-141112961D01*
X120716323Y-141160580D01*
X120621085Y-141160580D01*
X119525847Y-141160580D02*
X119525847Y-140493914D01*
X119525847Y-140589152D02*
X119478228Y-140541533D01*
X119382990Y-140493914D01*
X119240133Y-140493914D01*
X119144895Y-140541533D01*
X119097276Y-140636771D01*
X119097276Y-141160580D01*
X119097276Y-140636771D02*
X119049657Y-140541533D01*
X118954419Y-140493914D01*
X118811561Y-140493914D01*
X118716323Y-140541533D01*
X118668704Y-140636771D01*
X118668704Y-141160580D01*
X118287752Y-140493914D02*
X118049657Y-141160580D01*
X117811561Y-140493914D02*
X118049657Y-141160580D01*
X118144895Y-141398676D01*
X118192514Y-141446295D01*
X118287752Y-141493914D01*
X116668704Y-141160580D02*
X116668704Y-140160580D01*
X116668704Y-140541533D02*
X116573466Y-140493914D01*
X116382990Y-140493914D01*
X116287752Y-140541533D01*
X116240133Y-140589152D01*
X116192514Y-140684390D01*
X116192514Y-140970104D01*
X116240133Y-141065342D01*
X116287752Y-141112961D01*
X116382990Y-141160580D01*
X116573466Y-141160580D01*
X116668704Y-141112961D01*
X115621085Y-141160580D02*
X115716323Y-141112961D01*
X115763942Y-141065342D01*
X115811561Y-140970104D01*
X115811561Y-140684390D01*
X115763942Y-140589152D01*
X115716323Y-140541533D01*
X115621085Y-140493914D01*
X115478228Y-140493914D01*
X115382990Y-140541533D01*
X115335371Y-140589152D01*
X115287752Y-140684390D01*
X115287752Y-140970104D01*
X115335371Y-141065342D01*
X115382990Y-141112961D01*
X115478228Y-141160580D01*
X115621085Y-141160580D01*
X114430609Y-141160580D02*
X114430609Y-140636771D01*
X114478228Y-140541533D01*
X114573466Y-140493914D01*
X114763942Y-140493914D01*
X114859180Y-140541533D01*
X114430609Y-141112961D02*
X114525847Y-141160580D01*
X114763942Y-141160580D01*
X114859180Y-141112961D01*
X114906800Y-141017723D01*
X114906800Y-140922485D01*
X114859180Y-140827247D01*
X114763942Y-140779628D01*
X114525847Y-140779628D01*
X114430609Y-140732009D01*
X113954419Y-141160580D02*
X113954419Y-140493914D01*
X113954419Y-140684390D02*
X113906800Y-140589152D01*
X113859180Y-140541533D01*
X113763942Y-140493914D01*
X113668704Y-140493914D01*
X112906800Y-141160580D02*
X112906800Y-140160580D01*
X112906800Y-141112961D02*
X113002038Y-141160580D01*
X113192514Y-141160580D01*
X113287752Y-141112961D01*
X113335371Y-141065342D01*
X113382990Y-140970104D01*
X113382990Y-140684390D01*
X113335371Y-140589152D01*
X113287752Y-140541533D01*
X113192514Y-140493914D01*
X113002038Y-140493914D01*
X112906800Y-140541533D01*
X111240133Y-141160580D02*
X111240133Y-140636771D01*
X111287752Y-140541533D01*
X111382990Y-140493914D01*
X111573466Y-140493914D01*
X111668704Y-140541533D01*
X111240133Y-141112961D02*
X111335371Y-141160580D01*
X111573466Y-141160580D01*
X111668704Y-141112961D01*
X111716323Y-141017723D01*
X111716323Y-140922485D01*
X111668704Y-140827247D01*
X111573466Y-140779628D01*
X111335371Y-140779628D01*
X111240133Y-140732009D01*
X110621085Y-141160580D02*
X110716323Y-141112961D01*
X110763942Y-141017723D01*
X110763942Y-140160580D01*
X110097276Y-141160580D02*
X110192514Y-141112961D01*
X110240133Y-141017723D01*
X110240133Y-140160580D01*
X109049657Y-140493914D02*
X108811561Y-141160580D01*
X108573466Y-140493914D02*
X108811561Y-141160580D01*
X108906800Y-141398676D01*
X108954419Y-141446295D01*
X109049657Y-141493914D01*
X108049657Y-141160580D02*
X108144895Y-141112961D01*
X108192514Y-141065342D01*
X108240133Y-140970104D01*
X108240133Y-140684390D01*
X108192514Y-140589152D01*
X108144895Y-140541533D01*
X108049657Y-140493914D01*
X107906800Y-140493914D01*
X107811561Y-140541533D01*
X107763942Y-140589152D01*
X107716323Y-140684390D01*
X107716323Y-140970104D01*
X107763942Y-141065342D01*
X107811561Y-141112961D01*
X107906800Y-141160580D01*
X108049657Y-141160580D01*
X106859180Y-140493914D02*
X106859180Y-141160580D01*
X107287752Y-140493914D02*
X107287752Y-141017723D01*
X107240133Y-141112961D01*
X107144895Y-141160580D01*
X107002038Y-141160580D01*
X106906800Y-141112961D01*
X106859180Y-141065342D01*
X105716323Y-140493914D02*
X105525847Y-141160580D01*
X105335371Y-140684390D01*
X105144895Y-141160580D01*
X104954419Y-140493914D01*
X104144895Y-141160580D02*
X104144895Y-140636771D01*
X104192514Y-140541533D01*
X104287752Y-140493914D01*
X104478228Y-140493914D01*
X104573466Y-140541533D01*
X104144895Y-141112961D02*
X104240133Y-141160580D01*
X104478228Y-141160580D01*
X104573466Y-141112961D01*
X104621085Y-141017723D01*
X104621085Y-140922485D01*
X104573466Y-140827247D01*
X104478228Y-140779628D01*
X104240133Y-140779628D01*
X104144895Y-140732009D01*
X103668704Y-140493914D02*
X103668704Y-141160580D01*
X103668704Y-140589152D02*
X103621085Y-140541533D01*
X103525847Y-140493914D01*
X103382990Y-140493914D01*
X103287752Y-140541533D01*
X103240133Y-140636771D01*
X103240133Y-141160580D01*
X102906800Y-140493914D02*
X102525847Y-140493914D01*
X102763942Y-140160580D02*
X102763942Y-141017723D01*
X102716323Y-141112961D01*
X102621085Y-141160580D01*
X102525847Y-141160580D01*
X131430609Y-142770580D02*
X131430609Y-141770580D01*
X131430609Y-142151533D02*
X131335371Y-142103914D01*
X131144895Y-142103914D01*
X131049657Y-142151533D01*
X131002038Y-142199152D01*
X130954419Y-142294390D01*
X130954419Y-142580104D01*
X131002038Y-142675342D01*
X131049657Y-142722961D01*
X131144895Y-142770580D01*
X131335371Y-142770580D01*
X131430609Y-142722961D01*
X130097276Y-142103914D02*
X130097276Y-142770580D01*
X130525847Y-142103914D02*
X130525847Y-142627723D01*
X130478228Y-142722961D01*
X130382990Y-142770580D01*
X130240133Y-142770580D01*
X130144895Y-142722961D01*
X130097276Y-142675342D01*
X129763942Y-142103914D02*
X129382990Y-142103914D01*
X129621085Y-141770580D02*
X129621085Y-142627723D01*
X129573466Y-142722961D01*
X129478228Y-142770580D01*
X129382990Y-142770580D01*
X128287752Y-142770580D02*
X128287752Y-142103914D01*
X128287752Y-141770580D02*
X128335371Y-141818200D01*
X128287752Y-141865819D01*
X128240133Y-141818200D01*
X128287752Y-141770580D01*
X128287752Y-141865819D01*
X127954419Y-142103914D02*
X127573466Y-142103914D01*
X127811561Y-141770580D02*
X127811561Y-142627723D01*
X127763942Y-142722961D01*
X127668704Y-142770580D01*
X127573466Y-142770580D01*
X127192514Y-141770580D02*
X127287752Y-141961057D01*
X126811561Y-142722961D02*
X126716323Y-142770580D01*
X126525847Y-142770580D01*
X126430609Y-142722961D01*
X126382990Y-142627723D01*
X126382990Y-142580104D01*
X126430609Y-142484866D01*
X126525847Y-142437247D01*
X126668704Y-142437247D01*
X126763942Y-142389628D01*
X126811561Y-142294390D01*
X126811561Y-142246771D01*
X126763942Y-142151533D01*
X126668704Y-142103914D01*
X126525847Y-142103914D01*
X126430609Y-142151533D01*
X124763942Y-142770580D02*
X124763942Y-142246771D01*
X124811561Y-142151533D01*
X124906800Y-142103914D01*
X125097276Y-142103914D01*
X125192514Y-142151533D01*
X124763942Y-142722961D02*
X124859180Y-142770580D01*
X125097276Y-142770580D01*
X125192514Y-142722961D01*
X125240133Y-142627723D01*
X125240133Y-142532485D01*
X125192514Y-142437247D01*
X125097276Y-142389628D01*
X124859180Y-142389628D01*
X124763942Y-142342009D01*
X123525847Y-142770580D02*
X123525847Y-141770580D01*
X123525847Y-142151533D02*
X123430609Y-142103914D01*
X123240133Y-142103914D01*
X123144895Y-142151533D01*
X123097276Y-142199152D01*
X123049657Y-142294390D01*
X123049657Y-142580104D01*
X123097276Y-142675342D01*
X123144895Y-142722961D01*
X123240133Y-142770580D01*
X123430609Y-142770580D01*
X123525847Y-142722961D01*
X122192514Y-142103914D02*
X122192514Y-142770580D01*
X122621085Y-142103914D02*
X122621085Y-142627723D01*
X122573466Y-142722961D01*
X122478228Y-142770580D01*
X122335371Y-142770580D01*
X122240133Y-142722961D01*
X122192514Y-142675342D01*
X121287752Y-142722961D02*
X121382990Y-142770580D01*
X121573466Y-142770580D01*
X121668704Y-142722961D01*
X121716323Y-142675342D01*
X121763942Y-142580104D01*
X121763942Y-142294390D01*
X121716323Y-142199152D01*
X121668704Y-142151533D01*
X121573466Y-142103914D01*
X121382990Y-142103914D01*
X121287752Y-142151533D01*
X120859180Y-142770580D02*
X120859180Y-141770580D01*
X120763942Y-142389628D02*
X120478228Y-142770580D01*
X120478228Y-142103914D02*
X120859180Y-142484866D01*
X119287752Y-142770580D02*
X119287752Y-141770580D01*
X118240133Y-142675342D02*
X118287752Y-142722961D01*
X118430609Y-142770580D01*
X118525847Y-142770580D01*
X118668704Y-142722961D01*
X118763942Y-142627723D01*
X118811561Y-142532485D01*
X118859180Y-142342009D01*
X118859180Y-142199152D01*
X118811561Y-142008676D01*
X118763942Y-141913438D01*
X118668704Y-141818200D01*
X118525847Y-141770580D01*
X118430609Y-141770580D01*
X118287752Y-141818200D01*
X118240133Y-141865819D01*
X117144895Y-142103914D02*
X116954419Y-142770580D01*
X116763942Y-142294390D01*
X116573466Y-142770580D01*
X116382990Y-142103914D01*
X116002038Y-142770580D02*
X116002038Y-141770580D01*
X115573466Y-142770580D02*
X115573466Y-142246771D01*
X115621085Y-142151533D01*
X115716323Y-142103914D01*
X115859180Y-142103914D01*
X115954419Y-142151533D01*
X116002038Y-142199152D01*
X115097276Y-142770580D02*
X115097276Y-142103914D01*
X115097276Y-141770580D02*
X115144895Y-141818200D01*
X115097276Y-141865819D01*
X115049657Y-141818200D01*
X115097276Y-141770580D01*
X115097276Y-141865819D01*
X114192514Y-142722961D02*
X114287752Y-142770580D01*
X114478228Y-142770580D01*
X114573466Y-142722961D01*
X114621085Y-142675342D01*
X114668704Y-142580104D01*
X114668704Y-142294390D01*
X114621085Y-142199152D01*
X114573466Y-142151533D01*
X114478228Y-142103914D01*
X114287752Y-142103914D01*
X114192514Y-142151533D01*
X113763942Y-142770580D02*
X113763942Y-141770580D01*
X113335371Y-142770580D02*
X113335371Y-142246771D01*
X113382990Y-142151533D01*
X113478228Y-142103914D01*
X113621085Y-142103914D01*
X113716323Y-142151533D01*
X113763942Y-142199152D01*
X112097276Y-142770580D02*
X112097276Y-142103914D01*
X112097276Y-141770580D02*
X112144895Y-141818200D01*
X112097276Y-141865819D01*
X112049657Y-141818200D01*
X112097276Y-141770580D01*
X112097276Y-141865819D01*
X111668704Y-142722961D02*
X111573466Y-142770580D01*
X111382990Y-142770580D01*
X111287752Y-142722961D01*
X111240133Y-142627723D01*
X111240133Y-142580104D01*
X111287752Y-142484866D01*
X111382990Y-142437247D01*
X111525847Y-142437247D01*
X111621085Y-142389628D01*
X111668704Y-142294390D01*
X111668704Y-142246771D01*
X111621085Y-142151533D01*
X111525847Y-142103914D01*
X111382990Y-142103914D01*
X111287752Y-142151533D01*
X109621085Y-142770580D02*
X109621085Y-142246771D01*
X109668704Y-142151533D01*
X109763942Y-142103914D01*
X109954419Y-142103914D01*
X110049657Y-142151533D01*
X109621085Y-142722961D02*
X109716323Y-142770580D01*
X109954419Y-142770580D01*
X110049657Y-142722961D01*
X110097276Y-142627723D01*
X110097276Y-142532485D01*
X110049657Y-142437247D01*
X109954419Y-142389628D01*
X109716323Y-142389628D01*
X109621085Y-142342009D01*
X109002038Y-142770580D02*
X109097276Y-142722961D01*
X109144895Y-142627723D01*
X109144895Y-141770580D01*
X108478228Y-142770580D02*
X108573466Y-142722961D01*
X108621085Y-142627723D01*
X108621085Y-141770580D01*
X107954419Y-142770580D02*
X108049657Y-142722961D01*
X108097276Y-142675342D01*
X108144895Y-142580104D01*
X108144895Y-142294390D01*
X108097276Y-142199152D01*
X108049657Y-142151533D01*
X107954419Y-142103914D01*
X107811561Y-142103914D01*
X107716323Y-142151533D01*
X107668704Y-142199152D01*
X107621085Y-142294390D01*
X107621085Y-142580104D01*
X107668704Y-142675342D01*
X107716323Y-142722961D01*
X107811561Y-142770580D01*
X107954419Y-142770580D01*
X107287752Y-142103914D02*
X107097276Y-142770580D01*
X106906800Y-142294390D01*
X106716323Y-142770580D01*
X106525847Y-142103914D01*
X105763942Y-142722961D02*
X105859180Y-142770580D01*
X106049657Y-142770580D01*
X106144895Y-142722961D01*
X106192514Y-142627723D01*
X106192514Y-142246771D01*
X106144895Y-142151533D01*
X106049657Y-142103914D01*
X105859180Y-142103914D01*
X105763942Y-142151533D01*
X105716323Y-142246771D01*
X105716323Y-142342009D01*
X106192514Y-142437247D01*
X104859180Y-142770580D02*
X104859180Y-141770580D01*
X104859180Y-142722961D02*
X104954419Y-142770580D01*
X105144895Y-142770580D01*
X105240133Y-142722961D01*
X105287752Y-142675342D01*
X105335371Y-142580104D01*
X105335371Y-142294390D01*
X105287752Y-142199152D01*
X105240133Y-142151533D01*
X105144895Y-142103914D01*
X104954419Y-142103914D01*
X104859180Y-142151533D01*
X104382990Y-142675342D02*
X104335371Y-142722961D01*
X104382990Y-142770580D01*
X104430609Y-142722961D01*
X104382990Y-142675342D01*
X104382990Y-142770580D01*
X196669885Y-101269714D02*
X196498457Y-101326857D01*
X196212742Y-101326857D01*
X196098457Y-101269714D01*
X196041314Y-101212571D01*
X195984171Y-101098285D01*
X195984171Y-100984000D01*
X196041314Y-100869714D01*
X196098457Y-100812571D01*
X196212742Y-100755428D01*
X196441314Y-100698285D01*
X196555600Y-100641142D01*
X196612742Y-100584000D01*
X196669885Y-100469714D01*
X196669885Y-100355428D01*
X196612742Y-100241142D01*
X196555600Y-100184000D01*
X196441314Y-100126857D01*
X196155600Y-100126857D01*
X195984171Y-100184000D01*
X195641314Y-100526857D02*
X195184171Y-100526857D01*
X195469885Y-100126857D02*
X195469885Y-101155428D01*
X195412742Y-101269714D01*
X195298457Y-101326857D01*
X195184171Y-101326857D01*
X194327028Y-101269714D02*
X194441314Y-101326857D01*
X194669885Y-101326857D01*
X194784171Y-101269714D01*
X194841314Y-101155428D01*
X194841314Y-100698285D01*
X194784171Y-100584000D01*
X194669885Y-100526857D01*
X194441314Y-100526857D01*
X194327028Y-100584000D01*
X194269885Y-100698285D01*
X194269885Y-100812571D01*
X194841314Y-100926857D01*
X193869885Y-100526857D02*
X193584171Y-101326857D01*
X193298457Y-100526857D01*
X192384171Y-101269714D02*
X192498457Y-101326857D01*
X192727028Y-101326857D01*
X192841314Y-101269714D01*
X192898457Y-101155428D01*
X192898457Y-100698285D01*
X192841314Y-100584000D01*
X192727028Y-100526857D01*
X192498457Y-100526857D01*
X192384171Y-100584000D01*
X192327028Y-100698285D01*
X192327028Y-100812571D01*
X192898457Y-100926857D01*
X191812742Y-101212571D02*
X191755600Y-101269714D01*
X191812742Y-101326857D01*
X191869885Y-101269714D01*
X191812742Y-101212571D01*
X191812742Y-101326857D01*
X191812742Y-100584000D02*
X191755600Y-100641142D01*
X191812742Y-100698285D01*
X191869885Y-100641142D01*
X191812742Y-100584000D01*
X191812742Y-100698285D01*
X190098457Y-100755428D02*
X190098457Y-101326857D01*
X190498457Y-100126857D02*
X190098457Y-100755428D01*
X189698457Y-100126857D01*
X189127028Y-101326857D02*
X189241314Y-101269714D01*
X189298457Y-101212571D01*
X189355600Y-101098285D01*
X189355600Y-100755428D01*
X189298457Y-100641142D01*
X189241314Y-100584000D01*
X189127028Y-100526857D01*
X188955600Y-100526857D01*
X188841314Y-100584000D01*
X188784171Y-100641142D01*
X188727028Y-100755428D01*
X188727028Y-101098285D01*
X188784171Y-101212571D01*
X188841314Y-101269714D01*
X188955600Y-101326857D01*
X189127028Y-101326857D01*
X187698457Y-100526857D02*
X187698457Y-101326857D01*
X188212742Y-100526857D02*
X188212742Y-101155428D01*
X188155600Y-101269714D01*
X188041314Y-101326857D01*
X187869885Y-101326857D01*
X187755600Y-101269714D01*
X187698457Y-101212571D01*
X187127028Y-101326857D02*
X187127028Y-100526857D01*
X187127028Y-100755428D02*
X187069885Y-100641142D01*
X187012742Y-100584000D01*
X186898457Y-100526857D01*
X186784171Y-100526857D01*
X185298457Y-101326857D02*
X185412742Y-101269714D01*
X185469885Y-101212571D01*
X185527028Y-101098285D01*
X185527028Y-100755428D01*
X185469885Y-100641142D01*
X185412742Y-100584000D01*
X185298457Y-100526857D01*
X185127028Y-100526857D01*
X185012742Y-100584000D01*
X184955600Y-100641142D01*
X184898457Y-100755428D01*
X184898457Y-101098285D01*
X184955600Y-101212571D01*
X185012742Y-101269714D01*
X185127028Y-101326857D01*
X185298457Y-101326857D01*
X184384171Y-100526857D02*
X184384171Y-101326857D01*
X184384171Y-100641142D02*
X184327028Y-100584000D01*
X184212742Y-100526857D01*
X184041314Y-100526857D01*
X183927028Y-100584000D01*
X183869885Y-100698285D01*
X183869885Y-101326857D01*
X183127028Y-101326857D02*
X183241314Y-101269714D01*
X183298457Y-101155428D01*
X183298457Y-100126857D01*
X182784171Y-100526857D02*
X182498457Y-101326857D01*
X182212742Y-100526857D02*
X182498457Y-101326857D01*
X182612742Y-101612571D01*
X182669885Y-101669714D01*
X182784171Y-101726857D01*
X180327028Y-101269714D02*
X180441314Y-101326857D01*
X180669885Y-101326857D01*
X180784171Y-101269714D01*
X180841314Y-101212571D01*
X180898457Y-101098285D01*
X180898457Y-100755428D01*
X180841314Y-100641142D01*
X180784171Y-100584000D01*
X180669885Y-100526857D01*
X180441314Y-100526857D01*
X180327028Y-100584000D01*
X179641314Y-101326857D02*
X179755600Y-101269714D01*
X179812742Y-101212571D01*
X179869885Y-101098285D01*
X179869885Y-100755428D01*
X179812742Y-100641142D01*
X179755600Y-100584000D01*
X179641314Y-100526857D01*
X179469885Y-100526857D01*
X179355600Y-100584000D01*
X179298457Y-100641142D01*
X179241314Y-100755428D01*
X179241314Y-101098285D01*
X179298457Y-101212571D01*
X179355600Y-101269714D01*
X179469885Y-101326857D01*
X179641314Y-101326857D01*
X178727028Y-100526857D02*
X178727028Y-101326857D01*
X178727028Y-100641142D02*
X178669885Y-100584000D01*
X178555600Y-100526857D01*
X178384171Y-100526857D01*
X178269885Y-100584000D01*
X178212742Y-100698285D01*
X178212742Y-101326857D01*
X177698457Y-101269714D02*
X177584171Y-101326857D01*
X177355600Y-101326857D01*
X177241314Y-101269714D01*
X177184171Y-101155428D01*
X177184171Y-101098285D01*
X177241314Y-100984000D01*
X177355600Y-100926857D01*
X177527028Y-100926857D01*
X177641314Y-100869714D01*
X177698457Y-100755428D01*
X177698457Y-100698285D01*
X177641314Y-100584000D01*
X177527028Y-100526857D01*
X177355600Y-100526857D01*
X177241314Y-100584000D01*
X176841314Y-100526857D02*
X176384171Y-100526857D01*
X176669885Y-100126857D02*
X176669885Y-101155428D01*
X176612742Y-101269714D01*
X176498457Y-101326857D01*
X176384171Y-101326857D01*
X175984171Y-101326857D02*
X175984171Y-100526857D01*
X175984171Y-100755428D02*
X175927028Y-100641142D01*
X175869885Y-100584000D01*
X175755600Y-100526857D01*
X175641314Y-100526857D01*
X174727028Y-101326857D02*
X174727028Y-100698285D01*
X174784171Y-100584000D01*
X174898457Y-100526857D01*
X175127028Y-100526857D01*
X175241314Y-100584000D01*
X174727028Y-101269714D02*
X174841314Y-101326857D01*
X175127028Y-101326857D01*
X175241314Y-101269714D01*
X175298457Y-101155428D01*
X175298457Y-101041142D01*
X175241314Y-100926857D01*
X175127028Y-100869714D01*
X174841314Y-100869714D01*
X174727028Y-100812571D01*
X174155600Y-101326857D02*
X174155600Y-100526857D01*
X174155600Y-100126857D02*
X174212742Y-100184000D01*
X174155600Y-100241142D01*
X174098457Y-100184000D01*
X174155600Y-100126857D01*
X174155600Y-100241142D01*
X173584171Y-100526857D02*
X173584171Y-101326857D01*
X173584171Y-100641142D02*
X173527028Y-100584000D01*
X173412742Y-100526857D01*
X173241314Y-100526857D01*
X173127028Y-100584000D01*
X173069885Y-100698285D01*
X173069885Y-101326857D01*
X172669885Y-100526857D02*
X172212742Y-100526857D01*
X172498457Y-100126857D02*
X172498457Y-101155428D01*
X172441314Y-101269714D01*
X172327028Y-101326857D01*
X172212742Y-101326857D01*
X170898457Y-101326857D02*
X170898457Y-100526857D01*
X170898457Y-100126857D02*
X170955600Y-100184000D01*
X170898457Y-100241142D01*
X170841314Y-100184000D01*
X170898457Y-100126857D01*
X170898457Y-100241142D01*
X170384171Y-101269714D02*
X170269885Y-101326857D01*
X170041314Y-101326857D01*
X169927028Y-101269714D01*
X169869885Y-101155428D01*
X169869885Y-101098285D01*
X169927028Y-100984000D01*
X170041314Y-100926857D01*
X170212742Y-100926857D01*
X170327028Y-100869714D01*
X170384171Y-100755428D01*
X170384171Y-100698285D01*
X170327028Y-100584000D01*
X170212742Y-100526857D01*
X170041314Y-100526857D01*
X169927028Y-100584000D01*
X168555600Y-100126857D02*
X167812742Y-100126857D01*
X168212742Y-100584000D01*
X168041314Y-100584000D01*
X167927028Y-100641142D01*
X167869885Y-100698285D01*
X167812742Y-100812571D01*
X167812742Y-101098285D01*
X167869885Y-101212571D01*
X167927028Y-101269714D01*
X168041314Y-101326857D01*
X168384171Y-101326857D01*
X168498457Y-101269714D01*
X168555600Y-101212571D01*
X167298457Y-101326857D02*
X167298457Y-100526857D01*
X167298457Y-100126857D02*
X167355600Y-100184000D01*
X167298457Y-100241142D01*
X167241314Y-100184000D01*
X167298457Y-100126857D01*
X167298457Y-100241142D01*
X166727028Y-100526857D02*
X166727028Y-101326857D01*
X166727028Y-100641142D02*
X166669885Y-100584000D01*
X166555600Y-100526857D01*
X166384171Y-100526857D01*
X166269885Y-100584000D01*
X166212742Y-100698285D01*
X166212742Y-101326857D01*
X164841314Y-101326857D02*
X164212742Y-100526857D01*
X164841314Y-100526857D02*
X164212742Y-101326857D01*
X162327028Y-100526857D02*
X162327028Y-101326857D01*
X162612742Y-100069714D02*
X162898457Y-100926857D01*
X162155600Y-100926857D01*
X160784171Y-101326857D02*
X160784171Y-100526857D01*
X160784171Y-100126857D02*
X160841314Y-100184000D01*
X160784171Y-100241142D01*
X160727028Y-100184000D01*
X160784171Y-100126857D01*
X160784171Y-100241142D01*
X160212742Y-100526857D02*
X160212742Y-101326857D01*
X160212742Y-100641142D02*
X160155600Y-100584000D01*
X160041314Y-100526857D01*
X159869885Y-100526857D01*
X159755600Y-100584000D01*
X159698457Y-100698285D01*
X159698457Y-101326857D01*
X189698457Y-102058857D02*
X189412742Y-103258857D01*
X189184171Y-102401714D01*
X188955600Y-103258857D01*
X188669885Y-102058857D01*
X188212742Y-103258857D02*
X188212742Y-102458857D01*
X188212742Y-102058857D02*
X188269885Y-102116000D01*
X188212742Y-102173142D01*
X188155600Y-102116000D01*
X188212742Y-102058857D01*
X188212742Y-102173142D01*
X187641314Y-102458857D02*
X187641314Y-103258857D01*
X187641314Y-102573142D02*
X187584171Y-102516000D01*
X187469885Y-102458857D01*
X187298457Y-102458857D01*
X187184171Y-102516000D01*
X187127028Y-102630285D01*
X187127028Y-103258857D01*
X186555600Y-102458857D02*
X186555600Y-103258857D01*
X186555600Y-102573142D02*
X186498457Y-102516000D01*
X186384171Y-102458857D01*
X186212742Y-102458857D01*
X186098457Y-102516000D01*
X186041314Y-102630285D01*
X186041314Y-103258857D01*
X185469885Y-103258857D02*
X185469885Y-102458857D01*
X185469885Y-102058857D02*
X185527028Y-102116000D01*
X185469885Y-102173142D01*
X185412742Y-102116000D01*
X185469885Y-102058857D01*
X185469885Y-102173142D01*
X184441314Y-103201714D02*
X184555600Y-103258857D01*
X184784171Y-103258857D01*
X184898457Y-103201714D01*
X184955600Y-103087428D01*
X184955600Y-102630285D01*
X184898457Y-102516000D01*
X184784171Y-102458857D01*
X184555600Y-102458857D01*
X184441314Y-102516000D01*
X184384171Y-102630285D01*
X184384171Y-102744571D01*
X184955600Y-102858857D01*
X183869885Y-103144571D02*
X183812742Y-103201714D01*
X183869885Y-103258857D01*
X183927028Y-103201714D01*
X183869885Y-103144571D01*
X183869885Y-103258857D01*
X183869885Y-102516000D02*
X183812742Y-102573142D01*
X183869885Y-102630285D01*
X183927028Y-102573142D01*
X183869885Y-102516000D01*
X183869885Y-102630285D01*
X182441314Y-103201714D02*
X182269885Y-103258857D01*
X181984171Y-103258857D01*
X181869885Y-103201714D01*
X181812742Y-103144571D01*
X181755600Y-103030285D01*
X181755600Y-102916000D01*
X181812742Y-102801714D01*
X181869885Y-102744571D01*
X181984171Y-102687428D01*
X182212742Y-102630285D01*
X182327028Y-102573142D01*
X182384171Y-102516000D01*
X182441314Y-102401714D01*
X182441314Y-102287428D01*
X182384171Y-102173142D01*
X182327028Y-102116000D01*
X182212742Y-102058857D01*
X181927028Y-102058857D01*
X181755600Y-102116000D01*
X181069885Y-103258857D02*
X181184171Y-103201714D01*
X181241314Y-103144571D01*
X181298457Y-103030285D01*
X181298457Y-102687428D01*
X181241314Y-102573142D01*
X181184171Y-102516000D01*
X181069885Y-102458857D01*
X180898457Y-102458857D01*
X180784171Y-102516000D01*
X180727028Y-102573142D01*
X180669885Y-102687428D01*
X180669885Y-103030285D01*
X180727028Y-103144571D01*
X180784171Y-103201714D01*
X180898457Y-103258857D01*
X181069885Y-103258857D01*
X179355600Y-102458857D02*
X179069885Y-103258857D01*
X178784171Y-102458857D02*
X179069885Y-103258857D01*
X179184171Y-103544571D01*
X179241314Y-103601714D01*
X179355600Y-103658857D01*
X178155600Y-103258857D02*
X178269885Y-103201714D01*
X178327028Y-103144571D01*
X178384171Y-103030285D01*
X178384171Y-102687428D01*
X178327028Y-102573142D01*
X178269885Y-102516000D01*
X178155600Y-102458857D01*
X177984171Y-102458857D01*
X177869885Y-102516000D01*
X177812742Y-102573142D01*
X177755600Y-102687428D01*
X177755600Y-103030285D01*
X177812742Y-103144571D01*
X177869885Y-103201714D01*
X177984171Y-103258857D01*
X178155600Y-103258857D01*
X176727028Y-102458857D02*
X176727028Y-103258857D01*
X177241314Y-102458857D02*
X177241314Y-103087428D01*
X177184171Y-103201714D01*
X177069885Y-103258857D01*
X176898457Y-103258857D01*
X176784171Y-103201714D01*
X176727028Y-103144571D01*
X175355600Y-102458857D02*
X175127028Y-103258857D01*
X174898457Y-102687428D01*
X174669885Y-103258857D01*
X174441314Y-102458857D01*
X173984171Y-103258857D02*
X173984171Y-102458857D01*
X173984171Y-102058857D02*
X174041314Y-102116000D01*
X173984171Y-102173142D01*
X173927028Y-102116000D01*
X173984171Y-102058857D01*
X173984171Y-102173142D01*
X173241314Y-103258857D02*
X173355600Y-103201714D01*
X173412742Y-103087428D01*
X173412742Y-102058857D01*
X172612742Y-103258857D02*
X172727028Y-103201714D01*
X172784171Y-103087428D01*
X172784171Y-102058857D01*
X171241314Y-102458857D02*
X171241314Y-103658857D01*
X171241314Y-102516000D02*
X171127028Y-102458857D01*
X170898457Y-102458857D01*
X170784171Y-102516000D01*
X170727028Y-102573142D01*
X170669885Y-102687428D01*
X170669885Y-103030285D01*
X170727028Y-103144571D01*
X170784171Y-103201714D01*
X170898457Y-103258857D01*
X171127028Y-103258857D01*
X171241314Y-103201714D01*
X170155600Y-103258857D02*
X170155600Y-102458857D01*
X170155600Y-102687428D02*
X170098457Y-102573142D01*
X170041314Y-102516000D01*
X169927028Y-102458857D01*
X169812742Y-102458857D01*
X169412742Y-103258857D02*
X169412742Y-102458857D01*
X169412742Y-102058857D02*
X169469885Y-102116000D01*
X169412742Y-102173142D01*
X169355600Y-102116000D01*
X169412742Y-102058857D01*
X169412742Y-102173142D01*
X168841314Y-102458857D02*
X168841314Y-103258857D01*
X168841314Y-102573142D02*
X168784171Y-102516000D01*
X168669885Y-102458857D01*
X168498457Y-102458857D01*
X168384171Y-102516000D01*
X168327028Y-102630285D01*
X168327028Y-103258857D01*
X167927028Y-102458857D02*
X167469885Y-102458857D01*
X167755600Y-102058857D02*
X167755600Y-103087428D01*
X167698457Y-103201714D01*
X167584171Y-103258857D01*
X167469885Y-103258857D01*
X182412742Y-103990857D02*
X182412742Y-104276571D01*
X182698457Y-104162285D02*
X182412742Y-104276571D01*
X182127028Y-104162285D01*
X182584171Y-104505142D02*
X182412742Y-104276571D01*
X182241314Y-104505142D01*
X181155600Y-105190857D02*
X181155600Y-104562285D01*
X181212742Y-104448000D01*
X181327028Y-104390857D01*
X181555600Y-104390857D01*
X181669885Y-104448000D01*
X181155600Y-105133714D02*
X181269885Y-105190857D01*
X181555600Y-105190857D01*
X181669885Y-105133714D01*
X181727028Y-105019428D01*
X181727028Y-104905142D01*
X181669885Y-104790857D01*
X181555600Y-104733714D01*
X181269885Y-104733714D01*
X181155600Y-104676571D01*
X180584171Y-104390857D02*
X180584171Y-105190857D01*
X180584171Y-104505142D02*
X180527028Y-104448000D01*
X180412742Y-104390857D01*
X180241314Y-104390857D01*
X180127028Y-104448000D01*
X180069885Y-104562285D01*
X180069885Y-105190857D01*
X179612742Y-104390857D02*
X179327028Y-105190857D01*
X179041314Y-104390857D02*
X179327028Y-105190857D01*
X179441314Y-105476571D01*
X179498457Y-105533714D01*
X179612742Y-105590857D01*
X178755600Y-104390857D02*
X178298457Y-104390857D01*
X178584171Y-103990857D02*
X178584171Y-105019428D01*
X178527028Y-105133714D01*
X178412742Y-105190857D01*
X178298457Y-105190857D01*
X177898457Y-105190857D02*
X177898457Y-103990857D01*
X177384171Y-105190857D02*
X177384171Y-104562285D01*
X177441314Y-104448000D01*
X177555600Y-104390857D01*
X177727028Y-104390857D01*
X177841314Y-104448000D01*
X177898457Y-104505142D01*
X176812742Y-105190857D02*
X176812742Y-104390857D01*
X176812742Y-103990857D02*
X176869885Y-104048000D01*
X176812742Y-104105142D01*
X176755600Y-104048000D01*
X176812742Y-103990857D01*
X176812742Y-104105142D01*
X176241314Y-104390857D02*
X176241314Y-105190857D01*
X176241314Y-104505142D02*
X176184171Y-104448000D01*
X176069885Y-104390857D01*
X175898457Y-104390857D01*
X175784171Y-104448000D01*
X175727028Y-104562285D01*
X175727028Y-105190857D01*
X174641314Y-104390857D02*
X174641314Y-105362285D01*
X174698457Y-105476571D01*
X174755600Y-105533714D01*
X174869885Y-105590857D01*
X175041314Y-105590857D01*
X175155600Y-105533714D01*
X174641314Y-105133714D02*
X174755600Y-105190857D01*
X174984171Y-105190857D01*
X175098457Y-105133714D01*
X175155600Y-105076571D01*
X175212742Y-104962285D01*
X175212742Y-104619428D01*
X175155600Y-104505142D01*
X175098457Y-104448000D01*
X174984171Y-104390857D01*
X174755600Y-104390857D01*
X174641314Y-104448000D01*
X173898457Y-103990857D02*
X173898457Y-104276571D01*
X174184171Y-104162285D02*
X173898457Y-104276571D01*
X173612742Y-104162285D01*
X174069885Y-104505142D02*
X173898457Y-104276571D01*
X173727028Y-104505142D01*
X190069885Y-106322857D02*
X189612742Y-106322857D01*
X189898457Y-105922857D02*
X189898457Y-106951428D01*
X189841314Y-107065714D01*
X189727028Y-107122857D01*
X189612742Y-107122857D01*
X189212742Y-107122857D02*
X189212742Y-105922857D01*
X188698457Y-107122857D02*
X188698457Y-106494285D01*
X188755600Y-106380000D01*
X188869885Y-106322857D01*
X189041314Y-106322857D01*
X189155600Y-106380000D01*
X189212742Y-106437142D01*
X187612742Y-107122857D02*
X187612742Y-106494285D01*
X187669885Y-106380000D01*
X187784171Y-106322857D01*
X188012742Y-106322857D01*
X188127028Y-106380000D01*
X187612742Y-107065714D02*
X187727028Y-107122857D01*
X188012742Y-107122857D01*
X188127028Y-107065714D01*
X188184171Y-106951428D01*
X188184171Y-106837142D01*
X188127028Y-106722857D01*
X188012742Y-106665714D01*
X187727028Y-106665714D01*
X187612742Y-106608571D01*
X187212742Y-106322857D02*
X186755600Y-106322857D01*
X187041314Y-105922857D02*
X187041314Y-106951428D01*
X186984171Y-107065714D01*
X186869885Y-107122857D01*
X186755600Y-107122857D01*
X185612742Y-106322857D02*
X185155600Y-106322857D01*
X185441314Y-107122857D02*
X185441314Y-106094285D01*
X185384171Y-105980000D01*
X185269885Y-105922857D01*
X185155600Y-105922857D01*
X184755600Y-107122857D02*
X184755600Y-106322857D01*
X184755600Y-105922857D02*
X184812742Y-105980000D01*
X184755600Y-106037142D01*
X184698457Y-105980000D01*
X184755600Y-105922857D01*
X184755600Y-106037142D01*
X184355600Y-106322857D02*
X183898457Y-106322857D01*
X184184171Y-105922857D02*
X184184171Y-106951428D01*
X184127028Y-107065714D01*
X184012742Y-107122857D01*
X183898457Y-107122857D01*
X183555600Y-107065714D02*
X183441314Y-107122857D01*
X183212742Y-107122857D01*
X183098457Y-107065714D01*
X183041314Y-106951428D01*
X183041314Y-106894285D01*
X183098457Y-106780000D01*
X183212742Y-106722857D01*
X183384171Y-106722857D01*
X183498457Y-106665714D01*
X183555600Y-106551428D01*
X183555600Y-106494285D01*
X183498457Y-106380000D01*
X183384171Y-106322857D01*
X183212742Y-106322857D01*
X183098457Y-106380000D01*
X181612742Y-107122857D02*
X181612742Y-106322857D01*
X181612742Y-105922857D02*
X181669885Y-105980000D01*
X181612742Y-106037142D01*
X181555600Y-105980000D01*
X181612742Y-105922857D01*
X181612742Y-106037142D01*
X181041314Y-106322857D02*
X181041314Y-107122857D01*
X181041314Y-106437142D02*
X180984171Y-106380000D01*
X180869885Y-106322857D01*
X180698457Y-106322857D01*
X180584171Y-106380000D01*
X180527028Y-106494285D01*
X180527028Y-107122857D01*
X179212742Y-106322857D02*
X178755600Y-106322857D01*
X179041314Y-105922857D02*
X179041314Y-106951428D01*
X178984171Y-107065714D01*
X178869885Y-107122857D01*
X178755600Y-107122857D01*
X178355600Y-107122857D02*
X178355600Y-105922857D01*
X177841314Y-107122857D02*
X177841314Y-106494285D01*
X177898457Y-106380000D01*
X178012742Y-106322857D01*
X178184171Y-106322857D01*
X178298457Y-106380000D01*
X178355600Y-106437142D01*
X176755600Y-107122857D02*
X176755600Y-106494285D01*
X176812742Y-106380000D01*
X176927028Y-106322857D01*
X177155600Y-106322857D01*
X177269885Y-106380000D01*
X176755600Y-107065714D02*
X176869885Y-107122857D01*
X177155600Y-107122857D01*
X177269885Y-107065714D01*
X177327028Y-106951428D01*
X177327028Y-106837142D01*
X177269885Y-106722857D01*
X177155600Y-106665714D01*
X176869885Y-106665714D01*
X176755600Y-106608571D01*
X176355600Y-106322857D02*
X175898457Y-106322857D01*
X176184171Y-105922857D02*
X176184171Y-106951428D01*
X176127028Y-107065714D01*
X176012742Y-107122857D01*
X175898457Y-107122857D01*
X174755600Y-106322857D02*
X174298457Y-106322857D01*
X174584171Y-107122857D02*
X174584171Y-106094285D01*
X174527028Y-105980000D01*
X174412742Y-105922857D01*
X174298457Y-105922857D01*
X173727028Y-107122857D02*
X173841314Y-107065714D01*
X173898457Y-107008571D01*
X173955600Y-106894285D01*
X173955600Y-106551428D01*
X173898457Y-106437142D01*
X173841314Y-106380000D01*
X173727028Y-106322857D01*
X173555600Y-106322857D01*
X173441314Y-106380000D01*
X173384171Y-106437142D01*
X173327028Y-106551428D01*
X173327028Y-106894285D01*
X173384171Y-107008571D01*
X173441314Y-107065714D01*
X173555600Y-107122857D01*
X173727028Y-107122857D01*
X172641314Y-107122857D02*
X172755600Y-107065714D01*
X172812742Y-107008571D01*
X172869885Y-106894285D01*
X172869885Y-106551428D01*
X172812742Y-106437142D01*
X172755600Y-106380000D01*
X172641314Y-106322857D01*
X172469885Y-106322857D01*
X172355600Y-106380000D01*
X172298457Y-106437142D01*
X172241314Y-106551428D01*
X172241314Y-106894285D01*
X172298457Y-107008571D01*
X172355600Y-107065714D01*
X172469885Y-107122857D01*
X172641314Y-107122857D01*
X171898457Y-106322857D02*
X171441314Y-106322857D01*
X171727028Y-105922857D02*
X171727028Y-106951428D01*
X171669885Y-107065714D01*
X171555600Y-107122857D01*
X171441314Y-107122857D01*
X171041314Y-106322857D02*
X171041314Y-107522857D01*
X171041314Y-106380000D02*
X170927028Y-106322857D01*
X170698457Y-106322857D01*
X170584171Y-106380000D01*
X170527028Y-106437142D01*
X170469885Y-106551428D01*
X170469885Y-106894285D01*
X170527028Y-107008571D01*
X170584171Y-107065714D01*
X170698457Y-107122857D01*
X170927028Y-107122857D01*
X171041314Y-107065714D01*
X169955600Y-107122857D02*
X169955600Y-106322857D01*
X169955600Y-106551428D02*
X169898457Y-106437142D01*
X169841314Y-106380000D01*
X169727028Y-106322857D01*
X169612742Y-106322857D01*
X169212742Y-107122857D02*
X169212742Y-106322857D01*
X169212742Y-105922857D02*
X169269885Y-105980000D01*
X169212742Y-106037142D01*
X169155600Y-105980000D01*
X169212742Y-105922857D01*
X169212742Y-106037142D01*
X168641314Y-106322857D02*
X168641314Y-107122857D01*
X168641314Y-106437142D02*
X168584171Y-106380000D01*
X168469885Y-106322857D01*
X168298457Y-106322857D01*
X168184171Y-106380000D01*
X168127028Y-106494285D01*
X168127028Y-107122857D01*
X167727028Y-106322857D02*
X167269885Y-106322857D01*
X167555600Y-105922857D02*
X167555600Y-106951428D01*
X167498457Y-107065714D01*
X167384171Y-107122857D01*
X167269885Y-107122857D01*
X166698457Y-107008571D02*
X166641314Y-107065714D01*
X166698457Y-107122857D01*
X166755600Y-107065714D01*
X166698457Y-107008571D01*
X166698457Y-107122857D01*
X166927028Y-105980000D02*
X166812742Y-105922857D01*
X166527028Y-105922857D01*
X166412742Y-105980000D01*
X166355600Y-106094285D01*
X166355600Y-106208571D01*
X166412742Y-106322857D01*
X166469885Y-106380000D01*
X166584171Y-106437142D01*
X166641314Y-106494285D01*
X166698457Y-106608571D01*
X166698457Y-106665714D01*
X193927028Y-108997714D02*
X193755600Y-109054857D01*
X193469885Y-109054857D01*
X193355600Y-108997714D01*
X193298457Y-108940571D01*
X193241314Y-108826285D01*
X193241314Y-108712000D01*
X193298457Y-108597714D01*
X193355600Y-108540571D01*
X193469885Y-108483428D01*
X193698457Y-108426285D01*
X193812742Y-108369142D01*
X193869885Y-108312000D01*
X193927028Y-108197714D01*
X193927028Y-108083428D01*
X193869885Y-107969142D01*
X193812742Y-107912000D01*
X193698457Y-107854857D01*
X193412742Y-107854857D01*
X193241314Y-107912000D01*
X192898457Y-108254857D02*
X192441314Y-108254857D01*
X192727028Y-107854857D02*
X192727028Y-108883428D01*
X192669885Y-108997714D01*
X192555600Y-109054857D01*
X192441314Y-109054857D01*
X191584171Y-108997714D02*
X191698457Y-109054857D01*
X191927028Y-109054857D01*
X192041314Y-108997714D01*
X192098457Y-108883428D01*
X192098457Y-108426285D01*
X192041314Y-108312000D01*
X191927028Y-108254857D01*
X191698457Y-108254857D01*
X191584171Y-108312000D01*
X191527028Y-108426285D01*
X191527028Y-108540571D01*
X192098457Y-108654857D01*
X191127028Y-108254857D02*
X190841314Y-109054857D01*
X190555600Y-108254857D01*
X189641314Y-108997714D02*
X189755600Y-109054857D01*
X189984171Y-109054857D01*
X190098457Y-108997714D01*
X190155600Y-108883428D01*
X190155600Y-108426285D01*
X190098457Y-108312000D01*
X189984171Y-108254857D01*
X189755600Y-108254857D01*
X189641314Y-108312000D01*
X189584171Y-108426285D01*
X189584171Y-108540571D01*
X190155600Y-108654857D01*
X189069885Y-108940571D02*
X189012742Y-108997714D01*
X189069885Y-109054857D01*
X189127028Y-108997714D01*
X189069885Y-108940571D01*
X189069885Y-109054857D01*
X189069885Y-108312000D02*
X189012742Y-108369142D01*
X189069885Y-108426285D01*
X189127028Y-108369142D01*
X189069885Y-108312000D01*
X189069885Y-108426285D01*
X187355600Y-108483428D02*
X187355600Y-109054857D01*
X187755600Y-107854857D02*
X187355600Y-108483428D01*
X186955600Y-107854857D01*
X186098457Y-108997714D02*
X186212742Y-109054857D01*
X186441314Y-109054857D01*
X186555600Y-108997714D01*
X186612742Y-108883428D01*
X186612742Y-108426285D01*
X186555600Y-108312000D01*
X186441314Y-108254857D01*
X186212742Y-108254857D01*
X186098457Y-108312000D01*
X186041314Y-108426285D01*
X186041314Y-108540571D01*
X186612742Y-108654857D01*
X185584171Y-108997714D02*
X185469885Y-109054857D01*
X185241314Y-109054857D01*
X185127028Y-108997714D01*
X185069885Y-108883428D01*
X185069885Y-108826285D01*
X185127028Y-108712000D01*
X185241314Y-108654857D01*
X185412742Y-108654857D01*
X185527028Y-108597714D01*
X185584171Y-108483428D01*
X185584171Y-108426285D01*
X185527028Y-108312000D01*
X185412742Y-108254857D01*
X185241314Y-108254857D01*
X185127028Y-108312000D01*
X184555600Y-108940571D02*
X184498457Y-108997714D01*
X184555600Y-109054857D01*
X184612742Y-108997714D01*
X184555600Y-108940571D01*
X184555600Y-109054857D01*
X183984171Y-108940571D02*
X183927028Y-108997714D01*
X183984171Y-109054857D01*
X184041314Y-108997714D01*
X183984171Y-108940571D01*
X183984171Y-109054857D01*
X183412742Y-108940571D02*
X183355600Y-108997714D01*
X183412742Y-109054857D01*
X183469885Y-108997714D01*
X183412742Y-108940571D01*
X183412742Y-109054857D01*
X181927028Y-108254857D02*
X182841314Y-108597714D01*
X181927028Y-108940571D01*
X180784171Y-109054857D02*
X181355600Y-109054857D01*
X181355600Y-107854857D01*
X180212742Y-109054857D02*
X180327028Y-108997714D01*
X180384171Y-108940571D01*
X180441314Y-108826285D01*
X180441314Y-108483428D01*
X180384171Y-108369142D01*
X180327028Y-108312000D01*
X180212742Y-108254857D01*
X180041314Y-108254857D01*
X179927028Y-108312000D01*
X179869885Y-108369142D01*
X179812742Y-108483428D01*
X179812742Y-108826285D01*
X179869885Y-108940571D01*
X179927028Y-108997714D01*
X180041314Y-109054857D01*
X180212742Y-109054857D01*
X179127028Y-109054857D02*
X179241314Y-108997714D01*
X179298457Y-108940571D01*
X179355600Y-108826285D01*
X179355600Y-108483428D01*
X179298457Y-108369142D01*
X179241314Y-108312000D01*
X179127028Y-108254857D01*
X178955600Y-108254857D01*
X178841314Y-108312000D01*
X178784171Y-108369142D01*
X178727028Y-108483428D01*
X178727028Y-108826285D01*
X178784171Y-108940571D01*
X178841314Y-108997714D01*
X178955600Y-109054857D01*
X179127028Y-109054857D01*
X178212742Y-109054857D02*
X178212742Y-107854857D01*
X178098457Y-108597714D02*
X177755600Y-109054857D01*
X177755600Y-108254857D02*
X178212742Y-108712000D01*
X177298457Y-108997714D02*
X177184171Y-109054857D01*
X176955600Y-109054857D01*
X176841314Y-108997714D01*
X176784171Y-108883428D01*
X176784171Y-108826285D01*
X176841314Y-108712000D01*
X176955600Y-108654857D01*
X177127028Y-108654857D01*
X177241314Y-108597714D01*
X177298457Y-108483428D01*
X177298457Y-108426285D01*
X177241314Y-108312000D01*
X177127028Y-108254857D01*
X176955600Y-108254857D01*
X176841314Y-108312000D01*
X174841314Y-109054857D02*
X174841314Y-108426285D01*
X174898457Y-108312000D01*
X175012742Y-108254857D01*
X175241314Y-108254857D01*
X175355600Y-108312000D01*
X174841314Y-108997714D02*
X174955600Y-109054857D01*
X175241314Y-109054857D01*
X175355600Y-108997714D01*
X175412742Y-108883428D01*
X175412742Y-108769142D01*
X175355600Y-108654857D01*
X175241314Y-108597714D01*
X174955600Y-108597714D01*
X174841314Y-108540571D01*
X174441314Y-108254857D02*
X173984171Y-108254857D01*
X174269885Y-107854857D02*
X174269885Y-108883428D01*
X174212742Y-108997714D01*
X174098457Y-109054857D01*
X173984171Y-109054857D01*
X172841314Y-108254857D02*
X172384171Y-108254857D01*
X172669885Y-107854857D02*
X172669885Y-108883428D01*
X172612742Y-108997714D01*
X172498457Y-109054857D01*
X172384171Y-109054857D01*
X171984171Y-109054857D02*
X171984171Y-107854857D01*
X171469885Y-109054857D02*
X171469885Y-108426285D01*
X171527028Y-108312000D01*
X171641314Y-108254857D01*
X171812742Y-108254857D01*
X171927028Y-108312000D01*
X171984171Y-108369142D01*
X170898457Y-109054857D02*
X170898457Y-108254857D01*
X170898457Y-107854857D02*
X170955600Y-107912000D01*
X170898457Y-107969142D01*
X170841314Y-107912000D01*
X170898457Y-107854857D01*
X170898457Y-107969142D01*
X170384171Y-108997714D02*
X170269885Y-109054857D01*
X170041314Y-109054857D01*
X169927028Y-108997714D01*
X169869885Y-108883428D01*
X169869885Y-108826285D01*
X169927028Y-108712000D01*
X170041314Y-108654857D01*
X170212742Y-108654857D01*
X170327028Y-108597714D01*
X170384171Y-108483428D01*
X170384171Y-108426285D01*
X170327028Y-108312000D01*
X170212742Y-108254857D01*
X170041314Y-108254857D01*
X169927028Y-108312000D01*
X168441314Y-109054857D02*
X168441314Y-107854857D01*
X168441314Y-108312000D02*
X168327028Y-108254857D01*
X168098457Y-108254857D01*
X167984171Y-108312000D01*
X167927028Y-108369142D01*
X167869885Y-108483428D01*
X167869885Y-108826285D01*
X167927028Y-108940571D01*
X167984171Y-108997714D01*
X168098457Y-109054857D01*
X168327028Y-109054857D01*
X168441314Y-108997714D01*
X167184171Y-109054857D02*
X167298457Y-108997714D01*
X167355600Y-108940571D01*
X167412742Y-108826285D01*
X167412742Y-108483428D01*
X167355600Y-108369142D01*
X167298457Y-108312000D01*
X167184171Y-108254857D01*
X167012742Y-108254857D01*
X166898457Y-108312000D01*
X166841314Y-108369142D01*
X166784171Y-108483428D01*
X166784171Y-108826285D01*
X166841314Y-108940571D01*
X166898457Y-108997714D01*
X167012742Y-109054857D01*
X167184171Y-109054857D01*
X165755600Y-109054857D02*
X165755600Y-108426285D01*
X165812742Y-108312000D01*
X165927028Y-108254857D01*
X166155600Y-108254857D01*
X166269885Y-108312000D01*
X165755600Y-108997714D02*
X165869885Y-109054857D01*
X166155600Y-109054857D01*
X166269885Y-108997714D01*
X166327028Y-108883428D01*
X166327028Y-108769142D01*
X166269885Y-108654857D01*
X166155600Y-108597714D01*
X165869885Y-108597714D01*
X165755600Y-108540571D01*
X165184171Y-109054857D02*
X165184171Y-108254857D01*
X165184171Y-108483428D02*
X165127028Y-108369142D01*
X165069885Y-108312000D01*
X164955600Y-108254857D01*
X164841314Y-108254857D01*
X163927028Y-109054857D02*
X163927028Y-107854857D01*
X163927028Y-108997714D02*
X164041314Y-109054857D01*
X164269885Y-109054857D01*
X164384171Y-108997714D01*
X164441314Y-108940571D01*
X164498457Y-108826285D01*
X164498457Y-108483428D01*
X164441314Y-108369142D01*
X164384171Y-108312000D01*
X164269885Y-108254857D01*
X164041314Y-108254857D01*
X163927028Y-108312000D01*
X163355600Y-108254857D02*
X162441314Y-108597714D01*
X163355600Y-108940571D01*
X193866761Y-80192714D02*
X193914380Y-80335571D01*
X193914380Y-80573666D01*
X193866761Y-80668904D01*
X193819142Y-80716523D01*
X193723904Y-80764142D01*
X193628666Y-80764142D01*
X193533428Y-80716523D01*
X193485809Y-80668904D01*
X193438190Y-80573666D01*
X193390571Y-80383190D01*
X193342952Y-80287952D01*
X193295333Y-80240333D01*
X193200095Y-80192714D01*
X193104857Y-80192714D01*
X193009619Y-80240333D01*
X192962000Y-80287952D01*
X192914380Y-80383190D01*
X192914380Y-80621285D01*
X192962000Y-80764142D01*
X193914380Y-81192714D02*
X192914380Y-81192714D01*
X192914380Y-81430809D01*
X192962000Y-81573666D01*
X193057238Y-81668904D01*
X193152476Y-81716523D01*
X193342952Y-81764142D01*
X193485809Y-81764142D01*
X193676285Y-81716523D01*
X193771523Y-81668904D01*
X193866761Y-81573666D01*
X193914380Y-81430809D01*
X193914380Y-81192714D01*
X193628666Y-82145095D02*
X193628666Y-82621285D01*
X193914380Y-82049857D02*
X192914380Y-82383190D01*
X193914380Y-82716523D01*
X195476761Y-80264142D02*
X195524380Y-80407000D01*
X195524380Y-80645095D01*
X195476761Y-80740333D01*
X195429142Y-80787952D01*
X195333904Y-80835571D01*
X195238666Y-80835571D01*
X195143428Y-80787952D01*
X195095809Y-80740333D01*
X195048190Y-80645095D01*
X195000571Y-80454619D01*
X194952952Y-80359380D01*
X194905333Y-80311761D01*
X194810095Y-80264142D01*
X194714857Y-80264142D01*
X194619619Y-80311761D01*
X194572000Y-80359380D01*
X194524380Y-80454619D01*
X194524380Y-80692714D01*
X194572000Y-80835571D01*
X195000571Y-81264142D02*
X195000571Y-81597476D01*
X195524380Y-81740333D02*
X195524380Y-81264142D01*
X194524380Y-81264142D01*
X194524380Y-81740333D01*
X195524380Y-82645095D02*
X195524380Y-82168904D01*
X194524380Y-82168904D01*
X197086761Y-80216523D02*
X197134380Y-80359380D01*
X197134380Y-80597476D01*
X197086761Y-80692714D01*
X197039142Y-80740333D01*
X196943904Y-80787952D01*
X196848666Y-80787952D01*
X196753428Y-80740333D01*
X196705809Y-80692714D01*
X196658190Y-80597476D01*
X196610571Y-80407000D01*
X196562952Y-80311761D01*
X196515333Y-80264142D01*
X196420095Y-80216523D01*
X196324857Y-80216523D01*
X196229619Y-80264142D01*
X196182000Y-80311761D01*
X196134380Y-80407000D01*
X196134380Y-80645095D01*
X196182000Y-80787952D01*
X197039142Y-81787952D02*
X197086761Y-81740333D01*
X197134380Y-81597476D01*
X197134380Y-81502238D01*
X197086761Y-81359380D01*
X196991523Y-81264142D01*
X196896285Y-81216523D01*
X196705809Y-81168904D01*
X196562952Y-81168904D01*
X196372476Y-81216523D01*
X196277238Y-81264142D01*
X196182000Y-81359380D01*
X196134380Y-81502238D01*
X196134380Y-81597476D01*
X196182000Y-81740333D01*
X196229619Y-81787952D01*
X197134380Y-82692714D02*
X197134380Y-82216523D01*
X196134380Y-82216523D01*
D11*
X202380523Y-90994904D02*
X202380523Y-90194904D01*
X202113857Y-90766333D01*
X201847190Y-90194904D01*
X201847190Y-90994904D01*
X201466238Y-90994904D02*
X201466238Y-90194904D01*
X201161476Y-90194904D01*
X201085285Y-90233000D01*
X201047190Y-90271095D01*
X201009095Y-90347285D01*
X201009095Y-90461571D01*
X201047190Y-90537761D01*
X201085285Y-90575857D01*
X201161476Y-90613952D01*
X201466238Y-90613952D01*
X200666238Y-90194904D02*
X200666238Y-90842523D01*
X200628142Y-90918714D01*
X200590047Y-90956809D01*
X200513857Y-90994904D01*
X200361476Y-90994904D01*
X200285285Y-90956809D01*
X200247190Y-90918714D01*
X200209095Y-90842523D01*
X200209095Y-90194904D01*
X199485285Y-90194904D02*
X199637666Y-90194904D01*
X199713857Y-90233000D01*
X199751952Y-90271095D01*
X199828142Y-90385380D01*
X199866238Y-90537761D01*
X199866238Y-90842523D01*
X199828142Y-90918714D01*
X199790047Y-90956809D01*
X199713857Y-90994904D01*
X199561476Y-90994904D01*
X199485285Y-90956809D01*
X199447190Y-90918714D01*
X199409095Y-90842523D01*
X199409095Y-90652047D01*
X199447190Y-90575857D01*
X199485285Y-90537761D01*
X199561476Y-90499666D01*
X199713857Y-90499666D01*
X199790047Y-90537761D01*
X199828142Y-90575857D01*
X199866238Y-90652047D01*
X198913857Y-90194904D02*
X198837666Y-90194904D01*
X198761476Y-90233000D01*
X198723380Y-90271095D01*
X198685285Y-90347285D01*
X198647190Y-90499666D01*
X198647190Y-90690142D01*
X198685285Y-90842523D01*
X198723380Y-90918714D01*
X198761476Y-90956809D01*
X198837666Y-90994904D01*
X198913857Y-90994904D01*
X198990047Y-90956809D01*
X199028142Y-90918714D01*
X199066238Y-90842523D01*
X199104333Y-90690142D01*
X199104333Y-90499666D01*
X199066238Y-90347285D01*
X199028142Y-90271095D01*
X198990047Y-90233000D01*
X198913857Y-90194904D01*
X197923380Y-90194904D02*
X198304333Y-90194904D01*
X198342428Y-90575857D01*
X198304333Y-90537761D01*
X198228142Y-90499666D01*
X198037666Y-90499666D01*
X197961476Y-90537761D01*
X197923380Y-90575857D01*
X197885285Y-90652047D01*
X197885285Y-90842523D01*
X197923380Y-90918714D01*
X197961476Y-90956809D01*
X198037666Y-90994904D01*
X198228142Y-90994904D01*
X198304333Y-90956809D01*
X198342428Y-90918714D01*
X197390047Y-90194904D02*
X197313857Y-90194904D01*
X197237666Y-90233000D01*
X197199571Y-90271095D01*
X197161476Y-90347285D01*
X197123380Y-90499666D01*
X197123380Y-90690142D01*
X197161476Y-90842523D01*
X197199571Y-90918714D01*
X197237666Y-90956809D01*
X197313857Y-90994904D01*
X197390047Y-90994904D01*
X197466238Y-90956809D01*
X197504333Y-90918714D01*
X197542428Y-90842523D01*
X197580523Y-90690142D01*
X197580523Y-90499666D01*
X197542428Y-90347285D01*
X197504333Y-90271095D01*
X197466238Y-90233000D01*
X197390047Y-90194904D01*
X202132904Y-91482904D02*
X201637666Y-91482904D01*
X201904333Y-91787666D01*
X201790047Y-91787666D01*
X201713857Y-91825761D01*
X201675761Y-91863857D01*
X201637666Y-91940047D01*
X201637666Y-92130523D01*
X201675761Y-92206714D01*
X201713857Y-92244809D01*
X201790047Y-92282904D01*
X202018619Y-92282904D01*
X202094809Y-92244809D01*
X202132904Y-92206714D01*
X201294809Y-91978142D02*
X200685285Y-91978142D01*
X200304333Y-91749571D02*
X199694809Y-91978142D01*
X200304333Y-92206714D01*
X199351952Y-92244809D02*
X199237666Y-92282904D01*
X199047190Y-92282904D01*
X198971000Y-92244809D01*
X198932904Y-92206714D01*
X198894809Y-92130523D01*
X198894809Y-92054333D01*
X198932904Y-91978142D01*
X198971000Y-91940047D01*
X199047190Y-91901952D01*
X199199571Y-91863857D01*
X199275761Y-91825761D01*
X199313857Y-91787666D01*
X199351952Y-91711476D01*
X199351952Y-91635285D01*
X199313857Y-91559095D01*
X199275761Y-91521000D01*
X199199571Y-91482904D01*
X199009095Y-91482904D01*
X198894809Y-91521000D01*
X198094809Y-92206714D02*
X198132904Y-92244809D01*
X198247190Y-92282904D01*
X198323380Y-92282904D01*
X198437666Y-92244809D01*
X198513857Y-92168619D01*
X198551952Y-92092428D01*
X198590047Y-91940047D01*
X198590047Y-91825761D01*
X198551952Y-91673380D01*
X198513857Y-91597190D01*
X198437666Y-91521000D01*
X198323380Y-91482904D01*
X198247190Y-91482904D01*
X198132904Y-91521000D01*
X198094809Y-91559095D01*
X197371000Y-92282904D02*
X197751952Y-92282904D01*
X197751952Y-91482904D01*
X202037666Y-93037571D02*
X202037666Y-93570904D01*
X202228142Y-92732809D02*
X202418619Y-93304238D01*
X201923380Y-93304238D01*
X201618619Y-93266142D02*
X201009095Y-93266142D01*
X200628142Y-93037571D02*
X200018619Y-93266142D01*
X200628142Y-93494714D01*
X199675761Y-93532809D02*
X199561476Y-93570904D01*
X199371000Y-93570904D01*
X199294809Y-93532809D01*
X199256714Y-93494714D01*
X199218619Y-93418523D01*
X199218619Y-93342333D01*
X199256714Y-93266142D01*
X199294809Y-93228047D01*
X199371000Y-93189952D01*
X199523380Y-93151857D01*
X199599571Y-93113761D01*
X199637666Y-93075666D01*
X199675761Y-92999476D01*
X199675761Y-92923285D01*
X199637666Y-92847095D01*
X199599571Y-92809000D01*
X199523380Y-92770904D01*
X199332904Y-92770904D01*
X199218619Y-92809000D01*
X198875761Y-93570904D02*
X198875761Y-92770904D01*
X198685285Y-92770904D01*
X198571000Y-92809000D01*
X198494809Y-92885190D01*
X198456714Y-92961380D01*
X198418619Y-93113761D01*
X198418619Y-93228047D01*
X198456714Y-93380428D01*
X198494809Y-93456619D01*
X198571000Y-93532809D01*
X198685285Y-93570904D01*
X198875761Y-93570904D01*
X198113857Y-93342333D02*
X197732904Y-93342333D01*
X198190047Y-93570904D02*
X197923380Y-92770904D01*
X197656714Y-93570904D01*
X201961476Y-94820809D02*
X201847190Y-94858904D01*
X201656714Y-94858904D01*
X201580523Y-94820809D01*
X201542428Y-94782714D01*
X201504333Y-94706523D01*
X201504333Y-94630333D01*
X201542428Y-94554142D01*
X201580523Y-94516047D01*
X201656714Y-94477952D01*
X201809095Y-94439857D01*
X201885285Y-94401761D01*
X201923380Y-94363666D01*
X201961476Y-94287476D01*
X201961476Y-94211285D01*
X201923380Y-94135095D01*
X201885285Y-94097000D01*
X201809095Y-94058904D01*
X201618619Y-94058904D01*
X201504333Y-94097000D01*
X201237666Y-94058904D02*
X201047190Y-94858904D01*
X200894809Y-94287476D01*
X200742428Y-94858904D01*
X200551952Y-94058904D01*
X199866238Y-94058904D02*
X200247190Y-94058904D01*
X200285285Y-94439857D01*
X200247190Y-94401761D01*
X200171000Y-94363666D01*
X199980523Y-94363666D01*
X199904333Y-94401761D01*
X199866238Y-94439857D01*
X199828142Y-94516047D01*
X199828142Y-94706523D01*
X199866238Y-94782714D01*
X199904333Y-94820809D01*
X199980523Y-94858904D01*
X200171000Y-94858904D01*
X200247190Y-94820809D01*
X200285285Y-94782714D01*
X198875761Y-94858904D02*
X198875761Y-94058904D01*
X198418619Y-94858904D01*
X198418619Y-94058904D01*
X197580523Y-94782714D02*
X197618619Y-94820809D01*
X197732904Y-94858904D01*
X197809095Y-94858904D01*
X197923380Y-94820809D01*
X197999571Y-94744619D01*
X198037666Y-94668428D01*
X198075761Y-94516047D01*
X198075761Y-94401761D01*
X198037666Y-94249380D01*
X197999571Y-94173190D01*
X197923380Y-94097000D01*
X197809095Y-94058904D01*
X197732904Y-94058904D01*
X197618619Y-94097000D01*
X197580523Y-94135095D01*
X202323380Y-95727857D02*
X202590047Y-95727857D01*
X202590047Y-96146904D02*
X202590047Y-95346904D01*
X202209095Y-95346904D01*
X201751952Y-95346904D02*
X201599571Y-95346904D01*
X201523380Y-95385000D01*
X201447190Y-95461190D01*
X201409095Y-95613571D01*
X201409095Y-95880238D01*
X201447190Y-96032619D01*
X201523380Y-96108809D01*
X201599571Y-96146904D01*
X201751952Y-96146904D01*
X201828142Y-96108809D01*
X201904333Y-96032619D01*
X201942428Y-95880238D01*
X201942428Y-95613571D01*
X201904333Y-95461190D01*
X201828142Y-95385000D01*
X201751952Y-95346904D01*
X200609095Y-96146904D02*
X200875761Y-95765952D01*
X201066238Y-96146904D02*
X201066238Y-95346904D01*
X200761476Y-95346904D01*
X200685285Y-95385000D01*
X200647190Y-95423095D01*
X200609095Y-95499285D01*
X200609095Y-95613571D01*
X200647190Y-95689761D01*
X200685285Y-95727857D01*
X200761476Y-95765952D01*
X201066238Y-95765952D01*
X199275761Y-96146904D02*
X199656714Y-96146904D01*
X199656714Y-95346904D01*
X199047190Y-96108809D02*
X198932904Y-96146904D01*
X198742428Y-96146904D01*
X198666238Y-96108809D01*
X198628142Y-96070714D01*
X198590047Y-95994523D01*
X198590047Y-95918333D01*
X198628142Y-95842142D01*
X198666238Y-95804047D01*
X198742428Y-95765952D01*
X198894809Y-95727857D01*
X198971000Y-95689761D01*
X199009095Y-95651666D01*
X199047190Y-95575476D01*
X199047190Y-95499285D01*
X199009095Y-95423095D01*
X198971000Y-95385000D01*
X198894809Y-95346904D01*
X198704333Y-95346904D01*
X198590047Y-95385000D01*
X198247190Y-96146904D02*
X198247190Y-95346904D01*
X197980523Y-95918333D01*
X197713857Y-95346904D01*
X197713857Y-96146904D01*
X196990047Y-95346904D02*
X197142428Y-95346904D01*
X197218619Y-95385000D01*
X197256714Y-95423095D01*
X197332904Y-95537380D01*
X197371000Y-95689761D01*
X197371000Y-95994523D01*
X197332904Y-96070714D01*
X197294809Y-96108809D01*
X197218619Y-96146904D01*
X197066238Y-96146904D01*
X196990047Y-96108809D01*
X196951952Y-96070714D01*
X196913857Y-95994523D01*
X196913857Y-95804047D01*
X196951952Y-95727857D01*
X196990047Y-95689761D01*
X197066238Y-95651666D01*
X197218619Y-95651666D01*
X197294809Y-95689761D01*
X197332904Y-95727857D01*
X197371000Y-95804047D01*
X202894809Y-97434904D02*
X202894809Y-96634904D01*
X202513857Y-97434904D02*
X202513857Y-96634904D01*
X202056714Y-97434904D01*
X202056714Y-96634904D01*
X201790047Y-96634904D02*
X201523380Y-97434904D01*
X201256714Y-96634904D01*
X200990047Y-97015857D02*
X200723380Y-97015857D01*
X200609095Y-97434904D02*
X200990047Y-97434904D01*
X200990047Y-96634904D01*
X200609095Y-96634904D01*
X199809095Y-97434904D02*
X200075761Y-97053952D01*
X200266238Y-97434904D02*
X200266238Y-96634904D01*
X199961476Y-96634904D01*
X199885285Y-96673000D01*
X199847190Y-96711095D01*
X199809095Y-96787285D01*
X199809095Y-96901571D01*
X199847190Y-96977761D01*
X199885285Y-97015857D01*
X199961476Y-97053952D01*
X200266238Y-97053952D01*
X199580523Y-96634904D02*
X199123380Y-96634904D01*
X199351952Y-97434904D02*
X199351952Y-96634904D01*
X198285285Y-97206333D02*
X197904333Y-97206333D01*
X198361476Y-97434904D02*
X198094809Y-96634904D01*
X197828142Y-97434904D01*
X197180523Y-97434904D02*
X197561476Y-97434904D01*
X197561476Y-96634904D01*
X196532904Y-97434904D02*
X196913857Y-97434904D01*
X196913857Y-96634904D01*
D12*
X189819085Y-132473171D02*
X189819085Y-130973171D01*
X189319085Y-132044600D01*
X188819085Y-130973171D01*
X188819085Y-132473171D01*
X188104800Y-132473171D02*
X188104800Y-130973171D01*
X187604800Y-130973171D02*
X186747657Y-130973171D01*
X187176228Y-132473171D02*
X187176228Y-130973171D01*
X184033371Y-130901742D02*
X185319085Y-132830314D01*
X182461942Y-131116028D02*
X182390514Y-131044600D01*
X182247657Y-130973171D01*
X181890514Y-130973171D01*
X181747657Y-131044600D01*
X181676228Y-131116028D01*
X181604800Y-131258885D01*
X181604800Y-131401742D01*
X181676228Y-131616028D01*
X182533371Y-132473171D01*
X181604800Y-132473171D01*
X180961942Y-132330314D02*
X180890514Y-132401742D01*
X180961942Y-132473171D01*
X181033371Y-132401742D01*
X180961942Y-132330314D01*
X180961942Y-132473171D01*
X179604800Y-130973171D02*
X179890514Y-130973171D01*
X180033371Y-131044600D01*
X180104800Y-131116028D01*
X180247657Y-131330314D01*
X180319085Y-131616028D01*
X180319085Y-132187457D01*
X180247657Y-132330314D01*
X180176228Y-132401742D01*
X180033371Y-132473171D01*
X179747657Y-132473171D01*
X179604800Y-132401742D01*
X179533371Y-132330314D01*
X179461942Y-132187457D01*
X179461942Y-131830314D01*
X179533371Y-131687457D01*
X179604800Y-131616028D01*
X179747657Y-131544600D01*
X180033371Y-131544600D01*
X180176228Y-131616028D01*
X180247657Y-131687457D01*
X180319085Y-131830314D01*
X178961942Y-130973171D02*
X177961942Y-130973171D01*
X178604800Y-132473171D01*
X177319085Y-132473171D02*
X177033371Y-132473171D01*
X176890514Y-132401742D01*
X176819085Y-132330314D01*
X176676228Y-132116028D01*
X176604800Y-131830314D01*
X176604800Y-131258885D01*
X176676228Y-131116028D01*
X176747657Y-131044600D01*
X176890514Y-130973171D01*
X177176228Y-130973171D01*
X177319085Y-131044600D01*
X177390514Y-131116028D01*
X177461942Y-131258885D01*
X177461942Y-131616028D01*
X177390514Y-131758885D01*
X177319085Y-131830314D01*
X177176228Y-131901742D01*
X176890514Y-131901742D01*
X176747657Y-131830314D01*
X176676228Y-131758885D01*
X176604800Y-131616028D01*
X173747657Y-130901742D02*
X175033371Y-132830314D01*
X172176228Y-131116028D02*
X172104800Y-131044600D01*
X171961942Y-130973171D01*
X171604800Y-130973171D01*
X171461942Y-131044600D01*
X171390514Y-131116028D01*
X171319085Y-131258885D01*
X171319085Y-131401742D01*
X171390514Y-131616028D01*
X172247657Y-132473171D01*
X171319085Y-132473171D01*
X170676228Y-132330314D02*
X170604800Y-132401742D01*
X170676228Y-132473171D01*
X170747657Y-132401742D01*
X170676228Y-132330314D01*
X170676228Y-132473171D01*
X169676228Y-130973171D02*
X169533371Y-130973171D01*
X169390514Y-131044600D01*
X169319085Y-131116028D01*
X169247657Y-131258885D01*
X169176228Y-131544600D01*
X169176228Y-131901742D01*
X169247657Y-132187457D01*
X169319085Y-132330314D01*
X169390514Y-132401742D01*
X169533371Y-132473171D01*
X169676228Y-132473171D01*
X169819085Y-132401742D01*
X169890514Y-132330314D01*
X169961942Y-132187457D01*
X170033371Y-131901742D01*
X170033371Y-131544600D01*
X169961942Y-131258885D01*
X169890514Y-131116028D01*
X169819085Y-131044600D01*
X169676228Y-130973171D01*
X168247657Y-130973171D02*
X168104800Y-130973171D01*
X167961942Y-131044600D01*
X167890514Y-131116028D01*
X167819085Y-131258885D01*
X167747657Y-131544600D01*
X167747657Y-131901742D01*
X167819085Y-132187457D01*
X167890514Y-132330314D01*
X167961942Y-132401742D01*
X168104800Y-132473171D01*
X168247657Y-132473171D01*
X168390514Y-132401742D01*
X168461942Y-132330314D01*
X168533371Y-132187457D01*
X168604800Y-131901742D01*
X168604800Y-131544600D01*
X168533371Y-131258885D01*
X168461942Y-131116028D01*
X168390514Y-131044600D01*
X168247657Y-130973171D01*
X167247657Y-130973171D02*
X166247657Y-130973171D01*
X166890514Y-132473171D01*
X185390514Y-134459600D02*
X184676228Y-134459600D01*
X185533371Y-134888171D02*
X185033371Y-133388171D01*
X184533371Y-134888171D01*
X184033371Y-134888171D02*
X184033371Y-133888171D01*
X184033371Y-134173885D02*
X183961942Y-134031028D01*
X183890514Y-133959600D01*
X183747657Y-133888171D01*
X183604800Y-133888171D01*
X182461942Y-134888171D02*
X182461942Y-133388171D01*
X182461942Y-134816742D02*
X182604800Y-134888171D01*
X182890514Y-134888171D01*
X183033371Y-134816742D01*
X183104800Y-134745314D01*
X183176228Y-134602457D01*
X183176228Y-134173885D01*
X183104800Y-134031028D01*
X183033371Y-133959600D01*
X182890514Y-133888171D01*
X182604800Y-133888171D01*
X182461942Y-133959600D01*
X181104800Y-133888171D02*
X181104800Y-134888171D01*
X181747657Y-133888171D02*
X181747657Y-134673885D01*
X181676228Y-134816742D01*
X181533371Y-134888171D01*
X181319085Y-134888171D01*
X181176228Y-134816742D01*
X181104800Y-134745314D01*
X180390514Y-134888171D02*
X180390514Y-133888171D01*
X180390514Y-133388171D02*
X180461942Y-133459600D01*
X180390514Y-133531028D01*
X180319085Y-133459600D01*
X180390514Y-133388171D01*
X180390514Y-133531028D01*
X179676228Y-133888171D02*
X179676228Y-134888171D01*
X179676228Y-134031028D02*
X179604800Y-133959600D01*
X179461942Y-133888171D01*
X179247657Y-133888171D01*
X179104800Y-133959600D01*
X179033371Y-134102457D01*
X179033371Y-134888171D01*
X178104800Y-134888171D02*
X178247657Y-134816742D01*
X178319085Y-134745314D01*
X178390514Y-134602457D01*
X178390514Y-134173885D01*
X178319085Y-134031028D01*
X178247657Y-133959600D01*
X178104800Y-133888171D01*
X177890514Y-133888171D01*
X177747657Y-133959600D01*
X177676228Y-134031028D01*
X177604800Y-134173885D01*
X177604800Y-134602457D01*
X177676228Y-134745314D01*
X177747657Y-134816742D01*
X177890514Y-134888171D01*
X178104800Y-134888171D01*
X175819085Y-134888171D02*
X175819085Y-133388171D01*
X174961942Y-134888171D01*
X174961942Y-133388171D01*
X173604800Y-134888171D02*
X173604800Y-134102457D01*
X173676228Y-133959600D01*
X173819085Y-133888171D01*
X174104800Y-133888171D01*
X174247657Y-133959600D01*
X173604800Y-134816742D02*
X173747657Y-134888171D01*
X174104800Y-134888171D01*
X174247657Y-134816742D01*
X174319085Y-134673885D01*
X174319085Y-134531028D01*
X174247657Y-134388171D01*
X174104800Y-134316742D01*
X173747657Y-134316742D01*
X173604800Y-134245314D01*
X172890514Y-133888171D02*
X172890514Y-134888171D01*
X172890514Y-134031028D02*
X172819085Y-133959600D01*
X172676228Y-133888171D01*
X172461942Y-133888171D01*
X172319085Y-133959600D01*
X172247657Y-134102457D01*
X172247657Y-134888171D01*
X171319085Y-134888171D02*
X171461942Y-134816742D01*
X171533371Y-134745314D01*
X171604800Y-134602457D01*
X171604800Y-134173885D01*
X171533371Y-134031028D01*
X171461942Y-133959600D01*
X171319085Y-133888171D01*
X171104800Y-133888171D01*
X170961942Y-133959600D01*
X170890514Y-134031028D01*
X170819085Y-134173885D01*
X170819085Y-134602457D01*
X170890514Y-134745314D01*
X170961942Y-134816742D01*
X171104800Y-134888171D01*
X171319085Y-134888171D01*
X184533371Y-137160314D02*
X184604800Y-137231742D01*
X184819085Y-137303171D01*
X184961942Y-137303171D01*
X185176228Y-137231742D01*
X185319085Y-137088885D01*
X185390514Y-136946028D01*
X185461942Y-136660314D01*
X185461942Y-136446028D01*
X185390514Y-136160314D01*
X185319085Y-136017457D01*
X185176228Y-135874600D01*
X184961942Y-135803171D01*
X184819085Y-135803171D01*
X184604800Y-135874600D01*
X184533371Y-135946028D01*
X183247657Y-137303171D02*
X183247657Y-136517457D01*
X183319085Y-136374600D01*
X183461942Y-136303171D01*
X183747657Y-136303171D01*
X183890514Y-136374600D01*
X183247657Y-137231742D02*
X183390514Y-137303171D01*
X183747657Y-137303171D01*
X183890514Y-137231742D01*
X183961942Y-137088885D01*
X183961942Y-136946028D01*
X183890514Y-136803171D01*
X183747657Y-136731742D01*
X183390514Y-136731742D01*
X183247657Y-136660314D01*
X182533371Y-137303171D02*
X182533371Y-136303171D01*
X182533371Y-136588885D02*
X182461942Y-136446028D01*
X182390514Y-136374600D01*
X182247657Y-136303171D01*
X182104800Y-136303171D01*
X181604800Y-137303171D02*
X181604800Y-136303171D01*
X181604800Y-136588885D02*
X181533371Y-136446028D01*
X181461942Y-136374600D01*
X181319085Y-136303171D01*
X181176228Y-136303171D01*
X180676228Y-137303171D02*
X180676228Y-136303171D01*
X180676228Y-135803171D02*
X180747657Y-135874600D01*
X180676228Y-135946028D01*
X180604800Y-135874600D01*
X180676228Y-135803171D01*
X180676228Y-135946028D01*
X179390514Y-137231742D02*
X179533371Y-137303171D01*
X179819085Y-137303171D01*
X179961942Y-137231742D01*
X180033371Y-137088885D01*
X180033371Y-136517457D01*
X179961942Y-136374600D01*
X179819085Y-136303171D01*
X179533371Y-136303171D01*
X179390514Y-136374600D01*
X179319085Y-136517457D01*
X179319085Y-136660314D01*
X180033371Y-136803171D01*
X178676228Y-137303171D02*
X178676228Y-136303171D01*
X178676228Y-136588885D02*
X178604800Y-136446028D01*
X178533371Y-136374600D01*
X178390514Y-136303171D01*
X178247657Y-136303171D01*
X176104800Y-136517457D02*
X175890514Y-136588885D01*
X175819085Y-136660314D01*
X175747657Y-136803171D01*
X175747657Y-137017457D01*
X175819085Y-137160314D01*
X175890514Y-137231742D01*
X176033371Y-137303171D01*
X176604800Y-137303171D01*
X176604800Y-135803171D01*
X176104800Y-135803171D01*
X175961942Y-135874600D01*
X175890514Y-135946028D01*
X175819085Y-136088885D01*
X175819085Y-136231742D01*
X175890514Y-136374600D01*
X175961942Y-136446028D01*
X176104800Y-136517457D01*
X176604800Y-136517457D01*
X174890514Y-137303171D02*
X175033371Y-137231742D01*
X175104800Y-137160314D01*
X175176228Y-137017457D01*
X175176228Y-136588885D01*
X175104800Y-136446028D01*
X175033371Y-136374600D01*
X174890514Y-136303171D01*
X174676228Y-136303171D01*
X174533371Y-136374600D01*
X174461942Y-136446028D01*
X174390514Y-136588885D01*
X174390514Y-137017457D01*
X174461942Y-137160314D01*
X174533371Y-137231742D01*
X174676228Y-137303171D01*
X174890514Y-137303171D01*
X173104800Y-137303171D02*
X173104800Y-136517457D01*
X173176228Y-136374600D01*
X173319085Y-136303171D01*
X173604800Y-136303171D01*
X173747657Y-136374600D01*
X173104800Y-137231742D02*
X173247657Y-137303171D01*
X173604800Y-137303171D01*
X173747657Y-137231742D01*
X173819085Y-137088885D01*
X173819085Y-136946028D01*
X173747657Y-136803171D01*
X173604800Y-136731742D01*
X173247657Y-136731742D01*
X173104800Y-136660314D01*
X172390514Y-137303171D02*
X172390514Y-136303171D01*
X172390514Y-136588885D02*
X172319085Y-136446028D01*
X172247657Y-136374600D01*
X172104800Y-136303171D01*
X171961942Y-136303171D01*
X170819085Y-137303171D02*
X170819085Y-135803171D01*
X170819085Y-137231742D02*
X170961942Y-137303171D01*
X171247657Y-137303171D01*
X171390514Y-137231742D01*
X171461942Y-137160314D01*
X171533371Y-137017457D01*
X171533371Y-136588885D01*
X171461942Y-136446028D01*
X171390514Y-136374600D01*
X171247657Y-136303171D01*
X170961942Y-136303171D01*
X170819085Y-136374600D01*
X188104800Y-138718171D02*
X187747657Y-139718171D01*
X187390514Y-138718171D01*
X186033371Y-139718171D02*
X186890514Y-139718171D01*
X186461942Y-139718171D02*
X186461942Y-138218171D01*
X186604800Y-138432457D01*
X186747657Y-138575314D01*
X186890514Y-138646742D01*
X185390514Y-139575314D02*
X185319085Y-139646742D01*
X185390514Y-139718171D01*
X185461942Y-139646742D01*
X185390514Y-139575314D01*
X185390514Y-139718171D01*
X183890514Y-139718171D02*
X184747657Y-139718171D01*
X184319085Y-139718171D02*
X184319085Y-138218171D01*
X184461942Y-138432457D01*
X184604800Y-138575314D01*
X184747657Y-138646742D01*
X182176228Y-138361028D02*
X182104800Y-138289600D01*
X181961942Y-138218171D01*
X181604800Y-138218171D01*
X181461942Y-138289600D01*
X181390514Y-138361028D01*
X181319085Y-138503885D01*
X181319085Y-138646742D01*
X181390514Y-138861028D01*
X182247657Y-139718171D01*
X181319085Y-139718171D01*
X179604800Y-138146742D02*
X180890514Y-140075314D01*
X178319085Y-139718171D02*
X179176228Y-139718171D01*
X178747657Y-139718171D02*
X178747657Y-138218171D01*
X178890514Y-138432457D01*
X179033371Y-138575314D01*
X179176228Y-138646742D01*
X177033371Y-138218171D02*
X177319085Y-138218171D01*
X177461942Y-138289600D01*
X177533371Y-138361028D01*
X177676228Y-138575314D01*
X177747657Y-138861028D01*
X177747657Y-139432457D01*
X177676228Y-139575314D01*
X177604800Y-139646742D01*
X177461942Y-139718171D01*
X177176228Y-139718171D01*
X177033371Y-139646742D01*
X176961942Y-139575314D01*
X176890514Y-139432457D01*
X176890514Y-139075314D01*
X176961942Y-138932457D01*
X177033371Y-138861028D01*
X177176228Y-138789600D01*
X177461942Y-138789600D01*
X177604800Y-138861028D01*
X177676228Y-138932457D01*
X177747657Y-139075314D01*
X175176228Y-138146742D02*
X176461942Y-140075314D01*
X174747657Y-138361028D02*
X174676228Y-138289600D01*
X174533371Y-138218171D01*
X174176228Y-138218171D01*
X174033371Y-138289600D01*
X173961942Y-138361028D01*
X173890514Y-138503885D01*
X173890514Y-138646742D01*
X173961942Y-138861028D01*
X174819085Y-139718171D01*
X173890514Y-139718171D01*
X173319085Y-138361028D02*
X173247657Y-138289600D01*
X173104800Y-138218171D01*
X172747657Y-138218171D01*
X172604800Y-138289600D01*
X172533371Y-138361028D01*
X172461942Y-138503885D01*
X172461942Y-138646742D01*
X172533371Y-138861028D01*
X173390514Y-139718171D01*
X172461942Y-139718171D01*
X170819085Y-138218171D02*
X170461942Y-139718171D01*
X170176228Y-138646742D01*
X169890514Y-139718171D01*
X169533371Y-138218171D01*
X169033371Y-139646742D02*
X168819085Y-139718171D01*
X168461942Y-139718171D01*
X168319085Y-139646742D01*
X168247657Y-139575314D01*
X168176228Y-139432457D01*
X168176228Y-139289600D01*
X168247657Y-139146742D01*
X168319085Y-139075314D01*
X168461942Y-139003885D01*
X168747657Y-138932457D01*
X168890514Y-138861028D01*
X168961942Y-138789600D01*
X169033371Y-138646742D01*
X169033371Y-138503885D01*
X168961942Y-138361028D01*
X168890514Y-138289600D01*
X168747657Y-138218171D01*
X168390514Y-138218171D01*
X168176228Y-138289600D01*
X195569085Y-141133171D02*
X195569085Y-142347457D01*
X195640514Y-142490314D01*
X195711942Y-142561742D01*
X195854800Y-142633171D01*
X196069085Y-142633171D01*
X196211942Y-142561742D01*
X195569085Y-142061742D02*
X195711942Y-142133171D01*
X195997657Y-142133171D01*
X196140514Y-142061742D01*
X196211942Y-141990314D01*
X196283371Y-141847457D01*
X196283371Y-141418885D01*
X196211942Y-141276028D01*
X196140514Y-141204600D01*
X195997657Y-141133171D01*
X195711942Y-141133171D01*
X195569085Y-141204600D01*
X194854800Y-142133171D02*
X194854800Y-141133171D01*
X194854800Y-140633171D02*
X194926228Y-140704600D01*
X194854800Y-140776028D01*
X194783371Y-140704600D01*
X194854800Y-140633171D01*
X194854800Y-140776028D01*
X194354800Y-141133171D02*
X193783371Y-141133171D01*
X194140514Y-140633171D02*
X194140514Y-141918885D01*
X194069085Y-142061742D01*
X193926228Y-142133171D01*
X193783371Y-142133171D01*
X193283371Y-142133171D02*
X193283371Y-140633171D01*
X192640514Y-142133171D02*
X192640514Y-141347457D01*
X192711942Y-141204600D01*
X192854799Y-141133171D01*
X193069085Y-141133171D01*
X193211942Y-141204600D01*
X193283371Y-141276028D01*
X191283371Y-141133171D02*
X191283371Y-142133171D01*
X191926228Y-141133171D02*
X191926228Y-141918885D01*
X191854799Y-142061742D01*
X191711942Y-142133171D01*
X191497657Y-142133171D01*
X191354799Y-142061742D01*
X191283371Y-141990314D01*
X190569085Y-142133171D02*
X190569085Y-140633171D01*
X190569085Y-141204600D02*
X190426228Y-141133171D01*
X190140514Y-141133171D01*
X189997657Y-141204600D01*
X189926228Y-141276028D01*
X189854799Y-141418885D01*
X189854799Y-141847457D01*
X189926228Y-141990314D01*
X189997657Y-142061742D01*
X190140514Y-142133171D01*
X190426228Y-142133171D01*
X190569085Y-142061742D01*
X189211942Y-141990314D02*
X189140514Y-142061742D01*
X189211942Y-142133171D01*
X189283371Y-142061742D01*
X189211942Y-141990314D01*
X189211942Y-142133171D01*
X187854799Y-142061742D02*
X187997657Y-142133171D01*
X188283371Y-142133171D01*
X188426228Y-142061742D01*
X188497657Y-141990314D01*
X188569085Y-141847457D01*
X188569085Y-141418885D01*
X188497657Y-141276028D01*
X188426228Y-141204600D01*
X188283371Y-141133171D01*
X187997657Y-141133171D01*
X187854799Y-141204600D01*
X186997657Y-142133171D02*
X187140514Y-142061742D01*
X187211942Y-141990314D01*
X187283371Y-141847457D01*
X187283371Y-141418885D01*
X187211942Y-141276028D01*
X187140514Y-141204600D01*
X186997657Y-141133171D01*
X186783371Y-141133171D01*
X186640514Y-141204600D01*
X186569085Y-141276028D01*
X186497657Y-141418885D01*
X186497657Y-141847457D01*
X186569085Y-141990314D01*
X186640514Y-142061742D01*
X186783371Y-142133171D01*
X186997657Y-142133171D01*
X185854799Y-142133171D02*
X185854799Y-141133171D01*
X185854799Y-141276028D02*
X185783371Y-141204600D01*
X185640514Y-141133171D01*
X185426228Y-141133171D01*
X185283371Y-141204600D01*
X185211942Y-141347457D01*
X185211942Y-142133171D01*
X185211942Y-141347457D02*
X185140514Y-141204600D01*
X184997657Y-141133171D01*
X184783371Y-141133171D01*
X184640514Y-141204600D01*
X184569085Y-141347457D01*
X184569085Y-142133171D01*
X182783371Y-140561742D02*
X184069085Y-142490314D01*
X182426228Y-141133171D02*
X182140514Y-142133171D01*
X181854799Y-141418885D01*
X181569085Y-142133171D01*
X181283371Y-141133171D01*
X180783371Y-142061742D02*
X180640514Y-142133171D01*
X180354799Y-142133171D01*
X180211942Y-142061742D01*
X180140514Y-141918885D01*
X180140514Y-141847457D01*
X180211942Y-141704600D01*
X180354799Y-141633171D01*
X180569085Y-141633171D01*
X180711942Y-141561742D01*
X180783371Y-141418885D01*
X180783371Y-141347457D01*
X180711942Y-141204600D01*
X180569085Y-141133171D01*
X180354799Y-141133171D01*
X180211942Y-141204600D01*
X179640514Y-141133171D02*
X178854799Y-141133171D01*
X179640514Y-142133171D01*
X178854799Y-142133171D01*
X177711942Y-142061742D02*
X177854799Y-142133171D01*
X178140514Y-142133171D01*
X178283371Y-142061742D01*
X178354799Y-141918885D01*
X178354799Y-141347457D01*
X178283371Y-141204600D01*
X178140514Y-141133171D01*
X177854799Y-141133171D01*
X177711942Y-141204600D01*
X177640514Y-141347457D01*
X177640514Y-141490314D01*
X178354799Y-141633171D01*
X177211942Y-141133171D02*
X176640514Y-141133171D01*
X176997657Y-140633171D02*
X176997657Y-141918885D01*
X176926228Y-142061742D01*
X176783371Y-142133171D01*
X176640514Y-142133171D01*
X175926228Y-142133171D02*
X176069085Y-142061742D01*
X176140514Y-141990314D01*
X176211942Y-141847457D01*
X176211942Y-141418885D01*
X176140514Y-141276028D01*
X176069085Y-141204600D01*
X175926228Y-141133171D01*
X175711942Y-141133171D01*
X175569085Y-141204600D01*
X175497657Y-141276028D01*
X175426228Y-141418885D01*
X175426228Y-141847457D01*
X175497657Y-141990314D01*
X175569085Y-142061742D01*
X175711942Y-142133171D01*
X175926228Y-142133171D01*
X174711942Y-142133171D02*
X174426228Y-142133171D01*
X174283371Y-142061742D01*
X174211942Y-141990314D01*
X174069085Y-141776028D01*
X173997657Y-141490314D01*
X173997657Y-140918885D01*
X174069085Y-140776028D01*
X174140514Y-140704600D01*
X174283371Y-140633171D01*
X174569085Y-140633171D01*
X174711942Y-140704600D01*
X174783371Y-140776028D01*
X174854799Y-140918885D01*
X174854799Y-141276028D01*
X174783371Y-141418885D01*
X174711942Y-141490314D01*
X174569085Y-141561742D01*
X174283371Y-141561742D01*
X174140514Y-141490314D01*
X174069085Y-141418885D01*
X173997657Y-141276028D01*
X172283371Y-140561742D02*
X173569085Y-142490314D01*
X171854799Y-140776028D02*
X171783371Y-140704600D01*
X171640514Y-140633171D01*
X171283371Y-140633171D01*
X171140514Y-140704600D01*
X171069085Y-140776028D01*
X170997657Y-140918885D01*
X170997657Y-141061742D01*
X171069085Y-141276028D01*
X171926228Y-142133171D01*
X170997657Y-142133171D01*
X170711942Y-142276028D02*
X169569085Y-142276028D01*
X168569085Y-140633171D02*
X168854799Y-140633171D01*
X168997657Y-140704600D01*
X169069085Y-140776028D01*
X169211942Y-140990314D01*
X169283371Y-141276028D01*
X169283371Y-141847457D01*
X169211942Y-141990314D01*
X169140514Y-142061742D01*
X168997657Y-142133171D01*
X168711942Y-142133171D01*
X168569085Y-142061742D01*
X168497657Y-141990314D01*
X168426228Y-141847457D01*
X168426228Y-141490314D01*
X168497657Y-141347457D01*
X168569085Y-141276028D01*
X168711942Y-141204600D01*
X168997657Y-141204600D01*
X169140514Y-141276028D01*
X169211942Y-141347457D01*
X169283371Y-141490314D01*
X167926228Y-140633171D02*
X166926228Y-140633171D01*
X167569085Y-142133171D01*
X166283371Y-142133171D02*
X165997657Y-142133171D01*
X165854799Y-142061742D01*
X165783371Y-141990314D01*
X165640514Y-141776028D01*
X165569085Y-141490314D01*
X165569085Y-140918885D01*
X165640514Y-140776028D01*
X165711942Y-140704600D01*
X165854799Y-140633171D01*
X166140514Y-140633171D01*
X166283371Y-140704600D01*
X166354799Y-140776028D01*
X166426228Y-140918885D01*
X166426228Y-141276028D01*
X166354799Y-141418885D01*
X166283371Y-141490314D01*
X166140514Y-141561742D01*
X165854799Y-141561742D01*
X165711942Y-141490314D01*
X165640514Y-141418885D01*
X165569085Y-141276028D01*
X165283371Y-142276028D02*
X164140514Y-142276028D01*
X163783371Y-142133171D02*
X163783371Y-140633171D01*
X163211942Y-140633171D01*
X163069085Y-140704600D01*
X162997657Y-140776028D01*
X162926228Y-140918885D01*
X162926228Y-141133171D01*
X162997657Y-141276028D01*
X163069085Y-141347457D01*
X163211942Y-141418885D01*
X163783371Y-141418885D01*
X161426228Y-141990314D02*
X161497657Y-142061742D01*
X161711942Y-142133171D01*
X161854799Y-142133171D01*
X162069085Y-142061742D01*
X162211942Y-141918885D01*
X162283371Y-141776028D01*
X162354799Y-141490314D01*
X162354799Y-141276028D01*
X162283371Y-140990314D01*
X162211942Y-140847457D01*
X162069085Y-140704600D01*
X161854799Y-140633171D01*
X161711942Y-140633171D01*
X161497657Y-140704600D01*
X161426228Y-140776028D01*
X160283371Y-141347457D02*
X160069085Y-141418885D01*
X159997657Y-141490314D01*
X159926228Y-141633171D01*
X159926228Y-141847457D01*
X159997657Y-141990314D01*
X160069085Y-142061742D01*
X160211942Y-142133171D01*
X160783371Y-142133171D01*
X160783371Y-140633171D01*
X160283371Y-140633171D01*
X160140514Y-140704600D01*
X160069085Y-140776028D01*
X159997657Y-140918885D01*
X159997657Y-141061742D01*
X160069085Y-141204600D01*
X160140514Y-141276028D01*
X160283371Y-141347457D01*
X160783371Y-141347457D01*
X189926228Y-144548171D02*
X189926228Y-143048171D01*
X189211942Y-143548171D02*
X189211942Y-144548171D01*
X189211942Y-143691028D02*
X189140514Y-143619600D01*
X188997657Y-143548171D01*
X188783371Y-143548171D01*
X188640514Y-143619600D01*
X188569085Y-143762457D01*
X188569085Y-144548171D01*
X187854800Y-143548171D02*
X187854800Y-145048171D01*
X187854800Y-143619600D02*
X187711942Y-143548171D01*
X187426228Y-143548171D01*
X187283371Y-143619600D01*
X187211942Y-143691028D01*
X187140514Y-143833885D01*
X187140514Y-144262457D01*
X187211942Y-144405314D01*
X187283371Y-144476742D01*
X187426228Y-144548171D01*
X187711942Y-144548171D01*
X187854800Y-144476742D01*
X185854800Y-143548171D02*
X185854800Y-144548171D01*
X186497657Y-143548171D02*
X186497657Y-144333885D01*
X186426228Y-144476742D01*
X186283371Y-144548171D01*
X186069085Y-144548171D01*
X185926228Y-144476742D01*
X185854800Y-144405314D01*
X185354800Y-143548171D02*
X184783371Y-143548171D01*
X185140514Y-143048171D02*
X185140514Y-144333885D01*
X185069085Y-144476742D01*
X184926228Y-144548171D01*
X184783371Y-144548171D01*
X183354800Y-143048171D02*
X182854800Y-144548171D01*
X182354800Y-143048171D01*
X181640514Y-144548171D02*
X181783371Y-144476742D01*
X181854800Y-144405314D01*
X181926228Y-144262457D01*
X181926228Y-143833885D01*
X181854800Y-143691028D01*
X181783371Y-143619600D01*
X181640514Y-143548171D01*
X181426228Y-143548171D01*
X181283371Y-143619600D01*
X181211942Y-143691028D01*
X181140514Y-143833885D01*
X181140514Y-144262457D01*
X181211942Y-144405314D01*
X181283371Y-144476742D01*
X181426228Y-144548171D01*
X181640514Y-144548171D01*
X180283371Y-144548171D02*
X180426228Y-144476742D01*
X180497657Y-144333885D01*
X180497657Y-143048171D01*
X179926228Y-143548171D02*
X179354800Y-143548171D01*
X179711942Y-143048171D02*
X179711942Y-144333885D01*
X179640514Y-144476742D01*
X179497657Y-144548171D01*
X179354800Y-144548171D01*
X178211942Y-144548171D02*
X178211942Y-143762457D01*
X178283371Y-143619600D01*
X178426228Y-143548171D01*
X178711942Y-143548171D01*
X178854800Y-143619600D01*
X178211942Y-144476742D02*
X178354800Y-144548171D01*
X178711942Y-144548171D01*
X178854800Y-144476742D01*
X178926228Y-144333885D01*
X178926228Y-144191028D01*
X178854800Y-144048171D01*
X178711942Y-143976742D01*
X178354800Y-143976742D01*
X178211942Y-143905314D01*
X176854800Y-143548171D02*
X176854800Y-144762457D01*
X176926228Y-144905314D01*
X176997657Y-144976742D01*
X177140514Y-145048171D01*
X177354800Y-145048171D01*
X177497657Y-144976742D01*
X176854800Y-144476742D02*
X176997657Y-144548171D01*
X177283371Y-144548171D01*
X177426228Y-144476742D01*
X177497657Y-144405314D01*
X177569085Y-144262457D01*
X177569085Y-143833885D01*
X177497657Y-143691028D01*
X177426228Y-143619600D01*
X177283371Y-143548171D01*
X176997657Y-143548171D01*
X176854800Y-143619600D01*
X175569085Y-144476742D02*
X175711942Y-144548171D01*
X175997657Y-144548171D01*
X176140514Y-144476742D01*
X176211942Y-144333885D01*
X176211942Y-143762457D01*
X176140514Y-143619600D01*
X175997657Y-143548171D01*
X175711942Y-143548171D01*
X175569085Y-143619600D01*
X175497657Y-143762457D01*
X175497657Y-143905314D01*
X176211942Y-144048171D01*
X174854800Y-144405314D02*
X174783371Y-144476742D01*
X174854800Y-144548171D01*
X174926228Y-144476742D01*
X174854800Y-144405314D01*
X174854800Y-144548171D01*
X174854800Y-143619600D02*
X174783371Y-143691028D01*
X174854800Y-143762457D01*
X174926228Y-143691028D01*
X174854800Y-143619600D01*
X174854800Y-143762457D01*
X173140514Y-143048171D02*
X172140514Y-143048171D01*
X172783371Y-144548171D01*
X171569085Y-143976742D02*
X170426228Y-143976742D01*
X168926228Y-144548171D02*
X169783371Y-144548171D01*
X169354800Y-144548171D02*
X169354800Y-143048171D01*
X169497657Y-143262457D01*
X169640514Y-143405314D01*
X169783371Y-143476742D01*
X168354800Y-143191028D02*
X168283371Y-143119600D01*
X168140514Y-143048171D01*
X167783371Y-143048171D01*
X167640514Y-143119600D01*
X167569085Y-143191028D01*
X167497657Y-143333885D01*
X167497657Y-143476742D01*
X167569085Y-143691028D01*
X168426228Y-144548171D01*
X167497657Y-144548171D01*
X167069085Y-143048171D02*
X166569085Y-144548171D01*
X166069085Y-143048171D01*
X190211942Y-146963171D02*
X190211942Y-145463171D01*
X189711942Y-146534600D01*
X189211942Y-145463171D01*
X189211942Y-146963171D01*
X187854800Y-146963171D02*
X187854800Y-146177457D01*
X187926228Y-146034600D01*
X188069085Y-145963171D01*
X188354800Y-145963171D01*
X188497657Y-146034600D01*
X187854800Y-146891742D02*
X187997657Y-146963171D01*
X188354800Y-146963171D01*
X188497657Y-146891742D01*
X188569085Y-146748885D01*
X188569085Y-146606028D01*
X188497657Y-146463171D01*
X188354800Y-146391742D01*
X187997657Y-146391742D01*
X187854800Y-146320314D01*
X187283371Y-146963171D02*
X186497657Y-145963171D01*
X187283371Y-145963171D02*
X186497657Y-146963171D01*
X184497657Y-145463171D02*
X184211942Y-145463171D01*
X184069085Y-145534600D01*
X183926228Y-145677457D01*
X183854800Y-145963171D01*
X183854800Y-146463171D01*
X183926228Y-146748885D01*
X184069085Y-146891742D01*
X184211942Y-146963171D01*
X184497657Y-146963171D01*
X184640514Y-146891742D01*
X184783371Y-146748885D01*
X184854800Y-146463171D01*
X184854800Y-145963171D01*
X184783371Y-145677457D01*
X184640514Y-145534600D01*
X184497657Y-145463171D01*
X182569085Y-145963171D02*
X182569085Y-146963171D01*
X183211942Y-145963171D02*
X183211942Y-146748885D01*
X183140514Y-146891742D01*
X182997657Y-146963171D01*
X182783371Y-146963171D01*
X182640514Y-146891742D01*
X182569085Y-146820314D01*
X182069085Y-145963171D02*
X181497657Y-145963171D01*
X181854800Y-145463171D02*
X181854800Y-146748885D01*
X181783371Y-146891742D01*
X181640514Y-146963171D01*
X181497657Y-146963171D01*
X180997657Y-145963171D02*
X180997657Y-147463171D01*
X180997657Y-146034600D02*
X180854800Y-145963171D01*
X180569085Y-145963171D01*
X180426228Y-146034600D01*
X180354800Y-146106028D01*
X180283371Y-146248885D01*
X180283371Y-146677457D01*
X180354800Y-146820314D01*
X180426228Y-146891742D01*
X180569085Y-146963171D01*
X180854800Y-146963171D01*
X180997657Y-146891742D01*
X178997657Y-145963171D02*
X178997657Y-146963171D01*
X179640514Y-145963171D02*
X179640514Y-146748885D01*
X179569085Y-146891742D01*
X179426228Y-146963171D01*
X179211942Y-146963171D01*
X179069085Y-146891742D01*
X178997657Y-146820314D01*
X178497657Y-145963171D02*
X177926228Y-145963171D01*
X178283371Y-145463171D02*
X178283371Y-146748885D01*
X178211942Y-146891742D01*
X178069085Y-146963171D01*
X177926228Y-146963171D01*
X177426228Y-146820314D02*
X177354800Y-146891742D01*
X177426228Y-146963171D01*
X177497657Y-146891742D01*
X177426228Y-146820314D01*
X177426228Y-146963171D01*
X177426228Y-146034600D02*
X177354800Y-146106028D01*
X177426228Y-146177457D01*
X177497657Y-146106028D01*
X177426228Y-146034600D01*
X177426228Y-146177457D01*
X174926228Y-145463171D02*
X175211942Y-145463171D01*
X175354800Y-145534600D01*
X175426228Y-145606028D01*
X175569085Y-145820314D01*
X175640514Y-146106028D01*
X175640514Y-146677457D01*
X175569085Y-146820314D01*
X175497657Y-146891742D01*
X175354800Y-146963171D01*
X175069085Y-146963171D01*
X174926228Y-146891742D01*
X174854800Y-146820314D01*
X174783371Y-146677457D01*
X174783371Y-146320314D01*
X174854800Y-146177457D01*
X174926228Y-146106028D01*
X175069085Y-146034600D01*
X175354800Y-146034600D01*
X175497657Y-146106028D01*
X175569085Y-146177457D01*
X175640514Y-146320314D01*
X174211942Y-146534600D02*
X173497657Y-146534600D01*
X174354800Y-146963171D02*
X173854800Y-145463171D01*
X173354800Y-146963171D01*
X170783371Y-146248885D02*
X170854800Y-146177457D01*
X170997657Y-146106028D01*
X171140514Y-146106028D01*
X171283371Y-146177457D01*
X171354800Y-146248885D01*
X171426228Y-146391742D01*
X171426228Y-146534600D01*
X171354800Y-146677457D01*
X171283371Y-146748885D01*
X171140514Y-146820314D01*
X170997657Y-146820314D01*
X170854800Y-146748885D01*
X170783371Y-146677457D01*
X170783371Y-146106028D02*
X170783371Y-146677457D01*
X170711942Y-146748885D01*
X170640514Y-146748885D01*
X170497657Y-146677457D01*
X170426228Y-146534600D01*
X170426228Y-146177457D01*
X170569085Y-145963171D01*
X170783371Y-145820314D01*
X171069085Y-145748885D01*
X171354800Y-145820314D01*
X171569085Y-145963171D01*
X171711942Y-146177457D01*
X171783371Y-146463171D01*
X171711942Y-146748885D01*
X171569085Y-146963171D01*
X171354800Y-147106028D01*
X171069085Y-147177457D01*
X170783371Y-147106028D01*
X170569085Y-146963171D01*
X168854800Y-145463171D02*
X168354800Y-146963171D01*
X167854800Y-145463171D01*
X167354800Y-146963171D02*
X167354800Y-145963171D01*
X167354800Y-145463171D02*
X167426228Y-145534600D01*
X167354800Y-145606028D01*
X167283371Y-145534600D01*
X167354800Y-145463171D01*
X167354800Y-145606028D01*
X166640514Y-145963171D02*
X166640514Y-146963171D01*
X166640514Y-146106028D02*
X166569085Y-146034600D01*
X166426228Y-145963171D01*
X166211942Y-145963171D01*
X166069085Y-146034600D01*
X165997657Y-146177457D01*
X165997657Y-146963171D01*
%TO.C,G\u002A\u002A\u002A*%
X181885771Y-116840000D02*
X182030914Y-116767428D01*
X182248628Y-116767428D01*
X182466342Y-116840000D01*
X182611485Y-116985142D01*
X182684057Y-117130285D01*
X182756628Y-117420571D01*
X182756628Y-117638285D01*
X182684057Y-117928571D01*
X182611485Y-118073714D01*
X182466342Y-118218857D01*
X182248628Y-118291428D01*
X182103485Y-118291428D01*
X181885771Y-118218857D01*
X181813200Y-118146285D01*
X181813200Y-117638285D01*
X182103485Y-117638285D01*
X180942342Y-116767428D02*
X180942342Y-117130285D01*
X181305200Y-116985142D02*
X180942342Y-117130285D01*
X180579485Y-116985142D01*
X181160057Y-117420571D02*
X180942342Y-117130285D01*
X180724628Y-117420571D01*
X179781200Y-116767428D02*
X179781200Y-117130285D01*
X180144057Y-116985142D02*
X179781200Y-117130285D01*
X179418342Y-116985142D01*
X179998914Y-117420571D02*
X179781200Y-117130285D01*
X179563485Y-117420571D01*
X178620057Y-116767428D02*
X178620057Y-117130285D01*
X178982914Y-116985142D02*
X178620057Y-117130285D01*
X178257200Y-116985142D01*
X178837771Y-117420571D02*
X178620057Y-117130285D01*
X178402342Y-117420571D01*
D13*
%TO.C,SW3*%
X200469333Y-84224761D02*
X200326476Y-84272380D01*
X200088380Y-84272380D01*
X199993142Y-84224761D01*
X199945523Y-84177142D01*
X199897904Y-84081904D01*
X199897904Y-83986666D01*
X199945523Y-83891428D01*
X199993142Y-83843809D01*
X200088380Y-83796190D01*
X200278857Y-83748571D01*
X200374095Y-83700952D01*
X200421714Y-83653333D01*
X200469333Y-83558095D01*
X200469333Y-83462857D01*
X200421714Y-83367619D01*
X200374095Y-83320000D01*
X200278857Y-83272380D01*
X200040761Y-83272380D01*
X199897904Y-83320000D01*
X199564571Y-83272380D02*
X199326476Y-84272380D01*
X199136000Y-83558095D01*
X198945523Y-84272380D01*
X198707428Y-83272380D01*
X198421714Y-83272380D02*
X197802666Y-83272380D01*
X198136000Y-83653333D01*
X197993142Y-83653333D01*
X197897904Y-83700952D01*
X197850285Y-83748571D01*
X197802666Y-83843809D01*
X197802666Y-84081904D01*
X197850285Y-84177142D01*
X197897904Y-84224761D01*
X197993142Y-84272380D01*
X198278857Y-84272380D01*
X198374095Y-84224761D01*
X198421714Y-84177142D01*
%TO.C,SW4*%
X200596333Y-87018761D02*
X200453476Y-87066380D01*
X200215380Y-87066380D01*
X200120142Y-87018761D01*
X200072523Y-86971142D01*
X200024904Y-86875904D01*
X200024904Y-86780666D01*
X200072523Y-86685428D01*
X200120142Y-86637809D01*
X200215380Y-86590190D01*
X200405857Y-86542571D01*
X200501095Y-86494952D01*
X200548714Y-86447333D01*
X200596333Y-86352095D01*
X200596333Y-86256857D01*
X200548714Y-86161619D01*
X200501095Y-86114000D01*
X200405857Y-86066380D01*
X200167761Y-86066380D01*
X200024904Y-86114000D01*
X199691571Y-86066380D02*
X199453476Y-87066380D01*
X199263000Y-86352095D01*
X199072523Y-87066380D01*
X198834428Y-86066380D01*
X198024904Y-86399714D02*
X198024904Y-87066380D01*
X198263000Y-86018761D02*
X198501095Y-86733047D01*
X197882047Y-86733047D01*
%TO.C,SW5*%
X196238761Y-92519666D02*
X196286380Y-92662523D01*
X196286380Y-92900619D01*
X196238761Y-92995857D01*
X196191142Y-93043476D01*
X196095904Y-93091095D01*
X196000666Y-93091095D01*
X195905428Y-93043476D01*
X195857809Y-92995857D01*
X195810190Y-92900619D01*
X195762571Y-92710142D01*
X195714952Y-92614904D01*
X195667333Y-92567285D01*
X195572095Y-92519666D01*
X195476857Y-92519666D01*
X195381619Y-92567285D01*
X195334000Y-92614904D01*
X195286380Y-92710142D01*
X195286380Y-92948238D01*
X195334000Y-93091095D01*
X195286380Y-93424428D02*
X196286380Y-93662523D01*
X195572095Y-93853000D01*
X196286380Y-94043476D01*
X195286380Y-94281571D01*
X195286380Y-95138714D02*
X195286380Y-94662523D01*
X195762571Y-94614904D01*
X195714952Y-94662523D01*
X195667333Y-94757761D01*
X195667333Y-94995857D01*
X195714952Y-95091095D01*
X195762571Y-95138714D01*
X195857809Y-95186333D01*
X196095904Y-95186333D01*
X196191142Y-95138714D01*
X196238761Y-95091095D01*
X196286380Y-94995857D01*
X196286380Y-94757761D01*
X196238761Y-94662523D01*
X196191142Y-94614904D01*
%TO.C,G\u002A\u002A\u002A*%
G36*
X187675469Y-123082194D02*
G01*
X187754045Y-123496540D01*
X187812857Y-123884115D01*
X187840397Y-124138382D01*
X187851978Y-124245306D01*
X187871481Y-124580498D01*
X187871764Y-124590084D01*
X187874197Y-124806109D01*
X187867478Y-125003297D01*
X187850334Y-125189842D01*
X187821492Y-125373943D01*
X187809509Y-125428355D01*
X187779680Y-125563794D01*
X187723625Y-125767593D01*
X187652053Y-125993536D01*
X187612278Y-126109962D01*
X187541929Y-126302086D01*
X187463850Y-126498630D01*
X187376424Y-126703102D01*
X187278035Y-126919011D01*
X187167065Y-127149863D01*
X187041900Y-127399168D01*
X186900920Y-127670433D01*
X186742511Y-127967167D01*
X186669087Y-128103523D01*
X186578014Y-128274019D01*
X186501717Y-128419052D01*
X186438909Y-128541427D01*
X186388300Y-128643952D01*
X186348603Y-128729434D01*
X186318529Y-128800679D01*
X186296790Y-128860493D01*
X186282098Y-128911685D01*
X186273163Y-128957061D01*
X186268699Y-128999426D01*
X186267704Y-129068572D01*
X186274840Y-129166264D01*
X186291511Y-129282548D01*
X186318216Y-129419716D01*
X186355455Y-129580057D01*
X186403727Y-129765861D01*
X186463530Y-129979418D01*
X186535363Y-130223019D01*
X186550889Y-130274642D01*
X186582662Y-130380308D01*
X186610702Y-130473591D01*
X186633447Y-130549285D01*
X186649330Y-130602185D01*
X186656789Y-130627085D01*
X186656884Y-130628104D01*
X186655313Y-130630251D01*
X186650606Y-130632291D01*
X186641909Y-130634227D01*
X186628371Y-130636060D01*
X186609139Y-130637795D01*
X186583361Y-130639434D01*
X186550183Y-130640979D01*
X186508755Y-130642433D01*
X186458223Y-130643799D01*
X186397735Y-130645080D01*
X186326438Y-130646279D01*
X186243481Y-130647398D01*
X186148010Y-130648439D01*
X186039174Y-130649406D01*
X185916120Y-130650302D01*
X185777995Y-130651129D01*
X185623947Y-130651889D01*
X185453124Y-130652586D01*
X185264674Y-130653223D01*
X185057743Y-130653801D01*
X184831480Y-130654325D01*
X184585032Y-130654796D01*
X184317547Y-130655217D01*
X184028172Y-130655591D01*
X183716055Y-130655921D01*
X183380344Y-130656209D01*
X183020185Y-130656459D01*
X182634728Y-130656673D01*
X182223118Y-130656853D01*
X181784505Y-130657002D01*
X181318035Y-130657124D01*
X180822856Y-130657221D01*
X180298115Y-130657295D01*
X179742961Y-130657350D01*
X179156541Y-130657388D01*
X178538002Y-130657411D01*
X177886493Y-130657423D01*
X177201159Y-130657427D01*
X167736509Y-130657427D01*
X167741619Y-130609748D01*
X167744829Y-130577432D01*
X167750494Y-130517465D01*
X167757644Y-130440041D01*
X167765453Y-130354014D01*
X167779176Y-130206499D01*
X167829070Y-129729394D01*
X167888996Y-129230196D01*
X167957742Y-128716901D01*
X168034099Y-128197508D01*
X168116855Y-127680016D01*
X168204800Y-127172424D01*
X168296723Y-126682728D01*
X168391413Y-126218928D01*
X168426160Y-126058572D01*
X168481337Y-125811325D01*
X168490006Y-125773496D01*
X177291828Y-125773496D01*
X177292622Y-125917860D01*
X177299768Y-126056692D01*
X177313166Y-126180454D01*
X177332715Y-126279611D01*
X177343716Y-126317701D01*
X177390472Y-126447239D01*
X177449276Y-126574833D01*
X177514752Y-126689653D01*
X177581525Y-126780868D01*
X177662528Y-126859983D01*
X177795781Y-126951454D01*
X177957312Y-127027537D01*
X178145112Y-127087327D01*
X178357173Y-127129921D01*
X178426020Y-127138481D01*
X178564301Y-127148452D01*
X178717126Y-127152417D01*
X178872319Y-127150398D01*
X179017701Y-127142419D01*
X179141094Y-127128500D01*
X179198166Y-127118972D01*
X179457131Y-127058888D01*
X179698965Y-126974555D01*
X179920628Y-126867396D01*
X180119080Y-126738832D01*
X180291281Y-126590286D01*
X180307617Y-126573705D01*
X180456617Y-126395879D01*
X180578528Y-126198806D01*
X180671474Y-125986683D01*
X180733581Y-125763709D01*
X180762974Y-125534082D01*
X180764706Y-125428355D01*
X180746639Y-125254058D01*
X180700294Y-125096612D01*
X180624412Y-124952339D01*
X180517734Y-124817561D01*
X180451388Y-124751486D01*
X180313131Y-124640890D01*
X180155015Y-124547385D01*
X179973782Y-124469443D01*
X179766174Y-124405537D01*
X179528934Y-124354140D01*
X179492940Y-124348532D01*
X179397276Y-124338157D01*
X179277950Y-124329379D01*
X179142239Y-124322372D01*
X178997419Y-124317307D01*
X178850766Y-124314358D01*
X178709557Y-124313696D01*
X178581066Y-124315495D01*
X178472571Y-124319927D01*
X178391347Y-124327164D01*
X178360030Y-124331532D01*
X178174697Y-124367099D01*
X178165406Y-124368882D01*
X177995824Y-124421918D01*
X177849068Y-124492913D01*
X177722919Y-124584147D01*
X177615162Y-124697894D01*
X177523578Y-124836432D01*
X177445952Y-125002038D01*
X177380067Y-125196987D01*
X177323705Y-125423557D01*
X177309698Y-125506323D01*
X177297486Y-125633138D01*
X177291828Y-125773496D01*
X168490006Y-125773496D01*
X168542656Y-125543734D01*
X168608788Y-125261226D01*
X168678402Y-124969228D01*
X168750171Y-124673169D01*
X168822763Y-124378475D01*
X168861083Y-124225436D01*
X170704573Y-124225436D01*
X170711620Y-124412910D01*
X170747855Y-124595367D01*
X170811753Y-124770590D01*
X170901787Y-124936364D01*
X171016433Y-125090474D01*
X171154165Y-125230703D01*
X171313458Y-125354836D01*
X171492786Y-125460657D01*
X171690625Y-125545951D01*
X171905449Y-125608501D01*
X172135733Y-125646091D01*
X172213199Y-125653904D01*
X172275168Y-125659059D01*
X172325796Y-125660773D01*
X172376541Y-125659012D01*
X172438861Y-125653742D01*
X172524213Y-125644928D01*
X172713244Y-125613691D01*
X172925607Y-125552084D01*
X173129017Y-125465596D01*
X173317692Y-125357154D01*
X173485852Y-125229685D01*
X173627717Y-125086116D01*
X173746002Y-124923203D01*
X173838993Y-124743117D01*
X173900313Y-124556798D01*
X173930443Y-124367099D01*
X173929860Y-124176873D01*
X173919789Y-124115466D01*
X184514612Y-124115466D01*
X184521259Y-124250817D01*
X184540018Y-124379919D01*
X184569939Y-124489328D01*
X184631290Y-124628014D01*
X184739179Y-124799505D01*
X184874274Y-124952157D01*
X185034542Y-125084359D01*
X185217952Y-125194502D01*
X185422472Y-125280974D01*
X185646070Y-125342167D01*
X185720592Y-125353795D01*
X185837015Y-125363427D01*
X185966612Y-125367238D01*
X186097609Y-125365203D01*
X186218235Y-125357299D01*
X186316715Y-125343502D01*
X186321528Y-125342530D01*
X186535092Y-125284587D01*
X186731526Y-125202403D01*
X186908706Y-125098239D01*
X187064507Y-124974358D01*
X187196803Y-124833022D01*
X187303471Y-124676494D01*
X187382386Y-124507037D01*
X187431422Y-124326912D01*
X187448456Y-124138382D01*
X187443722Y-124034999D01*
X187409739Y-123849369D01*
X187344669Y-123673467D01*
X187250472Y-123509542D01*
X187129106Y-123359843D01*
X186982533Y-123226619D01*
X186812712Y-123112118D01*
X186621602Y-123018588D01*
X186411164Y-122948278D01*
X186396075Y-122944419D01*
X186248406Y-122916866D01*
X186084291Y-122901472D01*
X185915857Y-122898503D01*
X185755228Y-122908221D01*
X185614531Y-122930894D01*
X185466438Y-122971525D01*
X185250705Y-123057589D01*
X185056633Y-123170503D01*
X184884599Y-123310072D01*
X184787353Y-123411927D01*
X184669078Y-123573256D01*
X184583116Y-123745105D01*
X184530173Y-123926248D01*
X184521025Y-123987310D01*
X184514612Y-124115466D01*
X173919789Y-124115466D01*
X173899045Y-123988974D01*
X173838476Y-123806256D01*
X173748633Y-123631571D01*
X173629996Y-123467774D01*
X173483044Y-123317718D01*
X173308255Y-123184257D01*
X173284719Y-123169013D01*
X173116369Y-123074925D01*
X172933730Y-122999229D01*
X172727410Y-122937942D01*
X172722926Y-122936825D01*
X172653994Y-122921448D01*
X172587197Y-122911023D01*
X172513345Y-122904752D01*
X172423245Y-122901836D01*
X172307705Y-122901477D01*
X172131383Y-122907432D01*
X171969373Y-122925899D01*
X171819965Y-122959211D01*
X171672659Y-123009736D01*
X171516956Y-123079845D01*
X171413694Y-123135018D01*
X171226024Y-123260637D01*
X171064316Y-123405424D01*
X170930586Y-123567441D01*
X170826845Y-123744746D01*
X170784142Y-123844299D01*
X170728238Y-124035161D01*
X170704573Y-124225436D01*
X168861083Y-124225436D01*
X168894851Y-124090573D01*
X168965105Y-123814893D01*
X169032195Y-123556860D01*
X169094791Y-123321902D01*
X169151565Y-123115447D01*
X169195517Y-122958761D01*
X169271867Y-122686337D01*
X169307248Y-122559908D01*
X178948115Y-122559908D01*
X178948899Y-122577571D01*
X178972583Y-122653110D01*
X179028607Y-122718386D01*
X179116100Y-122772622D01*
X179234190Y-122815039D01*
X179255665Y-122820256D01*
X179343155Y-122834232D01*
X179449024Y-122843453D01*
X179561014Y-122847393D01*
X179666867Y-122845527D01*
X179754326Y-122837329D01*
X179761688Y-122836165D01*
X179901080Y-122806643D01*
X180027843Y-122765999D01*
X180136470Y-122716709D01*
X180221454Y-122661249D01*
X180277291Y-122602096D01*
X180279316Y-122598866D01*
X180299889Y-122546825D01*
X180308350Y-122488869D01*
X180296593Y-122429763D01*
X180254276Y-122366399D01*
X180184719Y-122311652D01*
X180091663Y-122266888D01*
X179978849Y-122233475D01*
X179850019Y-122212781D01*
X179708914Y-122206174D01*
X179559275Y-122215022D01*
X179479334Y-122225700D01*
X179327135Y-122257330D01*
X179197163Y-122300415D01*
X179091847Y-122353586D01*
X179013614Y-122415472D01*
X178964894Y-122484703D01*
X178948115Y-122559908D01*
X169307248Y-122559908D01*
X169340041Y-122442726D01*
X169400865Y-122224948D01*
X169455166Y-122030024D01*
X169503770Y-121854976D01*
X169547504Y-121696824D01*
X169587194Y-121552590D01*
X169623666Y-121419295D01*
X169657747Y-121293959D01*
X169690263Y-121173604D01*
X169765859Y-120901907D01*
X169851606Y-120618792D01*
X173772938Y-120618792D01*
X173772952Y-120668743D01*
X173773721Y-120759916D01*
X173776376Y-120828331D01*
X173781979Y-120882239D01*
X173791593Y-120929890D01*
X173806282Y-120979537D01*
X173827106Y-121039430D01*
X173834789Y-121060320D01*
X173868927Y-121144152D01*
X173906162Y-121224845D01*
X173939704Y-121287441D01*
X173955021Y-121311879D01*
X174059358Y-121447226D01*
X174184119Y-121565946D01*
X174322143Y-121662027D01*
X174466272Y-121729459D01*
X174513746Y-121743685D01*
X174623714Y-121764107D01*
X174743280Y-121773584D01*
X174858562Y-121771345D01*
X174955683Y-121756619D01*
X175043198Y-121729301D01*
X175198756Y-121654219D01*
X175341122Y-121550772D01*
X175467160Y-121422404D01*
X175573733Y-121272558D01*
X175657702Y-121104677D01*
X175715931Y-120922205D01*
X175732391Y-120827552D01*
X175742886Y-120696438D01*
X175743374Y-120564489D01*
X182121683Y-120564489D01*
X182125353Y-120727836D01*
X182144500Y-120886081D01*
X182178663Y-121026232D01*
X182205175Y-121099485D01*
X182289340Y-121271380D01*
X182396308Y-121423697D01*
X182522989Y-121553064D01*
X182666294Y-121656108D01*
X182823132Y-121729459D01*
X182861646Y-121741464D01*
X182974986Y-121764064D01*
X183097800Y-121774128D01*
X183216441Y-121770981D01*
X183317261Y-121753947D01*
X183442256Y-121710459D01*
X183602733Y-121624888D01*
X183743565Y-121512744D01*
X183860824Y-121376754D01*
X183932635Y-121267257D01*
X184009622Y-121117199D01*
X184061173Y-120963551D01*
X184090034Y-120797472D01*
X184098952Y-120610123D01*
X184093393Y-120489454D01*
X184061375Y-120297635D01*
X184002826Y-120117194D01*
X183919961Y-119951574D01*
X183814993Y-119804220D01*
X183690135Y-119678577D01*
X183547601Y-119578090D01*
X183389605Y-119506203D01*
X183277164Y-119477531D01*
X183120269Y-119463560D01*
X182962050Y-119475703D01*
X182814463Y-119513801D01*
X182696139Y-119567018D01*
X182546968Y-119665807D01*
X182416045Y-119791753D01*
X182305418Y-119942396D01*
X182217135Y-120115278D01*
X182153244Y-120307939D01*
X182133948Y-120409032D01*
X182122159Y-120558460D01*
X182121683Y-120564489D01*
X175743374Y-120564489D01*
X175743396Y-120558460D01*
X175733952Y-120426986D01*
X175714582Y-120315379D01*
X175656768Y-120135764D01*
X175569999Y-119959234D01*
X175460310Y-119805055D01*
X175329572Y-119675399D01*
X175179650Y-119572442D01*
X175012415Y-119498356D01*
X174927075Y-119477968D01*
X174809211Y-119466428D01*
X174684362Y-119467906D01*
X174565669Y-119482147D01*
X174466272Y-119508899D01*
X174450525Y-119515118D01*
X174284125Y-119600711D01*
X174136644Y-119714646D01*
X174009473Y-119855407D01*
X173904001Y-120021480D01*
X173821619Y-120211352D01*
X173817964Y-120221852D01*
X173800214Y-120276090D01*
X173787862Y-120324221D01*
X173779932Y-120374401D01*
X173775451Y-120434786D01*
X173773445Y-120513531D01*
X173772938Y-120618792D01*
X169851606Y-120618792D01*
X169873757Y-120545654D01*
X169984329Y-120218443D01*
X170099023Y-119916976D01*
X170219285Y-119637957D01*
X170346565Y-119378087D01*
X170482309Y-119134070D01*
X170627967Y-118902607D01*
X170784985Y-118680401D01*
X170827799Y-118625214D01*
X170914421Y-118522330D01*
X171011842Y-118415149D01*
X171113755Y-118310088D01*
X171213851Y-118213564D01*
X171305820Y-118131993D01*
X171383355Y-118071792D01*
X171490609Y-117997301D01*
X171462499Y-117938354D01*
X171457599Y-117928553D01*
X171435415Y-117893555D01*
X171418129Y-117879406D01*
X171411836Y-117880670D01*
X171377896Y-117898372D01*
X171325777Y-117933574D01*
X171261127Y-117981946D01*
X171189595Y-118039158D01*
X171116829Y-118100881D01*
X171048476Y-118162784D01*
X171011716Y-118198477D01*
X170933467Y-118279192D01*
X170853439Y-118366680D01*
X170784198Y-118447409D01*
X170656392Y-118603450D01*
X170532799Y-118534056D01*
X170337764Y-118421706D01*
X169889361Y-118139689D01*
X169466576Y-117838564D01*
X169065521Y-117515633D01*
X168996669Y-117455077D01*
X168885129Y-117352070D01*
X168762256Y-117234083D01*
X168634296Y-117107411D01*
X168507495Y-116978347D01*
X168388097Y-116853185D01*
X168282347Y-116738221D01*
X168196490Y-116639748D01*
X168182873Y-116623447D01*
X167865683Y-116215911D01*
X167577885Y-115790450D01*
X167319904Y-115348188D01*
X167092168Y-114890247D01*
X166895103Y-114417748D01*
X166729136Y-113931813D01*
X166594693Y-113433566D01*
X166492202Y-112924127D01*
X166422090Y-112404619D01*
X166384782Y-111876164D01*
X166372784Y-111568417D01*
X166411335Y-111568417D01*
X166449858Y-111572558D01*
X166521241Y-111586741D01*
X166618087Y-111609928D01*
X166736463Y-111640995D01*
X166872434Y-111678819D01*
X167022064Y-111722278D01*
X167181420Y-111770250D01*
X167346566Y-111821611D01*
X167513567Y-111875238D01*
X167678490Y-111930009D01*
X167807947Y-111974299D01*
X168189632Y-112110261D01*
X168598148Y-112263181D01*
X169031491Y-112432183D01*
X169487657Y-112616394D01*
X169964644Y-112814939D01*
X170460446Y-113026945D01*
X170973061Y-113251536D01*
X171500484Y-113487839D01*
X172040712Y-113734980D01*
X172591742Y-113992084D01*
X173151569Y-114258278D01*
X173718189Y-114532686D01*
X174289600Y-114814435D01*
X175014499Y-115175061D01*
X175130488Y-115140772D01*
X175250802Y-115108494D01*
X175454265Y-115065752D01*
X175685887Y-115029834D01*
X175946656Y-115000654D01*
X176237564Y-114978124D01*
X176559600Y-114962157D01*
X176913753Y-114952666D01*
X177301016Y-114949563D01*
X177356015Y-114949619D01*
X177671378Y-114951875D01*
X177983941Y-114957600D01*
X178298333Y-114967033D01*
X178619189Y-114980417D01*
X178951138Y-114997991D01*
X179298814Y-115019998D01*
X179666848Y-115046677D01*
X180059872Y-115078270D01*
X180482517Y-115115017D01*
X180507406Y-115117272D01*
X180627418Y-115128569D01*
X180769595Y-115142497D01*
X180928786Y-115158506D01*
X181099838Y-115176049D01*
X181277599Y-115194578D01*
X181456917Y-115213546D01*
X181632639Y-115232403D01*
X181799613Y-115250603D01*
X181952688Y-115267597D01*
X182086710Y-115282837D01*
X182196527Y-115295776D01*
X182276988Y-115305864D01*
X182355009Y-115316193D01*
X182452926Y-115180428D01*
X182568726Y-115027010D01*
X182777866Y-114777136D01*
X183018141Y-114518905D01*
X183288322Y-114253459D01*
X183587186Y-113981937D01*
X183913506Y-113705480D01*
X184266055Y-113425228D01*
X184643609Y-113142322D01*
X184908051Y-112953586D01*
X185296978Y-112688061D01*
X185712722Y-112416909D01*
X186151502Y-112142356D01*
X186609534Y-111866624D01*
X187083036Y-111591938D01*
X187568227Y-111320521D01*
X188061323Y-111054598D01*
X188558542Y-110796391D01*
X189056101Y-110548126D01*
X189132285Y-110510949D01*
X189306715Y-110426274D01*
X189453166Y-110355970D01*
X189573764Y-110299098D01*
X189670632Y-110254721D01*
X189745895Y-110221903D01*
X189801677Y-110199705D01*
X189840101Y-110187190D01*
X189863292Y-110183421D01*
X189873373Y-110187461D01*
X189881791Y-110213339D01*
X189893980Y-110268574D01*
X189908267Y-110345505D01*
X189923597Y-110437482D01*
X189938915Y-110537857D01*
X189953165Y-110639983D01*
X189965293Y-110737209D01*
X189974242Y-110822887D01*
X189985239Y-110973705D01*
X189990199Y-111366358D01*
X189961896Y-111766714D01*
X189900590Y-112174215D01*
X189806539Y-112588302D01*
X189680003Y-113008418D01*
X189521241Y-113434003D01*
X189330513Y-113864499D01*
X189108076Y-114299348D01*
X188854192Y-114737990D01*
X188569118Y-115179868D01*
X188253114Y-115624423D01*
X187906440Y-116071097D01*
X187529353Y-116519330D01*
X187122115Y-116968565D01*
X187066723Y-117026863D01*
X186973492Y-117122684D01*
X186871741Y-117224992D01*
X186764465Y-117330962D01*
X186654665Y-117437770D01*
X186545336Y-117542592D01*
X186439478Y-117642602D01*
X186340087Y-117734975D01*
X186250162Y-117816888D01*
X186172700Y-117885514D01*
X186110699Y-117938031D01*
X186067157Y-117971612D01*
X186045071Y-117983434D01*
X186030234Y-117973662D01*
X186000367Y-117942634D01*
X185963738Y-117897730D01*
X185962103Y-117895599D01*
X185917836Y-117843432D01*
X185856634Y-117778584D01*
X185782644Y-117704775D01*
X185700012Y-117625721D01*
X185612886Y-117545143D01*
X185525413Y-117466759D01*
X185441738Y-117394288D01*
X185366008Y-117331448D01*
X185302372Y-117281959D01*
X185254974Y-117249538D01*
X185227962Y-117237905D01*
X185225637Y-117238227D01*
X185202318Y-117254602D01*
X185173702Y-117288111D01*
X185137952Y-117338317D01*
X185306890Y-117473922D01*
X185372177Y-117527485D01*
X185494790Y-117633834D01*
X185613523Y-117743716D01*
X185722284Y-117851220D01*
X185814982Y-117950434D01*
X185885524Y-118035447D01*
X185903989Y-118060704D01*
X185975115Y-118171042D01*
X186054058Y-118311530D01*
X186139804Y-118479588D01*
X186231338Y-118672637D01*
X186327646Y-118888098D01*
X186427712Y-119123390D01*
X186530522Y-119375935D01*
X186635061Y-119643151D01*
X186740315Y-119922461D01*
X186845269Y-120211284D01*
X186948908Y-120507041D01*
X186983706Y-120610123D01*
X187050218Y-120807151D01*
X187148183Y-121109036D01*
X187241790Y-121410116D01*
X187330024Y-121707811D01*
X187458734Y-122171644D01*
X187538757Y-122488869D01*
X187577056Y-122640691D01*
X187675469Y-123082194D01*
G37*
G36*
X179068840Y-124537566D02*
G01*
X179082489Y-124538261D01*
X179335886Y-124557612D01*
X179559249Y-124588252D01*
X179755509Y-124631128D01*
X179927596Y-124687183D01*
X180078440Y-124757364D01*
X180210972Y-124842617D01*
X180328121Y-124943887D01*
X180402314Y-125022558D01*
X180458001Y-125096839D01*
X180495931Y-125172607D01*
X180519188Y-125258052D01*
X180530857Y-125361365D01*
X180534021Y-125490737D01*
X180533810Y-125550270D01*
X180531888Y-125628742D01*
X180526482Y-125690284D01*
X180515836Y-125746002D01*
X180498196Y-125807003D01*
X180471805Y-125884391D01*
X180464312Y-125905395D01*
X180387907Y-126085656D01*
X180296471Y-126241542D01*
X180184403Y-126381326D01*
X180046102Y-126513284D01*
X179978412Y-126567120D01*
X179803187Y-126678906D01*
X179604504Y-126772833D01*
X179387802Y-126846895D01*
X179158523Y-126899089D01*
X178922108Y-126927410D01*
X178766968Y-126933320D01*
X178552243Y-126926801D01*
X178350371Y-126903416D01*
X178166126Y-126864013D01*
X178004283Y-126809438D01*
X177869616Y-126740540D01*
X177852563Y-126729213D01*
X177753645Y-126640522D01*
X177669462Y-126523861D01*
X177601464Y-126382812D01*
X177551100Y-126220958D01*
X177519819Y-126041882D01*
X177509070Y-125849166D01*
X177514418Y-125707529D01*
X177535047Y-125528600D01*
X177569487Y-125352658D01*
X177615938Y-125185973D01*
X177672596Y-125034815D01*
X177737660Y-124905457D01*
X177809328Y-124804169D01*
X177825555Y-124786994D01*
X177902210Y-124725427D01*
X178000986Y-124667153D01*
X178112210Y-124617349D01*
X178226203Y-124581189D01*
X178296063Y-124566370D01*
X178451576Y-124545258D01*
X178634763Y-124533288D01*
X178841794Y-124530658D01*
X179068840Y-124537566D01*
G37*
G36*
X183392536Y-119770147D02*
G01*
X183493594Y-119791537D01*
X183594497Y-119837326D01*
X183682676Y-119902181D01*
X183691322Y-119910435D01*
X183768279Y-120006493D01*
X183813401Y-120114947D01*
X183828135Y-120239149D01*
X183818571Y-120325002D01*
X183779621Y-120433654D01*
X183715422Y-120531034D01*
X183631099Y-120609820D01*
X183531774Y-120662689D01*
X183514194Y-120668175D01*
X183447642Y-120681631D01*
X183379955Y-120687382D01*
X183309529Y-120684475D01*
X183219252Y-120664330D01*
X183138572Y-120621097D01*
X183056515Y-120550118D01*
X183000106Y-120487664D01*
X182951433Y-120409417D01*
X182925893Y-120323240D01*
X182918490Y-120217079D01*
X182918893Y-120199867D01*
X182940153Y-120090067D01*
X182989951Y-119988508D01*
X183063024Y-119900418D01*
X183154110Y-119831024D01*
X183257948Y-119785554D01*
X183369275Y-119769236D01*
X183392536Y-119770147D01*
G37*
G36*
X175113753Y-119784920D02*
G01*
X175217108Y-119824305D01*
X175309172Y-119887502D01*
X175385333Y-119969902D01*
X175440983Y-120066895D01*
X175471509Y-120173870D01*
X175472302Y-120286219D01*
X175465954Y-120321264D01*
X175425682Y-120431819D01*
X175359947Y-120530391D01*
X175274455Y-120609756D01*
X175174914Y-120662689D01*
X175169277Y-120664633D01*
X175073747Y-120683725D01*
X174967180Y-120684648D01*
X174867054Y-120667149D01*
X174865763Y-120666763D01*
X174801964Y-120635148D01*
X174732533Y-120581719D01*
X174666688Y-120515693D01*
X174613646Y-120446288D01*
X174582624Y-120382719D01*
X174564284Y-120293682D01*
X174565078Y-120170038D01*
X174595708Y-120055875D01*
X174653534Y-119955379D01*
X174735917Y-119872741D01*
X174840219Y-119812148D01*
X174963798Y-119777789D01*
X175003717Y-119773957D01*
X175113753Y-119784920D01*
G37*
D14*
%TO.C,SW3*%
X197376000Y-82947000D02*
X193276000Y-82947000D01*
X197376000Y-84947000D02*
X197376000Y-82947000D01*
X193276000Y-84947000D02*
X197376000Y-84947000D01*
X196626000Y-85147000D02*
X196926000Y-85447000D01*
X196626000Y-85147000D02*
X196326000Y-85447000D01*
X193276000Y-82947000D02*
X193276000Y-84947000D01*
X196926000Y-85447000D02*
X196326000Y-85447000D01*
%TO.C,SW4*%
X194026000Y-85414000D02*
X193726000Y-85114000D01*
X194026000Y-85414000D02*
X194326000Y-85114000D01*
X193276000Y-87614000D02*
X197376000Y-87614000D01*
X193276000Y-85614000D02*
X193276000Y-87614000D01*
X193726000Y-85114000D02*
X194326000Y-85114000D01*
X197376000Y-87614000D02*
X197376000Y-85614000D01*
X197376000Y-85614000D02*
X193276000Y-85614000D01*
%TO.C,SW5*%
X193056000Y-92453000D02*
X193056000Y-95253000D01*
X195056000Y-95253000D02*
X195056000Y-92453000D01*
X193056000Y-95253000D02*
X195056000Y-95253000D01*
X195056000Y-92453000D02*
X193056000Y-92453000D01*
%TD*%
M02*
