%TF.GenerationSoftware,KiCad,Pcbnew,(6.0.1)*%
%TF.CreationDate,2022-03-15T17:40:35-04:00*%
%TF.ProjectId,2_679_PCB,325f3637-395f-4504-9342-2e6b69636164,rev?*%
%TF.SameCoordinates,Original*%
%TF.FileFunction,Soldermask,Top*%
%TF.FilePolarity,Negative*%
%FSLAX46Y46*%
G04 Gerber Fmt 4.6, Leading zero omitted, Abs format (unit mm)*
G04 Created by KiCad (PCBNEW (6.0.1)) date 2022-03-15 17:40:35*
%MOMM*%
%LPD*%
G01*
G04 APERTURE LIST*
G04 Aperture macros list*
%AMRoundRect*
0 Rectangle with rounded corners*
0 $1 Rounding radius*
0 $2 $3 $4 $5 $6 $7 $8 $9 X,Y pos of 4 corners*
0 Add a 4 corners polygon primitive as box body*
4,1,4,$2,$3,$4,$5,$6,$7,$8,$9,$2,$3,0*
0 Add four circle primitives for the rounded corners*
1,1,$1+$1,$2,$3*
1,1,$1+$1,$4,$5*
1,1,$1+$1,$6,$7*
1,1,$1+$1,$8,$9*
0 Add four rect primitives between the rounded corners*
20,1,$1+$1,$2,$3,$4,$5,0*
20,1,$1+$1,$4,$5,$6,$7,0*
20,1,$1+$1,$6,$7,$8,$9,0*
20,1,$1+$1,$8,$9,$2,$3,0*%
G04 Aperture macros list end*
%ADD10RoundRect,0.218750X0.256250X-0.218750X0.256250X0.218750X-0.256250X0.218750X-0.256250X-0.218750X0*%
%ADD11RoundRect,0.218750X-0.256250X0.218750X-0.256250X-0.218750X0.256250X-0.218750X0.256250X0.218750X0*%
%ADD12RoundRect,0.147500X-0.172500X0.147500X-0.172500X-0.147500X0.172500X-0.147500X0.172500X0.147500X0*%
%ADD13RoundRect,0.250000X-0.250000X-0.475000X0.250000X-0.475000X0.250000X0.475000X-0.250000X0.475000X0*%
%ADD14RoundRect,0.250000X-0.650000X0.325000X-0.650000X-0.325000X0.650000X-0.325000X0.650000X0.325000X0*%
%ADD15R,1.700000X1.700000*%
%ADD16O,1.700000X1.700000*%
%ADD17RoundRect,0.135000X0.185000X-0.135000X0.185000X0.135000X-0.185000X0.135000X-0.185000X-0.135000X0*%
%ADD18RoundRect,0.135000X-0.185000X0.135000X-0.185000X-0.135000X0.185000X-0.135000X0.185000X0.135000X0*%
%ADD19R,1.500000X1.000000*%
%ADD20RoundRect,0.135000X-0.135000X-0.185000X0.135000X-0.185000X0.135000X0.185000X-0.135000X0.185000X0*%
%ADD21R,0.228600X0.762000*%
%ADD22R,2.000000X2.500000*%
%ADD23R,1.500000X1.500000*%
%ADD24R,2.000000X1.500000*%
%ADD25R,2.000000X3.800000*%
%ADD26RoundRect,0.150000X0.150000X-0.512500X0.150000X0.512500X-0.150000X0.512500X-0.150000X-0.512500X0*%
%ADD27C,2.250000*%
%ADD28C,2.700000*%
%ADD29R,2.700000X2.700000*%
%ADD30RoundRect,0.042000X0.943000X0.258000X-0.943000X0.258000X-0.943000X-0.258000X0.943000X-0.258000X0*%
%ADD31R,2.600000X2.600000*%
%ADD32C,2.600000*%
%ADD33R,1.000000X0.800000*%
%ADD34RoundRect,0.140000X0.140000X0.170000X-0.140000X0.170000X-0.140000X-0.170000X0.140000X-0.170000X0*%
%ADD35RoundRect,0.140000X-0.140000X-0.170000X0.140000X-0.170000X0.140000X0.170000X-0.140000X0.170000X0*%
%ADD36RoundRect,0.140000X-0.170000X0.140000X-0.170000X-0.140000X0.170000X-0.140000X0.170000X0.140000X0*%
%ADD37R,4.000000X4.000000*%
%ADD38R,1.100000X0.500000*%
%ADD39C,2.780000*%
%ADD40RoundRect,0.140000X0.170000X-0.140000X0.170000X0.140000X-0.170000X0.140000X-0.170000X-0.140000X0*%
%ADD41R,1.600000X1.600000*%
%ADD42O,1.600000X1.600000*%
%ADD43R,2.000000X2.000000*%
%ADD44C,2.000000*%
%ADD45R,1.200000X1.200000*%
%ADD46R,1.600000X1.500000*%
%ADD47RoundRect,0.235000X1.465000X-0.940000X1.465000X0.940000X-1.465000X0.940000X-1.465000X-0.940000X0*%
%ADD48R,1.500000X1.600000*%
G04 APERTURE END LIST*
D10*
%TO.C,D8*%
X177292000Y-99034700D03*
X177292000Y-97459700D03*
%TD*%
%TO.C,D7*%
X131673600Y-96901100D03*
X131673600Y-95326100D03*
%TD*%
%TO.C,D3*%
X115468400Y-134950300D03*
X115468400Y-133375300D03*
%TD*%
D11*
%TO.C,D2*%
X113639600Y-130050300D03*
X113639600Y-131625300D03*
%TD*%
D12*
%TO.C,D1*%
X133197600Y-117082100D03*
X133197600Y-118052100D03*
%TD*%
D13*
%TO.C,C9*%
X133093800Y-122478800D03*
X131193800Y-122478800D03*
%TD*%
D14*
%TO.C,C4*%
X125069600Y-108456200D03*
X125069600Y-111406200D03*
%TD*%
D15*
%TO.C,J14*%
X162000000Y-98500000D03*
D16*
X164540000Y-98500000D03*
X167080000Y-98500000D03*
X169620000Y-98500000D03*
X172160000Y-98500000D03*
X174700000Y-98500000D03*
%TD*%
D15*
%TO.C,J24*%
X103775000Y-89275000D03*
D16*
X106315000Y-89275000D03*
X108855000Y-89275000D03*
%TD*%
D17*
%TO.C,R17*%
X126365000Y-83945000D03*
X126365000Y-84965000D03*
%TD*%
%TO.C,R19*%
X131445000Y-83945000D03*
X131445000Y-84965000D03*
%TD*%
D15*
%TO.C,J20*%
X103775000Y-103075000D03*
D16*
X106315000Y-103075000D03*
X108855000Y-103075000D03*
%TD*%
D18*
%TO.C,R24*%
X193929000Y-92460000D03*
X193929000Y-91440000D03*
%TD*%
%TO.C,R5*%
X122936000Y-120855200D03*
X122936000Y-119835200D03*
%TD*%
D15*
%TO.C,REF\u002A\u002A*%
X139700000Y-91440000D03*
D16*
X139700000Y-88900000D03*
X142240000Y-91440000D03*
X142240000Y-88900000D03*
X144780000Y-91440000D03*
X144780000Y-88900000D03*
X147320000Y-91440000D03*
X147320000Y-88900000D03*
X149860000Y-91440000D03*
X149860000Y-88900000D03*
X152400000Y-91440000D03*
X152400000Y-88900000D03*
X154940000Y-91440000D03*
X154940000Y-88900000D03*
X157480000Y-91440000D03*
X157480000Y-88900000D03*
X160020000Y-91440000D03*
X160020000Y-88900000D03*
X162560000Y-91440000D03*
X162560000Y-88900000D03*
X165100000Y-91440000D03*
X165100000Y-88900000D03*
X167640000Y-91440000D03*
X167640000Y-88900000D03*
X170180000Y-91440000D03*
X170180000Y-88900000D03*
X172720000Y-91440000D03*
X172720000Y-88900000D03*
X175260000Y-91440000D03*
X175260000Y-88900000D03*
X177800000Y-91440000D03*
X177800000Y-88900000D03*
X180340000Y-91440000D03*
X180340000Y-88900000D03*
X182880000Y-91440000D03*
X182880000Y-88900000D03*
X185420000Y-91440000D03*
X185420000Y-88900000D03*
X187960000Y-91440000D03*
X187960000Y-88900000D03*
%TD*%
D18*
%TO.C,R13*%
X131500000Y-99210000D03*
X131500000Y-98190000D03*
%TD*%
D19*
%TO.C,JP3*%
X152654000Y-102504000D03*
X152654000Y-101204000D03*
%TD*%
D17*
%TO.C,R2*%
X121894600Y-117041200D03*
X121894600Y-118061200D03*
%TD*%
D20*
%TO.C,R12*%
X129710000Y-95000000D03*
X128690000Y-95000000D03*
%TD*%
D18*
%TO.C,R1*%
X131696600Y-118292200D03*
X131696600Y-117272200D03*
%TD*%
D15*
%TO.C,REF\u002A\u002A*%
X139700000Y-81280000D03*
D16*
X139700000Y-78740000D03*
X142240000Y-81280000D03*
X142240000Y-78740000D03*
X144780000Y-81280000D03*
X144780000Y-78740000D03*
X147320000Y-81280000D03*
X147320000Y-78740000D03*
X149860000Y-81280000D03*
X149860000Y-78740000D03*
X152400000Y-81280000D03*
X152400000Y-78740000D03*
X154940000Y-81280000D03*
X154940000Y-78740000D03*
X157480000Y-81280000D03*
X157480000Y-78740000D03*
X160020000Y-81280000D03*
X160020000Y-78740000D03*
X162560000Y-81280000D03*
X162560000Y-78740000D03*
X165100000Y-81280000D03*
X165100000Y-78740000D03*
X167640000Y-81280000D03*
X167640000Y-78740000D03*
X170180000Y-81280000D03*
X170180000Y-78740000D03*
X172720000Y-81280000D03*
X172720000Y-78740000D03*
X175260000Y-81280000D03*
X175260000Y-78740000D03*
X177800000Y-81280000D03*
X177800000Y-78740000D03*
X180340000Y-81280000D03*
X180340000Y-78740000D03*
X182880000Y-81280000D03*
X182880000Y-78740000D03*
X185420000Y-81280000D03*
X185420000Y-78740000D03*
X187960000Y-81280000D03*
X187960000Y-78740000D03*
%TD*%
D21*
%TO.C,U1*%
X124228598Y-121145300D03*
X124728600Y-121145300D03*
X125228599Y-121145300D03*
X125728600Y-121145300D03*
X126228599Y-121145300D03*
X126728598Y-121145300D03*
X127228600Y-121145300D03*
X127728599Y-121145300D03*
X128228601Y-121145300D03*
X128728600Y-121145300D03*
X129228599Y-121145300D03*
X129728600Y-121145300D03*
X130228599Y-121145300D03*
X130228602Y-117259100D03*
X129728600Y-117259100D03*
X129228601Y-117259100D03*
X128728600Y-117259100D03*
X128228601Y-117259100D03*
X127728602Y-117259100D03*
X127228600Y-117259100D03*
X126728601Y-117259100D03*
X126228599Y-117259100D03*
X125728600Y-117259100D03*
X125228601Y-117259100D03*
X124728600Y-117259100D03*
X124228601Y-117259100D03*
D22*
X127228600Y-119202200D03*
X124891800Y-119202200D03*
X129565400Y-119202200D03*
%TD*%
D15*
%TO.C,J4*%
X158000000Y-98460000D03*
D16*
X158000000Y-101000000D03*
X158000000Y-103540000D03*
X158000000Y-106080000D03*
%TD*%
D23*
%TO.C,SW2*%
X121920000Y-106008000D03*
X121920000Y-98208000D03*
%TD*%
D15*
%TO.C,J12*%
X112500000Y-124075000D03*
D16*
X115040000Y-124075000D03*
X117580000Y-124075000D03*
%TD*%
D24*
%TO.C,U5*%
X147930000Y-114187000D03*
X147930000Y-111887000D03*
D25*
X141630000Y-111887000D03*
D24*
X147930000Y-109587000D03*
%TD*%
D26*
%TO.C,U3*%
X128230000Y-98802500D03*
X129180000Y-98802500D03*
X130130000Y-98802500D03*
X130130000Y-96527500D03*
X128230000Y-96527500D03*
%TD*%
D17*
%TO.C,R16*%
X123800000Y-83890000D03*
X123800000Y-84910000D03*
%TD*%
D15*
%TO.C,R10*%
X125875000Y-104040000D03*
D16*
X125875000Y-101500000D03*
%TD*%
D15*
%TO.C,REF\u002A\u002A*%
X139700000Y-93980000D03*
D16*
X142240000Y-93980000D03*
X144780000Y-93980000D03*
X147320000Y-93980000D03*
X149860000Y-93980000D03*
X152400000Y-93980000D03*
X154940000Y-93980000D03*
X157480000Y-93980000D03*
X160020000Y-93980000D03*
X162560000Y-93980000D03*
X165100000Y-93980000D03*
X167640000Y-93980000D03*
X170180000Y-93980000D03*
X172720000Y-93980000D03*
X175260000Y-93980000D03*
X177800000Y-93980000D03*
X180340000Y-93980000D03*
X182880000Y-93980000D03*
X185420000Y-93980000D03*
X187960000Y-93980000D03*
%TD*%
D15*
%TO.C,JP1*%
X134874000Y-98552000D03*
D16*
X134874000Y-101092000D03*
%TD*%
D27*
%TO.C,SW1*%
X103935200Y-145161200D03*
X103935200Y-148361200D03*
X119735200Y-145161200D03*
X119735200Y-148361200D03*
D28*
X107135200Y-146761200D03*
X111835200Y-146761200D03*
D29*
X116535200Y-146761200D03*
%TD*%
D15*
%TO.C,J28*%
X140096000Y-100711000D03*
D16*
X142636000Y-100711000D03*
X145176000Y-100711000D03*
%TD*%
D15*
%TO.C,J10*%
X112500000Y-114875000D03*
D16*
X115040000Y-114875000D03*
X117580000Y-114875000D03*
%TD*%
D30*
%TO.C,U4*%
X200590000Y-95758000D03*
X200590000Y-94488000D03*
X200590000Y-93218000D03*
X200590000Y-91948000D03*
X195650000Y-91948000D03*
X195650000Y-93218000D03*
X195650000Y-94488000D03*
X195650000Y-95758000D03*
%TD*%
D31*
%TO.C,J5*%
X106984800Y-130810000D03*
D32*
X106984800Y-135890000D03*
%TD*%
D33*
%TO.C,D6*%
X137650000Y-148800000D03*
X137650000Y-150200000D03*
X140150000Y-150200000D03*
X140150000Y-148800000D03*
%TD*%
D20*
%TO.C,R28*%
X151386000Y-96520000D03*
X150366000Y-96520000D03*
%TD*%
D15*
%TO.C,J18*%
X198000000Y-98450000D03*
D16*
X198000000Y-100990000D03*
X198000000Y-103530000D03*
X198000000Y-106070000D03*
%TD*%
D17*
%TO.C,R11*%
X126900000Y-98180000D03*
X126900000Y-99200000D03*
%TD*%
D15*
%TO.C,J2*%
X158000000Y-109855000D03*
D16*
X158000000Y-112395000D03*
X158000000Y-114935000D03*
X158000000Y-117475000D03*
X158000000Y-120015000D03*
X158000000Y-122555000D03*
X158000000Y-125095000D03*
X158000000Y-127635000D03*
X158000000Y-130175000D03*
X158000000Y-132715000D03*
X158000000Y-135255000D03*
X158000000Y-137795000D03*
X158000000Y-140335000D03*
X158000000Y-142875000D03*
X158000000Y-145415000D03*
%TD*%
D34*
%TO.C,C8*%
X121892000Y-121234200D03*
X120932000Y-121234200D03*
%TD*%
D20*
%TO.C,R27*%
X153545000Y-106172000D03*
X152525000Y-106172000D03*
%TD*%
D15*
%TO.C,J22*%
X112735000Y-89275000D03*
D16*
X115275000Y-89275000D03*
X117815000Y-89275000D03*
%TD*%
D15*
%TO.C,J25*%
X112735000Y-93875000D03*
D16*
X115275000Y-93875000D03*
X117815000Y-93875000D03*
%TD*%
D34*
%TO.C,C5*%
X123136600Y-118948200D03*
X122176600Y-118948200D03*
%TD*%
D35*
%TO.C,C2*%
X126367600Y-116027200D03*
X127327600Y-116027200D03*
%TD*%
D15*
%TO.C,J7*%
X103500000Y-119475000D03*
D16*
X106040000Y-119475000D03*
X108580000Y-119475000D03*
%TD*%
D15*
%TO.C,REF\u002A\u002A*%
X139700000Y-86360000D03*
D16*
X139700000Y-83820000D03*
X142240000Y-86360000D03*
X142240000Y-83820000D03*
X144780000Y-86360000D03*
X144780000Y-83820000D03*
X147320000Y-86360000D03*
X147320000Y-83820000D03*
X149860000Y-86360000D03*
X149860000Y-83820000D03*
X152400000Y-86360000D03*
X152400000Y-83820000D03*
X154940000Y-86360000D03*
X154940000Y-83820000D03*
X157480000Y-86360000D03*
X157480000Y-83820000D03*
X160020000Y-86360000D03*
X160020000Y-83820000D03*
X162560000Y-86360000D03*
X162560000Y-83820000D03*
X165100000Y-86360000D03*
X165100000Y-83820000D03*
X167640000Y-86360000D03*
X167640000Y-83820000D03*
X170180000Y-86360000D03*
X170180000Y-83820000D03*
X172720000Y-86360000D03*
X172720000Y-83820000D03*
X175260000Y-86360000D03*
X175260000Y-83820000D03*
X177800000Y-86360000D03*
X177800000Y-83820000D03*
X180340000Y-86360000D03*
X180340000Y-83820000D03*
X182880000Y-86360000D03*
X182880000Y-83820000D03*
X185420000Y-86360000D03*
X185420000Y-83820000D03*
X187960000Y-86360000D03*
X187960000Y-83820000D03*
%TD*%
D36*
%TO.C,C10*%
X201168000Y-98016000D03*
X201168000Y-97056000D03*
%TD*%
D37*
%TO.C,U2*%
X119532400Y-138633200D03*
D38*
X122432400Y-136728200D03*
X122432400Y-137998200D03*
X122432400Y-139268200D03*
X122432400Y-140538200D03*
X116632400Y-140538200D03*
X116632400Y-139268200D03*
X116632400Y-137998200D03*
X116632400Y-136728200D03*
%TD*%
D17*
%TO.C,R21*%
X136525000Y-83890000D03*
X136525000Y-84910000D03*
%TD*%
D34*
%TO.C,C1*%
X128292800Y-122885200D03*
X127332800Y-122885200D03*
%TD*%
D18*
%TO.C,R3*%
X120904000Y-118239000D03*
X120904000Y-117219000D03*
%TD*%
%TO.C,R9*%
X125526800Y-135231600D03*
X125526800Y-134211600D03*
%TD*%
D17*
%TO.C,R18*%
X128905000Y-83945000D03*
X128905000Y-84965000D03*
%TD*%
%TO.C,R20*%
X133900000Y-83945000D03*
X133900000Y-84965000D03*
%TD*%
D18*
%TO.C,R23*%
X202311000Y-93601000D03*
X202311000Y-92581000D03*
%TD*%
D39*
%TO.C,F1*%
X128219200Y-136615200D03*
X131619200Y-136615200D03*
X128219200Y-126695200D03*
X131619200Y-126695200D03*
%TD*%
D34*
%TO.C,C7*%
X120975000Y-119253000D03*
X120015000Y-119253000D03*
%TD*%
D15*
%TO.C,J27*%
X113161600Y-81509000D03*
D16*
X115701600Y-81509000D03*
X118241600Y-81509000D03*
X120781600Y-81509000D03*
X123321600Y-81509000D03*
X125861600Y-81509000D03*
X128401600Y-81509000D03*
X130941600Y-81509000D03*
X133481600Y-81509000D03*
X136021600Y-81509000D03*
%TD*%
D15*
%TO.C,J9*%
X103500000Y-124075000D03*
D16*
X106040000Y-124075000D03*
X108580000Y-124075000D03*
%TD*%
D15*
%TO.C,J16*%
X180594000Y-98475000D03*
D16*
X183134000Y-98475000D03*
X185674000Y-98475000D03*
X188214000Y-98475000D03*
X190754000Y-98475000D03*
X193294000Y-98475000D03*
%TD*%
D40*
%TO.C,C12*%
X126873000Y-96167000D03*
X126873000Y-97127000D03*
%TD*%
D15*
%TO.C,J13*%
X112500000Y-110275000D03*
D16*
X115040000Y-110275000D03*
X117580000Y-110275000D03*
%TD*%
D34*
%TO.C,C3*%
X133271200Y-116078000D03*
X132311200Y-116078000D03*
%TD*%
D31*
%TO.C,J1*%
X125069600Y-147218400D03*
D32*
X130069600Y-147218400D03*
%TD*%
D17*
%TO.C,R14*%
X118700000Y-83890000D03*
X118700000Y-84910000D03*
%TD*%
D41*
%TO.C,A1*%
X135265000Y-109855000D03*
D42*
X135265000Y-112395000D03*
X135265000Y-114935000D03*
X135265000Y-117475000D03*
X135265000Y-120015000D03*
X135265000Y-122555000D03*
X135265000Y-125095000D03*
X135265000Y-127635000D03*
X135265000Y-130175000D03*
X135265000Y-132715000D03*
X135265000Y-135255000D03*
X135265000Y-137795000D03*
X135265000Y-140335000D03*
X135265000Y-142875000D03*
X135265000Y-145415000D03*
X150505000Y-145415000D03*
X150505000Y-142875000D03*
X150505000Y-140335000D03*
X150505000Y-137795000D03*
X150505000Y-135255000D03*
X150505000Y-132715000D03*
X150505000Y-130175000D03*
X150505000Y-127635000D03*
X150505000Y-125095000D03*
X150505000Y-122555000D03*
X150505000Y-120015000D03*
X150505000Y-117475000D03*
X150505000Y-114935000D03*
X150505000Y-112395000D03*
X150505000Y-109855000D03*
%TD*%
D20*
%TO.C,R6*%
X114251200Y-128727200D03*
X113231200Y-128727200D03*
%TD*%
D43*
%TO.C,BZ2*%
X123545600Y-130556000D03*
D44*
X118545600Y-130556000D03*
%TD*%
D15*
%TO.C,J8*%
X103500000Y-110275000D03*
D16*
X106040000Y-110275000D03*
X108580000Y-110275000D03*
%TD*%
D45*
%TO.C,RV1*%
X130700000Y-104000000D03*
D46*
X129700000Y-100750000D03*
D45*
X128700000Y-104000000D03*
%TD*%
D36*
%TO.C,C11*%
X195707000Y-98016000D03*
X195707000Y-97056000D03*
%TD*%
D47*
%TO.C,L1*%
X129895600Y-114734200D03*
X129895600Y-108684200D03*
%TD*%
D15*
%TO.C,J6*%
X103500000Y-114875000D03*
D16*
X106040000Y-114875000D03*
X108580000Y-114875000D03*
%TD*%
D45*
%TO.C,RV2*%
X121540800Y-124698000D03*
D48*
X124790800Y-123698000D03*
D45*
X121540800Y-122698000D03*
%TD*%
D34*
%TO.C,C6*%
X121892000Y-120269000D03*
X120932000Y-120269000D03*
%TD*%
D15*
%TO.C,JP2*%
X198125000Y-88900000D03*
D16*
X195585000Y-88900000D03*
%TD*%
D15*
%TO.C,J17*%
X181460000Y-149000000D03*
D16*
X184000000Y-149000000D03*
X186540000Y-149000000D03*
X189080000Y-149000000D03*
X191620000Y-149000000D03*
X194160000Y-149000000D03*
%TD*%
D15*
%TO.C,J11*%
X112500000Y-119475000D03*
D16*
X115040000Y-119475000D03*
X117580000Y-119475000D03*
%TD*%
D17*
%TO.C,R22*%
X202311000Y-94613000D03*
X202311000Y-95633000D03*
%TD*%
D15*
%TO.C,J21*%
X103775000Y-93875000D03*
D16*
X106315000Y-93875000D03*
X108855000Y-93875000D03*
%TD*%
D19*
%TO.C,JP4*%
X148971000Y-101458000D03*
X148971000Y-102758000D03*
%TD*%
D15*
%TO.C,J23*%
X112735000Y-98475000D03*
D16*
X115275000Y-98475000D03*
X117815000Y-98475000D03*
%TD*%
D15*
%TO.C,J29*%
X191643000Y-77470000D03*
D16*
X191643000Y-80010000D03*
X191643000Y-82550000D03*
X191643000Y-85090000D03*
X191643000Y-87630000D03*
X191643000Y-90170000D03*
X191643000Y-92710000D03*
X191643000Y-95250000D03*
%TD*%
D20*
%TO.C,R26*%
X178108800Y-100380800D03*
X177088800Y-100380800D03*
%TD*%
D15*
%TO.C,J15*%
X162000000Y-149000000D03*
D16*
X164540000Y-149000000D03*
X167080000Y-149000000D03*
X169620000Y-149000000D03*
X172160000Y-149000000D03*
X174700000Y-149000000D03*
%TD*%
D15*
%TO.C,J3*%
X197975000Y-145385000D03*
D16*
X197975000Y-142845000D03*
X197975000Y-140305000D03*
X197975000Y-137765000D03*
X197975000Y-135225000D03*
X197975000Y-132685000D03*
X197975000Y-130145000D03*
X197975000Y-127605000D03*
X197975000Y-125065000D03*
X197975000Y-122525000D03*
X197975000Y-119985000D03*
X197975000Y-117445000D03*
X197975000Y-114905000D03*
X197975000Y-112365000D03*
X197975000Y-109825000D03*
%TD*%
D17*
%TO.C,R8*%
X131572000Y-119176800D03*
X131572000Y-120196800D03*
%TD*%
%TO.C,R25*%
X193929000Y-93345000D03*
X193929000Y-94365000D03*
%TD*%
D33*
%TO.C,D4*%
X146900000Y-148800000D03*
X146900000Y-150200000D03*
X149400000Y-150200000D03*
X149400000Y-148800000D03*
%TD*%
%TO.C,D5*%
X142400000Y-148800000D03*
X142400000Y-150200000D03*
X144900000Y-150200000D03*
X144900000Y-148800000D03*
%TD*%
D17*
%TO.C,R7*%
X133197600Y-118971600D03*
X133197600Y-119991600D03*
%TD*%
D15*
%TO.C,J26*%
X103775000Y-98475000D03*
D16*
X106315000Y-98475000D03*
X108855000Y-98475000D03*
%TD*%
D18*
%TO.C,R4*%
X122936000Y-118061200D03*
X122936000Y-117041200D03*
%TD*%
D15*
%TO.C,J19*%
X112650000Y-103050000D03*
D16*
X115190000Y-103050000D03*
X117730000Y-103050000D03*
%TD*%
D17*
%TO.C,R15*%
X121200000Y-83890000D03*
X121200000Y-84910000D03*
%TD*%
M02*
