%TF.GenerationSoftware,KiCad,Pcbnew,(6.0.1)*%
%TF.CreationDate,2022-03-16T14:28:33-04:00*%
%TF.ProjectId,2_679_PCB,325f3637-395f-4504-9342-2e6b69636164,rev?*%
%TF.SameCoordinates,Original*%
%TF.FileFunction,Paste,Top*%
%TF.FilePolarity,Positive*%
%FSLAX46Y46*%
G04 Gerber Fmt 4.6, Leading zero omitted, Abs format (unit mm)*
G04 Created by KiCad (PCBNEW (6.0.1)) date 2022-03-16 14:28:33*
%MOMM*%
%LPD*%
G01*
G04 APERTURE LIST*
G04 Aperture macros list*
%AMRoundRect*
0 Rectangle with rounded corners*
0 $1 Rounding radius*
0 $2 $3 $4 $5 $6 $7 $8 $9 X,Y pos of 4 corners*
0 Add a 4 corners polygon primitive as box body*
4,1,4,$2,$3,$4,$5,$6,$7,$8,$9,$2,$3,0*
0 Add four circle primitives for the rounded corners*
1,1,$1+$1,$2,$3*
1,1,$1+$1,$4,$5*
1,1,$1+$1,$6,$7*
1,1,$1+$1,$8,$9*
0 Add four rect primitives between the rounded corners*
20,1,$1+$1,$2,$3,$4,$5,0*
20,1,$1+$1,$4,$5,$6,$7,0*
20,1,$1+$1,$6,$7,$8,$9,0*
20,1,$1+$1,$8,$9,$2,$3,0*%
G04 Aperture macros list end*
%ADD10RoundRect,0.135000X0.185000X-0.135000X0.185000X0.135000X-0.185000X0.135000X-0.185000X-0.135000X0*%
%ADD11RoundRect,0.135000X-0.185000X0.135000X-0.185000X-0.135000X0.185000X-0.135000X0.185000X0.135000X0*%
%ADD12RoundRect,0.135000X-0.135000X-0.185000X0.135000X-0.185000X0.135000X0.185000X-0.135000X0.185000X0*%
%ADD13R,0.228600X0.762000*%
%ADD14R,2.000000X2.500000*%
%ADD15R,1.500000X1.500000*%
%ADD16RoundRect,0.250000X-0.250000X-0.475000X0.250000X-0.475000X0.250000X0.475000X-0.250000X0.475000X0*%
%ADD17R,2.000000X1.500000*%
%ADD18R,2.000000X3.800000*%
%ADD19RoundRect,0.150000X0.150000X-0.512500X0.150000X0.512500X-0.150000X0.512500X-0.150000X-0.512500X0*%
%ADD20RoundRect,0.042000X0.943000X0.258000X-0.943000X0.258000X-0.943000X-0.258000X0.943000X-0.258000X0*%
%ADD21RoundRect,0.218750X0.256250X-0.218750X0.256250X0.218750X-0.256250X0.218750X-0.256250X-0.218750X0*%
%ADD22R,1.000000X0.800000*%
%ADD23RoundRect,0.147500X-0.172500X0.147500X-0.172500X-0.147500X0.172500X-0.147500X0.172500X0.147500X0*%
%ADD24R,1.800000X2.500000*%
%ADD25RoundRect,0.140000X0.140000X0.170000X-0.140000X0.170000X-0.140000X-0.170000X0.140000X-0.170000X0*%
%ADD26RoundRect,0.140000X-0.140000X-0.170000X0.140000X-0.170000X0.140000X0.170000X-0.140000X0.170000X0*%
%ADD27RoundRect,0.140000X-0.170000X0.140000X-0.170000X-0.140000X0.170000X-0.140000X0.170000X0.140000X0*%
%ADD28R,0.800000X0.800000*%
%ADD29R,1.100000X0.500000*%
%ADD30R,0.600000X0.450000*%
%ADD31RoundRect,0.140000X0.170000X-0.140000X0.170000X0.140000X-0.170000X0.140000X-0.170000X-0.140000X0*%
%ADD32RoundRect,0.100000X0.637500X0.100000X-0.637500X0.100000X-0.637500X-0.100000X0.637500X-0.100000X0*%
%ADD33RoundRect,0.218750X-0.256250X0.218750X-0.256250X-0.218750X0.256250X-0.218750X0.256250X0.218750X0*%
%ADD34R,1.200000X1.200000*%
%ADD35R,1.600000X1.500000*%
%ADD36RoundRect,0.235000X1.465000X-0.940000X1.465000X0.940000X-1.465000X0.940000X-1.465000X-0.940000X0*%
%ADD37R,1.500000X1.600000*%
%ADD38RoundRect,0.250000X-0.650000X0.325000X-0.650000X-0.325000X0.650000X-0.325000X0.650000X0.325000X0*%
%ADD39R,0.600000X1.160000*%
%ADD40R,0.300000X1.160000*%
%ADD41RoundRect,0.150000X-0.512500X-0.150000X0.512500X-0.150000X0.512500X0.150000X-0.512500X0.150000X0*%
G04 APERTURE END LIST*
D10*
%TO.C,R33*%
X115265200Y-140718000D03*
X115265200Y-139698000D03*
%TD*%
%TO.C,R17*%
X126365000Y-84965000D03*
X126365000Y-83945000D03*
%TD*%
%TO.C,R19*%
X131445000Y-84965000D03*
X131445000Y-83945000D03*
%TD*%
D11*
%TO.C,R24*%
X193929000Y-91440000D03*
X193929000Y-92460000D03*
%TD*%
%TO.C,R5*%
X122936000Y-119835200D03*
X122936000Y-120855200D03*
%TD*%
%TO.C,R13*%
X131500000Y-98190000D03*
X131500000Y-99210000D03*
%TD*%
D10*
%TO.C,R2*%
X121894600Y-118061200D03*
X121894600Y-117041200D03*
%TD*%
D12*
%TO.C,R12*%
X128690000Y-95000000D03*
X129710000Y-95000000D03*
%TD*%
D11*
%TO.C,R1*%
X131696600Y-117272200D03*
X131696600Y-118292200D03*
%TD*%
D13*
%TO.C,U1*%
X124228598Y-121145300D03*
X124728600Y-121145300D03*
X125228599Y-121145300D03*
X125728600Y-121145300D03*
X126228599Y-121145300D03*
X126728598Y-121145300D03*
X127228600Y-121145300D03*
X127728599Y-121145300D03*
X128228601Y-121145300D03*
X128728600Y-121145300D03*
X129228599Y-121145300D03*
X129728600Y-121145300D03*
X130228599Y-121145300D03*
X130228602Y-117259100D03*
X129728600Y-117259100D03*
X129228601Y-117259100D03*
X128728600Y-117259100D03*
X128228601Y-117259100D03*
X127728602Y-117259100D03*
X127228600Y-117259100D03*
X126728601Y-117259100D03*
X126228599Y-117259100D03*
X125728600Y-117259100D03*
X125228601Y-117259100D03*
X124728600Y-117259100D03*
X124228601Y-117259100D03*
D14*
X127228600Y-119202200D03*
X124891800Y-119202200D03*
X129565400Y-119202200D03*
%TD*%
D11*
%TO.C,R30*%
X137972800Y-147878800D03*
X137972800Y-148898800D03*
%TD*%
D15*
%TO.C,SW2*%
X121920000Y-106008000D03*
X121920000Y-98208000D03*
%TD*%
D16*
%TO.C,C9*%
X131193800Y-122478800D03*
X133093800Y-122478800D03*
%TD*%
D17*
%TO.C,U5*%
X147930000Y-114187000D03*
X147930000Y-111887000D03*
D18*
X141630000Y-111887000D03*
D17*
X147930000Y-109587000D03*
%TD*%
D19*
%TO.C,U3*%
X128230000Y-98802500D03*
X129180000Y-98802500D03*
X130130000Y-98802500D03*
X130130000Y-96527500D03*
X128230000Y-96527500D03*
%TD*%
D10*
%TO.C,R16*%
X123800000Y-84910000D03*
X123800000Y-83890000D03*
%TD*%
%TO.C,R29*%
X136956800Y-149961600D03*
X136956800Y-148941600D03*
%TD*%
D20*
%TO.C,U4*%
X200590000Y-95758000D03*
X200590000Y-94488000D03*
X200590000Y-93218000D03*
X200590000Y-91948000D03*
X195650000Y-91948000D03*
X195650000Y-93218000D03*
X195650000Y-94488000D03*
X195650000Y-95758000D03*
%TD*%
D21*
%TO.C,D7*%
X131673600Y-96901100D03*
X131673600Y-95326100D03*
%TD*%
D22*
%TO.C,D6*%
X150388000Y-148855200D03*
X150388000Y-150255200D03*
X152888000Y-150255200D03*
X152888000Y-148855200D03*
%TD*%
D23*
%TO.C,D1*%
X133197600Y-117082100D03*
X133197600Y-118052100D03*
%TD*%
D12*
%TO.C,R28*%
X150366000Y-96520000D03*
X151386000Y-96520000D03*
%TD*%
D10*
%TO.C,R11*%
X126900000Y-99200000D03*
X126900000Y-98180000D03*
%TD*%
D24*
%TO.C,D9*%
X138328400Y-142919200D03*
X138328400Y-138919200D03*
%TD*%
D25*
%TO.C,C8*%
X121892000Y-121234200D03*
X120932000Y-121234200D03*
%TD*%
D12*
%TO.C,R27*%
X152525000Y-106172000D03*
X153545000Y-106172000D03*
%TD*%
D25*
%TO.C,C5*%
X123136600Y-118948200D03*
X122176600Y-118948200D03*
%TD*%
D26*
%TO.C,C2*%
X126367600Y-116027200D03*
X127327600Y-116027200D03*
%TD*%
D27*
%TO.C,C10*%
X201168000Y-97056000D03*
X201168000Y-98016000D03*
%TD*%
D21*
%TO.C,D3*%
X115468400Y-134950300D03*
X115468400Y-133375300D03*
%TD*%
D28*
%TO.C,U2*%
X118032400Y-139133200D03*
X121032400Y-139133200D03*
X118032400Y-140133200D03*
X118032400Y-138133200D03*
X120032400Y-138133200D03*
X119032400Y-138133200D03*
X121032400Y-137133200D03*
X119032400Y-139133200D03*
X120032400Y-140133200D03*
X120032400Y-139133200D03*
X121032400Y-138133200D03*
X118032400Y-137133200D03*
X121032400Y-140133200D03*
X119032400Y-140133200D03*
X119032400Y-137133200D03*
X120032400Y-137133200D03*
D29*
X116632400Y-136728200D03*
X116632400Y-137998200D03*
X116632400Y-139268200D03*
X116632400Y-140538200D03*
X122432400Y-140538200D03*
X122432400Y-139268200D03*
X122432400Y-137998200D03*
X122432400Y-136728200D03*
%TD*%
D10*
%TO.C,R21*%
X136525000Y-84910000D03*
X136525000Y-83890000D03*
%TD*%
D30*
%TO.C,D10*%
X145220400Y-133756400D03*
X143120400Y-133756400D03*
%TD*%
D25*
%TO.C,C1*%
X128292800Y-122885200D03*
X127332800Y-122885200D03*
%TD*%
D11*
%TO.C,R3*%
X120904000Y-117219000D03*
X120904000Y-118239000D03*
%TD*%
%TO.C,R9*%
X125526800Y-134211600D03*
X125526800Y-135231600D03*
%TD*%
D10*
%TO.C,R18*%
X128905000Y-84965000D03*
X128905000Y-83945000D03*
%TD*%
%TO.C,R20*%
X133900000Y-84965000D03*
X133900000Y-83945000D03*
%TD*%
D11*
%TO.C,R23*%
X202311000Y-92581000D03*
X202311000Y-93601000D03*
%TD*%
D25*
%TO.C,C7*%
X120975000Y-119253000D03*
X120015000Y-119253000D03*
%TD*%
D31*
%TO.C,C14*%
X146812000Y-136928800D03*
X146812000Y-135968800D03*
%TD*%
%TO.C,C13*%
X140563600Y-141020800D03*
X140563600Y-140060800D03*
%TD*%
%TO.C,C12*%
X126873000Y-97127000D03*
X126873000Y-96167000D03*
%TD*%
D32*
%TO.C,U6*%
X147744100Y-143397400D03*
X147744100Y-142747400D03*
X147744100Y-142097400D03*
X147744100Y-141447400D03*
X147744100Y-140797400D03*
X147744100Y-140147400D03*
X147744100Y-139497400D03*
X147744100Y-138847400D03*
X142019100Y-138847400D03*
X142019100Y-139497400D03*
X142019100Y-140147400D03*
X142019100Y-140797400D03*
X142019100Y-141447400D03*
X142019100Y-142097400D03*
X142019100Y-142747400D03*
X142019100Y-143397400D03*
%TD*%
D25*
%TO.C,C3*%
X133271200Y-116078000D03*
X132311200Y-116078000D03*
%TD*%
D10*
%TO.C,R14*%
X118700000Y-84910000D03*
X118700000Y-83890000D03*
%TD*%
D11*
%TO.C,R31*%
X141579600Y-136446800D03*
X141579600Y-137466800D03*
%TD*%
D33*
%TO.C,D2*%
X114909600Y-130124100D03*
X114909600Y-131699100D03*
%TD*%
D12*
%TO.C,R6*%
X114450400Y-128778000D03*
X115470400Y-128778000D03*
%TD*%
D34*
%TO.C,RV1*%
X128700000Y-104000000D03*
D35*
X129700000Y-100750000D03*
D34*
X130700000Y-104000000D03*
%TD*%
D11*
%TO.C,R32*%
X102971600Y-139698000D03*
X102971600Y-140718000D03*
%TD*%
D27*
%TO.C,C11*%
X195707000Y-97056000D03*
X195707000Y-98016000D03*
%TD*%
D36*
%TO.C,L1*%
X129895600Y-114734200D03*
X129895600Y-108684200D03*
%TD*%
D34*
%TO.C,RV2*%
X121540800Y-122698000D03*
D37*
X124790800Y-123698000D03*
D34*
X121540800Y-124698000D03*
%TD*%
D25*
%TO.C,C6*%
X121892000Y-120269000D03*
X120932000Y-120269000D03*
%TD*%
D10*
%TO.C,R22*%
X202311000Y-95633000D03*
X202311000Y-94613000D03*
%TD*%
D38*
%TO.C,C4*%
X125069600Y-108456200D03*
X125069600Y-111406200D03*
%TD*%
D12*
%TO.C,R26*%
X177088800Y-100380800D03*
X178108800Y-100380800D03*
%TD*%
D39*
%TO.C,J30*%
X140614800Y-145560600D03*
X141414800Y-145560600D03*
D40*
X142564800Y-145560600D03*
X143564800Y-145560600D03*
X144064800Y-145560600D03*
X145064800Y-145560600D03*
D39*
X146214800Y-145560600D03*
X147014800Y-145560600D03*
X147014800Y-145560600D03*
X146214800Y-145560600D03*
D40*
X145564800Y-145560600D03*
X144564800Y-145560600D03*
X143064800Y-145560600D03*
X142064800Y-145560600D03*
D39*
X141414800Y-145560600D03*
X140614800Y-145560600D03*
%TD*%
D10*
%TO.C,R8*%
X131572000Y-120196800D03*
X131572000Y-119176800D03*
%TD*%
%TO.C,R25*%
X193929000Y-94365000D03*
X193929000Y-93345000D03*
%TD*%
D22*
%TO.C,D4*%
X159308800Y-148844000D03*
X159308800Y-150244000D03*
X161808800Y-150244000D03*
X161808800Y-148844000D03*
%TD*%
%TO.C,D5*%
X154808800Y-148844000D03*
X154808800Y-150244000D03*
X157308800Y-150244000D03*
X157308800Y-148844000D03*
%TD*%
D10*
%TO.C,R7*%
X133197600Y-119991600D03*
X133197600Y-118971600D03*
%TD*%
D41*
%TO.C,U7*%
X143083700Y-135549600D03*
X143083700Y-136499600D03*
X143083700Y-137449600D03*
X145358700Y-137449600D03*
X145358700Y-135549600D03*
%TD*%
D11*
%TO.C,R4*%
X122936000Y-117041200D03*
X122936000Y-118061200D03*
%TD*%
D10*
%TO.C,R15*%
X121200000Y-84910000D03*
X121200000Y-83890000D03*
%TD*%
D21*
%TO.C,D8*%
X177292000Y-99034700D03*
X177292000Y-97459700D03*
%TD*%
M02*
