M48
; DRILL file {KiCad (6.0.1)} date Thu Mar 17 15:13:44 2022
; FORMAT={-:-/ absolute / inch / decimal}
; #@! TF.CreationDate,2022-03-17T15:13:44-04:00
; #@! TF.GenerationSoftware,Kicad,Pcbnew,(6.0.1)
; #@! TF.FileFunction,Plated,1,2,PTH
FMAT,2
INCH
; #@! TA.AperFunction,Plated,PTH,ViaDrill
T1C0.0118
; #@! TA.AperFunction,Plated,PTH,ViaDrill
T2C0.0157
; #@! TA.AperFunction,Plated,PTH,ViaDrill
T3C0.0197
; #@! TA.AperFunction,Plated,PTH,ComponentDrill
T4C0.0236
; #@! TA.AperFunction,Plated,PTH,ComponentDrill
T5C0.0394
; #@! TA.AperFunction,Plated,PTH,ComponentDrill
T6C0.0512
; #@! TA.AperFunction,Plated,PTH,ComponentDrill
T7C0.0591
; #@! TA.AperFunction,Plated,PTH,ComponentDrill
T8C0.0701
; #@! TA.AperFunction,Plated,PTH,ComponentDrill
T9C0.0709
; #@! TA.AperFunction,Plated,PTH,ViaDrill
T10C0.1181
; #@! TA.AperFunction,Plated,PTH,ViaDrill
T11C0.1457
%
G90
G05
T1
X4.344Y-5.274
X4.7916Y-4.6882
X4.8228Y-4.7963
X4.856Y-4.7861
X4.96Y-4.8081
X4.976Y-4.8341
X4.9803Y-4.7343
X4.982Y-4.6581
X4.984Y-4.6921
X4.988Y-4.5261
X5.0039Y-4.4331
X5.0079Y-4.3417
X5.008Y-4.798
X5.01Y-4.7301
X5.038Y-4.6561
X5.0394Y-4.6921
X5.0394Y-4.7343
X5.0548Y-4.5883
X5.158Y-4.7421
X5.169Y-4.713
X5.18Y-4.5901
X5.2223Y-4.6631
X5.2244Y-4.3268
X5.3504Y-4.5748
X5.355Y-4.6881
T2
X4.078Y-5.482
X4.289Y-2.4494
X4.655Y-4.43
X4.6758Y-3.4742
X4.7146Y-4.8524
X4.7146Y-4.9114
X4.725Y-3.475
X4.7284Y-4.73
X4.7625Y-3.475
X4.764Y-3.79
X4.775Y-4.325
X4.8Y-4.57
X4.825Y-3.475
X4.825Y-3.775
X4.829Y-4.3701
X4.83Y-5.316
X4.8524Y-4.5669
X4.86Y-3.985
X4.864Y-5.252
X4.8715Y-3.6535
X4.8812Y-4.3989
X4.914Y-4.802
X4.95Y-3.475
X5.0398Y-3.6102
X5.05Y-3.475
X5.175Y-3.475
X5.3248Y-4.1437
X5.3642Y-4.1437
X5.5Y-4.1437
X5.502Y-4.7047
X5.5413Y-4.9213
X5.5413Y-5.0197
X5.5512Y-4.1437
X5.5512Y-4.5669
X5.5512Y-4.8228
X5.5807Y-4.7047
X5.65Y-4.405
X5.658Y-5.79
X5.6594Y-4.7047
X5.666Y-5.594
X5.689Y-4.5669
X5.6973Y-5.568
X5.6979Y-5.7889
X5.7087Y-4.9114
X5.7087Y-5.0197
X5.722Y-5.636
X5.7283Y-4.813
X5.748Y-4.7047
X5.7484Y-5.8096
X5.75Y-4.405
X5.8169Y-4.7146
X5.876Y-5.818
X5.988Y-4.332
X6.065Y-3.84
X6.08Y-4.18
X6.0827Y-4.3307
X6.1319Y-5.4773
X6.1417Y-5.0197
X6.1417Y-5.3346
X6.1516Y-4.8327
X6.1516Y-4.9311
X6.1516Y-5.1181
X6.1518Y-5.7286
X6.1531Y-5.4166
X6.34Y-5.9
X7.5Y-3.8
X7.585Y-3.8
X7.59Y-3.61
X7.62Y-3.5
X7.65Y-3.58
X7.69Y-3.3563
X7.735Y-3.58
X7.755Y-3.665
X7.755Y-3.71
X7.82Y-3.64
X7.84Y-3.77
T3
X5.025Y-4.5321
X5.2165Y-4.2126
T5
X4.0748Y-4.3415
X4.0748Y-4.5226
X4.0748Y-4.7037
X4.0748Y-4.8848
X4.08Y-2.6
X4.08Y-2.7
X4.08Y-2.8
X4.0856Y-3.5148
X4.0856Y-3.6959
X4.0856Y-3.877
X4.0856Y-4.0581
X4.1748Y-4.3415
X4.1748Y-4.5226
X4.1748Y-4.7037
X4.1748Y-4.8848
X4.1856Y-3.5148
X4.1856Y-3.6959
X4.1856Y-3.877
X4.1856Y-4.0581
X4.2748Y-4.3415
X4.2748Y-4.5226
X4.2748Y-4.7037
X4.2748Y-4.8848
X4.2856Y-3.5148
X4.2856Y-3.6959
X4.2856Y-3.877
X4.2856Y-4.0581
X4.3196Y-2.3284
X4.4196Y-2.3284
X4.4291Y-4.3415
X4.4291Y-4.5226
X4.4291Y-4.7037
X4.4291Y-4.8848
X4.435Y-4.0571
X4.4384Y-3.5148
X4.4384Y-3.6959
X4.4384Y-3.877
X4.4552Y-3.209
X4.5196Y-2.3284
X4.5291Y-4.3415
X4.5291Y-4.5226
X4.5291Y-4.7037
X4.5291Y-4.8848
X4.535Y-4.0571
X4.5384Y-3.5148
X4.5384Y-3.6959
X4.5384Y-3.877
X4.5552Y-3.209
X4.6291Y-4.3415
X4.6291Y-4.5226
X4.6291Y-4.7037
X4.6291Y-4.8848
X4.635Y-4.0571
X4.6384Y-3.5148
X4.6384Y-3.6959
X4.6384Y-3.877
X4.6552Y-3.209
X4.6671Y-5.14
X4.739Y-2.5994
X4.739Y-2.6994
X4.739Y-2.7994
X4.7552Y-3.209
X4.8552Y-3.209
X4.864Y-5.14
X4.9552Y-3.209
X4.9557Y-3.9961
X4.9557Y-4.0961
X5.0552Y-3.209
X5.1552Y-3.209
X5.2552Y-3.209
X5.31Y-3.88
X5.31Y-3.98
X5.3254Y-4.325
X5.3254Y-4.425
X5.3254Y-4.525
X5.3254Y-4.625
X5.3254Y-4.725
X5.3254Y-4.825
X5.3254Y-4.925
X5.3254Y-5.025
X5.3254Y-5.125
X5.3254Y-5.225
X5.3254Y-5.325
X5.3254Y-5.425
X5.3254Y-5.525
X5.3254Y-5.625
X5.3254Y-5.725
X5.3552Y-3.209
X5.5Y-3.1
X5.5Y-3.2
X5.5Y-3.3
X5.5Y-3.4
X5.5Y-3.5
X5.5Y-3.6
X5.5Y-3.7
X5.5156Y-3.965
X5.6Y-3.1
X5.6Y-3.2
X5.6Y-3.3
X5.6Y-3.4
X5.6Y-3.5
X5.6Y-3.6
X5.6Y-3.7
X5.6156Y-3.965
X5.7Y-3.1
X5.7Y-3.2
X5.7Y-3.3
X5.7Y-3.4
X5.7Y-3.5
X5.7Y-3.6
X5.7Y-3.7
X5.7156Y-3.965
X5.8Y-3.1
X5.8Y-3.2
X5.8Y-3.3
X5.8Y-3.4
X5.8Y-3.5
X5.8Y-3.6
X5.8Y-3.7
X5.9Y-3.1
X5.9Y-3.2
X5.9Y-3.3
X5.9Y-3.4
X5.9Y-3.5
X5.9Y-3.6
X5.9Y-3.7
X5.9254Y-4.325
X5.9254Y-4.425
X5.9254Y-4.525
X5.9254Y-4.625
X5.9254Y-4.725
X5.9254Y-4.825
X5.9254Y-4.925
X5.9254Y-5.025
X5.9254Y-5.125
X5.9254Y-5.225
X5.9254Y-5.325
X5.9254Y-5.425
X5.9254Y-5.525
X5.9254Y-5.625
X5.9254Y-5.725
X6.0Y-3.1
X6.0Y-3.2
X6.0Y-3.3
X6.0Y-3.4
X6.0Y-3.5
X6.0Y-3.6
X6.0Y-3.7
X6.1Y-3.1
X6.1Y-3.2
X6.1Y-3.3
X6.1Y-3.4
X6.1Y-3.5
X6.1Y-3.6
X6.1Y-3.7
X6.125Y-2.45
X6.125Y-2.55
X6.125Y-2.65
X6.125Y-2.75
X6.2Y-3.1
X6.2Y-3.2
X6.2Y-3.3
X6.2Y-3.4
X6.2Y-3.5
X6.2Y-3.6
X6.2Y-3.7
X6.2205Y-3.8764
X6.2205Y-3.9764
X6.2205Y-4.0764
X6.2205Y-4.1764
X6.2205Y-4.325
X6.2205Y-4.425
X6.2205Y-4.525
X6.2205Y-4.625
X6.2205Y-4.725
X6.2205Y-4.825
X6.2205Y-4.925
X6.2205Y-5.025
X6.2205Y-5.125
X6.2205Y-5.225
X6.2205Y-5.325
X6.2205Y-5.425
X6.2205Y-5.525
X6.2205Y-5.625
X6.2205Y-5.725
X6.225Y-2.45
X6.225Y-2.55
X6.225Y-2.65
X6.225Y-2.75
X6.3Y-3.1
X6.3Y-3.2
X6.3Y-3.3
X6.3Y-3.4
X6.3Y-3.5
X6.3Y-3.6
X6.3Y-3.7
X6.325Y-2.45
X6.325Y-2.55
X6.325Y-2.65
X6.325Y-2.75
X6.378Y-3.878
X6.4Y-3.1
X6.4Y-3.2
X6.4Y-3.3
X6.4Y-3.4
X6.4Y-3.5
X6.4Y-3.6
X6.4Y-3.7
X6.425Y-2.45
X6.425Y-2.55
X6.425Y-2.65
X6.425Y-2.75
X6.478Y-3.878
X6.4804Y-5.8713
X6.5Y-3.1
X6.5Y-3.2
X6.5Y-3.3
X6.5Y-3.4
X6.5Y-3.5
X6.5Y-3.6
X6.5Y-3.7
X6.525Y-2.45
X6.525Y-2.55
X6.525Y-2.65
X6.525Y-2.75
X6.578Y-3.878
X6.5804Y-5.8713
X6.6Y-3.1
X6.6Y-3.2
X6.6Y-3.3
X6.6Y-3.4
X6.6Y-3.5
X6.6Y-3.6
X6.6Y-3.7
X6.625Y-2.45
X6.625Y-2.55
X6.625Y-2.65
X6.625Y-2.75
X6.678Y-3.878
X6.6804Y-5.8713
X6.7Y-3.1
X6.7Y-3.2
X6.7Y-3.3
X6.7Y-3.4
X6.7Y-3.5
X6.7Y-3.6
X6.7Y-3.7
X6.725Y-2.45
X6.725Y-2.55
X6.725Y-2.65
X6.725Y-2.75
X6.778Y-3.878
X6.7804Y-5.8713
X6.8Y-3.1
X6.8Y-3.2
X6.8Y-3.3
X6.8Y-3.4
X6.8Y-3.5
X6.8Y-3.6
X6.8Y-3.7
X6.825Y-2.45
X6.825Y-2.55
X6.825Y-2.65
X6.825Y-2.75
X6.878Y-3.878
X6.8804Y-5.8713
X6.9Y-3.1
X6.9Y-3.2
X6.9Y-3.3
X6.9Y-3.4
X6.9Y-3.5
X6.9Y-3.6
X6.9Y-3.7
X6.925Y-2.45
X6.925Y-2.55
X6.925Y-2.65
X6.925Y-2.75
X6.9804Y-5.8713
X7.0Y-3.1
X7.0Y-3.2
X7.0Y-3.3
X7.0Y-3.4
X7.0Y-3.5
X7.0Y-3.6
X7.0Y-3.7
X7.025Y-2.45
X7.025Y-2.55
X7.025Y-2.65
X7.025Y-2.75
X7.1Y-3.1
X7.1Y-3.2
X7.1Y-3.3
X7.1Y-3.4
X7.1Y-3.5
X7.1Y-3.6
X7.1Y-3.7
X7.11Y-3.877
X7.125Y-2.45
X7.125Y-2.55
X7.125Y-2.65
X7.125Y-2.75
X7.1441Y-5.8661
X7.2Y-3.1
X7.2Y-3.2
X7.2Y-3.3
X7.2Y-3.4
X7.2Y-3.5
X7.2Y-3.6
X7.2Y-3.7
X7.21Y-3.877
X7.2441Y-5.8661
X7.3Y-3.1
X7.3Y-3.2
X7.3Y-3.3
X7.3Y-3.4
X7.3Y-3.5
X7.3Y-3.6
X7.3Y-3.7
X7.31Y-3.877
X7.3441Y-5.8661
X7.4Y-3.1
X7.4Y-3.2
X7.4Y-3.3
X7.4Y-3.4
X7.4Y-3.5
X7.4Y-3.6
X7.4Y-3.7
X7.41Y-3.877
X7.4441Y-5.8661
X7.51Y-3.877
X7.5441Y-5.8661
X7.545Y-3.05
X7.545Y-3.15
X7.545Y-3.25
X7.545Y-3.35
X7.545Y-3.45
X7.545Y-3.55
X7.545Y-3.65
X7.545Y-3.75
X7.61Y-3.877
X7.6441Y-5.8661
X7.7002Y-3.5
X7.7943Y-4.3238
X7.7943Y-4.4238
X7.7943Y-4.5238
X7.7943Y-4.6238
X7.7943Y-4.7238
X7.7943Y-4.8238
X7.7943Y-4.9238
X7.7943Y-5.0238
X7.7943Y-5.1238
X7.7943Y-5.2238
X7.7943Y-5.3238
X7.7943Y-5.4238
X7.7943Y-5.5238
X7.7943Y-5.6238
X7.7943Y-5.7238
X7.7953Y-3.876
X7.7953Y-3.976
X7.7953Y-4.076
X7.7953Y-4.176
X7.8002Y-3.5
T6
X4.212Y-5.15
X4.212Y-5.35
X4.924Y-5.796
X5.1209Y-5.796
T7
X4.0919Y-5.715
X4.0919Y-5.841
X4.714Y-5.715
X4.714Y-5.841
T8
X5.048Y-4.988
X5.048Y-5.3786
X5.1819Y-4.988
X5.1819Y-5.3786
T9
X4.2179Y-5.778
X4.403Y-5.778
X4.588Y-5.778
T10
X4.2277Y-2.7054
X4.419Y-2.4694
X4.589Y-2.7054
X5.09Y-2.42
X5.09Y-2.7813
X5.4452Y-2.5021
X5.74Y-2.43
X5.74Y-2.7913
T11
X4.15Y-3.125
X7.85Y-3.125
X7.85Y-5.875
T4
G00X5.4919Y-5.7752
M15
G01X5.4919Y-5.7319
M16
G05
G00X5.4919Y-5.9335
M15
G01X5.4919Y-5.902
M16
G05
G00X5.8321Y-5.7752
M15
G01X5.8321Y-5.7319
M16
G05
G00X5.8321Y-5.9335
M15
G01X5.8321Y-5.902
M16
G05
T0
M30
